<?xml version="1.0" encoding="utf-8" standalone="no"?>
<!DOCTYPE svg PUBLIC "-//W3C//DTD SVG 1.1//EN"
  "http://www.w3.org/Graphics/SVG/1.1/DTD/svg11.dtd">
<svg xmlns:xlink="http://www.w3.org/1999/xlink" width="679.68pt" height="413.386125pt" viewBox="0 0 679.68 413.386125" xmlns="http://www.w3.org/2000/svg" version="1.1">
 <metadata>
  <rdf:RDF xmlns:dc="http://purl.org/dc/elements/1.1/" xmlns:cc="http://creativecommons.org/ns#" xmlns:rdf="http://www.w3.org/1999/02/22-rdf-syntax-ns#">
   <cc:Work>
    <dc:type rdf:resource="http://purl.org/dc/dcmitype/StillImage"/>
    <dc:date>2026-04-26T11:35:24.671206</dc:date>
    <dc:format>image/svg+xml</dc:format>
    <dc:creator>
     <cc:Agent>
      <dc:title>Matplotlib v3.10.9, https://matplotlib.org/</dc:title>
     </cc:Agent>
    </dc:creator>
   </cc:Work>
  </rdf:RDF>
 </metadata>
 <defs>
  <style type="text/css">*{stroke-linejoin: round; stroke-linecap: butt}</style>
 </defs>
 <g id="figure_1">
  <g id="patch_1">
   <path d="M 0 413.386125
L 679.68 413.386125
L 679.68 0
L 0 0
z
" style="fill: #fffdf8"/>
  </g>
  <g id="axes_1">
   <g id="patch_2">
    <path d="M 58.68 313.009125
L 672.48 313.009125
L 672.48 27.313125
L 58.68 27.313125
z
" style="fill: #ffffff"/>
   </g>
   <g id="patch_3">
    <path d="M 86.58 313.009125
L 129.139322 313.009125
L 129.139322 161.84722
L 86.58 161.84722
z
" clip-path="url(#p7a1e260412)" style="fill: #2166ac"/>
   </g>
   <g id="patch_4">
    <path d="M 204.800339 313.009125
L 247.359661 313.009125
L 247.359661 227.085516
L 204.800339 227.085516
z
" clip-path="url(#p7a1e260412)" style="fill: #2166ac"/>
   </g>
   <g id="patch_5">
    <path d="M 323.020678 313.009125
L 365.58 313.009125
L 365.58 169.80311
L 323.020678 169.80311
z
" clip-path="url(#p7a1e260412)" style="fill: #2166ac"/>
   </g>
   <g id="patch_6">
    <path d="M 441.241017 313.009125
L 483.800339 313.009125
L 483.800339 216.976856
L 441.241017 216.976856
z
" clip-path="url(#p7a1e260412)" style="fill: #2166ac"/>
   </g>
   <g id="patch_7">
    <path d="M 559.461356 313.009125
L 602.020678 313.009125
L 602.020678 95.335982
L 559.461356 95.335982
z
" clip-path="url(#p7a1e260412)" style="fill: #2166ac"/>
   </g>
   <g id="patch_8">
    <path d="M 129.139322 313.009125
L 171.698644 313.009125
L 171.698644 68.126839
L 129.139322 68.126839
z
" clip-path="url(#p7a1e260412)" style="fill: #f4a261"/>
   </g>
   <g id="patch_9">
    <path d="M 247.359661 313.009125
L 289.918983 313.009125
L 289.918983 54.522268
L 247.359661 54.522268
z
" clip-path="url(#p7a1e260412)" style="fill: #f4a261"/>
   </g>
   <g id="patch_10">
    <path d="M 365.58 313.009125
L 408.139322 313.009125
L 408.139322 54.522268
L 365.58 54.522268
z
" clip-path="url(#p7a1e260412)" style="fill: #f4a261"/>
   </g>
   <g id="patch_11">
    <path d="M 483.800339 313.009125
L 526.359661 313.009125
L 526.359661 81.731411
L 483.800339 81.731411
z
" clip-path="url(#p7a1e260412)" style="fill: #f4a261"/>
   </g>
   <g id="patch_12">
    <path d="M 602.020678 313.009125
L 644.58 313.009125
L 644.58 40.917696
L 602.020678 40.917696
z
" clip-path="url(#p7a1e260412)" style="fill: #f4a261"/>
   </g>
   <g id="matplotlib.axis_1">
    <g id="xtick_1">
     <g id="line2d_1">
      <defs>
       <path id="mecac1626fc" d="M 0 0
L 0 3.5
" style="stroke: #000000; stroke-width: 0.8"/>
      </defs>
      <g>
       <use xlink:href="#mecac1626fc" x="129.139322" y="313.009125" style="stroke: #000000; stroke-width: 0.8"/>
      </g>
     </g>
     <g id="text_1">
      <!-- busan_buk_gap n=20 · -->
      <g transform="translate(45.224493 352.182358) rotate(-18) scale(0.08 -0.08)">
       <defs>
        <path id="AppleGothic-62" d="M 288 5018
L 755 5018
L 755 2848
Q 845 2982 931 3078
Q 1018 3174 1107 3245
Q 1440 3501 1882 3501
Q 2547 3501 2976 2995
Q 3418 2483 3418 1754
Q 3418 1005 2976 480
Q 2502 -83 1792 -83
Q 1402 -83 1114 90
Q 928 192 755 384
L 634 0
L 288 0
L 288 5018
z
M 755 1862
L 755 870
Q 845 762 934 678
Q 1024 595 1101 538
Q 1382 339 1741 339
Q 2234 339 2554 742
Q 2874 1158 2874 1747
Q 2874 2362 2515 2752
Q 2208 3085 1805 3085
Q 1370 3085 1056 2714
Q 755 2355 755 1862
z
" transform="scale(0.015625)"/>
        <path id="AppleGothic-75" d="M 262 3424
L 730 3424
L 730 1242
Q 730 877 941 627
Q 1171 339 1594 339
Q 2080 339 2426 730
Q 2784 1139 2784 1632
L 2784 3424
L 3245 3424
L 3245 0
L 2842 0
L 2810 582
Q 2707 442 2592 330
Q 2477 218 2342 134
Q 1984 -83 1555 -83
Q 966 -83 614 282
Q 262 653 262 1184
L 262 3424
z
" transform="scale(0.015625)"/>
        <path id="AppleGothic-73" d="M 224 294
L 224 851
Q 621 531 1030 403
Q 1152 371 1267 355
Q 1382 339 1504 339
Q 1894 339 2150 518
Q 2413 710 2413 947
Q 2413 1075 2317 1210
Q 2182 1376 1600 1510
Q 909 1683 678 1798
Q 230 2054 230 2515
Q 230 2944 602 3219
Q 979 3501 1542 3501
Q 1798 3501 2003 3456
Q 2208 3411 2387 3337
Q 2566 3264 2720 3155
L 2720 2598
Q 2451 2822 2156 2953
Q 1862 3085 1536 3085
Q 1210 3085 973 2938
Q 730 2790 730 2554
Q 730 2240 1306 2054
Q 1574 1978 1836 1901
Q 2099 1824 2368 1747
Q 2950 1498 2950 992
Q 2950 563 2547 237
Q 2138 -83 1530 -83
Q 1261 -83 1005 -26
Q 595 64 224 294
z
" transform="scale(0.015625)"/>
        <path id="AppleGothic-61" d="M 2950 2214
L 2950 602
Q 2950 493 2998 413
Q 3046 333 3174 333
Q 3213 333 3238 336
Q 3264 339 3290 346
Q 3328 358 3357 371
Q 3386 384 3405 390
L 3405 32
Q 3290 -6 3174 -22
Q 3059 -38 2995 -38
Q 2669 -38 2566 134
Q 2483 243 2483 602
Q 2400 461 2317 355
Q 2234 250 2150 179
Q 1818 -83 1376 -83
Q 909 -83 563 192
Q 205 486 205 941
Q 205 1510 781 1779
Q 992 1882 1341 1958
Q 1690 2035 2176 2099
L 2483 2131
Q 2483 2579 2256 2832
Q 2029 3085 1587 3085
Q 1421 3085 1257 3043
Q 1094 3002 928 2912
Q 838 2861 729 2790
Q 621 2720 493 2611
L 493 3136
Q 1037 3501 1664 3501
Q 2304 3501 2650 3098
Q 2950 2746 2950 2214
z
M 2483 1542
L 2483 1747
L 2266 1722
Q 1466 1638 1139 1498
Q 704 1325 704 934
Q 704 819 755 713
Q 806 608 896 525
Q 986 442 1117 390
Q 1248 339 1408 339
Q 1843 339 2170 691
Q 2483 1050 2483 1542
z
" transform="scale(0.015625)"/>
        <path id="AppleGothic-6e" d="M 3264 2291
L 3264 0
L 2803 0
L 2803 2259
Q 2803 2618 2541 2848
Q 2278 3085 1914 3085
Q 1427 3085 1075 2682
Q 723 2272 723 1760
L 723 0
L 288 0
L 288 3424
L 691 3424
L 710 2784
Q 883 3046 1114 3219
Q 1491 3501 1965 3501
Q 2515 3501 2886 3168
Q 3264 2842 3264 2291
z
" transform="scale(0.015625)"/>
        <path id="AppleGothic-5f" d="M 0 -659
L 3200 -659
L 3200 -832
L 0 -832
L 0 -659
z
" transform="scale(0.015625)"/>
        <path id="AppleGothic-6b" d="M 288 5018
L 755 5018
L 755 1914
L 2330 3424
L 2982 3424
L 1542 2093
L 3187 0
L 2554 0
L 1197 1786
L 755 1376
L 755 0
L 288 0
L 288 5018
z
" transform="scale(0.015625)"/>
        <path id="AppleGothic-67" d="M 2822 3040
L 2950 3424
L 3290 3424
L 3290 326
Q 3290 -474 2899 -890
Q 2509 -1306 1690 -1306
Q 1357 -1306 1059 -1187
Q 762 -1069 435 -819
L 435 -256
Q 640 -448 838 -579
Q 1037 -710 1229 -781
Q 1453 -864 1690 -864
Q 2195 -864 2477 -634
Q 2822 -352 2822 269
L 2822 691
Q 2579 288 2221 122
Q 1978 6 1683 6
Q 1050 6 621 512
Q 198 1030 198 1709
Q 198 2387 595 2906
Q 1056 3501 1773 3501
Q 2131 3501 2451 3328
Q 2547 3270 2640 3200
Q 2733 3130 2822 3040
z
M 2822 1658
L 2822 2598
Q 2714 2720 2602 2803
Q 2490 2886 2381 2950
Q 2253 3021 2118 3053
Q 1984 3085 1843 3085
Q 1363 3085 1050 2746
Q 698 2362 698 1734
Q 698 1165 992 794
Q 1280 429 1741 429
Q 2195 429 2509 781
Q 2822 1120 2822 1658
z
" transform="scale(0.015625)"/>
        <path id="AppleGothic-70" d="M 736 307
L 736 -1101
L 288 -1101
L 288 3424
L 704 3424
L 730 2803
Q 941 3149 1216 3325
Q 1491 3501 1882 3501
Q 2522 3501 2944 3002
Q 3162 2752 3270 2441
Q 3379 2131 3379 1747
Q 3379 954 2899 435
Q 2419 -83 1754 -83
Q 1421 -83 1139 58
Q 1056 90 960 154
Q 864 218 736 307
z
M 736 1824
L 736 800
Q 838 704 924 637
Q 1011 570 1082 525
Q 1395 339 1715 339
Q 2227 339 2554 742
Q 2886 1165 2886 1766
Q 2886 2330 2579 2707
Q 2278 3085 1811 3085
Q 1331 3085 1018 2669
Q 736 2291 736 1824
z
" transform="scale(0.015625)"/>
        <path id="AppleGothic-20" transform="scale(0.015625)"/>
        <path id="AppleGothic-3d" d="M 467 3437
L 4358 3437
L 4358 3027
L 467 3027
L 467 3437
z
M 467 1734
L 4358 1734
L 4358 1344
L 467 1344
L 467 1734
z
" transform="scale(0.015625)"/>
        <path id="AppleGothic-32" d="M 1101 429
L 3942 429
L 3942 0
L 653 0
L 653 205
Q 653 1018 1344 1664
Q 1670 1894 1990 2124
Q 2310 2355 2637 2592
Q 3334 3098 3334 3597
Q 3334 3994 3014 4218
Q 2867 4326 2694 4377
Q 2522 4429 2317 4429
Q 2016 4429 1741 4352
Q 1325 4224 883 3910
L 883 4435
Q 1325 4659 1667 4758
Q 2010 4858 2317 4858
Q 2963 4858 3405 4525
Q 3840 4198 3840 3622
Q 3840 2995 3168 2438
Q 2848 2214 2531 2000
Q 2214 1786 1894 1562
Q 1178 1024 1101 429
z
" transform="scale(0.015625)"/>
        <path id="AppleGothic-30" d="M 2227 -83
Q 1414 -83 934 576
Q 461 1229 461 2387
Q 461 3552 973 4218
Q 1453 4858 2221 4858
Q 3027 4858 3482 4173
Q 3955 3494 3955 2394
Q 3955 1248 3462 582
Q 2976 -83 2227 -83
z
M 2176 346
Q 2861 346 3200 992
Q 3462 1536 3462 2400
Q 3462 3315 3162 3859
Q 2822 4429 2214 4429
Q 1574 4429 1248 3821
Q 960 3283 960 2374
Q 960 1478 1248 941
Q 1574 346 2176 346
z
" transform="scale(0.015625)"/>
        <path id="AppleGothic-b7" d="M 1005 2010
L 378 2010
L 378 2675
L 1005 2675
L 1005 2010
z
" transform="scale(0.015625)"/>
       </defs>
       <use xlink:href="#AppleGothic-62"/>
       <use xlink:href="#AppleGothic-75" transform="translate(56.199997 0)"/>
       <use xlink:href="#AppleGothic-73" transform="translate(111.699982 0)"/>
       <use xlink:href="#AppleGothic-61" transform="translate(161.299973 0)"/>
       <use xlink:href="#AppleGothic-6e" transform="translate(217.799957 0)"/>
       <use xlink:href="#AppleGothic-5f" transform="translate(273.699951 0)"/>
       <use xlink:href="#AppleGothic-62" transform="translate(323.699936 0)"/>
       <use xlink:href="#AppleGothic-75" transform="translate(379.899933 0)"/>
       <use xlink:href="#AppleGothic-6b" transform="translate(435.399918 0)"/>
       <use xlink:href="#AppleGothic-5f" transform="translate(486.799911 0)"/>
       <use xlink:href="#AppleGothic-67" transform="translate(536.799896 0)"/>
       <use xlink:href="#AppleGothic-61" transform="translate(592.999893 0)"/>
       <use xlink:href="#AppleGothic-70" transform="translate(649.499878 0)"/>
       <use xlink:href="#AppleGothic-20" transform="translate(704.899872 0)"/>
       <use xlink:href="#AppleGothic-6e" transform="translate(736.899857 0)"/>
       <use xlink:href="#AppleGothic-3d" transform="translate(792.79985 0)"/>
       <use xlink:href="#AppleGothic-32" transform="translate(869.599838 0)"/>
       <use xlink:href="#AppleGothic-30" transform="translate(937.599823 0)"/>
       <use xlink:href="#AppleGothic-20" transform="translate(1005.599808 0)"/>
       <use xlink:href="#AppleGothic-b7" transform="translate(1037.599792 0)"/>
      </g>
      <!-- winner=c_busan_dpk -->
      <g transform="translate(55.32695 358.530739) rotate(-18) scale(0.08 -0.08)">
       <defs>
        <path id="AppleGothic-77" d="M 2438 3424
L 2874 3424
L 3405 1811
Q 3501 1498 3600 1162
Q 3699 826 3770 538
Q 3789 602 3805 646
Q 3821 691 3834 736
Q 3904 979 3977 1228
Q 4051 1478 4122 1747
L 4646 3424
L 5126 3424
L 3981 0
L 3552 0
L 2944 1894
Q 2842 2202 2781 2378
Q 2720 2554 2707 2618
Q 2682 2726 2669 2803
Q 2656 2880 2656 2944
Q 2598 2771 2556 2636
Q 2515 2502 2490 2406
Q 2406 2118 2361 1945
Q 2317 1773 2304 1715
L 1760 0
L 1325 0
L 186 3424
L 685 3424
L 1594 538
Q 1626 723 1664 886
Q 1702 1050 1747 1203
Q 1779 1312 1811 1427
Q 1843 1542 1888 1664
L 2438 3424
z
" transform="scale(0.015625)"/>
        <path id="AppleGothic-69" d="M 256 3424
L 717 3424
L 717 0
L 256 0
L 256 3424
z
M 480 4870
Q 614 4870 704 4780
Q 794 4691 794 4525
Q 794 4358 710 4268
Q 627 4179 480 4179
Q 333 4179 253 4281
Q 173 4384 173 4518
Q 173 4730 269 4800
Q 365 4870 480 4870
z
" transform="scale(0.015625)"/>
        <path id="AppleGothic-65" d="M 3296 1850
L 691 1850
Q 691 1114 1033 726
Q 1376 339 1933 339
Q 2355 339 2746 608
Q 2854 678 2976 784
Q 3098 890 3238 1030
L 3238 474
Q 3085 358 2953 272
Q 2822 186 2707 128
Q 2304 -83 1901 -83
Q 1203 -83 717 397
Q 192 902 192 1709
Q 192 2470 666 2982
Q 1146 3501 1850 3501
Q 2534 3501 2938 3002
Q 3296 2547 3296 1850
z
M 755 2240
L 2758 2240
Q 2682 2675 2429 2889
Q 2176 3104 1818 3104
Q 1421 3104 1146 2854
Q 890 2624 755 2240
z
" transform="scale(0.015625)"/>
        <path id="AppleGothic-72" d="M 2125 3424
L 2125 2963
Q 2054 2989 2009 3005
Q 1965 3021 1933 3027
Q 1901 3034 1865 3037
Q 1830 3040 1773 3040
Q 1306 3040 1005 2586
Q 749 2170 749 1658
L 749 0
L 288 0
L 288 3424
L 710 3424
L 742 2835
Q 902 3104 1043 3219
Q 1331 3456 1734 3456
Q 1843 3456 1936 3449
Q 2029 3443 2125 3424
z
" transform="scale(0.015625)"/>
        <path id="AppleGothic-63" d="M 3085 3123
L 3085 2522
Q 2726 2861 2349 3008
Q 2240 3053 2125 3069
Q 2010 3085 1894 3085
Q 1363 3085 1024 2688
Q 685 2278 685 1715
Q 685 1139 1037 730
Q 1389 339 1920 339
Q 2253 339 2528 483
Q 2803 627 3085 915
L 3085 307
Q 2746 96 2470 6
Q 2195 -83 1914 -83
Q 1197 -83 685 429
Q 186 960 186 1709
Q 186 2445 678 2976
Q 1178 3501 1920 3501
Q 2298 3501 2624 3373
Q 2816 3302 3085 3123
z
" transform="scale(0.015625)"/>
        <path id="AppleGothic-64" d="M 2682 5018
L 3174 5018
L 3174 0
L 2733 0
L 2688 557
Q 2598 429 2508 329
Q 2419 230 2330 160
Q 2010 -83 1587 -83
Q 928 -83 493 429
Q 64 941 64 1670
Q 64 2426 518 2957
Q 979 3501 1670 3501
Q 1958 3501 2208 3398
Q 2298 3360 2416 3296
Q 2534 3232 2682 3142
L 2682 5018
z
M 2682 1658
L 2682 2643
Q 2381 2906 2157 2995
Q 1933 3085 1722 3085
Q 1197 3085 870 2643
Q 563 2227 563 1677
Q 563 1088 902 698
Q 1216 339 1645 339
Q 2067 339 2374 710
Q 2682 1082 2682 1658
z
" transform="scale(0.015625)"/>
       </defs>
       <use xlink:href="#AppleGothic-77"/>
       <use xlink:href="#AppleGothic-69" transform="translate(83.499985 0)"/>
       <use xlink:href="#AppleGothic-6e" transform="translate(99.399979 0)"/>
       <use xlink:href="#AppleGothic-6e" transform="translate(155.299973 0)"/>
       <use xlink:href="#AppleGothic-65" transform="translate(211.199966 0)"/>
       <use xlink:href="#AppleGothic-72" transform="translate(266.09996 0)"/>
       <use xlink:href="#AppleGothic-3d" transform="translate(301.299957 0)"/>
       <use xlink:href="#AppleGothic-63" transform="translate(378.099945 0)"/>
       <use xlink:href="#AppleGothic-5f" transform="translate(429.999939 0)"/>
       <use xlink:href="#AppleGothic-62" transform="translate(479.999924 0)"/>
       <use xlink:href="#AppleGothic-75" transform="translate(536.199921 0)"/>
       <use xlink:href="#AppleGothic-73" transform="translate(591.699905 0)"/>
       <use xlink:href="#AppleGothic-61" transform="translate(641.299896 0)"/>
       <use xlink:href="#AppleGothic-6e" transform="translate(697.799881 0)"/>
       <use xlink:href="#AppleGothic-5f" transform="translate(753.699875 0)"/>
       <use xlink:href="#AppleGothic-64" transform="translate(803.69986 0)"/>
       <use xlink:href="#AppleGothic-70" transform="translate(857.699844 0)"/>
       <use xlink:href="#AppleGothic-6b" transform="translate(913.099838 0)"/>
      </g>
     </g>
    </g>
    <g id="xtick_2">
     <g id="line2d_2">
      <g>
       <use xlink:href="#mecac1626fc" x="247.359661" y="313.009125" style="stroke: #000000; stroke-width: 0.8"/>
      </g>
     </g>
     <g id="text_2">
      <!-- daegu_dalseo_gap n=20 -->
      <g transform="translate(157.677863 354.05616) rotate(-18) scale(0.08 -0.08)">
       <defs>
        <path id="AppleGothic-6c" d="M 288 5018
L 749 5018
L 749 0
L 288 0
L 288 5018
z
" transform="scale(0.015625)"/>
        <path id="AppleGothic-6f" d="M 1888 -83
Q 1229 -83 730 397
Q 198 902 198 1709
Q 198 2470 666 2982
Q 1146 3501 1850 3501
Q 2547 3501 3027 2982
Q 3501 2470 3501 1715
Q 3501 922 2989 403
Q 2515 -83 1888 -83
z
M 1843 339
Q 2304 339 2662 723
Q 3008 1114 3008 1715
Q 3008 2336 2637 2726
Q 2298 3085 1850 3085
Q 1389 3085 1062 2714
Q 704 2304 704 1709
Q 704 1107 1056 704
Q 1382 339 1843 339
z
" transform="scale(0.015625)"/>
       </defs>
       <use xlink:href="#AppleGothic-64"/>
       <use xlink:href="#AppleGothic-61" transform="translate(53.999985 0)"/>
       <use xlink:href="#AppleGothic-65" transform="translate(110.499969 0)"/>
       <use xlink:href="#AppleGothic-67" transform="translate(165.399963 0)"/>
       <use xlink:href="#AppleGothic-75" transform="translate(221.59996 0)"/>
       <use xlink:href="#AppleGothic-5f" transform="translate(277.099945 0)"/>
       <use xlink:href="#AppleGothic-64" transform="translate(327.09993 0)"/>
       <use xlink:href="#AppleGothic-61" transform="translate(381.099915 0)"/>
       <use xlink:href="#AppleGothic-6c" transform="translate(437.599899 0)"/>
       <use xlink:href="#AppleGothic-73" transform="translate(454.299896 0)"/>
       <use xlink:href="#AppleGothic-65" transform="translate(503.899887 0)"/>
       <use xlink:href="#AppleGothic-6f" transform="translate(558.799881 0)"/>
       <use xlink:href="#AppleGothic-5f" transform="translate(617.099869 0)"/>
       <use xlink:href="#AppleGothic-67" transform="translate(667.099854 0)"/>
       <use xlink:href="#AppleGothic-61" transform="translate(723.29985 0)"/>
       <use xlink:href="#AppleGothic-70" transform="translate(779.799835 0)"/>
       <use xlink:href="#AppleGothic-20" transform="translate(835.199829 0)"/>
       <use xlink:href="#AppleGothic-6e" transform="translate(867.199814 0)"/>
       <use xlink:href="#AppleGothic-3d" transform="translate(923.099808 0)"/>
       <use xlink:href="#AppleGothic-32" transform="translate(999.899796 0)"/>
       <use xlink:href="#AppleGothic-30" transform="translate(1067.89978 0)"/>
      </g>
      <!-- · winner=c_dalseo_dpk -->
      <g transform="translate(168.160743 360.280934) rotate(-18) scale(0.08 -0.08)">
       <use xlink:href="#AppleGothic-b7"/>
       <use xlink:href="#AppleGothic-20" transform="translate(22.499985 0)"/>
       <use xlink:href="#AppleGothic-77" transform="translate(54.499969 0)"/>
       <use xlink:href="#AppleGothic-69" transform="translate(137.999954 0)"/>
       <use xlink:href="#AppleGothic-6e" transform="translate(153.899948 0)"/>
       <use xlink:href="#AppleGothic-6e" transform="translate(209.799942 0)"/>
       <use xlink:href="#AppleGothic-65" transform="translate(265.699936 0)"/>
       <use xlink:href="#AppleGothic-72" transform="translate(320.59993 0)"/>
       <use xlink:href="#AppleGothic-3d" transform="translate(355.799927 0)"/>
       <use xlink:href="#AppleGothic-63" transform="translate(432.599915 0)"/>
       <use xlink:href="#AppleGothic-5f" transform="translate(484.499908 0)"/>
       <use xlink:href="#AppleGothic-64" transform="translate(534.499893 0)"/>
       <use xlink:href="#AppleGothic-61" transform="translate(588.499878 0)"/>
       <use xlink:href="#AppleGothic-6c" transform="translate(644.999863 0)"/>
       <use xlink:href="#AppleGothic-73" transform="translate(661.69986 0)"/>
       <use xlink:href="#AppleGothic-65" transform="translate(711.29985 0)"/>
       <use xlink:href="#AppleGothic-6f" transform="translate(766.199844 0)"/>
       <use xlink:href="#AppleGothic-5f" transform="translate(824.499832 0)"/>
       <use xlink:href="#AppleGothic-64" transform="translate(874.499817 0)"/>
       <use xlink:href="#AppleGothic-70" transform="translate(928.499802 0)"/>
       <use xlink:href="#AppleGothic-6b" transform="translate(983.899796 0)"/>
      </g>
     </g>
    </g>
    <g id="xtick_3">
     <g id="line2d_3">
      <g>
       <use xlink:href="#mecac1626fc" x="365.58" y="313.009125" style="stroke: #000000; stroke-width: 0.8"/>
      </g>
     </g>
     <g id="text_3">
      <!-- daegu_mayor n=20 · win -->
      <g transform="translate(273.635153 354.76574) rotate(-18) scale(0.08 -0.08)">
       <defs>
        <path id="AppleGothic-6d" d="M 5389 2195
L 5389 0
L 4922 0
L 4922 2304
Q 4922 2669 4672 2893
Q 4461 3085 4173 3085
Q 3744 3085 3405 2688
Q 3072 2298 3072 1722
L 3072 0
L 2605 0
L 2605 2304
Q 2605 2650 2368 2861
Q 2144 3085 1856 3085
Q 1440 3085 1114 2714
Q 755 2304 755 1702
L 755 0
L 288 0
L 288 3424
L 723 3424
L 742 2880
Q 928 3181 1274 3354
Q 1581 3501 1894 3501
Q 2381 3501 2714 3219
Q 2957 3008 3021 2797
Q 3149 3034 3386 3226
Q 3757 3501 4205 3501
Q 4749 3501 5050 3174
Q 5389 2803 5389 2195
z
" transform="scale(0.015625)"/>
        <path id="AppleGothic-79" d="M 179 3424
L 691 3424
L 1869 531
L 2874 3424
L 3379 3424
L 1952 -397
Q 1798 -806 1555 -979
Q 1338 -1126 1037 -1126
Q 883 -1126 780 -1104
Q 678 -1082 582 -1043
L 582 -602
Q 672 -646 784 -678
Q 896 -710 986 -710
Q 1210 -710 1334 -595
Q 1459 -480 1555 -230
L 1632 32
L 179 3424
z
" transform="scale(0.015625)"/>
       </defs>
       <use xlink:href="#AppleGothic-64"/>
       <use xlink:href="#AppleGothic-61" transform="translate(53.999985 0)"/>
       <use xlink:href="#AppleGothic-65" transform="translate(110.499969 0)"/>
       <use xlink:href="#AppleGothic-67" transform="translate(165.399963 0)"/>
       <use xlink:href="#AppleGothic-75" transform="translate(221.59996 0)"/>
       <use xlink:href="#AppleGothic-5f" transform="translate(277.099945 0)"/>
       <use xlink:href="#AppleGothic-6d" transform="translate(327.09993 0)"/>
       <use xlink:href="#AppleGothic-61" transform="translate(416.399918 0)"/>
       <use xlink:href="#AppleGothic-79" transform="translate(472.899902 0)"/>
       <use xlink:href="#AppleGothic-6f" transform="translate(528.599899 0)"/>
       <use xlink:href="#AppleGothic-72" transform="translate(586.899887 0)"/>
       <use xlink:href="#AppleGothic-20" transform="translate(622.099884 0)"/>
       <use xlink:href="#AppleGothic-6e" transform="translate(654.099869 0)"/>
       <use xlink:href="#AppleGothic-3d" transform="translate(709.999863 0)"/>
       <use xlink:href="#AppleGothic-32" transform="translate(786.79985 0)"/>
       <use xlink:href="#AppleGothic-30" transform="translate(854.799835 0)"/>
       <use xlink:href="#AppleGothic-20" transform="translate(922.79982 0)"/>
       <use xlink:href="#AppleGothic-b7" transform="translate(954.799805 0)"/>
       <use xlink:href="#AppleGothic-20" transform="translate(977.299789 0)"/>
       <use xlink:href="#AppleGothic-77" transform="translate(1009.299774 0)"/>
       <use xlink:href="#AppleGothic-69" transform="translate(1092.799759 0)"/>
       <use xlink:href="#AppleGothic-6e" transform="translate(1108.699753 0)"/>
      </g>
      <!-- ner=c_daegu_ppp_choo -->
      <g transform="translate(282.238507 361.601209) rotate(-18) scale(0.08 -0.08)">
       <defs>
        <path id="AppleGothic-68" d="M 288 5018
L 749 5018
L 749 2810
Q 909 3066 1139 3238
Q 1491 3501 1926 3501
Q 2195 3501 2409 3424
Q 2624 3347 2803 3200
Q 3181 2867 3181 2266
L 3181 0
L 2714 0
L 2714 2202
Q 2714 2573 2477 2829
Q 2240 3085 1901 3085
Q 1408 3085 1082 2694
Q 749 2291 749 1773
L 749 0
L 288 0
L 288 5018
z
" transform="scale(0.015625)"/>
       </defs>
       <use xlink:href="#AppleGothic-6e"/>
       <use xlink:href="#AppleGothic-65" transform="translate(55.899994 0)"/>
       <use xlink:href="#AppleGothic-72" transform="translate(110.799988 0)"/>
       <use xlink:href="#AppleGothic-3d" transform="translate(145.999985 0)"/>
       <use xlink:href="#AppleGothic-63" transform="translate(222.799973 0)"/>
       <use xlink:href="#AppleGothic-5f" transform="translate(274.699966 0)"/>
       <use xlink:href="#AppleGothic-64" transform="translate(324.699951 0)"/>
       <use xlink:href="#AppleGothic-61" transform="translate(378.699936 0)"/>
       <use xlink:href="#AppleGothic-65" transform="translate(435.199921 0)"/>
       <use xlink:href="#AppleGothic-67" transform="translate(490.099915 0)"/>
       <use xlink:href="#AppleGothic-75" transform="translate(546.299911 0)"/>
       <use xlink:href="#AppleGothic-5f" transform="translate(601.799896 0)"/>
       <use xlink:href="#AppleGothic-70" transform="translate(651.799881 0)"/>
       <use xlink:href="#AppleGothic-70" transform="translate(707.199875 0)"/>
       <use xlink:href="#AppleGothic-70" transform="translate(762.599869 0)"/>
       <use xlink:href="#AppleGothic-5f" transform="translate(817.999863 0)"/>
       <use xlink:href="#AppleGothic-63" transform="translate(867.999847 0)"/>
       <use xlink:href="#AppleGothic-68" transform="translate(919.899841 0)"/>
       <use xlink:href="#AppleGothic-6f" transform="translate(972.099838 0)"/>
       <use xlink:href="#AppleGothic-6f" transform="translate(1030.399826 0)"/>
      </g>
     </g>
    </g>
    <g id="xtick_4">
     <g id="line2d_4">
      <g>
       <use xlink:href="#mecac1626fc" x="483.800339" y="313.009125" style="stroke: #000000; stroke-width: 0.8"/>
      </g>
     </g>
     <g id="text_4">
      <!-- gwangju_mayor n=20 · -->
      <g transform="translate(397.410851 352.784749) rotate(-18) scale(0.08 -0.08)">
       <defs>
        <path id="AppleGothic-6a" d="M 954 3424
L 1414 3424
L 1414 -256
Q 1414 -749 1133 -979
Q 896 -1184 525 -1184
Q 352 -1184 237 -1152
Q 122 -1120 6 -1062
L 6 -640
Q 122 -698 234 -733
Q 346 -768 454 -768
Q 698 -768 826 -624
Q 954 -480 954 -230
L 954 3424
z
M 1152 4870
Q 1286 4870 1376 4780
Q 1466 4691 1466 4525
Q 1466 4358 1382 4268
Q 1299 4179 1152 4179
Q 1005 4179 925 4281
Q 845 4384 845 4518
Q 845 4730 941 4800
Q 1037 4870 1152 4870
z
" transform="scale(0.015625)"/>
       </defs>
       <use xlink:href="#AppleGothic-67"/>
       <use xlink:href="#AppleGothic-77" transform="translate(56.199997 0)"/>
       <use xlink:href="#AppleGothic-61" transform="translate(139.699982 0)"/>
       <use xlink:href="#AppleGothic-6e" transform="translate(196.199966 0)"/>
       <use xlink:href="#AppleGothic-67" transform="translate(252.09996 0)"/>
       <use xlink:href="#AppleGothic-6a" transform="translate(308.299957 0)"/>
       <use xlink:href="#AppleGothic-75" transform="translate(335.899948 0)"/>
       <use xlink:href="#AppleGothic-5f" transform="translate(391.399933 0)"/>
       <use xlink:href="#AppleGothic-6d" transform="translate(441.399918 0)"/>
       <use xlink:href="#AppleGothic-61" transform="translate(530.699905 0)"/>
       <use xlink:href="#AppleGothic-79" transform="translate(587.19989 0)"/>
       <use xlink:href="#AppleGothic-6f" transform="translate(642.899887 0)"/>
       <use xlink:href="#AppleGothic-72" transform="translate(701.199875 0)"/>
       <use xlink:href="#AppleGothic-20" transform="translate(736.399872 0)"/>
       <use xlink:href="#AppleGothic-6e" transform="translate(768.399857 0)"/>
       <use xlink:href="#AppleGothic-3d" transform="translate(824.29985 0)"/>
       <use xlink:href="#AppleGothic-32" transform="translate(901.099838 0)"/>
       <use xlink:href="#AppleGothic-30" transform="translate(969.099823 0)"/>
       <use xlink:href="#AppleGothic-20" transform="translate(1037.099808 0)"/>
       <use xlink:href="#AppleGothic-b7" transform="translate(1069.099792 0)"/>
      </g>
      <!-- winner=c_gwangju_dpk -->
      <g transform="translate(400.953396 361.264575) rotate(-18) scale(0.08 -0.08)">
       <use xlink:href="#AppleGothic-77"/>
       <use xlink:href="#AppleGothic-69" transform="translate(83.499985 0)"/>
       <use xlink:href="#AppleGothic-6e" transform="translate(99.399979 0)"/>
       <use xlink:href="#AppleGothic-6e" transform="translate(155.299973 0)"/>
       <use xlink:href="#AppleGothic-65" transform="translate(211.199966 0)"/>
       <use xlink:href="#AppleGothic-72" transform="translate(266.09996 0)"/>
       <use xlink:href="#AppleGothic-3d" transform="translate(301.299957 0)"/>
       <use xlink:href="#AppleGothic-63" transform="translate(378.099945 0)"/>
       <use xlink:href="#AppleGothic-5f" transform="translate(429.999939 0)"/>
       <use xlink:href="#AppleGothic-67" transform="translate(479.999924 0)"/>
       <use xlink:href="#AppleGothic-77" transform="translate(536.199921 0)"/>
       <use xlink:href="#AppleGothic-61" transform="translate(619.699905 0)"/>
       <use xlink:href="#AppleGothic-6e" transform="translate(676.19989 0)"/>
       <use xlink:href="#AppleGothic-67" transform="translate(732.099884 0)"/>
       <use xlink:href="#AppleGothic-6a" transform="translate(788.299881 0)"/>
       <use xlink:href="#AppleGothic-75" transform="translate(815.899872 0)"/>
       <use xlink:href="#AppleGothic-5f" transform="translate(871.399857 0)"/>
       <use xlink:href="#AppleGothic-64" transform="translate(921.399841 0)"/>
       <use xlink:href="#AppleGothic-70" transform="translate(975.399826 0)"/>
       <use xlink:href="#AppleGothic-6b" transform="translate(1030.79982 0)"/>
      </g>
     </g>
    </g>
    <g id="xtick_5">
     <g id="line2d_5">
      <g>
       <use xlink:href="#mecac1626fc" x="602.020678" y="313.009125" style="stroke: #000000; stroke-width: 0.8"/>
      </g>
     </g>
     <g id="text_5">
      <!-- seoul_mayor n=5 · -->
      <g transform="translate(532.853746 347.413067) rotate(-18) scale(0.08 -0.08)">
       <defs>
        <path id="AppleGothic-35" d="M 621 4768
L 3488 4768
L 3488 4339
L 1088 4339
L 1088 2707
Q 1184 2771 1293 2819
Q 1402 2867 1510 2912
Q 1862 3040 2259 3040
Q 2989 3040 3424 2605
Q 3827 2202 3827 1581
Q 3827 870 3296 397
Q 2765 -83 2010 -83
Q 1651 -83 1248 45
Q 1158 77 1001 137
Q 845 198 621 301
L 621 838
Q 928 640 1203 525
Q 1408 435 1613 390
Q 1818 346 2010 346
Q 2528 346 2906 666
Q 3322 1011 3322 1536
Q 3322 1990 3021 2291
Q 2701 2611 2144 2611
Q 1856 2611 1587 2528
Q 1318 2445 1088 2272
L 621 2272
L 621 4768
z
" transform="scale(0.015625)"/>
       </defs>
       <use xlink:href="#AppleGothic-73"/>
       <use xlink:href="#AppleGothic-65" transform="translate(49.599991 0)"/>
       <use xlink:href="#AppleGothic-6f" transform="translate(104.499985 0)"/>
       <use xlink:href="#AppleGothic-75" transform="translate(162.799973 0)"/>
       <use xlink:href="#AppleGothic-6c" transform="translate(218.299957 0)"/>
       <use xlink:href="#AppleGothic-5f" transform="translate(234.999954 0)"/>
       <use xlink:href="#AppleGothic-6d" transform="translate(284.999939 0)"/>
       <use xlink:href="#AppleGothic-61" transform="translate(374.299927 0)"/>
       <use xlink:href="#AppleGothic-79" transform="translate(430.799911 0)"/>
       <use xlink:href="#AppleGothic-6f" transform="translate(486.499908 0)"/>
       <use xlink:href="#AppleGothic-72" transform="translate(544.799896 0)"/>
       <use xlink:href="#AppleGothic-20" transform="translate(579.999893 0)"/>
       <use xlink:href="#AppleGothic-6e" transform="translate(611.999878 0)"/>
       <use xlink:href="#AppleGothic-3d" transform="translate(667.899872 0)"/>
       <use xlink:href="#AppleGothic-35" transform="translate(744.69986 0)"/>
       <use xlink:href="#AppleGothic-20" transform="translate(812.699844 0)"/>
       <use xlink:href="#AppleGothic-b7" transform="translate(844.699829 0)"/>
      </g>
      <!-- winner=c_seoul_ppp -->
      <g transform="translate(530.741683 357.493608) rotate(-18) scale(0.08 -0.08)">
       <use xlink:href="#AppleGothic-77"/>
       <use xlink:href="#AppleGothic-69" transform="translate(83.499985 0)"/>
       <use xlink:href="#AppleGothic-6e" transform="translate(99.399979 0)"/>
       <use xlink:href="#AppleGothic-6e" transform="translate(155.299973 0)"/>
       <use xlink:href="#AppleGothic-65" transform="translate(211.199966 0)"/>
       <use xlink:href="#AppleGothic-72" transform="translate(266.09996 0)"/>
       <use xlink:href="#AppleGothic-3d" transform="translate(301.299957 0)"/>
       <use xlink:href="#AppleGothic-63" transform="translate(378.099945 0)"/>
       <use xlink:href="#AppleGothic-5f" transform="translate(429.999939 0)"/>
       <use xlink:href="#AppleGothic-73" transform="translate(479.999924 0)"/>
       <use xlink:href="#AppleGothic-65" transform="translate(529.599915 0)"/>
       <use xlink:href="#AppleGothic-6f" transform="translate(584.499908 0)"/>
       <use xlink:href="#AppleGothic-75" transform="translate(642.799896 0)"/>
       <use xlink:href="#AppleGothic-6c" transform="translate(698.299881 0)"/>
       <use xlink:href="#AppleGothic-5f" transform="translate(714.999878 0)"/>
       <use xlink:href="#AppleGothic-70" transform="translate(764.999863 0)"/>
       <use xlink:href="#AppleGothic-70" transform="translate(820.399857 0)"/>
       <use xlink:href="#AppleGothic-70" transform="translate(875.79985 0)"/>
      </g>
     </g>
    </g>
   </g>
   <g id="matplotlib.axis_2">
    <g id="ytick_1">
     <g id="line2d_6">
      <path d="M 58.68 313.009125
L 672.48 313.009125
" clip-path="url(#p7a1e260412)" style="fill: none; stroke: #eaecee; stroke-width: 0.8; stroke-linecap: square"/>
     </g>
     <g id="line2d_7">
      <defs>
       <path id="m873506aa2e" d="M 0 0
L -3.5 0
" style="stroke: #000000; stroke-width: 0.8"/>
      </defs>
      <g>
       <use xlink:href="#m873506aa2e" x="58.68" y="313.009125" style="stroke: #000000; stroke-width: 0.8"/>
      </g>
     </g>
     <g id="text_6">
      <!-- 0.0 -->
      <g transform="translate(34.63 316.929437) scale(0.1 -0.1)">
       <defs>
        <path id="AppleGothic-2e" d="M 915 -19
Q 762 -19 653 109
Q 544 237 544 422
Q 544 614 656 745
Q 768 877 915 877
Q 1056 877 1168 758
Q 1280 640 1280 435
Q 1280 243 1171 112
Q 1062 -19 915 -19
z
" transform="scale(0.015625)"/>
       </defs>
       <use xlink:href="#AppleGothic-30"/>
       <use xlink:href="#AppleGothic-2e" transform="translate(67.999985 0)"/>
       <use xlink:href="#AppleGothic-30" transform="translate(102.499969 0)"/>
      </g>
     </g>
    </g>
    <g id="ytick_2">
     <g id="line2d_8">
      <path d="M 58.68 258.590839
L 672.48 258.590839
" clip-path="url(#p7a1e260412)" style="fill: none; stroke: #eaecee; stroke-width: 0.8; stroke-linecap: square"/>
     </g>
     <g id="line2d_9">
      <g>
       <use xlink:href="#m873506aa2e" x="58.68" y="258.590839" style="stroke: #000000; stroke-width: 0.8"/>
      </g>
     </g>
     <g id="text_7">
      <!-- 0.2 -->
      <g transform="translate(34.63 262.511152) scale(0.1 -0.1)">
       <use xlink:href="#AppleGothic-30"/>
       <use xlink:href="#AppleGothic-2e" transform="translate(67.999985 0)"/>
       <use xlink:href="#AppleGothic-32" transform="translate(102.499969 0)"/>
      </g>
     </g>
    </g>
    <g id="ytick_3">
     <g id="line2d_10">
      <path d="M 58.68 204.172554
L 672.48 204.172554
" clip-path="url(#p7a1e260412)" style="fill: none; stroke: #eaecee; stroke-width: 0.8; stroke-linecap: square"/>
     </g>
     <g id="line2d_11">
      <g>
       <use xlink:href="#m873506aa2e" x="58.68" y="204.172554" style="stroke: #000000; stroke-width: 0.8"/>
      </g>
     </g>
     <g id="text_8">
      <!-- 0.4 -->
      <g transform="translate(34.63 208.092866) scale(0.1 -0.1)">
       <defs>
        <path id="AppleGothic-34" d="M 2662 4774
L 3130 4774
L 3130 1811
L 4000 1811
L 4000 1382
L 3130 1382
L 3130 0
L 2662 0
L 2662 1382
L 352 1382
L 352 1811
L 2662 4774
z
M 2662 1811
L 2662 4166
L 838 1811
L 2662 1811
z
" transform="scale(0.015625)"/>
       </defs>
       <use xlink:href="#AppleGothic-30"/>
       <use xlink:href="#AppleGothic-2e" transform="translate(67.999985 0)"/>
       <use xlink:href="#AppleGothic-34" transform="translate(102.499969 0)"/>
      </g>
     </g>
    </g>
    <g id="ytick_4">
     <g id="line2d_12">
      <path d="M 58.68 149.754268
L 672.48 149.754268
" clip-path="url(#p7a1e260412)" style="fill: none; stroke: #eaecee; stroke-width: 0.8; stroke-linecap: square"/>
     </g>
     <g id="line2d_13">
      <g>
       <use xlink:href="#m873506aa2e" x="58.68" y="149.754268" style="stroke: #000000; stroke-width: 0.8"/>
      </g>
     </g>
     <g id="text_9">
      <!-- 0.6 -->
      <g transform="translate(34.63 153.67458) scale(0.1 -0.1)">
       <defs>
        <path id="AppleGothic-36" d="M 3699 4557
L 3699 4013
Q 3584 4102 3475 4163
Q 3366 4224 3258 4275
Q 3085 4358 2918 4393
Q 2752 4429 2586 4429
Q 2470 4429 2352 4409
Q 2234 4390 2118 4339
Q 1670 4154 1395 3738
Q 1011 3149 1011 2189
Q 1312 2490 1568 2656
Q 2022 2931 2534 2931
Q 3162 2931 3584 2566
Q 4038 2163 4038 1491
Q 4038 806 3558 358
Q 3078 -83 2394 -83
Q 1670 -83 1146 454
Q 518 1088 518 2253
Q 518 3411 1120 4134
Q 1715 4858 2605 4858
Q 2938 4858 3226 4762
Q 3309 4730 3427 4682
Q 3546 4634 3699 4557
z
M 1062 1702
Q 1152 1152 1498 768
Q 1882 346 2419 346
Q 2899 346 3213 659
Q 3539 973 3539 1459
Q 3539 1920 3226 2214
Q 2918 2502 2496 2502
Q 1990 2502 1542 2176
Q 1414 2080 1292 1965
Q 1171 1850 1062 1702
z
" transform="scale(0.015625)"/>
       </defs>
       <use xlink:href="#AppleGothic-30"/>
       <use xlink:href="#AppleGothic-2e" transform="translate(67.999985 0)"/>
       <use xlink:href="#AppleGothic-36" transform="translate(102.499969 0)"/>
      </g>
     </g>
    </g>
    <g id="ytick_5">
     <g id="line2d_14">
      <path d="M 58.68 95.335982
L 672.48 95.335982
" clip-path="url(#p7a1e260412)" style="fill: none; stroke: #eaecee; stroke-width: 0.8; stroke-linecap: square"/>
     </g>
     <g id="line2d_15">
      <g>
       <use xlink:href="#m873506aa2e" x="58.68" y="95.335982" style="stroke: #000000; stroke-width: 0.8"/>
      </g>
     </g>
     <g id="text_10">
      <!-- 0.8 -->
      <g transform="translate(34.63 99.256295) scale(0.1 -0.1)">
       <defs>
        <path id="AppleGothic-38" d="M 2957 2605
Q 3219 2528 3404 2445
Q 3590 2362 3706 2272
Q 4192 1926 4192 1370
Q 4192 749 3642 333
Q 3098 -83 2285 -83
Q 1434 -83 947 326
Q 512 691 512 1229
Q 512 1798 998 2125
Q 1146 2227 1341 2304
Q 1536 2381 1779 2451
Q 1574 2534 1430 2617
Q 1286 2701 1197 2784
Q 819 3104 819 3603
Q 819 4173 1261 4512
Q 1702 4858 2381 4858
Q 3014 4858 3437 4570
Q 3898 4262 3898 3738
Q 3898 3373 3670 3081
Q 3443 2790 2957 2605
z
M 2406 2752
Q 2624 2835 2781 2915
Q 2938 2995 3040 3066
Q 3398 3322 3398 3667
Q 3398 3994 3104 4205
Q 2822 4429 2362 4429
Q 1894 4429 1613 4205
Q 1325 3994 1325 3635
Q 1325 3322 1581 3098
Q 1696 3002 1901 2912
Q 2106 2822 2406 2752
z
M 2368 2304
Q 2061 2202 1840 2106
Q 1619 2010 1472 1920
Q 1011 1626 1011 1235
Q 1011 845 1376 595
Q 1728 346 2310 346
Q 2938 346 3315 640
Q 3693 934 3693 1338
Q 3693 1741 3238 1997
Q 3104 2067 2886 2147
Q 2669 2227 2368 2304
z
" transform="scale(0.015625)"/>
       </defs>
       <use xlink:href="#AppleGothic-30"/>
       <use xlink:href="#AppleGothic-2e" transform="translate(67.999985 0)"/>
       <use xlink:href="#AppleGothic-38" transform="translate(102.499969 0)"/>
      </g>
     </g>
    </g>
    <g id="ytick_6">
     <g id="line2d_16">
      <path d="M 58.68 40.917696
L 672.48 40.917696
" clip-path="url(#p7a1e260412)" style="fill: none; stroke: #eaecee; stroke-width: 0.8; stroke-linecap: square"/>
     </g>
     <g id="line2d_17">
      <g>
       <use xlink:href="#m873506aa2e" x="58.68" y="40.917696" style="stroke: #000000; stroke-width: 0.8"/>
      </g>
     </g>
     <g id="text_11">
      <!-- 1.0 -->
      <g transform="translate(34.63 44.838009) scale(0.1 -0.1)">
       <defs>
        <path id="AppleGothic-31" d="M 2342 4774
L 2752 4774
L 2752 0
L 2285 0
L 2285 3526
L 1158 3526
L 1158 3885
L 1414 3885
Q 1990 3885 2214 4205
Q 2342 4410 2342 4774
z
" transform="scale(0.015625)"/>
       </defs>
       <use xlink:href="#AppleGothic-31"/>
       <use xlink:href="#AppleGothic-2e" transform="translate(67.999985 0)"/>
       <use xlink:href="#AppleGothic-30" transform="translate(102.499969 0)"/>
      </g>
     </g>
    </g>
    <g id="text_12">
     <!-- share -->
     <g transform="translate(28.909688 182.581437) rotate(-90) scale(0.1 -0.1)">
      <use xlink:href="#AppleGothic-73"/>
      <use xlink:href="#AppleGothic-68" transform="translate(49.599991 0)"/>
      <use xlink:href="#AppleGothic-61" transform="translate(101.799988 0)"/>
      <use xlink:href="#AppleGothic-72" transform="translate(158.299973 0)"/>
      <use xlink:href="#AppleGothic-65" transform="translate(193.499969 0)"/>
     </g>
    </g>
   </g>
   <g id="patch_13">
    <path d="M 58.68 313.009125
L 58.68 27.313125
" style="fill: none; stroke: #000000; stroke-width: 0.8; stroke-linejoin: miter; stroke-linecap: square"/>
   </g>
   <g id="patch_14">
    <path d="M 672.48 313.009125
L 672.48 27.313125
" style="fill: none; stroke: #000000; stroke-width: 0.8; stroke-linejoin: miter; stroke-linecap: square"/>
   </g>
   <g id="patch_15">
    <path d="M 58.68 313.009125
L 672.48 313.009125
" style="fill: none; stroke: #000000; stroke-width: 0.8; stroke-linejoin: miter; stroke-linecap: square"/>
   </g>
   <g id="patch_16">
    <path d="M 58.68 27.313125
L 672.48 27.313125
" style="fill: none; stroke: #000000; stroke-width: 0.8; stroke-linejoin: miter; stroke-linecap: square"/>
   </g>
   <g id="text_13">
    <!-- 55.6% -->
    <g style="fill: #17202a" transform="translate(94.319661 155.044935) scale(0.08 -0.08)">
     <defs>
      <path id="AppleGothic-25" d="M 4896 -45
Q 4320 -45 3949 339
Q 3590 717 3590 1274
Q 3590 1856 3962 2227
Q 4333 2598 4877 2598
Q 5402 2598 5779 2234
Q 6150 1869 6150 1286
Q 6150 691 5760 307
Q 5389 -45 4896 -45
z
M 4864 378
Q 5024 378 5168 442
Q 5312 506 5421 624
Q 5530 742 5594 905
Q 5658 1069 5658 1267
Q 5658 1658 5427 1920
Q 5190 2176 4883 2176
Q 4582 2176 4352 1958
Q 4090 1696 4090 1286
Q 4090 883 4320 634
Q 4550 378 4864 378
z
M 4557 5370
L 5030 5370
L 2016 -333
L 1549 -333
L 4045 4378
L 4026 4397
Q 3930 4333 3776 4278
Q 3622 4224 3456 4224
Q 3347 4224 3177 4259
Q 3008 4294 2835 4371
Q 2867 4301 2886 4240
Q 2906 4179 2918 4128
Q 2970 3936 2970 3750
Q 2970 3187 2598 2810
Q 2227 2438 1690 2438
Q 1146 2438 781 2810
Q 422 3187 422 3763
Q 422 4339 787 4717
Q 1158 5101 1690 5101
Q 1952 5101 2522 4870
Q 2803 4755 3024 4700
Q 3245 4646 3411 4646
Q 3802 4646 4077 4819
Q 4403 5018 4557 5370
z
M 1683 2854
Q 2003 2854 2240 3110
Q 2470 3366 2470 3770
Q 2470 3974 2406 4144
Q 2342 4314 2236 4432
Q 2131 4550 1990 4614
Q 1850 4678 1690 4678
Q 1530 4678 1392 4614
Q 1254 4550 1148 4432
Q 1043 4314 982 4144
Q 922 3974 922 3770
Q 922 3334 1171 3078
Q 1382 2854 1683 2854
z
" transform="scale(0.015625)"/>
     </defs>
     <use xlink:href="#AppleGothic-35"/>
     <use xlink:href="#AppleGothic-35" transform="translate(67.999985 0)"/>
     <use xlink:href="#AppleGothic-2e" transform="translate(135.999969 0)"/>
     <use xlink:href="#AppleGothic-36" transform="translate(170.499954 0)"/>
     <use xlink:href="#AppleGothic-25" transform="translate(238.499939 0)"/>
    </g>
   </g>
   <g id="text_14">
    <!-- 90.0% -->
    <g style="fill: #17202a" transform="translate(136.878983 61.324554) scale(0.08 -0.08)">
     <defs>
      <path id="AppleGothic-39" d="M 928 211
L 928 762
Q 1050 672 1155 601
Q 1261 531 1363 480
Q 1702 320 2016 320
Q 2291 320 2541 435
Q 2739 525 2908 675
Q 3078 826 3213 1037
Q 3456 1408 3552 1843
Q 3616 2144 3616 2573
Q 3315 2272 3066 2125
Q 2605 1850 2093 1850
Q 1459 1850 1037 2214
Q 589 2598 589 3270
Q 589 3987 1082 4416
Q 1549 4832 2234 4832
Q 2970 4832 3494 4301
Q 4122 3661 4122 2528
Q 4122 1325 3475 582
Q 2874 -109 2035 -109
Q 1722 -109 1357 19
Q 1254 51 1148 102
Q 1043 154 928 211
z
M 3578 3066
Q 3462 3718 3053 4077
Q 2675 4403 2227 4403
Q 1715 4403 1402 4083
Q 1082 3750 1082 3302
Q 1082 2861 1370 2566
Q 1658 2278 2125 2278
Q 2573 2278 2915 2473
Q 3258 2669 3578 3066
z
" transform="scale(0.015625)"/>
     </defs>
     <use xlink:href="#AppleGothic-39"/>
     <use xlink:href="#AppleGothic-30" transform="translate(67.999985 0)"/>
     <use xlink:href="#AppleGothic-2e" transform="translate(135.999969 0)"/>
     <use xlink:href="#AppleGothic-30" transform="translate(170.499954 0)"/>
     <use xlink:href="#AppleGothic-25" transform="translate(238.499939 0)"/>
    </g>
   </g>
   <g id="text_15">
    <!-- 31.6% -->
    <g style="fill: #17202a" transform="translate(212.54 220.28323) scale(0.08 -0.08)">
     <defs>
      <path id="AppleGothic-33" d="M 550 333
L 550 870
Q 883 621 1235 483
Q 1587 346 1971 346
Q 2522 346 2861 666
Q 3219 992 3219 1421
Q 3219 1869 2842 2099
Q 2515 2304 1965 2304
L 992 2304
L 992 2701
L 1658 2701
Q 2298 2701 2662 2928
Q 3027 3155 3027 3584
Q 3027 3936 2752 4173
Q 2458 4429 1978 4429
Q 1786 4429 1597 4393
Q 1408 4358 1222 4282
Q 890 4141 531 3872
L 531 4422
Q 736 4531 912 4608
Q 1088 4685 1254 4736
Q 1626 4858 2022 4858
Q 2650 4858 3066 4531
Q 3488 4211 3488 3642
Q 3488 3168 3168 2861
Q 2976 2675 2643 2554
Q 2874 2522 3053 2448
Q 3232 2374 3366 2266
Q 3718 1971 3718 1434
Q 3718 813 3219 365
Q 2714 -83 1965 -83
Q 1549 -83 1126 70
Q 1024 102 880 166
Q 736 230 550 333
z
" transform="scale(0.015625)"/>
     </defs>
     <use xlink:href="#AppleGothic-33"/>
     <use xlink:href="#AppleGothic-31" transform="translate(67.999985 0)"/>
     <use xlink:href="#AppleGothic-2e" transform="translate(135.999969 0)"/>
     <use xlink:href="#AppleGothic-36" transform="translate(170.499954 0)"/>
     <use xlink:href="#AppleGothic-25" transform="translate(238.499939 0)"/>
    </g>
   </g>
   <g id="text_16">
    <!-- 95.0% -->
    <g style="fill: #17202a" transform="translate(255.099322 47.719982) scale(0.08 -0.08)">
     <use xlink:href="#AppleGothic-39"/>
     <use xlink:href="#AppleGothic-35" transform="translate(67.999985 0)"/>
     <use xlink:href="#AppleGothic-2e" transform="translate(135.999969 0)"/>
     <use xlink:href="#AppleGothic-30" transform="translate(170.499954 0)"/>
     <use xlink:href="#AppleGothic-25" transform="translate(238.499939 0)"/>
    </g>
   </g>
   <g id="text_17">
    <!-- 52.6% -->
    <g style="fill: #17202a" transform="translate(330.760339 163.000824) scale(0.08 -0.08)">
     <use xlink:href="#AppleGothic-35"/>
     <use xlink:href="#AppleGothic-32" transform="translate(67.999985 0)"/>
     <use xlink:href="#AppleGothic-2e" transform="translate(135.999969 0)"/>
     <use xlink:href="#AppleGothic-36" transform="translate(170.499954 0)"/>
     <use xlink:href="#AppleGothic-25" transform="translate(238.499939 0)"/>
    </g>
   </g>
   <g id="text_18">
    <!-- 95.0% -->
    <g style="fill: #17202a" transform="translate(373.319661 47.719982) scale(0.08 -0.08)">
     <use xlink:href="#AppleGothic-39"/>
     <use xlink:href="#AppleGothic-35" transform="translate(67.999985 0)"/>
     <use xlink:href="#AppleGothic-2e" transform="translate(135.999969 0)"/>
     <use xlink:href="#AppleGothic-30" transform="translate(170.499954 0)"/>
     <use xlink:href="#AppleGothic-25" transform="translate(238.499939 0)"/>
    </g>
   </g>
   <g id="text_19">
    <!-- 35.3% -->
    <g style="fill: #17202a" transform="translate(448.980678 210.17457) scale(0.08 -0.08)">
     <use xlink:href="#AppleGothic-33"/>
     <use xlink:href="#AppleGothic-35" transform="translate(67.999985 0)"/>
     <use xlink:href="#AppleGothic-2e" transform="translate(135.999969 0)"/>
     <use xlink:href="#AppleGothic-33" transform="translate(170.499954 0)"/>
     <use xlink:href="#AppleGothic-25" transform="translate(238.499939 0)"/>
    </g>
   </g>
   <g id="text_20">
    <!-- 85.0% -->
    <g style="fill: #17202a" transform="translate(491.54 74.929125) scale(0.08 -0.08)">
     <use xlink:href="#AppleGothic-38"/>
     <use xlink:href="#AppleGothic-35" transform="translate(67.999985 0)"/>
     <use xlink:href="#AppleGothic-2e" transform="translate(135.999969 0)"/>
     <use xlink:href="#AppleGothic-30" transform="translate(170.499954 0)"/>
     <use xlink:href="#AppleGothic-25" transform="translate(238.499939 0)"/>
    </g>
   </g>
   <g id="text_21">
    <!-- 80.0% -->
    <g style="fill: #17202a" transform="translate(567.201017 88.533696) scale(0.08 -0.08)">
     <use xlink:href="#AppleGothic-38"/>
     <use xlink:href="#AppleGothic-30" transform="translate(67.999985 0)"/>
     <use xlink:href="#AppleGothic-2e" transform="translate(135.999969 0)"/>
     <use xlink:href="#AppleGothic-30" transform="translate(170.499954 0)"/>
     <use xlink:href="#AppleGothic-25" transform="translate(238.499939 0)"/>
    </g>
   </g>
   <g id="text_22">
    <!-- 100.0% -->
    <g style="fill: #17202a" transform="translate(607.040339 34.115411) scale(0.08 -0.08)">
     <use xlink:href="#AppleGothic-31"/>
     <use xlink:href="#AppleGothic-30" transform="translate(67.999985 0)"/>
     <use xlink:href="#AppleGothic-30" transform="translate(135.999969 0)"/>
     <use xlink:href="#AppleGothic-2e" transform="translate(203.999954 0)"/>
     <use xlink:href="#AppleGothic-30" transform="translate(238.499939 0)"/>
     <use xlink:href="#AppleGothic-25" transform="translate(306.499924 0)"/>
    </g>
   </g>
   <g id="text_23">
    <!-- Local Harness Result Artifacts -->
    <g transform="translate(58.68 21.313125) scale(0.18 -0.18)">
     <defs>
      <path id="AppleGothic-4c" d="M 333 5018
L 838 5018
L 838 442
L 3315 442
L 3315 0
L 333 0
L 333 5018
z
" transform="scale(0.015625)"/>
      <path id="AppleGothic-48" d="M 352 5018
L 851 5018
L 851 2829
L 3610 2829
L 3610 5018
L 4109 5018
L 4109 0
L 3610 0
L 3610 2406
L 851 2406
L 851 0
L 352 0
L 352 5018
z
" transform="scale(0.015625)"/>
      <path id="AppleGothic-52" d="M 314 5018
L 1971 5018
Q 2637 5018 3072 4800
Q 3680 4493 3680 3776
Q 3680 3283 3405 2969
Q 3130 2656 2522 2470
Q 2630 2426 2713 2384
Q 2797 2342 2848 2291
Q 3072 2099 3200 1728
L 3840 0
L 3270 0
L 2938 1050
Q 2675 1837 2387 2080
Q 2138 2310 1562 2310
L 819 2310
L 819 0
L 314 0
L 314 5018
z
M 2067 4576
L 819 4576
L 819 2707
L 1587 2707
Q 2048 2707 2365 2793
Q 2682 2880 2880 3072
Q 3014 3194 3100 3373
Q 3187 3552 3187 3738
Q 3187 4090 2899 4320
Q 2586 4576 2067 4576
z
" transform="scale(0.015625)"/>
      <path id="AppleGothic-74" d="M 691 4435
L 1114 4435
L 1114 3430
L 2016 3430
L 2016 3014
L 1114 3014
L 1114 838
Q 1114 570 1213 454
Q 1312 339 1555 339
Q 1696 339 1795 371
Q 1894 403 2016 454
L 2016 38
Q 1914 6 1770 -22
Q 1626 -51 1478 -51
Q 1094 -51 883 122
Q 646 301 646 698
L 646 3014
L 70 3014
L 70 3430
L 646 3430
L 691 4435
z
" transform="scale(0.015625)"/>
      <path id="AppleGothic-41" d="M 2086 5018
L 2579 5018
L 4448 0
L 3859 0
L 3258 1715
L 1350 1715
L 723 0
L 166 0
L 2086 5018
z
M 3117 2157
L 2342 4416
L 1504 2157
L 3117 2157
z
" transform="scale(0.015625)"/>
      <path id="AppleGothic-66" d="M 646 3430
L 646 4083
Q 646 4538 819 4774
Q 1037 5101 1555 5101
Q 1613 5101 1657 5097
Q 1702 5094 1750 5088
Q 1798 5082 1862 5062
Q 1926 5043 2016 5018
L 2016 4595
Q 1997 4621 1837 4653
Q 1766 4666 1712 4672
Q 1658 4678 1619 4678
Q 1350 4678 1228 4524
Q 1107 4371 1107 4083
L 1107 3430
L 2016 3430
L 2016 3014
L 1107 3014
L 1107 0
L 646 0
L 646 3014
L 64 3014
L 64 3430
L 646 3430
z
" transform="scale(0.015625)"/>
     </defs>
     <use xlink:href="#AppleGothic-4c"/>
     <use xlink:href="#AppleGothic-6f" transform="translate(55.199997 0)"/>
     <use xlink:href="#AppleGothic-63" transform="translate(113.499985 0)"/>
     <use xlink:href="#AppleGothic-61" transform="translate(165.399979 0)"/>
     <use xlink:href="#AppleGothic-6c" transform="translate(221.899963 0)"/>
     <use xlink:href="#AppleGothic-20" transform="translate(238.59996 0)"/>
     <use xlink:href="#AppleGothic-48" transform="translate(270.599945 0)"/>
     <use xlink:href="#AppleGothic-61" transform="translate(340.899933 0)"/>
     <use xlink:href="#AppleGothic-72" transform="translate(397.399918 0)"/>
     <use xlink:href="#AppleGothic-6e" transform="translate(432.599915 0)"/>
     <use xlink:href="#AppleGothic-65" transform="translate(488.499908 0)"/>
     <use xlink:href="#AppleGothic-73" transform="translate(543.399902 0)"/>
     <use xlink:href="#AppleGothic-73" transform="translate(592.999893 0)"/>
     <use xlink:href="#AppleGothic-20" transform="translate(642.599884 0)"/>
     <use xlink:href="#AppleGothic-52" transform="translate(674.599869 0)"/>
     <use xlink:href="#AppleGothic-65" transform="translate(738.599854 0)"/>
     <use xlink:href="#AppleGothic-73" transform="translate(793.499847 0)"/>
     <use xlink:href="#AppleGothic-75" transform="translate(843.099838 0)"/>
     <use xlink:href="#AppleGothic-6c" transform="translate(898.599823 0)"/>
     <use xlink:href="#AppleGothic-74" transform="translate(915.29982 0)"/>
     <use xlink:href="#AppleGothic-20" transform="translate(949.499817 0)"/>
     <use xlink:href="#AppleGothic-41" transform="translate(981.499802 0)"/>
     <use xlink:href="#AppleGothic-72" transform="translate(1054.099792 0)"/>
     <use xlink:href="#AppleGothic-74" transform="translate(1089.299789 0)"/>
     <use xlink:href="#AppleGothic-69" transform="translate(1123.499786 0)"/>
     <use xlink:href="#AppleGothic-66" transform="translate(1139.39978 0)"/>
     <use xlink:href="#AppleGothic-61" transform="translate(1173.399765 0)"/>
     <use xlink:href="#AppleGothic-63" transform="translate(1229.89975 0)"/>
     <use xlink:href="#AppleGothic-74" transform="translate(1281.799744 0)"/>
     <use xlink:href="#AppleGothic-73" transform="translate(1315.999741 0)"/>
    </g>
   </g>
   <g id="legend_1">
    <g id="patch_17">
     <path d="M 67.68 44.15375
L 87.68 44.15375
L 87.68 37.15375
L 67.68 37.15375
z
" style="fill: #2166ac"/>
    </g>
    <g id="text_24">
     <!-- winner vote share -->
     <g transform="translate(95.68 44.15375) scale(0.1 -0.1)">
      <defs>
       <path id="AppleGothic-76" d="M 109 3424
L 627 3424
L 1715 486
L 2829 3424
L 3290 3424
L 1920 0
L 1478 0
L 109 3424
z
" transform="scale(0.015625)"/>
      </defs>
      <use xlink:href="#AppleGothic-77"/>
      <use xlink:href="#AppleGothic-69" transform="translate(83.499985 0)"/>
      <use xlink:href="#AppleGothic-6e" transform="translate(99.399979 0)"/>
      <use xlink:href="#AppleGothic-6e" transform="translate(155.299973 0)"/>
      <use xlink:href="#AppleGothic-65" transform="translate(211.199966 0)"/>
      <use xlink:href="#AppleGothic-72" transform="translate(266.09996 0)"/>
      <use xlink:href="#AppleGothic-20" transform="translate(301.299957 0)"/>
      <use xlink:href="#AppleGothic-76" transform="translate(333.299942 0)"/>
      <use xlink:href="#AppleGothic-6f" transform="translate(387.499939 0)"/>
      <use xlink:href="#AppleGothic-74" transform="translate(445.799927 0)"/>
      <use xlink:href="#AppleGothic-65" transform="translate(479.999924 0)"/>
      <use xlink:href="#AppleGothic-20" transform="translate(534.899918 0)"/>
      <use xlink:href="#AppleGothic-73" transform="translate(566.899902 0)"/>
      <use xlink:href="#AppleGothic-68" transform="translate(616.499893 0)"/>
      <use xlink:href="#AppleGothic-61" transform="translate(668.69989 0)"/>
      <use xlink:href="#AppleGothic-72" transform="translate(725.199875 0)"/>
      <use xlink:href="#AppleGothic-65" transform="translate(760.399872 0)"/>
     </g>
    </g>
    <g id="patch_18">
     <path d="M 67.68 58.714687
L 87.68 58.714687
L 87.68 51.714687
L 67.68 51.714687
z
" style="fill: #f4a261"/>
    </g>
    <g id="text_25">
     <!-- turnout -->
     <g transform="translate(95.68 58.714687) scale(0.1 -0.1)">
      <use xlink:href="#AppleGothic-74"/>
      <use xlink:href="#AppleGothic-75" transform="translate(34.199997 0)"/>
      <use xlink:href="#AppleGothic-72" transform="translate(89.699982 0)"/>
      <use xlink:href="#AppleGothic-6e" transform="translate(124.899979 0)"/>
      <use xlink:href="#AppleGothic-6f" transform="translate(180.799973 0)"/>
      <use xlink:href="#AppleGothic-75" transform="translate(239.09996 0)"/>
      <use xlink:href="#AppleGothic-74" transform="translate(294.599945 0)"/>
     </g>
    </g>
   </g>
  </g>
  <g id="text_26">
   <!-- Source: _workspace/snapshots/results/*.json. Smoke/dry-run outputs unless the paper marks a run as calibrated. -->
   <g style="fill: #5d6d7e" transform="translate(7.2 404.521125) scale(0.09 -0.09)">
    <defs>
     <path id="AppleGothic-53" d="M 3418 4666
L 3418 4019
Q 3251 4160 3081 4269
Q 2912 4378 2746 4448
Q 2362 4627 1965 4627
Q 1466 4627 1139 4378
Q 806 4122 806 3770
Q 806 3258 1562 3002
Q 1914 2880 2262 2768
Q 2611 2656 2970 2541
Q 3731 2176 3731 1453
Q 3731 749 3187 320
Q 2669 -83 1901 -83
Q 1389 -83 915 115
Q 640 224 262 474
L 262 1126
Q 755 685 1261 506
Q 1427 442 1587 416
Q 1747 390 1907 390
Q 2419 390 2771 646
Q 3162 928 3162 1382
Q 3162 1933 2419 2221
Q 2061 2330 1715 2445
Q 1370 2560 1024 2669
Q 275 3014 275 3731
Q 275 4333 749 4710
Q 1235 5101 1965 5101
Q 2413 5101 2861 4934
Q 3091 4858 3418 4666
z
" transform="scale(0.015625)"/>
     <path id="AppleGothic-3a" d="M 1587 2554
Q 1434 2554 1357 2682
Q 1280 2810 1280 2995
Q 1280 3187 1360 3318
Q 1440 3450 1587 3450
Q 1722 3450 1805 3331
Q 1888 3213 1888 3008
Q 1888 2816 1811 2685
Q 1734 2554 1587 2554
z
M 1587 -19
Q 1434 -19 1357 109
Q 1280 237 1280 422
Q 1280 614 1360 745
Q 1440 877 1587 877
Q 1722 877 1805 758
Q 1888 640 1888 435
Q 1888 243 1811 112
Q 1734 -19 1587 -19
z
" transform="scale(0.015625)"/>
     <path id="AppleGothic-2f" d="M 1965 5018
L 2368 5018
L 493 -672
L 90 -672
L 1965 5018
z
" transform="scale(0.015625)"/>
     <path id="AppleGothic-2a" d="M 1299 5088
L 1670 5088
L 1670 4186
L 2464 4627
L 2643 4326
L 1856 3872
L 2643 3424
L 2464 3110
L 1670 3571
L 1670 2656
L 1299 2656
L 1299 3571
L 512 3110
L 346 3424
L 1139 3872
L 346 4326
L 512 4627
L 1299 4186
L 1299 5088
z
" transform="scale(0.015625)"/>
     <path id="AppleGothic-2d" d="M 256 1958
L 2349 1958
L 2349 1491
L 256 1491
L 256 1958
z
" transform="scale(0.015625)"/>
    </defs>
    <use xlink:href="#AppleGothic-53"/>
    <use xlink:href="#AppleGothic-6f" transform="translate(63.199997 0)"/>
    <use xlink:href="#AppleGothic-75" transform="translate(121.499985 0)"/>
    <use xlink:href="#AppleGothic-72" transform="translate(176.999969 0)"/>
    <use xlink:href="#AppleGothic-63" transform="translate(212.199966 0)"/>
    <use xlink:href="#AppleGothic-65" transform="translate(264.09996 0)"/>
    <use xlink:href="#AppleGothic-3a" transform="translate(318.999954 0)"/>
    <use xlink:href="#AppleGothic-20" transform="translate(368.999939 0)"/>
    <use xlink:href="#AppleGothic-5f" transform="translate(400.999924 0)"/>
    <use xlink:href="#AppleGothic-77" transform="translate(450.999908 0)"/>
    <use xlink:href="#AppleGothic-6f" transform="translate(534.499893 0)"/>
    <use xlink:href="#AppleGothic-72" transform="translate(592.799881 0)"/>
    <use xlink:href="#AppleGothic-6b" transform="translate(627.999878 0)"/>
    <use xlink:href="#AppleGothic-73" transform="translate(679.399872 0)"/>
    <use xlink:href="#AppleGothic-70" transform="translate(728.999863 0)"/>
    <use xlink:href="#AppleGothic-61" transform="translate(784.399857 0)"/>
    <use xlink:href="#AppleGothic-63" transform="translate(840.899841 0)"/>
    <use xlink:href="#AppleGothic-65" transform="translate(892.799835 0)"/>
    <use xlink:href="#AppleGothic-2f" transform="translate(947.699829 0)"/>
    <use xlink:href="#AppleGothic-73" transform="translate(997.699814 0)"/>
    <use xlink:href="#AppleGothic-6e" transform="translate(1047.299805 0)"/>
    <use xlink:href="#AppleGothic-61" transform="translate(1103.199799 0)"/>
    <use xlink:href="#AppleGothic-70" transform="translate(1159.699783 0)"/>
    <use xlink:href="#AppleGothic-73" transform="translate(1215.099777 0)"/>
    <use xlink:href="#AppleGothic-68" transform="translate(1264.699768 0)"/>
    <use xlink:href="#AppleGothic-6f" transform="translate(1316.899765 0)"/>
    <use xlink:href="#AppleGothic-74" transform="translate(1375.199753 0)"/>
    <use xlink:href="#AppleGothic-73" transform="translate(1409.39975 0)"/>
    <use xlink:href="#AppleGothic-2f" transform="translate(1458.999741 0)"/>
    <use xlink:href="#AppleGothic-72" transform="translate(1508.999725 0)"/>
    <use xlink:href="#AppleGothic-65" transform="translate(1544.199722 0)"/>
    <use xlink:href="#AppleGothic-73" transform="translate(1599.099716 0)"/>
    <use xlink:href="#AppleGothic-75" transform="translate(1648.699707 0)"/>
    <use xlink:href="#AppleGothic-6c" transform="translate(1704.199692 0)"/>
    <use xlink:href="#AppleGothic-74" transform="translate(1720.899689 0)"/>
    <use xlink:href="#AppleGothic-73" transform="translate(1755.099686 0)"/>
    <use xlink:href="#AppleGothic-2f" transform="translate(1804.699677 0)"/>
    <use xlink:href="#AppleGothic-2a" transform="translate(1854.699661 0)"/>
    <use xlink:href="#AppleGothic-2e" transform="translate(1901.099655 0)"/>
    <use xlink:href="#AppleGothic-6a" transform="translate(1935.59964 0)"/>
    <use xlink:href="#AppleGothic-73" transform="translate(1963.199631 0)"/>
    <use xlink:href="#AppleGothic-6f" transform="translate(2012.799622 0)"/>
    <use xlink:href="#AppleGothic-6e" transform="translate(2071.099609 0)"/>
    <use xlink:href="#AppleGothic-2e" transform="translate(2126.999603 0)"/>
    <use xlink:href="#AppleGothic-20" transform="translate(2161.499588 0)"/>
    <use xlink:href="#AppleGothic-53" transform="translate(2193.499573 0)"/>
    <use xlink:href="#AppleGothic-6d" transform="translate(2256.69957 0)"/>
    <use xlink:href="#AppleGothic-6f" transform="translate(2345.999557 0)"/>
    <use xlink:href="#AppleGothic-6b" transform="translate(2404.299545 0)"/>
    <use xlink:href="#AppleGothic-65" transform="translate(2455.699539 0)"/>
    <use xlink:href="#AppleGothic-2f" transform="translate(2510.599533 0)"/>
    <use xlink:href="#AppleGothic-64" transform="translate(2560.599518 0)"/>
    <use xlink:href="#AppleGothic-72" transform="translate(2614.599503 0)"/>
    <use xlink:href="#AppleGothic-79" transform="translate(2649.7995 0)"/>
    <use xlink:href="#AppleGothic-2d" transform="translate(2705.499496 0)"/>
    <use xlink:href="#AppleGothic-72" transform="translate(2755.499481 0)"/>
    <use xlink:href="#AppleGothic-75" transform="translate(2790.699478 0)"/>
    <use xlink:href="#AppleGothic-6e" transform="translate(2846.199463 0)"/>
    <use xlink:href="#AppleGothic-20" transform="translate(2902.099457 0)"/>
    <use xlink:href="#AppleGothic-6f" transform="translate(2934.099442 0)"/>
    <use xlink:href="#AppleGothic-75" transform="translate(2992.399429 0)"/>
    <use xlink:href="#AppleGothic-74" transform="translate(3047.899414 0)"/>
    <use xlink:href="#AppleGothic-70" transform="translate(3082.099411 0)"/>
    <use xlink:href="#AppleGothic-75" transform="translate(3137.499405 0)"/>
    <use xlink:href="#AppleGothic-74" transform="translate(3192.99939 0)"/>
    <use xlink:href="#AppleGothic-73" transform="translate(3227.199387 0)"/>
    <use xlink:href="#AppleGothic-20" transform="translate(3276.799377 0)"/>
    <use xlink:href="#AppleGothic-75" transform="translate(3308.799362 0)"/>
    <use xlink:href="#AppleGothic-6e" transform="translate(3364.299347 0)"/>
    <use xlink:href="#AppleGothic-6c" transform="translate(3420.199341 0)"/>
    <use xlink:href="#AppleGothic-65" transform="translate(3436.899338 0)"/>
    <use xlink:href="#AppleGothic-73" transform="translate(3491.799332 0)"/>
    <use xlink:href="#AppleGothic-73" transform="translate(3541.399323 0)"/>
    <use xlink:href="#AppleGothic-20" transform="translate(3590.999313 0)"/>
    <use xlink:href="#AppleGothic-74" transform="translate(3622.999298 0)"/>
    <use xlink:href="#AppleGothic-68" transform="translate(3657.199295 0)"/>
    <use xlink:href="#AppleGothic-65" transform="translate(3709.399292 0)"/>
    <use xlink:href="#AppleGothic-20" transform="translate(3764.299286 0)"/>
    <use xlink:href="#AppleGothic-70" transform="translate(3796.299271 0)"/>
    <use xlink:href="#AppleGothic-61" transform="translate(3851.699265 0)"/>
    <use xlink:href="#AppleGothic-70" transform="translate(3908.199249 0)"/>
    <use xlink:href="#AppleGothic-65" transform="translate(3963.599243 0)"/>
    <use xlink:href="#AppleGothic-72" transform="translate(4018.499237 0)"/>
    <use xlink:href="#AppleGothic-20" transform="translate(4053.699234 0)"/>
    <use xlink:href="#AppleGothic-6d" transform="translate(4085.699219 0)"/>
    <use xlink:href="#AppleGothic-61" transform="translate(4174.999207 0)"/>
    <use xlink:href="#AppleGothic-72" transform="translate(4231.499191 0)"/>
    <use xlink:href="#AppleGothic-6b" transform="translate(4266.699188 0)"/>
    <use xlink:href="#AppleGothic-73" transform="translate(4318.099182 0)"/>
    <use xlink:href="#AppleGothic-20" transform="translate(4367.699173 0)"/>
    <use xlink:href="#AppleGothic-61" transform="translate(4399.699158 0)"/>
    <use xlink:href="#AppleGothic-20" transform="translate(4456.199142 0)"/>
    <use xlink:href="#AppleGothic-72" transform="translate(4488.199127 0)"/>
    <use xlink:href="#AppleGothic-75" transform="translate(4523.399124 0)"/>
    <use xlink:href="#AppleGothic-6e" transform="translate(4578.899109 0)"/>
    <use xlink:href="#AppleGothic-20" transform="translate(4634.799103 0)"/>
    <use xlink:href="#AppleGothic-61" transform="translate(4666.799088 0)"/>
    <use xlink:href="#AppleGothic-73" transform="translate(4723.299072 0)"/>
    <use xlink:href="#AppleGothic-20" transform="translate(4772.899063 0)"/>
    <use xlink:href="#AppleGothic-63" transform="translate(4804.899048 0)"/>
    <use xlink:href="#AppleGothic-61" transform="translate(4856.799042 0)"/>
    <use xlink:href="#AppleGothic-6c" transform="translate(4913.299026 0)"/>
    <use xlink:href="#AppleGothic-69" transform="translate(4929.999023 0)"/>
    <use xlink:href="#AppleGothic-62" transform="translate(4945.899017 0)"/>
    <use xlink:href="#AppleGothic-72" transform="translate(5002.099014 0)"/>
    <use xlink:href="#AppleGothic-61" transform="translate(5037.299011 0)"/>
    <use xlink:href="#AppleGothic-74" transform="translate(5093.798996 0)"/>
    <use xlink:href="#AppleGothic-65" transform="translate(5127.998993 0)"/>
    <use xlink:href="#AppleGothic-64" transform="translate(5182.898987 0)"/>
    <use xlink:href="#AppleGothic-2e" transform="translate(5236.898972 0)"/>
   </g>
  </g>
 </g>
 <defs>
  <clipPath id="p7a1e260412">
   <rect x="58.68" y="27.313125" width="613.8" height="285.696"/>
  </clipPath>
 </defs>
</svg>
