<?xml version="1.0" encoding="utf-8" standalone="no"?>
<!DOCTYPE svg PUBLIC "-//W3C//DTD SVG 1.1//EN"
  "http://www.w3.org/Graphics/SVG/1.1/DTD/svg11.dtd">
<svg xmlns:xlink="http://www.w3.org/1999/xlink" width="859.870697pt" height="422.445525pt" viewBox="0 0 859.870697 422.445525" xmlns="http://www.w3.org/2000/svg" version="1.1">
 <metadata>
  <rdf:RDF xmlns:dc="http://purl.org/dc/elements/1.1/" xmlns:cc="http://creativecommons.org/ns#" xmlns:rdf="http://www.w3.org/1999/02/22-rdf-syntax-ns#">
   <cc:Work>
    <dc:type rdf:resource="http://purl.org/dc/dcmitype/StillImage"/>
    <dc:date>2026-04-26T11:35:24.446735</dc:date>
    <dc:format>image/svg+xml</dc:format>
    <dc:creator>
     <cc:Agent>
      <dc:title>Matplotlib v3.10.9, https://matplotlib.org/</dc:title>
     </cc:Agent>
    </dc:creator>
   </cc:Work>
  </rdf:RDF>
 </metadata>
 <defs>
  <style type="text/css">*{stroke-linejoin: round; stroke-linecap: butt}</style>
 </defs>
 <g id="figure_1">
  <g id="patch_1">
   <path d="M 0 422.445525
L 859.870697 422.445525
L 859.870697 0
L 0 0
z
" style="fill: #fffdf8"/>
  </g>
  <g id="axes_1">
   <g id="patch_2">
    <path d="M 103.84 360.186562
L 717.64 360.186562
L 717.64 27.546562
L 103.84 27.546562
z
" style="fill: #ffffff"/>
   </g>
   <g id="patch_3">
    <path d="M -365070.18475 345.066562
L 131.74 345.066562
L 131.74 308.512716
L -365070.18475 308.512716
z
" clip-path="url(#p2cf53a0336)" style="fill: #67a9cf; stroke: #2166ac; stroke-linejoin: miter"/>
   </g>
   <g id="patch_4">
    <path d="M -365070.18475 278.605024
L 237.954014 278.605024
L 237.954014 242.051178
L -365070.18475 242.051178
z
" clip-path="url(#p2cf53a0336)" style="fill: #67a9cf; stroke: #2166ac; stroke-linejoin: miter"/>
   </g>
   <g id="patch_5">
    <path d="M -365070.18475 212.143486
L 388.88089 212.143486
L 388.88089 175.589639
L -365070.18475 175.589639
z
" clip-path="url(#p2cf53a0336)" style="fill: #67a9cf; stroke: #2166ac; stroke-linejoin: miter"/>
   </g>
   <g id="patch_6">
    <path d="M -365070.18475 145.681947
L 472.809684 145.681947
L 472.809684 109.128101
L -365070.18475 109.128101
z
" clip-path="url(#p2cf53a0336)" style="fill: #67a9cf; stroke: #2166ac; stroke-linejoin: miter"/>
   </g>
   <g id="patch_7">
    <path d="M -365070.18475 79.220409
L 689.74 79.220409
L 689.74 42.666562
L -365070.18475 42.666562
z
" clip-path="url(#p2cf53a0336)" style="fill: #67a9cf; stroke: #2166ac; stroke-linejoin: miter"/>
   </g>
   <g id="matplotlib.axis_1">
    <g id="xtick_1">
     <g id="line2d_1">
      <path d="M 228.493427 360.186562
L 228.493427 27.546562
" clip-path="url(#p2cf53a0336)" style="fill: none; stroke: #d6dbdf; stroke-width: 0.8; stroke-linecap: square"/>
     </g>
     <g id="line2d_2">
      <defs>
       <path id="mf452875789" d="M 0 0
L 0 3.5
" style="stroke: #000000; stroke-width: 0.8"/>
      </defs>
      <g>
       <use xlink:href="#mf452875789" x="228.493427" y="360.186562" style="stroke: #000000; stroke-width: 0.8"/>
      </g>
     </g>
     <g id="text_1">
      <!-- $\mathdefault{10^{4}}$ -->
      <g transform="translate(219.093427 375.027187) scale(0.1 -0.1)">
       <defs>
        <path id="AppleGothic-31" d="M 2342 4774
L 2752 4774
L 2752 0
L 2285 0
L 2285 3526
L 1158 3526
L 1158 3885
L 1414 3885
Q 1990 3885 2214 4205
Q 2342 4410 2342 4774
z
" transform="scale(0.015625)"/>
        <path id="AppleGothic-30" d="M 2227 -83
Q 1414 -83 934 576
Q 461 1229 461 2387
Q 461 3552 973 4218
Q 1453 4858 2221 4858
Q 3027 4858 3482 4173
Q 3955 3494 3955 2394
Q 3955 1248 3462 582
Q 2976 -83 2227 -83
z
M 2176 346
Q 2861 346 3200 992
Q 3462 1536 3462 2400
Q 3462 3315 3162 3859
Q 2822 4429 2214 4429
Q 1574 4429 1248 3821
Q 960 3283 960 2374
Q 960 1478 1248 941
Q 1574 346 2176 346
z
" transform="scale(0.015625)"/>
        <path id="AppleGothic-34" d="M 2662 4774
L 3130 4774
L 3130 1811
L 4000 1811
L 4000 1382
L 3130 1382
L 3130 0
L 2662 0
L 2662 1382
L 352 1382
L 352 1811
L 2662 4774
z
M 2662 1811
L 2662 4166
L 838 1811
L 2662 1811
z
" transform="scale(0.015625)"/>
       </defs>
       <use xlink:href="#AppleGothic-31" transform="translate(0 0.334375)"/>
       <use xlink:href="#AppleGothic-30" transform="translate(67.999985 0.334375)"/>
       <use xlink:href="#AppleGothic-34" transform="translate(136.936219 37.784375) scale(0.7)"/>
      </g>
     </g>
    </g>
    <g id="xtick_2">
     <g id="line2d_3">
      <path d="M 592.336732 360.186562
L 592.336732 27.546562
" clip-path="url(#p2cf53a0336)" style="fill: none; stroke: #d6dbdf; stroke-width: 0.8; stroke-linecap: square"/>
     </g>
     <g id="line2d_4">
      <g>
       <use xlink:href="#mf452875789" x="592.336732" y="360.186562" style="stroke: #000000; stroke-width: 0.8"/>
      </g>
     </g>
     <g id="text_2">
      <!-- $\mathdefault{10^{5}}$ -->
      <g transform="translate(582.936732 375.027187) scale(0.1 -0.1)">
       <defs>
        <path id="AppleGothic-35" d="M 621 4768
L 3488 4768
L 3488 4339
L 1088 4339
L 1088 2707
Q 1184 2771 1293 2819
Q 1402 2867 1510 2912
Q 1862 3040 2259 3040
Q 2989 3040 3424 2605
Q 3827 2202 3827 1581
Q 3827 870 3296 397
Q 2765 -83 2010 -83
Q 1651 -83 1248 45
Q 1158 77 1001 137
Q 845 198 621 301
L 621 838
Q 928 640 1203 525
Q 1408 435 1613 390
Q 1818 346 2010 346
Q 2528 346 2906 666
Q 3322 1011 3322 1536
Q 3322 1990 3021 2291
Q 2701 2611 2144 2611
Q 1856 2611 1587 2528
Q 1318 2445 1088 2272
L 621 2272
L 621 4768
z
" transform="scale(0.015625)"/>
       </defs>
       <use xlink:href="#AppleGothic-31" transform="translate(0 0.4)"/>
       <use xlink:href="#AppleGothic-30" transform="translate(67.999985 0.4)"/>
       <use xlink:href="#AppleGothic-35" transform="translate(136.936219 37.85) scale(0.7)"/>
      </g>
     </g>
    </g>
    <g id="xtick_3">
     <g id="line2d_5">
      <defs>
       <path id="m0b3f128788" d="M 0 0
L 0 2
" style="stroke: #000000; stroke-width: 0.6"/>
      </defs>
      <g>
       <use xlink:href="#m0b3f128788" x="118.965679" y="360.186562" style="stroke: #000000; stroke-width: 0.6"/>
      </g>
     </g>
    </g>
    <g id="xtick_4">
     <g id="line2d_6">
      <g>
       <use xlink:href="#m0b3f128788" x="147.775245" y="360.186562" style="stroke: #000000; stroke-width: 0.6"/>
      </g>
     </g>
    </g>
    <g id="xtick_5">
     <g id="line2d_7">
      <g>
       <use xlink:href="#m0b3f128788" x="172.133386" y="360.186562" style="stroke: #000000; stroke-width: 0.6"/>
      </g>
     </g>
    </g>
    <g id="xtick_6">
     <g id="line2d_8">
      <g>
       <use xlink:href="#m0b3f128788" x="193.233368" y="360.186562" style="stroke: #000000; stroke-width: 0.6"/>
      </g>
     </g>
    </g>
    <g id="xtick_7">
     <g id="line2d_9">
      <g>
       <use xlink:href="#m0b3f128788" x="211.844871" y="360.186562" style="stroke: #000000; stroke-width: 0.6"/>
      </g>
     </g>
    </g>
    <g id="xtick_8">
     <g id="line2d_10">
      <g>
       <use xlink:href="#m0b3f128788" x="338.021176" y="360.186562" style="stroke: #000000; stroke-width: 0.6"/>
      </g>
     </g>
    </g>
    <g id="xtick_9">
     <g id="line2d_11">
      <g>
       <use xlink:href="#m0b3f128788" x="402.090801" y="360.186562" style="stroke: #000000; stroke-width: 0.6"/>
      </g>
     </g>
    </g>
    <g id="xtick_10">
     <g id="line2d_12">
      <g>
       <use xlink:href="#m0b3f128788" x="447.548924" y="360.186562" style="stroke: #000000; stroke-width: 0.6"/>
      </g>
     </g>
    </g>
    <g id="xtick_11">
     <g id="line2d_13">
      <g>
       <use xlink:href="#m0b3f128788" x="482.808984" y="360.186562" style="stroke: #000000; stroke-width: 0.6"/>
      </g>
     </g>
    </g>
    <g id="xtick_12">
     <g id="line2d_14">
      <g>
       <use xlink:href="#m0b3f128788" x="511.61855" y="360.186562" style="stroke: #000000; stroke-width: 0.6"/>
      </g>
     </g>
    </g>
    <g id="xtick_13">
     <g id="line2d_15">
      <g>
       <use xlink:href="#m0b3f128788" x="535.976691" y="360.186562" style="stroke: #000000; stroke-width: 0.6"/>
      </g>
     </g>
    </g>
    <g id="xtick_14">
     <g id="line2d_16">
      <g>
       <use xlink:href="#m0b3f128788" x="557.076673" y="360.186562" style="stroke: #000000; stroke-width: 0.6"/>
      </g>
     </g>
    </g>
    <g id="xtick_15">
     <g id="line2d_17">
      <g>
       <use xlink:href="#m0b3f128788" x="575.688176" y="360.186562" style="stroke: #000000; stroke-width: 0.6"/>
      </g>
     </g>
    </g>
    <g id="xtick_16">
     <g id="line2d_18">
      <g>
       <use xlink:href="#m0b3f128788" x="701.864481" y="360.186562" style="stroke: #000000; stroke-width: 0.6"/>
      </g>
     </g>
    </g>
    <g id="text_3">
     <!-- Local adult persona records in harness contract (log scale) -->
     <g transform="translate(276.685313 388.967812) scale(0.1 -0.1)">
      <defs>
       <path id="AppleGothic-4c" d="M 333 5018
L 838 5018
L 838 442
L 3315 442
L 3315 0
L 333 0
L 333 5018
z
" transform="scale(0.015625)"/>
       <path id="AppleGothic-6f" d="M 1888 -83
Q 1229 -83 730 397
Q 198 902 198 1709
Q 198 2470 666 2982
Q 1146 3501 1850 3501
Q 2547 3501 3027 2982
Q 3501 2470 3501 1715
Q 3501 922 2989 403
Q 2515 -83 1888 -83
z
M 1843 339
Q 2304 339 2662 723
Q 3008 1114 3008 1715
Q 3008 2336 2637 2726
Q 2298 3085 1850 3085
Q 1389 3085 1062 2714
Q 704 2304 704 1709
Q 704 1107 1056 704
Q 1382 339 1843 339
z
" transform="scale(0.015625)"/>
       <path id="AppleGothic-63" d="M 3085 3123
L 3085 2522
Q 2726 2861 2349 3008
Q 2240 3053 2125 3069
Q 2010 3085 1894 3085
Q 1363 3085 1024 2688
Q 685 2278 685 1715
Q 685 1139 1037 730
Q 1389 339 1920 339
Q 2253 339 2528 483
Q 2803 627 3085 915
L 3085 307
Q 2746 96 2470 6
Q 2195 -83 1914 -83
Q 1197 -83 685 429
Q 186 960 186 1709
Q 186 2445 678 2976
Q 1178 3501 1920 3501
Q 2298 3501 2624 3373
Q 2816 3302 3085 3123
z
" transform="scale(0.015625)"/>
       <path id="AppleGothic-61" d="M 2950 2214
L 2950 602
Q 2950 493 2998 413
Q 3046 333 3174 333
Q 3213 333 3238 336
Q 3264 339 3290 346
Q 3328 358 3357 371
Q 3386 384 3405 390
L 3405 32
Q 3290 -6 3174 -22
Q 3059 -38 2995 -38
Q 2669 -38 2566 134
Q 2483 243 2483 602
Q 2400 461 2317 355
Q 2234 250 2150 179
Q 1818 -83 1376 -83
Q 909 -83 563 192
Q 205 486 205 941
Q 205 1510 781 1779
Q 992 1882 1341 1958
Q 1690 2035 2176 2099
L 2483 2131
Q 2483 2579 2256 2832
Q 2029 3085 1587 3085
Q 1421 3085 1257 3043
Q 1094 3002 928 2912
Q 838 2861 729 2790
Q 621 2720 493 2611
L 493 3136
Q 1037 3501 1664 3501
Q 2304 3501 2650 3098
Q 2950 2746 2950 2214
z
M 2483 1542
L 2483 1747
L 2266 1722
Q 1466 1638 1139 1498
Q 704 1325 704 934
Q 704 819 755 713
Q 806 608 896 525
Q 986 442 1117 390
Q 1248 339 1408 339
Q 1843 339 2170 691
Q 2483 1050 2483 1542
z
" transform="scale(0.015625)"/>
       <path id="AppleGothic-6c" d="M 288 5018
L 749 5018
L 749 0
L 288 0
L 288 5018
z
" transform="scale(0.015625)"/>
       <path id="AppleGothic-20" transform="scale(0.015625)"/>
       <path id="AppleGothic-64" d="M 2682 5018
L 3174 5018
L 3174 0
L 2733 0
L 2688 557
Q 2598 429 2508 329
Q 2419 230 2330 160
Q 2010 -83 1587 -83
Q 928 -83 493 429
Q 64 941 64 1670
Q 64 2426 518 2957
Q 979 3501 1670 3501
Q 1958 3501 2208 3398
Q 2298 3360 2416 3296
Q 2534 3232 2682 3142
L 2682 5018
z
M 2682 1658
L 2682 2643
Q 2381 2906 2157 2995
Q 1933 3085 1722 3085
Q 1197 3085 870 2643
Q 563 2227 563 1677
Q 563 1088 902 698
Q 1216 339 1645 339
Q 2067 339 2374 710
Q 2682 1082 2682 1658
z
" transform="scale(0.015625)"/>
       <path id="AppleGothic-75" d="M 262 3424
L 730 3424
L 730 1242
Q 730 877 941 627
Q 1171 339 1594 339
Q 2080 339 2426 730
Q 2784 1139 2784 1632
L 2784 3424
L 3245 3424
L 3245 0
L 2842 0
L 2810 582
Q 2707 442 2592 330
Q 2477 218 2342 134
Q 1984 -83 1555 -83
Q 966 -83 614 282
Q 262 653 262 1184
L 262 3424
z
" transform="scale(0.015625)"/>
       <path id="AppleGothic-74" d="M 691 4435
L 1114 4435
L 1114 3430
L 2016 3430
L 2016 3014
L 1114 3014
L 1114 838
Q 1114 570 1213 454
Q 1312 339 1555 339
Q 1696 339 1795 371
Q 1894 403 2016 454
L 2016 38
Q 1914 6 1770 -22
Q 1626 -51 1478 -51
Q 1094 -51 883 122
Q 646 301 646 698
L 646 3014
L 70 3014
L 70 3430
L 646 3430
L 691 4435
z
" transform="scale(0.015625)"/>
       <path id="AppleGothic-70" d="M 736 307
L 736 -1101
L 288 -1101
L 288 3424
L 704 3424
L 730 2803
Q 941 3149 1216 3325
Q 1491 3501 1882 3501
Q 2522 3501 2944 3002
Q 3162 2752 3270 2441
Q 3379 2131 3379 1747
Q 3379 954 2899 435
Q 2419 -83 1754 -83
Q 1421 -83 1139 58
Q 1056 90 960 154
Q 864 218 736 307
z
M 736 1824
L 736 800
Q 838 704 924 637
Q 1011 570 1082 525
Q 1395 339 1715 339
Q 2227 339 2554 742
Q 2886 1165 2886 1766
Q 2886 2330 2579 2707
Q 2278 3085 1811 3085
Q 1331 3085 1018 2669
Q 736 2291 736 1824
z
" transform="scale(0.015625)"/>
       <path id="AppleGothic-65" d="M 3296 1850
L 691 1850
Q 691 1114 1033 726
Q 1376 339 1933 339
Q 2355 339 2746 608
Q 2854 678 2976 784
Q 3098 890 3238 1030
L 3238 474
Q 3085 358 2953 272
Q 2822 186 2707 128
Q 2304 -83 1901 -83
Q 1203 -83 717 397
Q 192 902 192 1709
Q 192 2470 666 2982
Q 1146 3501 1850 3501
Q 2534 3501 2938 3002
Q 3296 2547 3296 1850
z
M 755 2240
L 2758 2240
Q 2682 2675 2429 2889
Q 2176 3104 1818 3104
Q 1421 3104 1146 2854
Q 890 2624 755 2240
z
" transform="scale(0.015625)"/>
       <path id="AppleGothic-72" d="M 2125 3424
L 2125 2963
Q 2054 2989 2009 3005
Q 1965 3021 1933 3027
Q 1901 3034 1865 3037
Q 1830 3040 1773 3040
Q 1306 3040 1005 2586
Q 749 2170 749 1658
L 749 0
L 288 0
L 288 3424
L 710 3424
L 742 2835
Q 902 3104 1043 3219
Q 1331 3456 1734 3456
Q 1843 3456 1936 3449
Q 2029 3443 2125 3424
z
" transform="scale(0.015625)"/>
       <path id="AppleGothic-73" d="M 224 294
L 224 851
Q 621 531 1030 403
Q 1152 371 1267 355
Q 1382 339 1504 339
Q 1894 339 2150 518
Q 2413 710 2413 947
Q 2413 1075 2317 1210
Q 2182 1376 1600 1510
Q 909 1683 678 1798
Q 230 2054 230 2515
Q 230 2944 602 3219
Q 979 3501 1542 3501
Q 1798 3501 2003 3456
Q 2208 3411 2387 3337
Q 2566 3264 2720 3155
L 2720 2598
Q 2451 2822 2156 2953
Q 1862 3085 1536 3085
Q 1210 3085 973 2938
Q 730 2790 730 2554
Q 730 2240 1306 2054
Q 1574 1978 1836 1901
Q 2099 1824 2368 1747
Q 2950 1498 2950 992
Q 2950 563 2547 237
Q 2138 -83 1530 -83
Q 1261 -83 1005 -26
Q 595 64 224 294
z
" transform="scale(0.015625)"/>
       <path id="AppleGothic-6e" d="M 3264 2291
L 3264 0
L 2803 0
L 2803 2259
Q 2803 2618 2541 2848
Q 2278 3085 1914 3085
Q 1427 3085 1075 2682
Q 723 2272 723 1760
L 723 0
L 288 0
L 288 3424
L 691 3424
L 710 2784
Q 883 3046 1114 3219
Q 1491 3501 1965 3501
Q 2515 3501 2886 3168
Q 3264 2842 3264 2291
z
" transform="scale(0.015625)"/>
       <path id="AppleGothic-69" d="M 256 3424
L 717 3424
L 717 0
L 256 0
L 256 3424
z
M 480 4870
Q 614 4870 704 4780
Q 794 4691 794 4525
Q 794 4358 710 4268
Q 627 4179 480 4179
Q 333 4179 253 4281
Q 173 4384 173 4518
Q 173 4730 269 4800
Q 365 4870 480 4870
z
" transform="scale(0.015625)"/>
       <path id="AppleGothic-68" d="M 288 5018
L 749 5018
L 749 2810
Q 909 3066 1139 3238
Q 1491 3501 1926 3501
Q 2195 3501 2409 3424
Q 2624 3347 2803 3200
Q 3181 2867 3181 2266
L 3181 0
L 2714 0
L 2714 2202
Q 2714 2573 2477 2829
Q 2240 3085 1901 3085
Q 1408 3085 1082 2694
Q 749 2291 749 1773
L 749 0
L 288 0
L 288 5018
z
" transform="scale(0.015625)"/>
       <path id="AppleGothic-28" d="M 2227 5261
L 2650 5261
Q 2342 4768 2169 4473
Q 1997 4179 1958 4083
Q 1606 3283 1606 2272
Q 1606 1587 1754 1018
Q 1882 570 2138 102
Q 2150 70 2275 -131
Q 2400 -333 2630 -717
L 2227 -717
Q 2099 -531 1980 -355
Q 1862 -179 1734 0
Q 1581 243 1469 483
Q 1357 723 1274 954
Q 1069 1587 1069 2272
Q 1069 2963 1261 3558
Q 1338 3789 1450 4022
Q 1562 4256 1715 4499
Q 1843 4691 1971 4880
Q 2099 5069 2227 5261
z
" transform="scale(0.015625)"/>
       <path id="AppleGothic-67" d="M 2822 3040
L 2950 3424
L 3290 3424
L 3290 326
Q 3290 -474 2899 -890
Q 2509 -1306 1690 -1306
Q 1357 -1306 1059 -1187
Q 762 -1069 435 -819
L 435 -256
Q 640 -448 838 -579
Q 1037 -710 1229 -781
Q 1453 -864 1690 -864
Q 2195 -864 2477 -634
Q 2822 -352 2822 269
L 2822 691
Q 2579 288 2221 122
Q 1978 6 1683 6
Q 1050 6 621 512
Q 198 1030 198 1709
Q 198 2387 595 2906
Q 1056 3501 1773 3501
Q 2131 3501 2451 3328
Q 2547 3270 2640 3200
Q 2733 3130 2822 3040
z
M 2822 1658
L 2822 2598
Q 2714 2720 2602 2803
Q 2490 2886 2381 2950
Q 2253 3021 2118 3053
Q 1984 3085 1843 3085
Q 1363 3085 1050 2746
Q 698 2362 698 1734
Q 698 1165 992 794
Q 1280 429 1741 429
Q 2195 429 2509 781
Q 2822 1120 2822 1658
z
" transform="scale(0.015625)"/>
       <path id="AppleGothic-29" d="M 2221 2272
Q 2221 1587 2016 960
Q 1862 499 1555 6
Q 1427 -179 1305 -355
Q 1184 -531 1062 -717
L 659 -717
Q 781 -512 902 -310
Q 1024 -109 1152 96
Q 1280 333 1376 557
Q 1472 781 1530 1005
Q 1683 1562 1683 2272
Q 1683 2650 1641 2973
Q 1600 3296 1517 3584
Q 1459 3802 1356 4029
Q 1254 4256 1120 4499
Q 992 4691 873 4880
Q 755 5069 640 5261
L 1062 5261
Q 1190 5069 1315 4880
Q 1440 4691 1568 4506
Q 1722 4256 1837 4022
Q 1952 3789 2022 3565
Q 2221 2976 2221 2272
z
" transform="scale(0.015625)"/>
      </defs>
      <use xlink:href="#AppleGothic-4c"/>
      <use xlink:href="#AppleGothic-6f" transform="translate(55.199997 0)"/>
      <use xlink:href="#AppleGothic-63" transform="translate(113.499985 0)"/>
      <use xlink:href="#AppleGothic-61" transform="translate(165.399979 0)"/>
      <use xlink:href="#AppleGothic-6c" transform="translate(221.899963 0)"/>
      <use xlink:href="#AppleGothic-20" transform="translate(238.59996 0)"/>
      <use xlink:href="#AppleGothic-61" transform="translate(270.599945 0)"/>
      <use xlink:href="#AppleGothic-64" transform="translate(327.09993 0)"/>
      <use xlink:href="#AppleGothic-75" transform="translate(381.099915 0)"/>
      <use xlink:href="#AppleGothic-6c" transform="translate(436.599899 0)"/>
      <use xlink:href="#AppleGothic-74" transform="translate(453.299896 0)"/>
      <use xlink:href="#AppleGothic-20" transform="translate(487.499893 0)"/>
      <use xlink:href="#AppleGothic-70" transform="translate(519.499878 0)"/>
      <use xlink:href="#AppleGothic-65" transform="translate(574.899872 0)"/>
      <use xlink:href="#AppleGothic-72" transform="translate(629.799866 0)"/>
      <use xlink:href="#AppleGothic-73" transform="translate(664.999863 0)"/>
      <use xlink:href="#AppleGothic-6f" transform="translate(714.599854 0)"/>
      <use xlink:href="#AppleGothic-6e" transform="translate(772.899841 0)"/>
      <use xlink:href="#AppleGothic-61" transform="translate(828.799835 0)"/>
      <use xlink:href="#AppleGothic-20" transform="translate(885.29982 0)"/>
      <use xlink:href="#AppleGothic-72" transform="translate(917.299805 0)"/>
      <use xlink:href="#AppleGothic-65" transform="translate(952.499802 0)"/>
      <use xlink:href="#AppleGothic-63" transform="translate(1007.399796 0)"/>
      <use xlink:href="#AppleGothic-6f" transform="translate(1059.299789 0)"/>
      <use xlink:href="#AppleGothic-72" transform="translate(1117.599777 0)"/>
      <use xlink:href="#AppleGothic-64" transform="translate(1152.799774 0)"/>
      <use xlink:href="#AppleGothic-73" transform="translate(1206.799759 0)"/>
      <use xlink:href="#AppleGothic-20" transform="translate(1256.39975 0)"/>
      <use xlink:href="#AppleGothic-69" transform="translate(1288.399734 0)"/>
      <use xlink:href="#AppleGothic-6e" transform="translate(1304.299728 0)"/>
      <use xlink:href="#AppleGothic-20" transform="translate(1360.199722 0)"/>
      <use xlink:href="#AppleGothic-68" transform="translate(1392.199707 0)"/>
      <use xlink:href="#AppleGothic-61" transform="translate(1444.399704 0)"/>
      <use xlink:href="#AppleGothic-72" transform="translate(1500.899689 0)"/>
      <use xlink:href="#AppleGothic-6e" transform="translate(1536.099686 0)"/>
      <use xlink:href="#AppleGothic-65" transform="translate(1591.99968 0)"/>
      <use xlink:href="#AppleGothic-73" transform="translate(1646.899673 0)"/>
      <use xlink:href="#AppleGothic-73" transform="translate(1696.499664 0)"/>
      <use xlink:href="#AppleGothic-20" transform="translate(1746.099655 0)"/>
      <use xlink:href="#AppleGothic-63" transform="translate(1778.09964 0)"/>
      <use xlink:href="#AppleGothic-6f" transform="translate(1829.999634 0)"/>
      <use xlink:href="#AppleGothic-6e" transform="translate(1888.299622 0)"/>
      <use xlink:href="#AppleGothic-74" transform="translate(1944.199615 0)"/>
      <use xlink:href="#AppleGothic-72" transform="translate(1978.399612 0)"/>
      <use xlink:href="#AppleGothic-61" transform="translate(2013.599609 0)"/>
      <use xlink:href="#AppleGothic-63" transform="translate(2070.099594 0)"/>
      <use xlink:href="#AppleGothic-74" transform="translate(2121.999588 0)"/>
      <use xlink:href="#AppleGothic-20" transform="translate(2156.199585 0)"/>
      <use xlink:href="#AppleGothic-28" transform="translate(2188.19957 0)"/>
      <use xlink:href="#AppleGothic-6c" transform="translate(2238.199554 0)"/>
      <use xlink:href="#AppleGothic-6f" transform="translate(2254.899551 0)"/>
      <use xlink:href="#AppleGothic-67" transform="translate(2313.199539 0)"/>
      <use xlink:href="#AppleGothic-20" transform="translate(2369.399536 0)"/>
      <use xlink:href="#AppleGothic-73" transform="translate(2401.399521 0)"/>
      <use xlink:href="#AppleGothic-63" transform="translate(2450.999512 0)"/>
      <use xlink:href="#AppleGothic-61" transform="translate(2502.899506 0)"/>
      <use xlink:href="#AppleGothic-6c" transform="translate(2559.39949 0)"/>
      <use xlink:href="#AppleGothic-65" transform="translate(2576.099487 0)"/>
      <use xlink:href="#AppleGothic-29" transform="translate(2630.999481 0)"/>
     </g>
    </g>
   </g>
   <g id="matplotlib.axis_2">
    <g id="ytick_1">
     <g id="line2d_19">
      <defs>
       <path id="m8fbdd61dd7" d="M 0 0
L -3.5 0
" style="stroke: #000000; stroke-width: 0.8"/>
      </defs>
      <g>
       <use xlink:href="#m8fbdd61dd7" x="103.84" y="326.789639" style="stroke: #000000; stroke-width: 0.8"/>
      </g>
     </g>
     <g id="text_4">
      <!-- 부산 북구 갑 (보궐) -->
      <g transform="translate(16.2 326.015499) scale(0.09 -0.09)">
       <defs>
        <path id="AppleGothic-bd80" d="M 4563 3130
L 4563 4038
L 1760 4045
L 1760 3123
L 4563 3130
z
M 6010 1613
Q 5798 1613 5472 1619
Q 5146 1626 4704 1638
Q 4269 1651 3942 1657
Q 3616 1664 3392 1664
L 3392 -589
L 2931 -589
Q 2938 -538 2947 -355
Q 2957 -173 2957 224
L 2950 1664
L 1914 1670
Q 1549 1670 1145 1664
Q 742 1658 397 1645
L 397 2042
Q 512 2035 611 2035
Q 710 2035 800 2029
Q 2016 1990 2957 1990
L 3187 1990
Q 3654 1990 4000 1990
Q 4346 1990 4576 1997
Q 5037 2003 5421 2009
Q 5805 2016 6010 2022
L 6010 1613
z
M 5043 5011
Q 4992 4890 4992 4794
L 4986 4109
L 5005 2816
L 3878 2829
L 1318 2816
L 1325 4749
Q 1325 4902 1321 4976
Q 1318 5050 1306 5114
L 1677 5082
Q 1792 5082 1792 5011
Q 1792 4986 1776 4925
Q 1760 4864 1760 4851
L 1760 4352
L 3130 4333
L 4563 4352
L 4557 5082
L 4902 5075
Q 5043 5075 5043 5011
z
" transform="scale(0.015625)"/>
        <path id="AppleGothic-c0b0" d="M 5293 -499
L 3661 -486
L 1306 -499
L 1318 346
L 1306 1178
L 1677 1171
Q 1805 1171 1805 1114
Q 1786 1050 1773 1002
Q 1760 954 1760 883
L 1754 -115
L 3635 -122
Q 3962 -122 4208 -118
Q 4454 -115 4640 -109
Q 4826 -102 4986 -96
Q 5146 -90 5293 -77
L 5293 -499
z
M 5997 2835
L 5094 2842
Q 5101 2752 5104 2601
Q 5107 2451 5107 2170
L 5094 922
L 4627 922
Q 4627 998 4627 1126
Q 4627 1254 4634 1427
Q 4646 1773 4653 2701
Q 4659 3168 4662 3638
Q 4666 4109 4666 4602
L 4659 5190
L 4838 5197
Q 4973 5197 5062 5174
Q 5152 5152 5152 5094
Q 5152 5094 5145 5065
Q 5139 5037 5129 5001
Q 5120 4966 5113 4928
Q 5107 4890 5107 4864
L 5101 3251
L 5997 3264
L 5997 2835
z
M 4147 2298
Q 4147 2278 4038 2144
Q 3942 2029 3885 1978
Q 3757 2029 3654 2086
Q 3552 2144 3462 2202
Q 3174 2394 2880 2669
Q 2752 2797 2633 2947
Q 2515 3098 2419 3277
Q 2387 3328 2352 3405
Q 2317 3482 2272 3578
Q 2208 3373 2022 3091
Q 1830 2790 1568 2534
Q 1306 2278 979 2035
Q 928 2003 867 1961
Q 806 1920 730 1869
Q 717 1882 704 1885
Q 691 1888 685 1894
Q 634 1926 592 1958
Q 550 1990 512 2022
Q 493 2042 454 2064
Q 416 2086 377 2102
Q 339 2118 313 2131
Q 288 2144 288 2157
L 301 2182
Q 608 2317 781 2432
Q 1331 2784 1632 3264
Q 1766 3488 1865 3705
Q 1965 3923 2022 4141
Q 2106 4448 2106 4710
L 2099 4851
L 2291 4858
Q 2426 4858 2506 4835
Q 2586 4813 2586 4742
Q 2586 4691 2534 4525
Q 2483 4371 2483 4294
Q 2483 4192 2502 4093
Q 2522 3994 2554 3885
Q 2656 3622 2874 3328
Q 3066 3078 3280 2880
Q 3494 2682 3725 2534
Q 3808 2490 3904 2438
Q 4000 2387 4128 2336
Q 4134 2323 4147 2298
z
" transform="scale(0.015625)"/>
        <path id="AppleGothic-bd81" d="M 4576 3366
L 4576 4096
L 3130 4109
L 1754 4096
L 1754 3366
L 3110 3347
L 4576 3366
z
M 6022 2010
Q 5696 2022 5309 2035
Q 4922 2048 4563 2048
L 3424 2042
L 3424 1280
L 5024 1299
L 5011 371
L 5011 -333
Q 5018 -410 5021 -477
Q 5024 -544 5030 -608
L 4544 -614
Q 4550 -544 4550 -445
Q 4550 -346 4557 -218
Q 4563 -90 4563 0
Q 4563 90 4563 147
L 4557 902
L 3014 909
L 1190 896
L 1190 1312
Q 1376 1299 1603 1292
Q 1830 1286 2042 1286
L 2976 1286
L 2976 2042
L 1651 2048
Q 1203 2048 899 2041
Q 595 2035 371 2022
L 371 2432
Q 448 2432 1043 2413
Q 1350 2400 1644 2393
Q 1939 2387 2240 2381
Q 2534 2374 2768 2371
Q 3002 2368 3181 2368
Q 4077 2368 4758 2381
Q 5440 2394 6022 2413
L 6022 2010
z
M 5088 5050
Q 5088 5024 5062 4963
Q 5037 4902 5037 4870
L 5024 4064
L 5037 3021
L 3085 3034
L 1312 3021
Q 1318 3085 1318 3187
Q 1318 3290 1325 3437
Q 1331 3584 1331 3721
Q 1331 3859 1331 3994
Q 1331 4282 1331 4470
Q 1331 4659 1325 4762
Q 1325 4870 1321 4960
Q 1318 5050 1312 5133
L 1491 5139
Q 1638 5139 1715 5113
Q 1792 5088 1792 5011
Q 1792 4986 1773 4906
Q 1754 4826 1754 4787
L 1754 4442
L 3136 4422
Q 3290 4422 3469 4422
Q 3648 4422 3837 4425
Q 4026 4429 4214 4435
Q 4403 4442 4576 4448
L 4563 5158
Q 4845 5158 4966 5136
Q 5088 5114 5088 5050
z
" transform="scale(0.015625)"/>
        <path id="AppleGothic-ad6c" d="M 6048 2202
L 4672 2221
L 3405 2214
L 3398 915
L 3411 -486
L 2925 -518
Q 2938 -186 2944 214
Q 2950 614 2950 986
L 2944 2214
L 1600 2214
L 352 2182
L 352 2618
Q 794 2605 1328 2592
Q 1862 2579 2355 2579
L 2630 2579
L 3866 2579
Q 4141 2586 4346 2598
Q 4371 2701 4390 2774
Q 4410 2848 4422 2906
Q 4550 3360 4576 3469
Q 4640 3738 4730 4160
Q 4742 4224 4758 4304
Q 4774 4384 4794 4474
L 4454 4474
Q 3232 4493 3149 4493
L 1005 4461
L 1005 4890
Q 1331 4877 1740 4870
Q 2150 4864 2605 4864
L 5325 4877
Q 5312 4781 5299 4697
Q 5286 4614 5274 4544
Q 5203 4147 5062 3571
Q 5030 3430 4992 3280
Q 4954 3130 4909 2957
Q 4883 2867 4857 2780
Q 4832 2694 4806 2605
L 6048 2618
L 6048 2202
z
" transform="scale(0.015625)"/>
        <path id="AppleGothic-ac11" d="M 4678 -32
L 4678 730
L 1632 749
L 1632 -45
L 4678 -32
z
M 5152 1574
Q 5152 1555 5133 1494
Q 5114 1434 5114 1376
L 5126 -115
L 5120 -480
L 4672 -506
L 4659 -371
L 1632 -378
L 1606 -538
L 1203 -557
L 1203 1331
Q 1203 1466 1200 1542
Q 1197 1619 1178 1683
L 1568 1677
Q 1670 1677 1670 1626
Q 1670 1606 1651 1545
Q 1632 1485 1632 1434
L 1632 1082
L 2707 1069
L 4678 1062
L 4678 1658
L 5024 1658
Q 5152 1658 5152 1574
z
M 3270 4646
Q 3258 4570 3245 4496
Q 3232 4422 3219 4352
Q 3168 4160 3101 3977
Q 3034 3795 2931 3616
Q 2656 3123 2202 2720
Q 2054 2586 1868 2464
Q 1683 2342 1466 2227
Q 1299 2138 1132 2067
Q 966 1997 800 1939
Q 538 1843 506 1843
Q 486 1856 473 1869
Q 461 1882 448 1894
Q 416 1926 397 1952
Q 378 1978 365 2003
Q 352 2029 323 2061
Q 294 2093 262 2121
Q 230 2150 204 2169
Q 179 2189 179 2189
Q 192 2202 201 2208
Q 211 2214 218 2221
Q 435 2221 832 2368
Q 1178 2490 1562 2733
Q 1990 2995 2291 3392
Q 2406 3539 2499 3696
Q 2592 3853 2662 4019
Q 2688 4090 2713 4160
Q 2739 4230 2765 4301
L 1414 4301
Q 1088 4301 877 4294
Q 666 4288 518 4275
L 518 4646
L 3270 4646
z
M 6093 2925
L 5568 2931
L 5107 2918
L 5114 2003
L 4678 1978
L 4691 3866
L 4691 4762
Q 4691 4986 4681 5066
Q 4672 5146 4659 5190
L 4723 5190
Q 4909 5190 5027 5171
Q 5146 5152 5146 5082
Q 5146 5043 5123 4963
Q 5101 4883 5101 4851
L 5094 3290
L 5574 3277
L 6093 3296
L 6093 2925
z
" transform="scale(0.015625)"/>
        <path id="AppleGothic-bcf4" d="M 4544 2342
L 4538 3405
L 1766 3386
L 1754 3014
L 1766 2336
L 3098 2317
L 4544 2342
z
M 6029 77
Q 5901 83 5789 83
Q 5677 83 5587 83
Q 4269 102 3712 102
L 3187 102
Q 2854 102 2579 99
Q 2304 96 2080 90
Q 1856 83 1619 80
Q 1382 77 1120 64
Q 858 51 672 48
Q 486 45 371 38
L 371 531
Q 461 525 537 525
Q 614 525 666 525
Q 1069 512 1289 505
Q 1510 499 1562 499
L 2912 518
L 2925 1242
L 2912 1939
L 1242 1914
L 1261 3328
L 1242 4723
L 1402 4723
Q 1574 4723 1683 4704
Q 1792 4685 1792 4634
Q 1792 4602 1763 4522
Q 1734 4442 1734 4403
L 1734 3795
L 4544 3795
L 4538 4371
L 4506 4742
L 4826 4749
Q 4941 4749 5011 4733
Q 5082 4717 5082 4659
Q 5082 4634 5056 4570
Q 5030 4506 5030 4486
L 5024 3469
L 5043 1920
L 3418 1926
L 3418 1773
Q 3398 1222 3398 1184
L 3418 512
L 4621 525
Q 4966 525 5340 541
Q 5715 557 6029 576
L 6029 77
z
" transform="scale(0.015625)"/>
        <path id="AppleGothic-ad90" d="M 5523 -486
Q 5414 -480 5324 -480
Q 5235 -480 5165 -480
Q 4640 -467 4246 -460
Q 3853 -454 3578 -454
Q 3085 -454 2582 -460
Q 2080 -467 1658 -480
L 1677 109
Q 1677 403 1673 563
Q 1670 723 1664 826
L 3610 806
Q 3974 806 4316 812
Q 4659 819 4941 832
L 4941 1267
L 4691 1267
Q 3776 1286 3674 1286
Q 3059 1286 2569 1280
Q 2080 1274 1613 1254
L 1613 1632
Q 1837 1626 2105 1619
Q 2374 1613 2694 1600
Q 3014 1594 3257 1590
Q 3501 1587 3674 1587
L 5376 1606
L 5363 1056
L 5382 499
L 3642 512
Q 3130 512 2749 499
Q 2368 486 2080 474
L 2080 -122
L 3622 -134
Q 4314 -134 4762 -128
Q 5210 -122 5523 -109
L 5523 -486
z
M 4582 2893
L 3565 2842
Q 3379 2842 3212 2832
Q 3046 2822 2899 2810
Q 2874 2810 2842 2806
Q 2810 2803 2778 2797
L 2765 2362
Q 2765 2253 2765 2176
Q 2765 2099 2768 2048
Q 2771 1997 2774 1955
Q 2778 1914 2784 1875
L 2349 1850
L 2362 2362
L 2349 2778
Q 2259 2778 2057 2774
Q 1856 2771 1536 2765
Q 1222 2758 1040 2758
Q 858 2758 806 2758
Q 762 2758 701 2732
Q 640 2707 621 2707
Q 570 2707 550 2803
L 480 3142
Q 602 3130 979 3123
Q 1165 3117 1373 3117
Q 1581 3117 1805 3117
Q 2298 3117 2630 3129
Q 2963 3142 3251 3162
Q 3258 3174 3264 3196
Q 3270 3219 3277 3245
Q 3315 3360 3344 3475
Q 3373 3590 3405 3699
Q 3443 3898 3482 4179
Q 3488 4218 3491 4266
Q 3494 4314 3507 4371
L 2227 4371
Q 1920 4371 1590 4358
Q 1261 4346 973 4333
L 973 4736
Q 1056 4736 1229 4733
Q 1402 4730 1677 4723
Q 1952 4717 2131 4717
Q 2310 4717 2400 4717
Q 2816 4717 3238 4723
Q 3661 4730 4006 4742
Q 4006 4544 3964 4297
Q 3923 4051 3846 3757
Q 3802 3610 3763 3462
Q 3725 3315 3680 3168
L 4563 3245
L 4582 2893
z
M 5414 5114
Q 5414 5088 5385 4998
Q 5357 4909 5357 4851
L 5350 3686
Q 5350 3578 5350 3395
Q 5350 3213 5357 2944
Q 5363 2675 5363 2470
Q 5363 2266 5363 2118
L 5376 1702
L 4941 1683
L 4941 2138
L 3750 2138
L 3750 2496
L 4378 2483
L 4941 2496
L 4941 4672
L 4915 5190
L 5075 5190
Q 5248 5190 5331 5177
Q 5414 5165 5414 5114
z
" transform="scale(0.015625)"/>
       </defs>
       <use xlink:href="#AppleGothic-bd80"/>
       <use xlink:href="#AppleGothic-c0b0" transform="translate(99.999985 0)"/>
       <use xlink:href="#AppleGothic-20" transform="translate(199.999969 0)"/>
       <use xlink:href="#AppleGothic-bd81" transform="translate(231.999954 0)"/>
       <use xlink:href="#AppleGothic-ad6c" transform="translate(331.999939 0)"/>
       <use xlink:href="#AppleGothic-20" transform="translate(431.999924 0)"/>
       <use xlink:href="#AppleGothic-ac11" transform="translate(463.999908 0)"/>
       <use xlink:href="#AppleGothic-20" transform="translate(563.999893 0)"/>
       <use xlink:href="#AppleGothic-28" transform="translate(595.999878 0)"/>
       <use xlink:href="#AppleGothic-bcf4" transform="translate(645.999863 0)"/>
       <use xlink:href="#AppleGothic-ad90" transform="translate(745.999847 0)"/>
       <use xlink:href="#AppleGothic-29" transform="translate(845.999832 0)"/>
      </g>
      <!-- busan_buk_gap -->
      <g transform="translate(33.397031 336.031655) scale(0.09 -0.09)">
       <defs>
        <path id="AppleGothic-62" d="M 288 5018
L 755 5018
L 755 2848
Q 845 2982 931 3078
Q 1018 3174 1107 3245
Q 1440 3501 1882 3501
Q 2547 3501 2976 2995
Q 3418 2483 3418 1754
Q 3418 1005 2976 480
Q 2502 -83 1792 -83
Q 1402 -83 1114 90
Q 928 192 755 384
L 634 0
L 288 0
L 288 5018
z
M 755 1862
L 755 870
Q 845 762 934 678
Q 1024 595 1101 538
Q 1382 339 1741 339
Q 2234 339 2554 742
Q 2874 1158 2874 1747
Q 2874 2362 2515 2752
Q 2208 3085 1805 3085
Q 1370 3085 1056 2714
Q 755 2355 755 1862
z
" transform="scale(0.015625)"/>
        <path id="AppleGothic-5f" d="M 0 -659
L 3200 -659
L 3200 -832
L 0 -832
L 0 -659
z
" transform="scale(0.015625)"/>
        <path id="AppleGothic-6b" d="M 288 5018
L 755 5018
L 755 1914
L 2330 3424
L 2982 3424
L 1542 2093
L 3187 0
L 2554 0
L 1197 1786
L 755 1376
L 755 0
L 288 0
L 288 5018
z
" transform="scale(0.015625)"/>
       </defs>
       <use xlink:href="#AppleGothic-62"/>
       <use xlink:href="#AppleGothic-75" transform="translate(56.199997 0)"/>
       <use xlink:href="#AppleGothic-73" transform="translate(111.699982 0)"/>
       <use xlink:href="#AppleGothic-61" transform="translate(161.299973 0)"/>
       <use xlink:href="#AppleGothic-6e" transform="translate(217.799957 0)"/>
       <use xlink:href="#AppleGothic-5f" transform="translate(273.699951 0)"/>
       <use xlink:href="#AppleGothic-62" transform="translate(323.699936 0)"/>
       <use xlink:href="#AppleGothic-75" transform="translate(379.899933 0)"/>
       <use xlink:href="#AppleGothic-6b" transform="translate(435.399918 0)"/>
       <use xlink:href="#AppleGothic-5f" transform="translate(486.799911 0)"/>
       <use xlink:href="#AppleGothic-67" transform="translate(536.799896 0)"/>
       <use xlink:href="#AppleGothic-61" transform="translate(592.999893 0)"/>
       <use xlink:href="#AppleGothic-70" transform="translate(649.499878 0)"/>
      </g>
     </g>
    </g>
    <g id="ytick_2">
     <g id="line2d_20">
      <g>
       <use xlink:href="#m8fbdd61dd7" x="103.84" y="260.328101" style="stroke: #000000; stroke-width: 0.8"/>
      </g>
     </g>
     <g id="text_5">
      <!-- 대구 달서구 갑 (보궐) -->
      <g transform="translate(7.2 259.55396) scale(0.09 -0.09)">
       <defs>
        <path id="AppleGothic-b300" d="M 5702 -486
L 5210 -506
Q 5203 -416 5203 -294
Q 5203 -173 5203 -6
Q 5197 154 5197 269
Q 5197 384 5197 454
Q 5197 646 5200 838
Q 5203 1030 5210 1216
L 5210 1370
Q 5210 1574 5210 1699
Q 5210 1824 5203 1882
Q 5203 1946 5203 1994
Q 5203 2042 5197 2086
L 4314 2086
L 4301 1190
L 4320 -134
L 3866 -154
L 3866 627
Q 3866 870 3866 1232
Q 3866 1594 3872 2074
Q 3878 2554 3878 2906
Q 3878 3258 3878 3482
L 3878 4595
L 3866 5050
L 4013 5050
Q 4160 5050 4262 5027
Q 4365 5005 4365 4934
Q 4365 4915 4355 4873
Q 4346 4832 4336 4787
Q 4326 4742 4316 4707
Q 4307 4672 4307 4653
L 4307 2490
L 5210 2490
L 5210 4730
Q 5197 4813 5197 4934
Q 5197 5056 5190 5152
Q 5210 5171 5318 5171
L 5376 5171
Q 5523 5171 5606 5152
Q 5690 5133 5690 5056
Q 5670 4973 5657 4902
Q 5645 4832 5645 4762
L 5645 1984
Q 5645 1626 5651 1226
Q 5658 826 5670 371
Q 5677 205 5683 -6
Q 5690 -218 5702 -486
z
M 3597 1152
Q 3462 1126 3356 1113
Q 3251 1101 3168 1088
Q 2925 1056 2726 1027
Q 2528 998 2374 986
Q 2074 954 1782 928
Q 1491 902 1203 883
Q 1114 877 1011 870
Q 909 864 794 858
L 806 2592
L 787 4442
L 1914 4429
L 2637 4429
Q 2835 4435 3008 4448
L 3008 4051
L 2131 4051
L 1267 4032
L 1254 2656
L 1274 1280
Q 1402 1293 1504 1299
Q 1606 1306 1690 1312
Q 2112 1350 2528 1398
Q 2944 1446 3379 1517
Q 3418 1523 3466 1529
Q 3514 1536 3578 1549
L 3597 1152
z
" transform="scale(0.015625)"/>
        <path id="AppleGothic-b2ec" d="M 5286 -410
L 3251 -390
L 1357 -397
L 1370 262
L 1357 890
L 4685 883
L 4685 1414
L 3283 1427
L 1344 1414
L 1344 1766
Q 1536 1754 1929 1744
Q 2323 1734 2867 1734
L 5152 1754
L 5146 1126
L 5158 531
L 1830 531
L 1830 -45
L 3379 -58
Q 3782 -58 4076 -58
Q 4371 -58 4570 -51
Q 4960 -51 5286 -32
L 5286 -410
z
M 4102 2650
Q 3981 2618 3881 2595
Q 3782 2573 3693 2560
Q 3424 2515 3158 2492
Q 2893 2470 2630 2470
Q 2202 2432 1139 2374
Q 1056 2368 953 2365
Q 851 2362 723 2349
L 742 3494
L 723 4755
L 2221 4742
L 3642 4762
L 3642 4378
L 2355 4390
L 1184 4378
L 1171 3539
L 1178 2790
Q 1459 2803 1795 2812
Q 2131 2822 2451 2822
Q 3098 2822 3648 2918
Q 3744 2931 3849 2960
Q 3955 2989 4083 3021
L 4102 2650
z
M 6061 3072
L 5120 3072
L 5133 2074
L 4672 2074
Q 4672 2093 4672 2160
Q 4672 2227 4678 2336
Q 4685 2451 4685 2678
Q 4685 2906 4685 3251
L 4685 4666
Q 4685 4813 4678 4960
Q 4672 5107 4659 5190
L 4851 5197
Q 4986 5197 5078 5174
Q 5171 5152 5171 5082
Q 5171 5062 5152 4982
Q 5133 4902 5133 4845
L 5120 4134
L 5126 3482
L 6061 3494
L 6061 3072
z
" transform="scale(0.015625)"/>
        <path id="AppleGothic-c11c" d="M 5434 5062
Q 5434 5037 5414 4969
Q 5395 4902 5395 4851
L 5376 2790
L 5395 -518
L 4909 -544
L 4934 2618
L 3539 2579
L 3539 3034
L 4928 3034
L 4934 4614
Q 4934 4781 4934 4883
Q 4934 4986 4928 5037
Q 4928 5088 4925 5123
Q 4922 5158 4915 5190
Q 4986 5190 5069 5184
Q 5152 5178 5242 5165
Q 5434 5133 5434 5062
z
M 3859 1178
Q 3859 1152 3808 1120
Q 3712 1056 3712 1056
Q 3661 1005 3565 928
Q 3565 928 3514 890
Q 3411 979 3315 1062
Q 3219 1146 3117 1235
Q 3008 1357 2899 1501
Q 2790 1645 2682 1818
Q 2618 1920 2557 2051
Q 2496 2182 2426 2349
Q 2355 2515 2307 2668
Q 2259 2822 2227 2963
Q 2195 2848 2170 2771
Q 1984 2291 1587 1754
Q 1485 1619 1369 1491
Q 1254 1363 1126 1235
Q 1018 1146 915 1056
Q 813 966 704 877
L 467 1037
L 358 1114
Q 358 1114 320 1139
L 346 1178
Q 378 1178 602 1357
Q 902 1600 1184 1952
Q 1376 2195 1533 2467
Q 1690 2739 1805 3040
Q 1978 3462 2054 4109
Q 2067 4218 2080 4352
Q 2093 4486 2106 4666
Q 2157 4666 2233 4653
Q 2310 4640 2419 4614
Q 2637 4563 2637 4506
Q 2637 4480 2601 4429
Q 2566 4378 2560 4352
Q 2541 4243 2531 4169
Q 2522 4096 2509 4045
Q 2445 3725 2445 3699
L 2554 3213
Q 2598 3040 2668 2838
Q 2739 2637 2844 2422
Q 2950 2208 3104 1981
Q 3258 1754 3469 1536
Q 3539 1466 3632 1382
Q 3725 1299 3846 1203
L 3859 1178
z
" transform="scale(0.015625)"/>
       </defs>
       <use xlink:href="#AppleGothic-b300"/>
       <use xlink:href="#AppleGothic-ad6c" transform="translate(99.999985 0)"/>
       <use xlink:href="#AppleGothic-20" transform="translate(199.999969 0)"/>
       <use xlink:href="#AppleGothic-b2ec" transform="translate(231.999954 0)"/>
       <use xlink:href="#AppleGothic-c11c" transform="translate(331.999939 0)"/>
       <use xlink:href="#AppleGothic-ad6c" transform="translate(431.999924 0)"/>
       <use xlink:href="#AppleGothic-20" transform="translate(531.999908 0)"/>
       <use xlink:href="#AppleGothic-ac11" transform="translate(563.999893 0)"/>
       <use xlink:href="#AppleGothic-20" transform="translate(663.999878 0)"/>
       <use xlink:href="#AppleGothic-28" transform="translate(695.999863 0)"/>
       <use xlink:href="#AppleGothic-bcf4" transform="translate(745.999847 0)"/>
       <use xlink:href="#AppleGothic-ad90" transform="translate(845.999832 0)"/>
       <use xlink:href="#AppleGothic-29" transform="translate(945.999817 0)"/>
      </g>
      <!-- daegu_dalseo_gap -->
      <g transform="translate(21.670313 269.570117) scale(0.09 -0.09)">
       <use xlink:href="#AppleGothic-64"/>
       <use xlink:href="#AppleGothic-61" transform="translate(53.999985 0)"/>
       <use xlink:href="#AppleGothic-65" transform="translate(110.499969 0)"/>
       <use xlink:href="#AppleGothic-67" transform="translate(165.399963 0)"/>
       <use xlink:href="#AppleGothic-75" transform="translate(221.59996 0)"/>
       <use xlink:href="#AppleGothic-5f" transform="translate(277.099945 0)"/>
       <use xlink:href="#AppleGothic-64" transform="translate(327.09993 0)"/>
       <use xlink:href="#AppleGothic-61" transform="translate(381.099915 0)"/>
       <use xlink:href="#AppleGothic-6c" transform="translate(437.599899 0)"/>
       <use xlink:href="#AppleGothic-73" transform="translate(454.299896 0)"/>
       <use xlink:href="#AppleGothic-65" transform="translate(503.899887 0)"/>
       <use xlink:href="#AppleGothic-6f" transform="translate(558.799881 0)"/>
       <use xlink:href="#AppleGothic-5f" transform="translate(617.099869 0)"/>
       <use xlink:href="#AppleGothic-67" transform="translate(667.099854 0)"/>
       <use xlink:href="#AppleGothic-61" transform="translate(723.29985 0)"/>
       <use xlink:href="#AppleGothic-70" transform="translate(779.799835 0)"/>
      </g>
     </g>
    </g>
    <g id="ytick_3">
     <g id="line2d_21">
      <g>
       <use xlink:href="#m8fbdd61dd7" x="103.84" y="193.866562" style="stroke: #000000; stroke-width: 0.8"/>
      </g>
     </g>
     <g id="text_6">
      <!-- 광주시장 -->
      <g transform="translate(60.84 193.196484) scale(0.09 -0.09)">
       <defs>
        <path id="AppleGothic-ad11" d="M 4787 582
Q 4755 864 4205 1018
Q 3981 1082 3728 1114
Q 3475 1146 3174 1146
Q 2541 1146 2138 1030
Q 1536 870 1536 486
Q 1536 179 1824 38
Q 1990 -51 2297 -92
Q 2605 -134 3046 -134
L 3251 -134
Q 3565 -134 3811 -108
Q 4058 -83 4237 -26
Q 4787 154 4787 582
z
M 5216 544
Q 5216 -45 4557 -314
Q 4038 -525 3245 -525
Q 2272 -525 1754 -339
Q 1107 -90 1107 467
Q 1107 1024 1786 1280
Q 2054 1389 2393 1437
Q 2733 1485 3142 1485
Q 3565 1485 3907 1440
Q 4250 1395 4525 1293
Q 5216 1043 5216 544
z
M 4275 2182
Q 4243 2182 4054 2172
Q 3866 2163 3507 2138
Q 2227 2061 1933 2042
Q 1446 2016 1129 2006
Q 813 1997 659 1997
Q 595 1984 534 1974
Q 474 1965 410 1952
Q 358 1952 358 2003
L 333 2362
L 1050 2362
Q 1293 2362 1433 2368
Q 1574 2374 1702 2394
L 1702 3373
Q 1702 3462 1702 3526
Q 1702 3590 1696 3622
Q 1696 3635 1683 3674
L 1754 3674
Q 1920 3674 2038 3658
Q 2157 3642 2157 3590
Q 2157 3552 2150 3533
Q 2118 3386 2118 3347
L 2112 2413
Q 2470 2413 3194 2470
Q 3910 2528 4275 2528
L 4275 2182
z
M 6061 2835
L 5555 2848
L 5107 2835
L 5094 1587
L 4672 1549
L 4678 4762
Q 4678 5024 4659 5190
L 4819 5197
Q 4947 5197 5046 5174
Q 5146 5152 5146 5094
Q 5146 5075 5123 4998
Q 5101 4922 5101 4877
L 5107 3213
L 5549 3194
L 6061 3206
L 6061 2835
z
M 3731 4691
Q 3725 4621 3721 4534
Q 3718 4448 3712 4358
Q 3706 4262 3690 4067
Q 3674 3872 3648 3571
Q 3635 3405 3622 3270
Q 3610 3136 3597 3027
Q 3590 2982 3584 2928
Q 3578 2874 3565 2803
L 3168 2803
L 3245 3590
Q 3245 3693 3248 3805
Q 3251 3917 3258 4045
Q 3277 4294 3277 4314
L 2106 4326
L 730 4307
L 730 4691
L 2278 4672
L 3731 4691
z
" transform="scale(0.015625)"/>
        <path id="AppleGothic-c8fc" d="M 5984 1850
L 3482 1850
L 3501 -570
L 3008 -602
Q 3014 -480 3014 -345
Q 3014 -211 3014 -58
Q 3021 90 3021 211
Q 3021 333 3021 422
L 3027 1850
L 1837 1824
L 410 1811
L 410 2214
Q 518 2208 649 2208
Q 781 2208 947 2202
L 1536 2202
L 3232 2214
Q 3821 2214 4256 2217
Q 4691 2221 4986 2227
Q 5581 2246 5984 2266
L 5984 1850
z
M 5562 3123
Q 5562 3104 5485 3056
Q 5408 3008 5382 2976
L 5229 2790
Q 5062 2822 4928 2857
Q 4794 2893 4678 2938
Q 4499 3008 4320 3104
Q 4141 3200 3955 3328
Q 3629 3539 3392 3853
Q 3219 4134 3213 4134
Q 3187 4083 3168 4041
Q 3149 4000 3130 3968
Q 2880 3552 2381 3245
Q 2182 3117 1971 3024
Q 1760 2931 1536 2861
Q 1466 2835 1370 2816
Q 1274 2797 1165 2778
L 1005 2938
Q 973 2970 896 3027
Q 806 3085 806 3098
Q 813 3123 832 3123
Q 928 3136 1014 3145
Q 1101 3155 1171 3168
Q 1978 3334 2470 3789
Q 2746 4026 2886 4365
Q 2931 4454 2982 4646
L 2048 4627
L 1030 4627
L 1030 5005
Q 1101 5005 1251 5001
Q 1402 4998 1645 4992
Q 1888 4986 2080 4986
Q 2272 4986 2406 4986
L 5293 5030
L 5293 4653
L 4403 4659
L 3450 4646
Q 3456 4570 3469 4512
Q 3571 4192 3955 3827
Q 4346 3462 4973 3270
Q 5082 3238 5219 3209
Q 5357 3181 5530 3149
L 5562 3123
z
" transform="scale(0.015625)"/>
        <path id="AppleGothic-c2dc" d="M 5459 5062
Q 5459 5043 5440 4969
Q 5421 4896 5421 4826
L 5402 2349
L 5414 -531
L 4909 -557
Q 4915 -410 4915 -278
Q 4915 -147 4922 -19
Q 4928 218 4941 1190
Q 4960 2150 4960 2253
Q 4960 3923 4941 4416
Q 4934 4915 4922 5190
Q 5146 5190 5302 5158
Q 5459 5126 5459 5062
z
M 4250 1478
Q 4250 1459 4224 1434
Q 4211 1421 4179 1395
Q 4147 1370 4109 1338
L 3917 1178
Q 3866 1210 3821 1242
Q 3776 1274 3738 1306
Q 3290 1658 2899 2227
Q 2707 2496 2534 2918
Q 2515 2976 2483 3072
Q 2451 3168 2400 3309
Q 2221 2688 1754 2054
Q 1267 1389 710 1114
Q 698 1120 653 1155
Q 608 1190 518 1254
Q 486 1280 444 1312
Q 403 1344 346 1395
Q 346 1421 371 1427
Q 397 1440 406 1449
Q 416 1459 422 1466
Q 467 1466 710 1645
Q 896 1773 1056 1920
Q 1216 2067 1350 2234
Q 1549 2464 1696 2729
Q 1843 2995 1952 3296
Q 2061 3610 2125 4000
Q 2157 4205 2173 4381
Q 2189 4557 2189 4717
Q 2323 4717 2534 4678
Q 2752 4653 2752 4576
Q 2752 4544 2710 4470
Q 2669 4397 2669 4378
L 2630 4032
Q 2656 3923 2681 3814
Q 2707 3706 2739 3597
Q 2790 3430 2857 3248
Q 2925 3066 3021 2867
Q 3264 2349 3757 1894
Q 3840 1818 3949 1728
Q 4058 1638 4198 1530
L 4237 1491
L 4250 1478
z
" transform="scale(0.015625)"/>
        <path id="AppleGothic-c7a5" d="M 4832 525
Q 4832 870 4352 1050
Q 3930 1197 3226 1197
Q 2394 1197 2000 1027
Q 1606 858 1606 531
Q 1606 211 1933 51
Q 2138 -58 2467 -109
Q 2797 -160 3258 -160
Q 3994 -160 4371 -19
Q 4832 166 4832 525
z
M 5286 506
Q 5286 -45 4755 -282
Q 4256 -506 3302 -506
L 3085 -518
Q 2266 -518 1760 -314
Q 1133 -45 1133 512
Q 1133 1075 1805 1338
Q 2349 1542 3238 1542
Q 4230 1542 4758 1289
Q 5286 1037 5286 506
z
M 4096 2336
Q 4064 2304 4041 2281
Q 4019 2259 4006 2246
Q 3904 2144 3853 2089
Q 3802 2035 3789 2029
Q 3680 2074 3587 2125
Q 3494 2176 3405 2234
Q 3155 2406 2810 2733
Q 2701 2842 2601 2979
Q 2502 3117 2413 3283
Q 2381 3334 2349 3411
Q 2317 3488 2278 3578
Q 2240 3443 2189 3331
Q 2138 3219 2080 3130
Q 1984 2976 1859 2829
Q 1734 2682 1587 2534
Q 1491 2438 1340 2332
Q 1190 2227 986 2099
Q 922 2061 832 2013
Q 742 1965 634 1901
Q 589 1946 544 1984
Q 499 2022 448 2074
Q 422 2099 384 2137
Q 346 2176 288 2227
L 307 2253
Q 454 2304 566 2355
Q 678 2406 768 2458
Q 1293 2746 1600 3155
Q 1728 3322 1821 3488
Q 1914 3654 1965 3821
Q 2035 4051 2035 4243
L 2029 4384
L 602 4358
L 602 4800
Q 666 4800 813 4797
Q 960 4794 1184 4787
Q 1408 4781 1549 4781
Q 1690 4781 1747 4781
L 2138 4787
Q 2566 4787 3036 4800
Q 3507 4813 3904 4826
L 3904 4390
L 3213 4403
L 2496 4390
Q 2496 4282 2509 4186
Q 2522 4090 2541 3987
Q 2579 3840 2649 3689
Q 2720 3539 2816 3373
Q 3046 3008 3565 2662
Q 3648 2605 3766 2541
Q 3885 2477 4038 2394
Q 4051 2381 4064 2368
Q 4077 2355 4090 2342
Q 4090 2336 4096 2336
z
M 6042 2950
L 5139 2950
L 5139 1664
L 4678 1664
L 4678 4698
Q 4678 4800 4675 4931
Q 4672 5062 4659 5190
L 4691 5190
Q 4960 5190 5072 5168
Q 5184 5146 5184 5094
Q 5184 5075 5158 4998
Q 5133 4922 5133 4864
L 5133 3347
L 6042 3347
L 6042 2950
z
" transform="scale(0.015625)"/>
       </defs>
       <use xlink:href="#AppleGothic-ad11"/>
       <use xlink:href="#AppleGothic-c8fc" transform="translate(99.999985 0)"/>
       <use xlink:href="#AppleGothic-c2dc" transform="translate(199.999969 0)"/>
       <use xlink:href="#AppleGothic-c7a5" transform="translate(299.999954 0)"/>
      </g>
      <!-- gwangju_mayor -->
      <g transform="translate(30.563438 203.212641) scale(0.09 -0.09)">
       <defs>
        <path id="AppleGothic-77" d="M 2438 3424
L 2874 3424
L 3405 1811
Q 3501 1498 3600 1162
Q 3699 826 3770 538
Q 3789 602 3805 646
Q 3821 691 3834 736
Q 3904 979 3977 1228
Q 4051 1478 4122 1747
L 4646 3424
L 5126 3424
L 3981 0
L 3552 0
L 2944 1894
Q 2842 2202 2781 2378
Q 2720 2554 2707 2618
Q 2682 2726 2669 2803
Q 2656 2880 2656 2944
Q 2598 2771 2556 2636
Q 2515 2502 2490 2406
Q 2406 2118 2361 1945
Q 2317 1773 2304 1715
L 1760 0
L 1325 0
L 186 3424
L 685 3424
L 1594 538
Q 1626 723 1664 886
Q 1702 1050 1747 1203
Q 1779 1312 1811 1427
Q 1843 1542 1888 1664
L 2438 3424
z
" transform="scale(0.015625)"/>
        <path id="AppleGothic-6a" d="M 954 3424
L 1414 3424
L 1414 -256
Q 1414 -749 1133 -979
Q 896 -1184 525 -1184
Q 352 -1184 237 -1152
Q 122 -1120 6 -1062
L 6 -640
Q 122 -698 234 -733
Q 346 -768 454 -768
Q 698 -768 826 -624
Q 954 -480 954 -230
L 954 3424
z
M 1152 4870
Q 1286 4870 1376 4780
Q 1466 4691 1466 4525
Q 1466 4358 1382 4268
Q 1299 4179 1152 4179
Q 1005 4179 925 4281
Q 845 4384 845 4518
Q 845 4730 941 4800
Q 1037 4870 1152 4870
z
" transform="scale(0.015625)"/>
        <path id="AppleGothic-6d" d="M 5389 2195
L 5389 0
L 4922 0
L 4922 2304
Q 4922 2669 4672 2893
Q 4461 3085 4173 3085
Q 3744 3085 3405 2688
Q 3072 2298 3072 1722
L 3072 0
L 2605 0
L 2605 2304
Q 2605 2650 2368 2861
Q 2144 3085 1856 3085
Q 1440 3085 1114 2714
Q 755 2304 755 1702
L 755 0
L 288 0
L 288 3424
L 723 3424
L 742 2880
Q 928 3181 1274 3354
Q 1581 3501 1894 3501
Q 2381 3501 2714 3219
Q 2957 3008 3021 2797
Q 3149 3034 3386 3226
Q 3757 3501 4205 3501
Q 4749 3501 5050 3174
Q 5389 2803 5389 2195
z
" transform="scale(0.015625)"/>
        <path id="AppleGothic-79" d="M 179 3424
L 691 3424
L 1869 531
L 2874 3424
L 3379 3424
L 1952 -397
Q 1798 -806 1555 -979
Q 1338 -1126 1037 -1126
Q 883 -1126 780 -1104
Q 678 -1082 582 -1043
L 582 -602
Q 672 -646 784 -678
Q 896 -710 986 -710
Q 1210 -710 1334 -595
Q 1459 -480 1555 -230
L 1632 32
L 179 3424
z
" transform="scale(0.015625)"/>
       </defs>
       <use xlink:href="#AppleGothic-67"/>
       <use xlink:href="#AppleGothic-77" transform="translate(56.199997 0)"/>
       <use xlink:href="#AppleGothic-61" transform="translate(139.699982 0)"/>
       <use xlink:href="#AppleGothic-6e" transform="translate(196.199966 0)"/>
       <use xlink:href="#AppleGothic-67" transform="translate(252.09996 0)"/>
       <use xlink:href="#AppleGothic-6a" transform="translate(308.299957 0)"/>
       <use xlink:href="#AppleGothic-75" transform="translate(335.899948 0)"/>
       <use xlink:href="#AppleGothic-5f" transform="translate(391.399933 0)"/>
       <use xlink:href="#AppleGothic-6d" transform="translate(441.399918 0)"/>
       <use xlink:href="#AppleGothic-61" transform="translate(530.699905 0)"/>
       <use xlink:href="#AppleGothic-79" transform="translate(587.19989 0)"/>
       <use xlink:href="#AppleGothic-6f" transform="translate(642.899887 0)"/>
       <use xlink:href="#AppleGothic-72" transform="translate(701.199875 0)"/>
      </g>
     </g>
    </g>
    <g id="ytick_4">
     <g id="line2d_22">
      <g>
       <use xlink:href="#m8fbdd61dd7" x="103.84" y="127.405024" style="stroke: #000000; stroke-width: 0.8"/>
      </g>
     </g>
     <g id="text_7">
      <!-- 대구시장 -->
      <g transform="translate(60.84 126.630883) scale(0.09 -0.09)">
       <use xlink:href="#AppleGothic-b300"/>
       <use xlink:href="#AppleGothic-ad6c" transform="translate(99.999985 0)"/>
       <use xlink:href="#AppleGothic-c2dc" transform="translate(199.999969 0)"/>
       <use xlink:href="#AppleGothic-c7a5" transform="translate(299.999954 0)"/>
      </g>
      <!-- daegu_mayor -->
      <g transform="translate(40.850156 136.64704) scale(0.09 -0.09)">
       <use xlink:href="#AppleGothic-64"/>
       <use xlink:href="#AppleGothic-61" transform="translate(53.999985 0)"/>
       <use xlink:href="#AppleGothic-65" transform="translate(110.499969 0)"/>
       <use xlink:href="#AppleGothic-67" transform="translate(165.399963 0)"/>
       <use xlink:href="#AppleGothic-75" transform="translate(221.59996 0)"/>
       <use xlink:href="#AppleGothic-5f" transform="translate(277.099945 0)"/>
       <use xlink:href="#AppleGothic-6d" transform="translate(327.09993 0)"/>
       <use xlink:href="#AppleGothic-61" transform="translate(416.399918 0)"/>
       <use xlink:href="#AppleGothic-79" transform="translate(472.899902 0)"/>
       <use xlink:href="#AppleGothic-6f" transform="translate(528.599899 0)"/>
       <use xlink:href="#AppleGothic-72" transform="translate(586.899887 0)"/>
      </g>
     </g>
    </g>
    <g id="ytick_5">
     <g id="line2d_23">
      <g>
       <use xlink:href="#m8fbdd61dd7" x="103.84" y="60.943486" style="stroke: #000000; stroke-width: 0.8"/>
      </g>
     </g>
     <g id="text_8">
      <!-- 서울시장 -->
      <g transform="translate(60.84 60.169345) scale(0.09 -0.09)">
       <defs>
        <path id="AppleGothic-c6b8" d="M 4870 4166
Q 4870 4512 4326 4666
Q 3917 4787 3258 4787
L 3117 4787
Q 2490 4787 2157 4691
Q 1632 4557 1632 4160
Q 1658 3866 2144 3706
Q 2362 3635 2637 3603
Q 2912 3571 3251 3571
Q 4109 3571 4489 3708
Q 4870 3846 4870 4166
z
M 5952 2323
L 3424 2362
L 3418 2074
L 3430 1715
L 4218 1702
L 5165 1702
L 5152 1203
L 5171 595
L 3206 595
Q 2925 595 2713 595
Q 2502 595 2355 589
Q 2208 589 2070 585
Q 1933 582 1792 576
L 1792 13
Q 1901 6 2064 6
Q 2227 6 2438 0
Q 2650 -6 2816 -6
Q 2982 -6 3104 -6
L 3398 -6
Q 5210 32 5280 32
L 5280 -326
L 3405 -301
L 1325 -301
Q 1338 -237 1344 -144
Q 1350 -51 1350 128
L 1350 723
Q 1357 787 1357 835
Q 1357 883 1363 915
L 3200 896
L 4717 909
L 4717 1395
L 3283 1408
L 1344 1395
L 1344 1747
L 2099 1722
L 2976 1715
L 2995 2054
L 2982 2355
Q 2810 2355 2666 2355
Q 2522 2355 2413 2362
Q 1971 2374 1737 2380
Q 1504 2387 1466 2387
Q 1082 2387 854 2374
Q 627 2362 448 2342
L 448 2733
Q 506 2733 979 2714
Q 1222 2701 1494 2694
Q 1766 2688 2074 2682
Q 2381 2675 2646 2672
Q 2912 2669 3155 2669
L 5952 2682
L 5952 2323
z
M 5338 4166
Q 5338 3610 4678 3392
Q 4218 3238 3258 3238
Q 2803 3238 2454 3283
Q 2106 3328 1850 3418
Q 1210 3661 1210 4160
Q 1210 4730 1869 4960
Q 2349 5139 3251 5139
Q 4083 5139 4621 4954
Q 5338 4704 5338 4166
z
" transform="scale(0.015625)"/>
       </defs>
       <use xlink:href="#AppleGothic-c11c"/>
       <use xlink:href="#AppleGothic-c6b8" transform="translate(99.999985 0)"/>
       <use xlink:href="#AppleGothic-c2dc" transform="translate(199.999969 0)"/>
       <use xlink:href="#AppleGothic-c7a5" transform="translate(299.999954 0)"/>
      </g>
      <!-- seoul_mayor -->
      <g transform="translate(44.64 70.185501) scale(0.09 -0.09)">
       <use xlink:href="#AppleGothic-73"/>
       <use xlink:href="#AppleGothic-65" transform="translate(49.599991 0)"/>
       <use xlink:href="#AppleGothic-6f" transform="translate(104.499985 0)"/>
       <use xlink:href="#AppleGothic-75" transform="translate(162.799973 0)"/>
       <use xlink:href="#AppleGothic-6c" transform="translate(218.299957 0)"/>
       <use xlink:href="#AppleGothic-5f" transform="translate(234.999954 0)"/>
       <use xlink:href="#AppleGothic-6d" transform="translate(284.999939 0)"/>
       <use xlink:href="#AppleGothic-61" transform="translate(374.299927 0)"/>
       <use xlink:href="#AppleGothic-79" transform="translate(430.799911 0)"/>
       <use xlink:href="#AppleGothic-6f" transform="translate(486.499908 0)"/>
       <use xlink:href="#AppleGothic-72" transform="translate(544.799896 0)"/>
      </g>
     </g>
    </g>
   </g>
   <g id="patch_8">
    <path d="M 103.84 360.186562
L 103.84 27.546562
" style="fill: none; stroke: #000000; stroke-width: 0.8; stroke-linejoin: miter; stroke-linecap: square"/>
   </g>
   <g id="patch_9">
    <path d="M 717.64 360.186562
L 717.64 27.546562
" style="fill: none; stroke: #000000; stroke-width: 0.8; stroke-linejoin: miter; stroke-linecap: square"/>
   </g>
   <g id="patch_10">
    <path d="M 103.84 360.186562
L 717.64 360.186562
" style="fill: none; stroke: #000000; stroke-width: 0.8; stroke-linejoin: miter; stroke-linecap: square"/>
   </g>
   <g id="patch_11">
    <path d="M 103.84 27.546562
L 717.64 27.546562
" style="fill: none; stroke: #000000; stroke-width: 0.8; stroke-linejoin: miter; stroke-linecap: square"/>
   </g>
   <g id="text_9">
    <!-- 5,421 personas · avg age 52.48 -->
    <g style="fill: #17202a" transform="translate(143.90101 329.287139) scale(0.09 -0.09)">
     <defs>
      <path id="AppleGothic-2c" d="M 806 -941
L 550 -941
Q 666 -698 723 -502
Q 781 -307 806 -64
Q 666 0 602 77
Q 525 160 525 346
Q 525 576 630 720
Q 736 864 883 864
Q 1030 864 1113 701
Q 1197 538 1197 326
Q 1197 141 1161 -48
Q 1126 -237 1056 -429
Q 1011 -538 950 -662
Q 890 -787 806 -941
z
" transform="scale(0.015625)"/>
      <path id="AppleGothic-32" d="M 1101 429
L 3942 429
L 3942 0
L 653 0
L 653 205
Q 653 1018 1344 1664
Q 1670 1894 1990 2124
Q 2310 2355 2637 2592
Q 3334 3098 3334 3597
Q 3334 3994 3014 4218
Q 2867 4326 2694 4377
Q 2522 4429 2317 4429
Q 2016 4429 1741 4352
Q 1325 4224 883 3910
L 883 4435
Q 1325 4659 1667 4758
Q 2010 4858 2317 4858
Q 2963 4858 3405 4525
Q 3840 4198 3840 3622
Q 3840 2995 3168 2438
Q 2848 2214 2531 2000
Q 2214 1786 1894 1562
Q 1178 1024 1101 429
z
" transform="scale(0.015625)"/>
      <path id="AppleGothic-b7" d="M 1005 2010
L 378 2010
L 378 2675
L 1005 2675
L 1005 2010
z
" transform="scale(0.015625)"/>
      <path id="AppleGothic-76" d="M 109 3424
L 627 3424
L 1715 486
L 2829 3424
L 3290 3424
L 1920 0
L 1478 0
L 109 3424
z
" transform="scale(0.015625)"/>
      <path id="AppleGothic-2e" d="M 915 -19
Q 762 -19 653 109
Q 544 237 544 422
Q 544 614 656 745
Q 768 877 915 877
Q 1056 877 1168 758
Q 1280 640 1280 435
Q 1280 243 1171 112
Q 1062 -19 915 -19
z
" transform="scale(0.015625)"/>
      <path id="AppleGothic-38" d="M 2957 2605
Q 3219 2528 3404 2445
Q 3590 2362 3706 2272
Q 4192 1926 4192 1370
Q 4192 749 3642 333
Q 3098 -83 2285 -83
Q 1434 -83 947 326
Q 512 691 512 1229
Q 512 1798 998 2125
Q 1146 2227 1341 2304
Q 1536 2381 1779 2451
Q 1574 2534 1430 2617
Q 1286 2701 1197 2784
Q 819 3104 819 3603
Q 819 4173 1261 4512
Q 1702 4858 2381 4858
Q 3014 4858 3437 4570
Q 3898 4262 3898 3738
Q 3898 3373 3670 3081
Q 3443 2790 2957 2605
z
M 2406 2752
Q 2624 2835 2781 2915
Q 2938 2995 3040 3066
Q 3398 3322 3398 3667
Q 3398 3994 3104 4205
Q 2822 4429 2362 4429
Q 1894 4429 1613 4205
Q 1325 3994 1325 3635
Q 1325 3322 1581 3098
Q 1696 3002 1901 2912
Q 2106 2822 2406 2752
z
M 2368 2304
Q 2061 2202 1840 2106
Q 1619 2010 1472 1920
Q 1011 1626 1011 1235
Q 1011 845 1376 595
Q 1728 346 2310 346
Q 2938 346 3315 640
Q 3693 934 3693 1338
Q 3693 1741 3238 1997
Q 3104 2067 2886 2147
Q 2669 2227 2368 2304
z
" transform="scale(0.015625)"/>
     </defs>
     <use xlink:href="#AppleGothic-35"/>
     <use xlink:href="#AppleGothic-2c" transform="translate(67.999985 0)"/>
     <use xlink:href="#AppleGothic-34" transform="translate(96.299973 0)"/>
     <use xlink:href="#AppleGothic-32" transform="translate(164.299957 0)"/>
     <use xlink:href="#AppleGothic-31" transform="translate(232.299942 0)"/>
     <use xlink:href="#AppleGothic-20" transform="translate(300.299927 0)"/>
     <use xlink:href="#AppleGothic-70" transform="translate(332.299911 0)"/>
     <use xlink:href="#AppleGothic-65" transform="translate(387.699905 0)"/>
     <use xlink:href="#AppleGothic-72" transform="translate(442.599899 0)"/>
     <use xlink:href="#AppleGothic-73" transform="translate(477.799896 0)"/>
     <use xlink:href="#AppleGothic-6f" transform="translate(527.399887 0)"/>
     <use xlink:href="#AppleGothic-6e" transform="translate(585.699875 0)"/>
     <use xlink:href="#AppleGothic-61" transform="translate(641.599869 0)"/>
     <use xlink:href="#AppleGothic-73" transform="translate(698.099854 0)"/>
     <use xlink:href="#AppleGothic-20" transform="translate(747.699844 0)"/>
     <use xlink:href="#AppleGothic-b7" transform="translate(779.699829 0)"/>
     <use xlink:href="#AppleGothic-20" transform="translate(802.199814 0)"/>
     <use xlink:href="#AppleGothic-61" transform="translate(834.199799 0)"/>
     <use xlink:href="#AppleGothic-76" transform="translate(890.699783 0)"/>
     <use xlink:href="#AppleGothic-67" transform="translate(944.89978 0)"/>
     <use xlink:href="#AppleGothic-20" transform="translate(1001.099777 0)"/>
     <use xlink:href="#AppleGothic-61" transform="translate(1033.099762 0)"/>
     <use xlink:href="#AppleGothic-67" transform="translate(1089.599747 0)"/>
     <use xlink:href="#AppleGothic-65" transform="translate(1145.799744 0)"/>
     <use xlink:href="#AppleGothic-20" transform="translate(1200.699738 0)"/>
     <use xlink:href="#AppleGothic-35" transform="translate(1232.699722 0)"/>
     <use xlink:href="#AppleGothic-32" transform="translate(1300.699707 0)"/>
     <use xlink:href="#AppleGothic-2e" transform="translate(1368.699692 0)"/>
     <use xlink:href="#AppleGothic-34" transform="translate(1403.199677 0)"/>
     <use xlink:href="#AppleGothic-38" transform="translate(1471.199661 0)"/>
    </g>
   </g>
   <g id="text_10">
    <!-- 10,617 personas · avg age 50.61 -->
    <g style="fill: #17202a" transform="translate(250.115024 262.825601) scale(0.09 -0.09)">
     <defs>
      <path id="AppleGothic-36" d="M 3699 4557
L 3699 4013
Q 3584 4102 3475 4163
Q 3366 4224 3258 4275
Q 3085 4358 2918 4393
Q 2752 4429 2586 4429
Q 2470 4429 2352 4409
Q 2234 4390 2118 4339
Q 1670 4154 1395 3738
Q 1011 3149 1011 2189
Q 1312 2490 1568 2656
Q 2022 2931 2534 2931
Q 3162 2931 3584 2566
Q 4038 2163 4038 1491
Q 4038 806 3558 358
Q 3078 -83 2394 -83
Q 1670 -83 1146 454
Q 518 1088 518 2253
Q 518 3411 1120 4134
Q 1715 4858 2605 4858
Q 2938 4858 3226 4762
Q 3309 4730 3427 4682
Q 3546 4634 3699 4557
z
M 1062 1702
Q 1152 1152 1498 768
Q 1882 346 2419 346
Q 2899 346 3213 659
Q 3539 973 3539 1459
Q 3539 1920 3226 2214
Q 2918 2502 2496 2502
Q 1990 2502 1542 2176
Q 1414 2080 1292 1965
Q 1171 1850 1062 1702
z
" transform="scale(0.015625)"/>
      <path id="AppleGothic-37" d="M 595 4774
L 3802 4774
L 3802 4410
L 1734 0
L 1235 0
L 3277 4352
L 595 4352
L 595 4774
z
" transform="scale(0.015625)"/>
     </defs>
     <use xlink:href="#AppleGothic-31"/>
     <use xlink:href="#AppleGothic-30" transform="translate(67.999985 0)"/>
     <use xlink:href="#AppleGothic-2c" transform="translate(135.999969 0)"/>
     <use xlink:href="#AppleGothic-36" transform="translate(164.299957 0)"/>
     <use xlink:href="#AppleGothic-31" transform="translate(232.299942 0)"/>
     <use xlink:href="#AppleGothic-37" transform="translate(300.299927 0)"/>
     <use xlink:href="#AppleGothic-20" transform="translate(368.299911 0)"/>
     <use xlink:href="#AppleGothic-70" transform="translate(400.299896 0)"/>
     <use xlink:href="#AppleGothic-65" transform="translate(455.69989 0)"/>
     <use xlink:href="#AppleGothic-72" transform="translate(510.599884 0)"/>
     <use xlink:href="#AppleGothic-73" transform="translate(545.799881 0)"/>
     <use xlink:href="#AppleGothic-6f" transform="translate(595.399872 0)"/>
     <use xlink:href="#AppleGothic-6e" transform="translate(653.69986 0)"/>
     <use xlink:href="#AppleGothic-61" transform="translate(709.599854 0)"/>
     <use xlink:href="#AppleGothic-73" transform="translate(766.099838 0)"/>
     <use xlink:href="#AppleGothic-20" transform="translate(815.699829 0)"/>
     <use xlink:href="#AppleGothic-b7" transform="translate(847.699814 0)"/>
     <use xlink:href="#AppleGothic-20" transform="translate(870.199799 0)"/>
     <use xlink:href="#AppleGothic-61" transform="translate(902.199783 0)"/>
     <use xlink:href="#AppleGothic-76" transform="translate(958.699768 0)"/>
     <use xlink:href="#AppleGothic-67" transform="translate(1012.899765 0)"/>
     <use xlink:href="#AppleGothic-20" transform="translate(1069.099762 0)"/>
     <use xlink:href="#AppleGothic-61" transform="translate(1101.099747 0)"/>
     <use xlink:href="#AppleGothic-67" transform="translate(1157.599731 0)"/>
     <use xlink:href="#AppleGothic-65" transform="translate(1213.799728 0)"/>
     <use xlink:href="#AppleGothic-20" transform="translate(1268.699722 0)"/>
     <use xlink:href="#AppleGothic-35" transform="translate(1300.699707 0)"/>
     <use xlink:href="#AppleGothic-30" transform="translate(1368.699692 0)"/>
     <use xlink:href="#AppleGothic-2e" transform="translate(1436.699677 0)"/>
     <use xlink:href="#AppleGothic-36" transform="translate(1471.199661 0)"/>
     <use xlink:href="#AppleGothic-31" transform="translate(1539.199646 0)"/>
    </g>
   </g>
   <g id="text_11">
    <!-- 27,594 personas · avg age 49.58 -->
    <g style="fill: #17202a" transform="translate(401.0419 196.364062) scale(0.09 -0.09)">
     <defs>
      <path id="AppleGothic-39" d="M 928 211
L 928 762
Q 1050 672 1155 601
Q 1261 531 1363 480
Q 1702 320 2016 320
Q 2291 320 2541 435
Q 2739 525 2908 675
Q 3078 826 3213 1037
Q 3456 1408 3552 1843
Q 3616 2144 3616 2573
Q 3315 2272 3066 2125
Q 2605 1850 2093 1850
Q 1459 1850 1037 2214
Q 589 2598 589 3270
Q 589 3987 1082 4416
Q 1549 4832 2234 4832
Q 2970 4832 3494 4301
Q 4122 3661 4122 2528
Q 4122 1325 3475 582
Q 2874 -109 2035 -109
Q 1722 -109 1357 19
Q 1254 51 1148 102
Q 1043 154 928 211
z
M 3578 3066
Q 3462 3718 3053 4077
Q 2675 4403 2227 4403
Q 1715 4403 1402 4083
Q 1082 3750 1082 3302
Q 1082 2861 1370 2566
Q 1658 2278 2125 2278
Q 2573 2278 2915 2473
Q 3258 2669 3578 3066
z
" transform="scale(0.015625)"/>
     </defs>
     <use xlink:href="#AppleGothic-32"/>
     <use xlink:href="#AppleGothic-37" transform="translate(67.999985 0)"/>
     <use xlink:href="#AppleGothic-2c" transform="translate(135.999969 0)"/>
     <use xlink:href="#AppleGothic-35" transform="translate(164.299957 0)"/>
     <use xlink:href="#AppleGothic-39" transform="translate(232.299942 0)"/>
     <use xlink:href="#AppleGothic-34" transform="translate(300.299927 0)"/>
     <use xlink:href="#AppleGothic-20" transform="translate(368.299911 0)"/>
     <use xlink:href="#AppleGothic-70" transform="translate(400.299896 0)"/>
     <use xlink:href="#AppleGothic-65" transform="translate(455.69989 0)"/>
     <use xlink:href="#AppleGothic-72" transform="translate(510.599884 0)"/>
     <use xlink:href="#AppleGothic-73" transform="translate(545.799881 0)"/>
     <use xlink:href="#AppleGothic-6f" transform="translate(595.399872 0)"/>
     <use xlink:href="#AppleGothic-6e" transform="translate(653.69986 0)"/>
     <use xlink:href="#AppleGothic-61" transform="translate(709.599854 0)"/>
     <use xlink:href="#AppleGothic-73" transform="translate(766.099838 0)"/>
     <use xlink:href="#AppleGothic-20" transform="translate(815.699829 0)"/>
     <use xlink:href="#AppleGothic-b7" transform="translate(847.699814 0)"/>
     <use xlink:href="#AppleGothic-20" transform="translate(870.199799 0)"/>
     <use xlink:href="#AppleGothic-61" transform="translate(902.199783 0)"/>
     <use xlink:href="#AppleGothic-76" transform="translate(958.699768 0)"/>
     <use xlink:href="#AppleGothic-67" transform="translate(1012.899765 0)"/>
     <use xlink:href="#AppleGothic-20" transform="translate(1069.099762 0)"/>
     <use xlink:href="#AppleGothic-61" transform="translate(1101.099747 0)"/>
     <use xlink:href="#AppleGothic-67" transform="translate(1157.599731 0)"/>
     <use xlink:href="#AppleGothic-65" transform="translate(1213.799728 0)"/>
     <use xlink:href="#AppleGothic-20" transform="translate(1268.699722 0)"/>
     <use xlink:href="#AppleGothic-34" transform="translate(1300.699707 0)"/>
     <use xlink:href="#AppleGothic-39" transform="translate(1368.699692 0)"/>
     <use xlink:href="#AppleGothic-2e" transform="translate(1436.699677 0)"/>
     <use xlink:href="#AppleGothic-35" transform="translate(1471.199661 0)"/>
     <use xlink:href="#AppleGothic-38" transform="translate(1539.199646 0)"/>
    </g>
   </g>
   <g id="text_12">
    <!-- 46,934 personas · avg age 51.25 -->
    <g style="fill: #17202a" transform="translate(484.970693 129.902524) scale(0.09 -0.09)">
     <defs>
      <path id="AppleGothic-33" d="M 550 333
L 550 870
Q 883 621 1235 483
Q 1587 346 1971 346
Q 2522 346 2861 666
Q 3219 992 3219 1421
Q 3219 1869 2842 2099
Q 2515 2304 1965 2304
L 992 2304
L 992 2701
L 1658 2701
Q 2298 2701 2662 2928
Q 3027 3155 3027 3584
Q 3027 3936 2752 4173
Q 2458 4429 1978 4429
Q 1786 4429 1597 4393
Q 1408 4358 1222 4282
Q 890 4141 531 3872
L 531 4422
Q 736 4531 912 4608
Q 1088 4685 1254 4736
Q 1626 4858 2022 4858
Q 2650 4858 3066 4531
Q 3488 4211 3488 3642
Q 3488 3168 3168 2861
Q 2976 2675 2643 2554
Q 2874 2522 3053 2448
Q 3232 2374 3366 2266
Q 3718 1971 3718 1434
Q 3718 813 3219 365
Q 2714 -83 1965 -83
Q 1549 -83 1126 70
Q 1024 102 880 166
Q 736 230 550 333
z
" transform="scale(0.015625)"/>
     </defs>
     <use xlink:href="#AppleGothic-34"/>
     <use xlink:href="#AppleGothic-36" transform="translate(67.999985 0)"/>
     <use xlink:href="#AppleGothic-2c" transform="translate(135.999969 0)"/>
     <use xlink:href="#AppleGothic-39" transform="translate(164.299957 0)"/>
     <use xlink:href="#AppleGothic-33" transform="translate(232.299942 0)"/>
     <use xlink:href="#AppleGothic-34" transform="translate(300.299927 0)"/>
     <use xlink:href="#AppleGothic-20" transform="translate(368.299911 0)"/>
     <use xlink:href="#AppleGothic-70" transform="translate(400.299896 0)"/>
     <use xlink:href="#AppleGothic-65" transform="translate(455.69989 0)"/>
     <use xlink:href="#AppleGothic-72" transform="translate(510.599884 0)"/>
     <use xlink:href="#AppleGothic-73" transform="translate(545.799881 0)"/>
     <use xlink:href="#AppleGothic-6f" transform="translate(595.399872 0)"/>
     <use xlink:href="#AppleGothic-6e" transform="translate(653.69986 0)"/>
     <use xlink:href="#AppleGothic-61" transform="translate(709.599854 0)"/>
     <use xlink:href="#AppleGothic-73" transform="translate(766.099838 0)"/>
     <use xlink:href="#AppleGothic-20" transform="translate(815.699829 0)"/>
     <use xlink:href="#AppleGothic-b7" transform="translate(847.699814 0)"/>
     <use xlink:href="#AppleGothic-20" transform="translate(870.199799 0)"/>
     <use xlink:href="#AppleGothic-61" transform="translate(902.199783 0)"/>
     <use xlink:href="#AppleGothic-76" transform="translate(958.699768 0)"/>
     <use xlink:href="#AppleGothic-67" transform="translate(1012.899765 0)"/>
     <use xlink:href="#AppleGothic-20" transform="translate(1069.099762 0)"/>
     <use xlink:href="#AppleGothic-61" transform="translate(1101.099747 0)"/>
     <use xlink:href="#AppleGothic-67" transform="translate(1157.599731 0)"/>
     <use xlink:href="#AppleGothic-65" transform="translate(1213.799728 0)"/>
     <use xlink:href="#AppleGothic-20" transform="translate(1268.699722 0)"/>
     <use xlink:href="#AppleGothic-35" transform="translate(1300.699707 0)"/>
     <use xlink:href="#AppleGothic-31" transform="translate(1368.699692 0)"/>
     <use xlink:href="#AppleGothic-2e" transform="translate(1436.699677 0)"/>
     <use xlink:href="#AppleGothic-32" transform="translate(1471.199661 0)"/>
     <use xlink:href="#AppleGothic-35" transform="translate(1539.199646 0)"/>
    </g>
   </g>
   <g id="text_13">
    <!-- 185,228 personas · avg age 49.13 -->
    <g style="fill: #17202a" transform="translate(701.90101 63.440986) scale(0.09 -0.09)">
     <use xlink:href="#AppleGothic-31"/>
     <use xlink:href="#AppleGothic-38" transform="translate(67.999985 0)"/>
     <use xlink:href="#AppleGothic-35" transform="translate(135.999969 0)"/>
     <use xlink:href="#AppleGothic-2c" transform="translate(203.999954 0)"/>
     <use xlink:href="#AppleGothic-32" transform="translate(232.299942 0)"/>
     <use xlink:href="#AppleGothic-32" transform="translate(300.299927 0)"/>
     <use xlink:href="#AppleGothic-38" transform="translate(368.299911 0)"/>
     <use xlink:href="#AppleGothic-20" transform="translate(436.299896 0)"/>
     <use xlink:href="#AppleGothic-70" transform="translate(468.299881 0)"/>
     <use xlink:href="#AppleGothic-65" transform="translate(523.699875 0)"/>
     <use xlink:href="#AppleGothic-72" transform="translate(578.599869 0)"/>
     <use xlink:href="#AppleGothic-73" transform="translate(613.799866 0)"/>
     <use xlink:href="#AppleGothic-6f" transform="translate(663.399857 0)"/>
     <use xlink:href="#AppleGothic-6e" transform="translate(721.699844 0)"/>
     <use xlink:href="#AppleGothic-61" transform="translate(777.599838 0)"/>
     <use xlink:href="#AppleGothic-73" transform="translate(834.099823 0)"/>
     <use xlink:href="#AppleGothic-20" transform="translate(883.699814 0)"/>
     <use xlink:href="#AppleGothic-b7" transform="translate(915.699799 0)"/>
     <use xlink:href="#AppleGothic-20" transform="translate(938.199783 0)"/>
     <use xlink:href="#AppleGothic-61" transform="translate(970.199768 0)"/>
     <use xlink:href="#AppleGothic-76" transform="translate(1026.699753 0)"/>
     <use xlink:href="#AppleGothic-67" transform="translate(1080.89975 0)"/>
     <use xlink:href="#AppleGothic-20" transform="translate(1137.099747 0)"/>
     <use xlink:href="#AppleGothic-61" transform="translate(1169.099731 0)"/>
     <use xlink:href="#AppleGothic-67" transform="translate(1225.599716 0)"/>
     <use xlink:href="#AppleGothic-65" transform="translate(1281.799713 0)"/>
     <use xlink:href="#AppleGothic-20" transform="translate(1336.699707 0)"/>
     <use xlink:href="#AppleGothic-34" transform="translate(1368.699692 0)"/>
     <use xlink:href="#AppleGothic-39" transform="translate(1436.699677 0)"/>
     <use xlink:href="#AppleGothic-2e" transform="translate(1504.699661 0)"/>
     <use xlink:href="#AppleGothic-31" transform="translate(1539.199646 0)"/>
     <use xlink:href="#AppleGothic-33" transform="translate(1607.199631 0)"/>
    </g>
   </g>
   <g id="text_14">
    <!-- Source: _workspace/contracts/data_paths.json. These are synthetic persona records available for sampling, not population totals. -->
    <g style="fill: #5d6d7e" transform="translate(103.84 413.408962) scale(0.09 -0.09)">
     <defs>
      <path id="AppleGothic-53" d="M 3418 4666
L 3418 4019
Q 3251 4160 3081 4269
Q 2912 4378 2746 4448
Q 2362 4627 1965 4627
Q 1466 4627 1139 4378
Q 806 4122 806 3770
Q 806 3258 1562 3002
Q 1914 2880 2262 2768
Q 2611 2656 2970 2541
Q 3731 2176 3731 1453
Q 3731 749 3187 320
Q 2669 -83 1901 -83
Q 1389 -83 915 115
Q 640 224 262 474
L 262 1126
Q 755 685 1261 506
Q 1427 442 1587 416
Q 1747 390 1907 390
Q 2419 390 2771 646
Q 3162 928 3162 1382
Q 3162 1933 2419 2221
Q 2061 2330 1715 2445
Q 1370 2560 1024 2669
Q 275 3014 275 3731
Q 275 4333 749 4710
Q 1235 5101 1965 5101
Q 2413 5101 2861 4934
Q 3091 4858 3418 4666
z
" transform="scale(0.015625)"/>
      <path id="AppleGothic-3a" d="M 1587 2554
Q 1434 2554 1357 2682
Q 1280 2810 1280 2995
Q 1280 3187 1360 3318
Q 1440 3450 1587 3450
Q 1722 3450 1805 3331
Q 1888 3213 1888 3008
Q 1888 2816 1811 2685
Q 1734 2554 1587 2554
z
M 1587 -19
Q 1434 -19 1357 109
Q 1280 237 1280 422
Q 1280 614 1360 745
Q 1440 877 1587 877
Q 1722 877 1805 758
Q 1888 640 1888 435
Q 1888 243 1811 112
Q 1734 -19 1587 -19
z
" transform="scale(0.015625)"/>
      <path id="AppleGothic-2f" d="M 1965 5018
L 2368 5018
L 493 -672
L 90 -672
L 1965 5018
z
" transform="scale(0.015625)"/>
      <path id="AppleGothic-54" d="M 166 5018
L 4038 5018
L 4038 4576
L 2355 4576
L 2355 0
L 1856 0
L 1856 4576
L 166 4576
L 166 5018
z
" transform="scale(0.015625)"/>
      <path id="AppleGothic-66" d="M 646 3430
L 646 4083
Q 646 4538 819 4774
Q 1037 5101 1555 5101
Q 1613 5101 1657 5097
Q 1702 5094 1750 5088
Q 1798 5082 1862 5062
Q 1926 5043 2016 5018
L 2016 4595
Q 1997 4621 1837 4653
Q 1766 4666 1712 4672
Q 1658 4678 1619 4678
Q 1350 4678 1228 4524
Q 1107 4371 1107 4083
L 1107 3430
L 2016 3430
L 2016 3014
L 1107 3014
L 1107 0
L 646 0
L 646 3014
L 64 3014
L 64 3430
L 646 3430
z
" transform="scale(0.015625)"/>
     </defs>
     <use xlink:href="#AppleGothic-53"/>
     <use xlink:href="#AppleGothic-6f" transform="translate(63.199997 0)"/>
     <use xlink:href="#AppleGothic-75" transform="translate(121.499985 0)"/>
     <use xlink:href="#AppleGothic-72" transform="translate(176.999969 0)"/>
     <use xlink:href="#AppleGothic-63" transform="translate(212.199966 0)"/>
     <use xlink:href="#AppleGothic-65" transform="translate(264.09996 0)"/>
     <use xlink:href="#AppleGothic-3a" transform="translate(318.999954 0)"/>
     <use xlink:href="#AppleGothic-20" transform="translate(368.999939 0)"/>
     <use xlink:href="#AppleGothic-5f" transform="translate(400.999924 0)"/>
     <use xlink:href="#AppleGothic-77" transform="translate(450.999908 0)"/>
     <use xlink:href="#AppleGothic-6f" transform="translate(534.499893 0)"/>
     <use xlink:href="#AppleGothic-72" transform="translate(592.799881 0)"/>
     <use xlink:href="#AppleGothic-6b" transform="translate(627.999878 0)"/>
     <use xlink:href="#AppleGothic-73" transform="translate(679.399872 0)"/>
     <use xlink:href="#AppleGothic-70" transform="translate(728.999863 0)"/>
     <use xlink:href="#AppleGothic-61" transform="translate(784.399857 0)"/>
     <use xlink:href="#AppleGothic-63" transform="translate(840.899841 0)"/>
     <use xlink:href="#AppleGothic-65" transform="translate(892.799835 0)"/>
     <use xlink:href="#AppleGothic-2f" transform="translate(947.699829 0)"/>
     <use xlink:href="#AppleGothic-63" transform="translate(997.699814 0)"/>
     <use xlink:href="#AppleGothic-6f" transform="translate(1049.599808 0)"/>
     <use xlink:href="#AppleGothic-6e" transform="translate(1107.899796 0)"/>
     <use xlink:href="#AppleGothic-74" transform="translate(1163.799789 0)"/>
     <use xlink:href="#AppleGothic-72" transform="translate(1197.999786 0)"/>
     <use xlink:href="#AppleGothic-61" transform="translate(1233.199783 0)"/>
     <use xlink:href="#AppleGothic-63" transform="translate(1289.699768 0)"/>
     <use xlink:href="#AppleGothic-74" transform="translate(1341.599762 0)"/>
     <use xlink:href="#AppleGothic-73" transform="translate(1375.799759 0)"/>
     <use xlink:href="#AppleGothic-2f" transform="translate(1425.39975 0)"/>
     <use xlink:href="#AppleGothic-64" transform="translate(1475.399734 0)"/>
     <use xlink:href="#AppleGothic-61" transform="translate(1529.399719 0)"/>
     <use xlink:href="#AppleGothic-74" transform="translate(1585.899704 0)"/>
     <use xlink:href="#AppleGothic-61" transform="translate(1620.099701 0)"/>
     <use xlink:href="#AppleGothic-5f" transform="translate(1676.599686 0)"/>
     <use xlink:href="#AppleGothic-70" transform="translate(1726.59967 0)"/>
     <use xlink:href="#AppleGothic-61" transform="translate(1781.999664 0)"/>
     <use xlink:href="#AppleGothic-74" transform="translate(1838.499649 0)"/>
     <use xlink:href="#AppleGothic-68" transform="translate(1872.699646 0)"/>
     <use xlink:href="#AppleGothic-73" transform="translate(1924.899643 0)"/>
     <use xlink:href="#AppleGothic-2e" transform="translate(1974.499634 0)"/>
     <use xlink:href="#AppleGothic-6a" transform="translate(2008.999619 0)"/>
     <use xlink:href="#AppleGothic-73" transform="translate(2036.599609 0)"/>
     <use xlink:href="#AppleGothic-6f" transform="translate(2086.1996 0)"/>
     <use xlink:href="#AppleGothic-6e" transform="translate(2144.499588 0)"/>
     <use xlink:href="#AppleGothic-2e" transform="translate(2200.399582 0)"/>
     <use xlink:href="#AppleGothic-20" transform="translate(2234.899567 0)"/>
     <use xlink:href="#AppleGothic-54" transform="translate(2266.899551 0)"/>
     <use xlink:href="#AppleGothic-68" transform="translate(2332.999542 0)"/>
     <use xlink:href="#AppleGothic-65" transform="translate(2385.199539 0)"/>
     <use xlink:href="#AppleGothic-73" transform="translate(2440.099533 0)"/>
     <use xlink:href="#AppleGothic-65" transform="translate(2489.699524 0)"/>
     <use xlink:href="#AppleGothic-20" transform="translate(2544.599518 0)"/>
     <use xlink:href="#AppleGothic-61" transform="translate(2576.599503 0)"/>
     <use xlink:href="#AppleGothic-72" transform="translate(2633.099487 0)"/>
     <use xlink:href="#AppleGothic-65" transform="translate(2668.299484 0)"/>
     <use xlink:href="#AppleGothic-20" transform="translate(2723.199478 0)"/>
     <use xlink:href="#AppleGothic-73" transform="translate(2755.199463 0)"/>
     <use xlink:href="#AppleGothic-79" transform="translate(2804.799454 0)"/>
     <use xlink:href="#AppleGothic-6e" transform="translate(2860.499451 0)"/>
     <use xlink:href="#AppleGothic-74" transform="translate(2916.399445 0)"/>
     <use xlink:href="#AppleGothic-68" transform="translate(2950.599442 0)"/>
     <use xlink:href="#AppleGothic-65" transform="translate(3002.799438 0)"/>
     <use xlink:href="#AppleGothic-74" transform="translate(3057.699432 0)"/>
     <use xlink:href="#AppleGothic-69" transform="translate(3091.899429 0)"/>
     <use xlink:href="#AppleGothic-63" transform="translate(3107.799423 0)"/>
     <use xlink:href="#AppleGothic-20" transform="translate(3159.699417 0)"/>
     <use xlink:href="#AppleGothic-70" transform="translate(3191.699402 0)"/>
     <use xlink:href="#AppleGothic-65" transform="translate(3247.099396 0)"/>
     <use xlink:href="#AppleGothic-72" transform="translate(3301.99939 0)"/>
     <use xlink:href="#AppleGothic-73" transform="translate(3337.199387 0)"/>
     <use xlink:href="#AppleGothic-6f" transform="translate(3386.799377 0)"/>
     <use xlink:href="#AppleGothic-6e" transform="translate(3445.099365 0)"/>
     <use xlink:href="#AppleGothic-61" transform="translate(3500.999359 0)"/>
     <use xlink:href="#AppleGothic-20" transform="translate(3557.499344 0)"/>
     <use xlink:href="#AppleGothic-72" transform="translate(3589.499329 0)"/>
     <use xlink:href="#AppleGothic-65" transform="translate(3624.699326 0)"/>
     <use xlink:href="#AppleGothic-63" transform="translate(3679.599319 0)"/>
     <use xlink:href="#AppleGothic-6f" transform="translate(3731.499313 0)"/>
     <use xlink:href="#AppleGothic-72" transform="translate(3789.799301 0)"/>
     <use xlink:href="#AppleGothic-64" transform="translate(3824.999298 0)"/>
     <use xlink:href="#AppleGothic-73" transform="translate(3878.999283 0)"/>
     <use xlink:href="#AppleGothic-20" transform="translate(3928.599274 0)"/>
     <use xlink:href="#AppleGothic-61" transform="translate(3960.599258 0)"/>
     <use xlink:href="#AppleGothic-76" transform="translate(4017.099243 0)"/>
     <use xlink:href="#AppleGothic-61" transform="translate(4071.29924 0)"/>
     <use xlink:href="#AppleGothic-69" transform="translate(4127.799225 0)"/>
     <use xlink:href="#AppleGothic-6c" transform="translate(4143.699219 0)"/>
     <use xlink:href="#AppleGothic-61" transform="translate(4160.399216 0)"/>
     <use xlink:href="#AppleGothic-62" transform="translate(4216.8992 0)"/>
     <use xlink:href="#AppleGothic-6c" transform="translate(4273.099197 0)"/>
     <use xlink:href="#AppleGothic-65" transform="translate(4289.799194 0)"/>
     <use xlink:href="#AppleGothic-20" transform="translate(4344.699188 0)"/>
     <use xlink:href="#AppleGothic-66" transform="translate(4376.699173 0)"/>
     <use xlink:href="#AppleGothic-6f" transform="translate(4410.699158 0)"/>
     <use xlink:href="#AppleGothic-72" transform="translate(4468.999146 0)"/>
     <use xlink:href="#AppleGothic-20" transform="translate(4504.199142 0)"/>
     <use xlink:href="#AppleGothic-73" transform="translate(4536.199127 0)"/>
     <use xlink:href="#AppleGothic-61" transform="translate(4585.799118 0)"/>
     <use xlink:href="#AppleGothic-6d" transform="translate(4642.299103 0)"/>
     <use xlink:href="#AppleGothic-70" transform="translate(4731.599091 0)"/>
     <use xlink:href="#AppleGothic-6c" transform="translate(4786.999084 0)"/>
     <use xlink:href="#AppleGothic-69" transform="translate(4803.699081 0)"/>
     <use xlink:href="#AppleGothic-6e" transform="translate(4819.599075 0)"/>
     <use xlink:href="#AppleGothic-67" transform="translate(4875.499069 0)"/>
     <use xlink:href="#AppleGothic-2c" transform="translate(4931.699066 0)"/>
     <use xlink:href="#AppleGothic-20" transform="translate(4959.999054 0)"/>
     <use xlink:href="#AppleGothic-6e" transform="translate(4991.999039 0)"/>
     <use xlink:href="#AppleGothic-6f" transform="translate(5047.899033 0)"/>
     <use xlink:href="#AppleGothic-74" transform="translate(5106.19902 0)"/>
     <use xlink:href="#AppleGothic-20" transform="translate(5140.399017 0)"/>
     <use xlink:href="#AppleGothic-70" transform="translate(5172.399002 0)"/>
     <use xlink:href="#AppleGothic-6f" transform="translate(5227.798996 0)"/>
     <use xlink:href="#AppleGothic-70" transform="translate(5286.098984 0)"/>
     <use xlink:href="#AppleGothic-75" transform="translate(5341.498978 0)"/>
     <use xlink:href="#AppleGothic-6c" transform="translate(5396.998962 0)"/>
     <use xlink:href="#AppleGothic-61" transform="translate(5413.698959 0)"/>
     <use xlink:href="#AppleGothic-74" transform="translate(5470.198944 0)"/>
     <use xlink:href="#AppleGothic-69" transform="translate(5504.398941 0)"/>
     <use xlink:href="#AppleGothic-6f" transform="translate(5520.298935 0)"/>
     <use xlink:href="#AppleGothic-6e" transform="translate(5578.598923 0)"/>
     <use xlink:href="#AppleGothic-20" transform="translate(5634.498917 0)"/>
     <use xlink:href="#AppleGothic-74" transform="translate(5666.498901 0)"/>
     <use xlink:href="#AppleGothic-6f" transform="translate(5700.698898 0)"/>
     <use xlink:href="#AppleGothic-74" transform="translate(5758.998886 0)"/>
     <use xlink:href="#AppleGothic-61" transform="translate(5793.198883 0)"/>
     <use xlink:href="#AppleGothic-6c" transform="translate(5849.698868 0)"/>
     <use xlink:href="#AppleGothic-73" transform="translate(5866.398865 0)"/>
     <use xlink:href="#AppleGothic-2e" transform="translate(5915.998856 0)"/>
    </g>
   </g>
   <g id="text_15">
    <!-- Target Contest Coverage in the Current Harness -->
    <g transform="translate(103.84 21.546562) scale(0.18 -0.18)">
     <defs>
      <path id="AppleGothic-43" d="M 4109 4621
L 4109 3974
Q 3872 4205 3565 4371
Q 3085 4627 2598 4627
Q 1850 4627 1312 3994
Q 1043 3680 912 3309
Q 781 2938 781 2515
Q 781 1651 1318 1030
Q 1850 410 2611 410
Q 2970 410 3344 554
Q 3718 698 4109 998
L 4109 378
Q 3251 -83 2554 -83
Q 1651 -83 973 614
Q 243 1363 243 2490
Q 243 3584 922 4339
Q 1613 5101 2630 5101
Q 3027 5101 3392 4979
Q 3757 4858 4109 4621
z
" transform="scale(0.015625)"/>
      <path id="AppleGothic-48" d="M 352 5018
L 851 5018
L 851 2829
L 3610 2829
L 3610 5018
L 4109 5018
L 4109 0
L 3610 0
L 3610 2406
L 851 2406
L 851 0
L 352 0
L 352 5018
z
" transform="scale(0.015625)"/>
     </defs>
     <use xlink:href="#AppleGothic-54"/>
     <use xlink:href="#AppleGothic-61" transform="translate(66.099991 0)"/>
     <use xlink:href="#AppleGothic-72" transform="translate(122.599976 0)"/>
     <use xlink:href="#AppleGothic-67" transform="translate(157.799973 0)"/>
     <use xlink:href="#AppleGothic-65" transform="translate(213.999969 0)"/>
     <use xlink:href="#AppleGothic-74" transform="translate(268.899963 0)"/>
     <use xlink:href="#AppleGothic-20" transform="translate(303.09996 0)"/>
     <use xlink:href="#AppleGothic-43" transform="translate(335.099945 0)"/>
     <use xlink:href="#AppleGothic-6f" transform="translate(403.59993 0)"/>
     <use xlink:href="#AppleGothic-6e" transform="translate(461.899918 0)"/>
     <use xlink:href="#AppleGothic-74" transform="translate(517.799911 0)"/>
     <use xlink:href="#AppleGothic-65" transform="translate(551.999908 0)"/>
     <use xlink:href="#AppleGothic-73" transform="translate(606.899902 0)"/>
     <use xlink:href="#AppleGothic-74" transform="translate(656.499893 0)"/>
     <use xlink:href="#AppleGothic-20" transform="translate(690.69989 0)"/>
     <use xlink:href="#AppleGothic-43" transform="translate(722.699875 0)"/>
     <use xlink:href="#AppleGothic-6f" transform="translate(791.19986 0)"/>
     <use xlink:href="#AppleGothic-76" transform="translate(849.499847 0)"/>
     <use xlink:href="#AppleGothic-65" transform="translate(903.699844 0)"/>
     <use xlink:href="#AppleGothic-72" transform="translate(958.599838 0)"/>
     <use xlink:href="#AppleGothic-61" transform="translate(993.799835 0)"/>
     <use xlink:href="#AppleGothic-67" transform="translate(1050.29982 0)"/>
     <use xlink:href="#AppleGothic-65" transform="translate(1106.499817 0)"/>
     <use xlink:href="#AppleGothic-20" transform="translate(1161.399811 0)"/>
     <use xlink:href="#AppleGothic-69" transform="translate(1193.399796 0)"/>
     <use xlink:href="#AppleGothic-6e" transform="translate(1209.299789 0)"/>
     <use xlink:href="#AppleGothic-20" transform="translate(1265.199783 0)"/>
     <use xlink:href="#AppleGothic-74" transform="translate(1297.199768 0)"/>
     <use xlink:href="#AppleGothic-68" transform="translate(1331.399765 0)"/>
     <use xlink:href="#AppleGothic-65" transform="translate(1383.599762 0)"/>
     <use xlink:href="#AppleGothic-20" transform="translate(1438.499756 0)"/>
     <use xlink:href="#AppleGothic-43" transform="translate(1470.499741 0)"/>
     <use xlink:href="#AppleGothic-75" transform="translate(1538.999725 0)"/>
     <use xlink:href="#AppleGothic-72" transform="translate(1594.49971 0)"/>
     <use xlink:href="#AppleGothic-72" transform="translate(1629.699707 0)"/>
     <use xlink:href="#AppleGothic-65" transform="translate(1664.899704 0)"/>
     <use xlink:href="#AppleGothic-6e" transform="translate(1719.799698 0)"/>
     <use xlink:href="#AppleGothic-74" transform="translate(1775.699692 0)"/>
     <use xlink:href="#AppleGothic-20" transform="translate(1809.899689 0)"/>
     <use xlink:href="#AppleGothic-48" transform="translate(1841.899673 0)"/>
     <use xlink:href="#AppleGothic-61" transform="translate(1912.199661 0)"/>
     <use xlink:href="#AppleGothic-72" transform="translate(1968.699646 0)"/>
     <use xlink:href="#AppleGothic-6e" transform="translate(2003.899643 0)"/>
     <use xlink:href="#AppleGothic-65" transform="translate(2059.799637 0)"/>
     <use xlink:href="#AppleGothic-73" transform="translate(2114.699631 0)"/>
     <use xlink:href="#AppleGothic-73" transform="translate(2164.299622 0)"/>
    </g>
   </g>
  </g>
 </g>
 <defs>
  <clipPath id="p2cf53a0336">
   <rect x="103.84" y="27.546562" width="613.8" height="332.64"/>
  </clipPath>
 </defs>
</svg>
