<?xml version="1.0" encoding="utf-8" standalone="no"?>
<!DOCTYPE svg PUBLIC "-//W3C//DTD SVG 1.1//EN"
  "http://www.w3.org/Graphics/SVG/1.1/DTD/svg11.dtd">
<svg xmlns:xlink="http://www.w3.org/1999/xlink" width="684pt" height="374.76pt" viewBox="0 0 684 374.76" xmlns="http://www.w3.org/2000/svg" version="1.1">
 <metadata>
  <rdf:RDF xmlns:dc="http://purl.org/dc/elements/1.1/" xmlns:cc="http://creativecommons.org/ns#" xmlns:rdf="http://www.w3.org/1999/02/22-rdf-syntax-ns#">
   <cc:Work>
    <dc:type rdf:resource="http://purl.org/dc/dcmitype/StillImage"/>
    <dc:date>2026-04-26T11:35:24.251051</dc:date>
    <dc:format>image/svg+xml</dc:format>
    <dc:creator>
     <cc:Agent>
      <dc:title>Matplotlib v3.10.9, https://matplotlib.org/</dc:title>
     </cc:Agent>
    </dc:creator>
   </cc:Work>
  </rdf:RDF>
 </metadata>
 <defs>
  <style type="text/css">*{stroke-linejoin: round; stroke-linecap: butt}</style>
 </defs>
 <g id="figure_1">
  <g id="patch_1">
   <path d="M 0 374.76
L 684 374.76
L 684 0
L 0 0
z
" style="fill: #fffdf8"/>
  </g>
  <g id="axes_1">
   <g id="patch_2">
    <path d="M 38.6712 165.03768
L 136.4328 165.03768
Q 153.1728 165.03768 153.1728 156.02868
L 153.1728 89.00172
Q 153.1728 79.99272 136.4328 79.99272
L 38.6712 79.99272
Q 21.9312 79.99272 21.9312 89.00172
L 21.9312 156.02868
Q 21.9312 165.03768 38.6712 165.03768
z
" clip-path="url(#p2ab780a8f4)" style="fill: #ffffff; stroke: #2166ac; stroke-width: 1.2; stroke-linejoin: miter"/>
   </g>
   <g id="patch_3">
    <path d="M 162.5472 165.03768
L 260.3088 165.03768
Q 277.0488 165.03768 277.0488 156.02868
L 277.0488 89.00172
Q 277.0488 79.99272 260.3088 79.99272
L 162.5472 79.99272
Q 145.8072 79.99272 145.8072 89.00172
L 145.8072 156.02868
Q 145.8072 165.03768 162.5472 165.03768
z
" clip-path="url(#p2ab780a8f4)" style="fill: #ffffff; stroke: #2a9d8f; stroke-width: 1.2; stroke-linejoin: miter"/>
   </g>
   <g id="patch_4">
    <path d="M 286.4232 165.03768
L 384.1848 165.03768
Q 400.9248 165.03768 400.9248 156.02868
L 400.9248 89.00172
Q 400.9248 79.99272 384.1848 79.99272
L 286.4232 79.99272
Q 269.6832 79.99272 269.6832 89.00172
L 269.6832 156.02868
Q 269.6832 165.03768 286.4232 165.03768
z
" clip-path="url(#p2ab780a8f4)" style="fill: #ffffff; stroke: #f4a261; stroke-width: 1.2; stroke-linejoin: miter"/>
   </g>
   <g id="patch_5">
    <path d="M 410.2992 165.03768
L 508.0608 165.03768
Q 524.8008 165.03768 524.8008 156.02868
L 524.8008 89.00172
Q 524.8008 79.99272 508.0608 79.99272
L 410.2992 79.99272
Q 393.5592 79.99272 393.5592 89.00172
L 393.5592 156.02868
Q 393.5592 165.03768 410.2992 165.03768
z
" clip-path="url(#p2ab780a8f4)" style="fill: #ffffff; stroke: #6c5b7b; stroke-width: 1.2; stroke-linejoin: miter"/>
   </g>
   <g id="patch_6">
    <path d="M 534.1752 165.03768
L 631.9368 165.03768
Q 648.6768 165.03768 648.6768 156.02868
L 648.6768 89.00172
Q 648.6768 79.99272 631.9368 79.99272
L 534.1752 79.99272
Q 517.4352 79.99272 517.4352 89.00172
L 517.4352 156.02868
Q 517.4352 165.03768 534.1752 165.03768
z
" clip-path="url(#p2ab780a8f4)" style="fill: #ffffff; stroke: #c0392b; stroke-width: 1.2; stroke-linejoin: miter"/>
   </g>
   <g id="patch_7">
    <path d="M 52.0632 283.95648
L 310.5288 283.95648
Q 327.2688 283.95648 327.2688 274.94748
L 327.2688 200.71332
Q 327.2688 191.70432 310.5288 191.70432
L 52.0632 191.70432
Q 35.3232 191.70432 35.3232 200.71332
L 35.3232 274.94748
Q 35.3232 283.95648 52.0632 283.95648
z
" clip-path="url(#p2ab780a8f4)" style="fill: #f7fbff; stroke: #2166ac; stroke-width: 1.2; stroke-linejoin: miter"/>
   </g>
   <g id="patch_8">
    <path d="M 373.4712 283.95648
L 618.5448 283.95648
Q 635.2848 283.95648 635.2848 274.94748
L 635.2848 200.71332
Q 635.2848 191.70432 618.5448 191.70432
L 373.4712 191.70432
Q 356.7312 191.70432 356.7312 200.71332
L 356.7312 274.94748
Q 356.7312 283.95648 373.4712 283.95648
z
" clip-path="url(#p2ab780a8f4)" style="fill: #f5fff8; stroke: #2a9d8f; stroke-width: 1.2; stroke-linejoin: miter"/>
   </g>
   <g id="text_1">
    <!-- Synthetic Electorate Substrate -->
    <g style="fill: #17202a" transform="translate(33.984 36.0288) scale(0.22 -0.22)">
     <defs>
      <path id="AppleGothic-53" d="M 3418 4666
L 3418 4019
Q 3251 4160 3081 4269
Q 2912 4378 2746 4448
Q 2362 4627 1965 4627
Q 1466 4627 1139 4378
Q 806 4122 806 3770
Q 806 3258 1562 3002
Q 1914 2880 2262 2768
Q 2611 2656 2970 2541
Q 3731 2176 3731 1453
Q 3731 749 3187 320
Q 2669 -83 1901 -83
Q 1389 -83 915 115
Q 640 224 262 474
L 262 1126
Q 755 685 1261 506
Q 1427 442 1587 416
Q 1747 390 1907 390
Q 2419 390 2771 646
Q 3162 928 3162 1382
Q 3162 1933 2419 2221
Q 2061 2330 1715 2445
Q 1370 2560 1024 2669
Q 275 3014 275 3731
Q 275 4333 749 4710
Q 1235 5101 1965 5101
Q 2413 5101 2861 4934
Q 3091 4858 3418 4666
z
" transform="scale(0.015625)"/>
      <path id="AppleGothic-79" d="M 179 3424
L 691 3424
L 1869 531
L 2874 3424
L 3379 3424
L 1952 -397
Q 1798 -806 1555 -979
Q 1338 -1126 1037 -1126
Q 883 -1126 780 -1104
Q 678 -1082 582 -1043
L 582 -602
Q 672 -646 784 -678
Q 896 -710 986 -710
Q 1210 -710 1334 -595
Q 1459 -480 1555 -230
L 1632 32
L 179 3424
z
" transform="scale(0.015625)"/>
      <path id="AppleGothic-6e" d="M 3264 2291
L 3264 0
L 2803 0
L 2803 2259
Q 2803 2618 2541 2848
Q 2278 3085 1914 3085
Q 1427 3085 1075 2682
Q 723 2272 723 1760
L 723 0
L 288 0
L 288 3424
L 691 3424
L 710 2784
Q 883 3046 1114 3219
Q 1491 3501 1965 3501
Q 2515 3501 2886 3168
Q 3264 2842 3264 2291
z
" transform="scale(0.015625)"/>
      <path id="AppleGothic-74" d="M 691 4435
L 1114 4435
L 1114 3430
L 2016 3430
L 2016 3014
L 1114 3014
L 1114 838
Q 1114 570 1213 454
Q 1312 339 1555 339
Q 1696 339 1795 371
Q 1894 403 2016 454
L 2016 38
Q 1914 6 1770 -22
Q 1626 -51 1478 -51
Q 1094 -51 883 122
Q 646 301 646 698
L 646 3014
L 70 3014
L 70 3430
L 646 3430
L 691 4435
z
" transform="scale(0.015625)"/>
      <path id="AppleGothic-68" d="M 288 5018
L 749 5018
L 749 2810
Q 909 3066 1139 3238
Q 1491 3501 1926 3501
Q 2195 3501 2409 3424
Q 2624 3347 2803 3200
Q 3181 2867 3181 2266
L 3181 0
L 2714 0
L 2714 2202
Q 2714 2573 2477 2829
Q 2240 3085 1901 3085
Q 1408 3085 1082 2694
Q 749 2291 749 1773
L 749 0
L 288 0
L 288 5018
z
" transform="scale(0.015625)"/>
      <path id="AppleGothic-65" d="M 3296 1850
L 691 1850
Q 691 1114 1033 726
Q 1376 339 1933 339
Q 2355 339 2746 608
Q 2854 678 2976 784
Q 3098 890 3238 1030
L 3238 474
Q 3085 358 2953 272
Q 2822 186 2707 128
Q 2304 -83 1901 -83
Q 1203 -83 717 397
Q 192 902 192 1709
Q 192 2470 666 2982
Q 1146 3501 1850 3501
Q 2534 3501 2938 3002
Q 3296 2547 3296 1850
z
M 755 2240
L 2758 2240
Q 2682 2675 2429 2889
Q 2176 3104 1818 3104
Q 1421 3104 1146 2854
Q 890 2624 755 2240
z
" transform="scale(0.015625)"/>
      <path id="AppleGothic-69" d="M 256 3424
L 717 3424
L 717 0
L 256 0
L 256 3424
z
M 480 4870
Q 614 4870 704 4780
Q 794 4691 794 4525
Q 794 4358 710 4268
Q 627 4179 480 4179
Q 333 4179 253 4281
Q 173 4384 173 4518
Q 173 4730 269 4800
Q 365 4870 480 4870
z
" transform="scale(0.015625)"/>
      <path id="AppleGothic-63" d="M 3085 3123
L 3085 2522
Q 2726 2861 2349 3008
Q 2240 3053 2125 3069
Q 2010 3085 1894 3085
Q 1363 3085 1024 2688
Q 685 2278 685 1715
Q 685 1139 1037 730
Q 1389 339 1920 339
Q 2253 339 2528 483
Q 2803 627 3085 915
L 3085 307
Q 2746 96 2470 6
Q 2195 -83 1914 -83
Q 1197 -83 685 429
Q 186 960 186 1709
Q 186 2445 678 2976
Q 1178 3501 1920 3501
Q 2298 3501 2624 3373
Q 2816 3302 3085 3123
z
" transform="scale(0.015625)"/>
      <path id="AppleGothic-20" transform="scale(0.015625)"/>
      <path id="AppleGothic-45" d="M 282 5024
L 3405 5024
L 3405 4582
L 787 4582
L 787 2848
L 3309 2848
L 3309 2406
L 787 2406
L 787 442
L 3424 442
L 3424 0
L 282 0
L 282 5024
z
" transform="scale(0.015625)"/>
      <path id="AppleGothic-6c" d="M 288 5018
L 749 5018
L 749 0
L 288 0
L 288 5018
z
" transform="scale(0.015625)"/>
      <path id="AppleGothic-6f" d="M 1888 -83
Q 1229 -83 730 397
Q 198 902 198 1709
Q 198 2470 666 2982
Q 1146 3501 1850 3501
Q 2547 3501 3027 2982
Q 3501 2470 3501 1715
Q 3501 922 2989 403
Q 2515 -83 1888 -83
z
M 1843 339
Q 2304 339 2662 723
Q 3008 1114 3008 1715
Q 3008 2336 2637 2726
Q 2298 3085 1850 3085
Q 1389 3085 1062 2714
Q 704 2304 704 1709
Q 704 1107 1056 704
Q 1382 339 1843 339
z
" transform="scale(0.015625)"/>
      <path id="AppleGothic-72" d="M 2125 3424
L 2125 2963
Q 2054 2989 2009 3005
Q 1965 3021 1933 3027
Q 1901 3034 1865 3037
Q 1830 3040 1773 3040
Q 1306 3040 1005 2586
Q 749 2170 749 1658
L 749 0
L 288 0
L 288 3424
L 710 3424
L 742 2835
Q 902 3104 1043 3219
Q 1331 3456 1734 3456
Q 1843 3456 1936 3449
Q 2029 3443 2125 3424
z
" transform="scale(0.015625)"/>
      <path id="AppleGothic-61" d="M 2950 2214
L 2950 602
Q 2950 493 2998 413
Q 3046 333 3174 333
Q 3213 333 3238 336
Q 3264 339 3290 346
Q 3328 358 3357 371
Q 3386 384 3405 390
L 3405 32
Q 3290 -6 3174 -22
Q 3059 -38 2995 -38
Q 2669 -38 2566 134
Q 2483 243 2483 602
Q 2400 461 2317 355
Q 2234 250 2150 179
Q 1818 -83 1376 -83
Q 909 -83 563 192
Q 205 486 205 941
Q 205 1510 781 1779
Q 992 1882 1341 1958
Q 1690 2035 2176 2099
L 2483 2131
Q 2483 2579 2256 2832
Q 2029 3085 1587 3085
Q 1421 3085 1257 3043
Q 1094 3002 928 2912
Q 838 2861 729 2790
Q 621 2720 493 2611
L 493 3136
Q 1037 3501 1664 3501
Q 2304 3501 2650 3098
Q 2950 2746 2950 2214
z
M 2483 1542
L 2483 1747
L 2266 1722
Q 1466 1638 1139 1498
Q 704 1325 704 934
Q 704 819 755 713
Q 806 608 896 525
Q 986 442 1117 390
Q 1248 339 1408 339
Q 1843 339 2170 691
Q 2483 1050 2483 1542
z
" transform="scale(0.015625)"/>
      <path id="AppleGothic-75" d="M 262 3424
L 730 3424
L 730 1242
Q 730 877 941 627
Q 1171 339 1594 339
Q 2080 339 2426 730
Q 2784 1139 2784 1632
L 2784 3424
L 3245 3424
L 3245 0
L 2842 0
L 2810 582
Q 2707 442 2592 330
Q 2477 218 2342 134
Q 1984 -83 1555 -83
Q 966 -83 614 282
Q 262 653 262 1184
L 262 3424
z
" transform="scale(0.015625)"/>
      <path id="AppleGothic-62" d="M 288 5018
L 755 5018
L 755 2848
Q 845 2982 931 3078
Q 1018 3174 1107 3245
Q 1440 3501 1882 3501
Q 2547 3501 2976 2995
Q 3418 2483 3418 1754
Q 3418 1005 2976 480
Q 2502 -83 1792 -83
Q 1402 -83 1114 90
Q 928 192 755 384
L 634 0
L 288 0
L 288 5018
z
M 755 1862
L 755 870
Q 845 762 934 678
Q 1024 595 1101 538
Q 1382 339 1741 339
Q 2234 339 2554 742
Q 2874 1158 2874 1747
Q 2874 2362 2515 2752
Q 2208 3085 1805 3085
Q 1370 3085 1056 2714
Q 755 2355 755 1862
z
" transform="scale(0.015625)"/>
      <path id="AppleGothic-73" d="M 224 294
L 224 851
Q 621 531 1030 403
Q 1152 371 1267 355
Q 1382 339 1504 339
Q 1894 339 2150 518
Q 2413 710 2413 947
Q 2413 1075 2317 1210
Q 2182 1376 1600 1510
Q 909 1683 678 1798
Q 230 2054 230 2515
Q 230 2944 602 3219
Q 979 3501 1542 3501
Q 1798 3501 2003 3456
Q 2208 3411 2387 3337
Q 2566 3264 2720 3155
L 2720 2598
Q 2451 2822 2156 2953
Q 1862 3085 1536 3085
Q 1210 3085 973 2938
Q 730 2790 730 2554
Q 730 2240 1306 2054
Q 1574 1978 1836 1901
Q 2099 1824 2368 1747
Q 2950 1498 2950 992
Q 2950 563 2547 237
Q 2138 -83 1530 -83
Q 1261 -83 1005 -26
Q 595 64 224 294
z
" transform="scale(0.015625)"/>
     </defs>
     <use xlink:href="#AppleGothic-53"/>
     <use xlink:href="#AppleGothic-79" transform="translate(63.199997 0)"/>
     <use xlink:href="#AppleGothic-6e" transform="translate(118.899994 0)"/>
     <use xlink:href="#AppleGothic-74" transform="translate(174.799988 0)"/>
     <use xlink:href="#AppleGothic-68" transform="translate(208.999985 0)"/>
     <use xlink:href="#AppleGothic-65" transform="translate(261.199982 0)"/>
     <use xlink:href="#AppleGothic-74" transform="translate(316.099976 0)"/>
     <use xlink:href="#AppleGothic-69" transform="translate(350.299973 0)"/>
     <use xlink:href="#AppleGothic-63" transform="translate(366.199966 0)"/>
     <use xlink:href="#AppleGothic-20" transform="translate(418.09996 0)"/>
     <use xlink:href="#AppleGothic-45" transform="translate(450.099945 0)"/>
     <use xlink:href="#AppleGothic-6c" transform="translate(507.999939 0)"/>
     <use xlink:href="#AppleGothic-65" transform="translate(524.699936 0)"/>
     <use xlink:href="#AppleGothic-63" transform="translate(579.59993 0)"/>
     <use xlink:href="#AppleGothic-74" transform="translate(631.499924 0)"/>
     <use xlink:href="#AppleGothic-6f" transform="translate(665.699921 0)"/>
     <use xlink:href="#AppleGothic-72" transform="translate(723.999908 0)"/>
     <use xlink:href="#AppleGothic-61" transform="translate(759.199905 0)"/>
     <use xlink:href="#AppleGothic-74" transform="translate(815.69989 0)"/>
     <use xlink:href="#AppleGothic-65" transform="translate(849.899887 0)"/>
     <use xlink:href="#AppleGothic-20" transform="translate(904.799881 0)"/>
     <use xlink:href="#AppleGothic-53" transform="translate(936.799866 0)"/>
     <use xlink:href="#AppleGothic-75" transform="translate(999.999863 0)"/>
     <use xlink:href="#AppleGothic-62" transform="translate(1055.499847 0)"/>
     <use xlink:href="#AppleGothic-73" transform="translate(1111.699844 0)"/>
     <use xlink:href="#AppleGothic-74" transform="translate(1161.299835 0)"/>
     <use xlink:href="#AppleGothic-72" transform="translate(1195.499832 0)"/>
     <use xlink:href="#AppleGothic-61" transform="translate(1230.699829 0)"/>
     <use xlink:href="#AppleGothic-74" transform="translate(1287.199814 0)"/>
     <use xlink:href="#AppleGothic-65" transform="translate(1321.399811 0)"/>
    </g>
   </g>
   <g id="text_2">
    <!-- Dataset card facts used in the paper; local regional coverage comes from the harness contract. -->
    <g style="fill: #5d6d7e" transform="translate(33.984 52.245) scale(0.1 -0.1)">
     <defs>
      <path id="AppleGothic-44" d="M 358 5024
L 1562 5024
Q 2227 5024 2675 4858
Q 2861 4787 3027 4681
Q 3194 4576 3341 4429
Q 3693 4077 3878 3584
Q 4064 3091 4064 2554
Q 4064 1357 3379 672
Q 2688 0 1485 0
L 358 0
L 358 5024
z
M 1363 4582
L 864 4582
L 864 442
L 1690 442
Q 2413 442 2912 941
Q 3494 1523 3494 2560
Q 3494 2765 3472 2944
Q 3450 3123 3405 3290
Q 3264 3776 2906 4122
Q 2643 4371 2298 4480
Q 1965 4582 1363 4582
z
" transform="scale(0.015625)"/>
      <path id="AppleGothic-64" d="M 2682 5018
L 3174 5018
L 3174 0
L 2733 0
L 2688 557
Q 2598 429 2508 329
Q 2419 230 2330 160
Q 2010 -83 1587 -83
Q 928 -83 493 429
Q 64 941 64 1670
Q 64 2426 518 2957
Q 979 3501 1670 3501
Q 1958 3501 2208 3398
Q 2298 3360 2416 3296
Q 2534 3232 2682 3142
L 2682 5018
z
M 2682 1658
L 2682 2643
Q 2381 2906 2157 2995
Q 1933 3085 1722 3085
Q 1197 3085 870 2643
Q 563 2227 563 1677
Q 563 1088 902 698
Q 1216 339 1645 339
Q 2067 339 2374 710
Q 2682 1082 2682 1658
z
" transform="scale(0.015625)"/>
      <path id="AppleGothic-66" d="M 646 3430
L 646 4083
Q 646 4538 819 4774
Q 1037 5101 1555 5101
Q 1613 5101 1657 5097
Q 1702 5094 1750 5088
Q 1798 5082 1862 5062
Q 1926 5043 2016 5018
L 2016 4595
Q 1997 4621 1837 4653
Q 1766 4666 1712 4672
Q 1658 4678 1619 4678
Q 1350 4678 1228 4524
Q 1107 4371 1107 4083
L 1107 3430
L 2016 3430
L 2016 3014
L 1107 3014
L 1107 0
L 646 0
L 646 3014
L 64 3014
L 64 3430
L 646 3430
z
" transform="scale(0.015625)"/>
      <path id="AppleGothic-70" d="M 736 307
L 736 -1101
L 288 -1101
L 288 3424
L 704 3424
L 730 2803
Q 941 3149 1216 3325
Q 1491 3501 1882 3501
Q 2522 3501 2944 3002
Q 3162 2752 3270 2441
Q 3379 2131 3379 1747
Q 3379 954 2899 435
Q 2419 -83 1754 -83
Q 1421 -83 1139 58
Q 1056 90 960 154
Q 864 218 736 307
z
M 736 1824
L 736 800
Q 838 704 924 637
Q 1011 570 1082 525
Q 1395 339 1715 339
Q 2227 339 2554 742
Q 2886 1165 2886 1766
Q 2886 2330 2579 2707
Q 2278 3085 1811 3085
Q 1331 3085 1018 2669
Q 736 2291 736 1824
z
" transform="scale(0.015625)"/>
      <path id="AppleGothic-3b" d="M 1510 -941
L 1261 -941
Q 1325 -806 1373 -691
Q 1421 -576 1453 -473
Q 1485 -371 1497 -272
Q 1510 -173 1510 -64
Q 1382 0 1318 77
Q 1242 160 1242 346
Q 1242 576 1344 720
Q 1446 864 1594 864
Q 1670 864 1731 819
Q 1792 774 1830 697
Q 1869 621 1891 525
Q 1914 429 1914 326
Q 1914 -51 1760 -442
Q 1683 -666 1510 -941
z
M 1293 3027
Q 1293 3194 1392 3322
Q 1491 3450 1626 3450
Q 1754 3450 1837 3315
Q 1920 3181 1920 2995
Q 1920 2790 1821 2668
Q 1722 2547 1587 2547
Q 1472 2547 1382 2672
Q 1293 2797 1293 3027
z
" transform="scale(0.015625)"/>
      <path id="AppleGothic-67" d="M 2822 3040
L 2950 3424
L 3290 3424
L 3290 326
Q 3290 -474 2899 -890
Q 2509 -1306 1690 -1306
Q 1357 -1306 1059 -1187
Q 762 -1069 435 -819
L 435 -256
Q 640 -448 838 -579
Q 1037 -710 1229 -781
Q 1453 -864 1690 -864
Q 2195 -864 2477 -634
Q 2822 -352 2822 269
L 2822 691
Q 2579 288 2221 122
Q 1978 6 1683 6
Q 1050 6 621 512
Q 198 1030 198 1709
Q 198 2387 595 2906
Q 1056 3501 1773 3501
Q 2131 3501 2451 3328
Q 2547 3270 2640 3200
Q 2733 3130 2822 3040
z
M 2822 1658
L 2822 2598
Q 2714 2720 2602 2803
Q 2490 2886 2381 2950
Q 2253 3021 2118 3053
Q 1984 3085 1843 3085
Q 1363 3085 1050 2746
Q 698 2362 698 1734
Q 698 1165 992 794
Q 1280 429 1741 429
Q 2195 429 2509 781
Q 2822 1120 2822 1658
z
" transform="scale(0.015625)"/>
      <path id="AppleGothic-76" d="M 109 3424
L 627 3424
L 1715 486
L 2829 3424
L 3290 3424
L 1920 0
L 1478 0
L 109 3424
z
" transform="scale(0.015625)"/>
      <path id="AppleGothic-6d" d="M 5389 2195
L 5389 0
L 4922 0
L 4922 2304
Q 4922 2669 4672 2893
Q 4461 3085 4173 3085
Q 3744 3085 3405 2688
Q 3072 2298 3072 1722
L 3072 0
L 2605 0
L 2605 2304
Q 2605 2650 2368 2861
Q 2144 3085 1856 3085
Q 1440 3085 1114 2714
Q 755 2304 755 1702
L 755 0
L 288 0
L 288 3424
L 723 3424
L 742 2880
Q 928 3181 1274 3354
Q 1581 3501 1894 3501
Q 2381 3501 2714 3219
Q 2957 3008 3021 2797
Q 3149 3034 3386 3226
Q 3757 3501 4205 3501
Q 4749 3501 5050 3174
Q 5389 2803 5389 2195
z
" transform="scale(0.015625)"/>
      <path id="AppleGothic-2e" d="M 915 -19
Q 762 -19 653 109
Q 544 237 544 422
Q 544 614 656 745
Q 768 877 915 877
Q 1056 877 1168 758
Q 1280 640 1280 435
Q 1280 243 1171 112
Q 1062 -19 915 -19
z
" transform="scale(0.015625)"/>
     </defs>
     <use xlink:href="#AppleGothic-44"/>
     <use xlink:href="#AppleGothic-61" transform="translate(68.499985 0)"/>
     <use xlink:href="#AppleGothic-74" transform="translate(124.999969 0)"/>
     <use xlink:href="#AppleGothic-61" transform="translate(159.199966 0)"/>
     <use xlink:href="#AppleGothic-73" transform="translate(215.699951 0)"/>
     <use xlink:href="#AppleGothic-65" transform="translate(265.299942 0)"/>
     <use xlink:href="#AppleGothic-74" transform="translate(320.199936 0)"/>
     <use xlink:href="#AppleGothic-20" transform="translate(354.399933 0)"/>
     <use xlink:href="#AppleGothic-63" transform="translate(386.399918 0)"/>
     <use xlink:href="#AppleGothic-61" transform="translate(438.299911 0)"/>
     <use xlink:href="#AppleGothic-72" transform="translate(494.799896 0)"/>
     <use xlink:href="#AppleGothic-64" transform="translate(529.999893 0)"/>
     <use xlink:href="#AppleGothic-20" transform="translate(583.999878 0)"/>
     <use xlink:href="#AppleGothic-66" transform="translate(615.999863 0)"/>
     <use xlink:href="#AppleGothic-61" transform="translate(649.999847 0)"/>
     <use xlink:href="#AppleGothic-63" transform="translate(706.499832 0)"/>
     <use xlink:href="#AppleGothic-74" transform="translate(758.399826 0)"/>
     <use xlink:href="#AppleGothic-73" transform="translate(792.599823 0)"/>
     <use xlink:href="#AppleGothic-20" transform="translate(842.199814 0)"/>
     <use xlink:href="#AppleGothic-75" transform="translate(874.199799 0)"/>
     <use xlink:href="#AppleGothic-73" transform="translate(929.699783 0)"/>
     <use xlink:href="#AppleGothic-65" transform="translate(979.299774 0)"/>
     <use xlink:href="#AppleGothic-64" transform="translate(1034.199768 0)"/>
     <use xlink:href="#AppleGothic-20" transform="translate(1088.199753 0)"/>
     <use xlink:href="#AppleGothic-69" transform="translate(1120.199738 0)"/>
     <use xlink:href="#AppleGothic-6e" transform="translate(1136.099731 0)"/>
     <use xlink:href="#AppleGothic-20" transform="translate(1191.999725 0)"/>
     <use xlink:href="#AppleGothic-74" transform="translate(1223.99971 0)"/>
     <use xlink:href="#AppleGothic-68" transform="translate(1258.199707 0)"/>
     <use xlink:href="#AppleGothic-65" transform="translate(1310.399704 0)"/>
     <use xlink:href="#AppleGothic-20" transform="translate(1365.299698 0)"/>
     <use xlink:href="#AppleGothic-70" transform="translate(1397.299683 0)"/>
     <use xlink:href="#AppleGothic-61" transform="translate(1452.699677 0)"/>
     <use xlink:href="#AppleGothic-70" transform="translate(1509.199661 0)"/>
     <use xlink:href="#AppleGothic-65" transform="translate(1564.599655 0)"/>
     <use xlink:href="#AppleGothic-72" transform="translate(1619.499649 0)"/>
     <use xlink:href="#AppleGothic-3b" transform="translate(1654.699646 0)"/>
     <use xlink:href="#AppleGothic-20" transform="translate(1704.699631 0)"/>
     <use xlink:href="#AppleGothic-6c" transform="translate(1736.699615 0)"/>
     <use xlink:href="#AppleGothic-6f" transform="translate(1753.399612 0)"/>
     <use xlink:href="#AppleGothic-63" transform="translate(1811.6996 0)"/>
     <use xlink:href="#AppleGothic-61" transform="translate(1863.599594 0)"/>
     <use xlink:href="#AppleGothic-6c" transform="translate(1920.099579 0)"/>
     <use xlink:href="#AppleGothic-20" transform="translate(1936.799576 0)"/>
     <use xlink:href="#AppleGothic-72" transform="translate(1968.799561 0)"/>
     <use xlink:href="#AppleGothic-65" transform="translate(2003.999557 0)"/>
     <use xlink:href="#AppleGothic-67" transform="translate(2058.899551 0)"/>
     <use xlink:href="#AppleGothic-69" transform="translate(2115.099548 0)"/>
     <use xlink:href="#AppleGothic-6f" transform="translate(2130.999542 0)"/>
     <use xlink:href="#AppleGothic-6e" transform="translate(2189.29953 0)"/>
     <use xlink:href="#AppleGothic-61" transform="translate(2245.199524 0)"/>
     <use xlink:href="#AppleGothic-6c" transform="translate(2301.699509 0)"/>
     <use xlink:href="#AppleGothic-20" transform="translate(2318.399506 0)"/>
     <use xlink:href="#AppleGothic-63" transform="translate(2350.39949 0)"/>
     <use xlink:href="#AppleGothic-6f" transform="translate(2402.299484 0)"/>
     <use xlink:href="#AppleGothic-76" transform="translate(2460.599472 0)"/>
     <use xlink:href="#AppleGothic-65" transform="translate(2514.799469 0)"/>
     <use xlink:href="#AppleGothic-72" transform="translate(2569.699463 0)"/>
     <use xlink:href="#AppleGothic-61" transform="translate(2604.89946 0)"/>
     <use xlink:href="#AppleGothic-67" transform="translate(2661.399445 0)"/>
     <use xlink:href="#AppleGothic-65" transform="translate(2717.599442 0)"/>
     <use xlink:href="#AppleGothic-20" transform="translate(2772.499435 0)"/>
     <use xlink:href="#AppleGothic-63" transform="translate(2804.49942 0)"/>
     <use xlink:href="#AppleGothic-6f" transform="translate(2856.399414 0)"/>
     <use xlink:href="#AppleGothic-6d" transform="translate(2914.699402 0)"/>
     <use xlink:href="#AppleGothic-65" transform="translate(3003.99939 0)"/>
     <use xlink:href="#AppleGothic-73" transform="translate(3058.899384 0)"/>
     <use xlink:href="#AppleGothic-20" transform="translate(3108.499374 0)"/>
     <use xlink:href="#AppleGothic-66" transform="translate(3140.499359 0)"/>
     <use xlink:href="#AppleGothic-72" transform="translate(3174.499344 0)"/>
     <use xlink:href="#AppleGothic-6f" transform="translate(3209.699341 0)"/>
     <use xlink:href="#AppleGothic-6d" transform="translate(3267.999329 0)"/>
     <use xlink:href="#AppleGothic-20" transform="translate(3357.299316 0)"/>
     <use xlink:href="#AppleGothic-74" transform="translate(3389.299301 0)"/>
     <use xlink:href="#AppleGothic-68" transform="translate(3423.499298 0)"/>
     <use xlink:href="#AppleGothic-65" transform="translate(3475.699295 0)"/>
     <use xlink:href="#AppleGothic-20" transform="translate(3530.599289 0)"/>
     <use xlink:href="#AppleGothic-68" transform="translate(3562.599274 0)"/>
     <use xlink:href="#AppleGothic-61" transform="translate(3614.799271 0)"/>
     <use xlink:href="#AppleGothic-72" transform="translate(3671.299255 0)"/>
     <use xlink:href="#AppleGothic-6e" transform="translate(3706.499252 0)"/>
     <use xlink:href="#AppleGothic-65" transform="translate(3762.399246 0)"/>
     <use xlink:href="#AppleGothic-73" transform="translate(3817.29924 0)"/>
     <use xlink:href="#AppleGothic-73" transform="translate(3866.899231 0)"/>
     <use xlink:href="#AppleGothic-20" transform="translate(3916.499222 0)"/>
     <use xlink:href="#AppleGothic-63" transform="translate(3948.499207 0)"/>
     <use xlink:href="#AppleGothic-6f" transform="translate(4000.3992 0)"/>
     <use xlink:href="#AppleGothic-6e" transform="translate(4058.699188 0)"/>
     <use xlink:href="#AppleGothic-74" transform="translate(4114.599182 0)"/>
     <use xlink:href="#AppleGothic-72" transform="translate(4148.799179 0)"/>
     <use xlink:href="#AppleGothic-61" transform="translate(4183.999176 0)"/>
     <use xlink:href="#AppleGothic-63" transform="translate(4240.499161 0)"/>
     <use xlink:href="#AppleGothic-74" transform="translate(4292.399155 0)"/>
     <use xlink:href="#AppleGothic-2e" transform="translate(4326.599152 0)"/>
    </g>
   </g>
   <g id="text_3">
    <!-- 1,004,752 -->
    <g style="fill: #17202a" transform="translate(55.596375 119.50995) scale(0.12 -0.12)">
     <defs>
      <path id="AppleGothic-31" d="M 2342 4774
L 2752 4774
L 2752 0
L 2285 0
L 2285 3526
L 1158 3526
L 1158 3885
L 1414 3885
Q 1990 3885 2214 4205
Q 2342 4410 2342 4774
z
" transform="scale(0.015625)"/>
      <path id="AppleGothic-2c" d="M 806 -941
L 550 -941
Q 666 -698 723 -502
Q 781 -307 806 -64
Q 666 0 602 77
Q 525 160 525 346
Q 525 576 630 720
Q 736 864 883 864
Q 1030 864 1113 701
Q 1197 538 1197 326
Q 1197 141 1161 -48
Q 1126 -237 1056 -429
Q 1011 -538 950 -662
Q 890 -787 806 -941
z
" transform="scale(0.015625)"/>
      <path id="AppleGothic-30" d="M 2227 -83
Q 1414 -83 934 576
Q 461 1229 461 2387
Q 461 3552 973 4218
Q 1453 4858 2221 4858
Q 3027 4858 3482 4173
Q 3955 3494 3955 2394
Q 3955 1248 3462 582
Q 2976 -83 2227 -83
z
M 2176 346
Q 2861 346 3200 992
Q 3462 1536 3462 2400
Q 3462 3315 3162 3859
Q 2822 4429 2214 4429
Q 1574 4429 1248 3821
Q 960 3283 960 2374
Q 960 1478 1248 941
Q 1574 346 2176 346
z
" transform="scale(0.015625)"/>
      <path id="AppleGothic-34" d="M 2662 4774
L 3130 4774
L 3130 1811
L 4000 1811
L 4000 1382
L 3130 1382
L 3130 0
L 2662 0
L 2662 1382
L 352 1382
L 352 1811
L 2662 4774
z
M 2662 1811
L 2662 4166
L 838 1811
L 2662 1811
z
" transform="scale(0.015625)"/>
      <path id="AppleGothic-37" d="M 595 4774
L 3802 4774
L 3802 4410
L 1734 0
L 1235 0
L 3277 4352
L 595 4352
L 595 4774
z
" transform="scale(0.015625)"/>
      <path id="AppleGothic-35" d="M 621 4768
L 3488 4768
L 3488 4339
L 1088 4339
L 1088 2707
Q 1184 2771 1293 2819
Q 1402 2867 1510 2912
Q 1862 3040 2259 3040
Q 2989 3040 3424 2605
Q 3827 2202 3827 1581
Q 3827 870 3296 397
Q 2765 -83 2010 -83
Q 1651 -83 1248 45
Q 1158 77 1001 137
Q 845 198 621 301
L 621 838
Q 928 640 1203 525
Q 1408 435 1613 390
Q 1818 346 2010 346
Q 2528 346 2906 666
Q 3322 1011 3322 1536
Q 3322 1990 3021 2291
Q 2701 2611 2144 2611
Q 1856 2611 1587 2528
Q 1318 2445 1088 2272
L 621 2272
L 621 4768
z
" transform="scale(0.015625)"/>
      <path id="AppleGothic-32" d="M 1101 429
L 3942 429
L 3942 0
L 653 0
L 653 205
Q 653 1018 1344 1664
Q 1670 1894 1990 2124
Q 2310 2355 2637 2592
Q 3334 3098 3334 3597
Q 3334 3994 3014 4218
Q 2867 4326 2694 4377
Q 2522 4429 2317 4429
Q 2016 4429 1741 4352
Q 1325 4224 883 3910
L 883 4435
Q 1325 4659 1667 4758
Q 2010 4858 2317 4858
Q 2963 4858 3405 4525
Q 3840 4198 3840 3622
Q 3840 2995 3168 2438
Q 2848 2214 2531 2000
Q 2214 1786 1894 1562
Q 1178 1024 1101 429
z
" transform="scale(0.015625)"/>
     </defs>
     <use xlink:href="#AppleGothic-31"/>
     <use xlink:href="#AppleGothic-2c" transform="translate(67.999985 0)"/>
     <use xlink:href="#AppleGothic-30" transform="translate(96.299973 0)"/>
     <use xlink:href="#AppleGothic-30" transform="translate(164.299957 0)"/>
     <use xlink:href="#AppleGothic-34" transform="translate(232.299942 0)"/>
     <use xlink:href="#AppleGothic-2c" transform="translate(300.299927 0)"/>
     <use xlink:href="#AppleGothic-37" transform="translate(328.599915 0)"/>
     <use xlink:href="#AppleGothic-35" transform="translate(396.599899 0)"/>
     <use xlink:href="#AppleGothic-32" transform="translate(464.599884 0)"/>
    </g>
    <!-- base records -->
    <g style="fill: #17202a" transform="translate(52.25325 132.864825) scale(0.12 -0.12)">
     <use xlink:href="#AppleGothic-62"/>
     <use xlink:href="#AppleGothic-61" transform="translate(56.199997 0)"/>
     <use xlink:href="#AppleGothic-73" transform="translate(112.699982 0)"/>
     <use xlink:href="#AppleGothic-65" transform="translate(162.299973 0)"/>
     <use xlink:href="#AppleGothic-20" transform="translate(217.199966 0)"/>
     <use xlink:href="#AppleGothic-72" transform="translate(249.199951 0)"/>
     <use xlink:href="#AppleGothic-65" transform="translate(284.399948 0)"/>
     <use xlink:href="#AppleGothic-63" transform="translate(339.299942 0)"/>
     <use xlink:href="#AppleGothic-6f" transform="translate(391.199936 0)"/>
     <use xlink:href="#AppleGothic-72" transform="translate(449.499924 0)"/>
     <use xlink:href="#AppleGothic-64" transform="translate(484.699921 0)"/>
     <use xlink:href="#AppleGothic-73" transform="translate(538.699905 0)"/>
    </g>
   </g>
   <g id="text_4">
    <!-- ≈7M -->
    <g style="fill: #17202a" transform="translate(195.882375 119.50995) scale(0.12 -0.12)">
     <defs>
      <path id="AppleGothic-2248" d="M 5421 3245
Q 5370 3142 5261 3043
Q 5152 2944 4986 2835
Q 4570 2573 4166 2573
Q 3827 2573 3398 2758
Q 2490 3155 2208 3155
Q 1952 3155 1658 2989
Q 1517 2893 1379 2800
Q 1242 2707 1107 2611
Q 1062 2611 1062 2662
L 1075 2701
Q 1222 2874 1328 2979
Q 1434 3085 1491 3136
Q 1843 3424 2298 3424
Q 2720 3424 3206 3123
Q 3718 2829 4141 2829
Q 4512 2829 4864 3008
Q 4992 3066 5110 3146
Q 5229 3226 5338 3328
Q 5421 3328 5421 3245
z
M 5421 1402
Q 5370 1299 5261 1200
Q 5152 1101 4986 992
Q 4570 730 4166 730
Q 3827 730 3398 915
Q 2490 1312 2208 1312
Q 1952 1312 1658 1146
Q 1517 1050 1379 957
Q 1242 864 1107 768
Q 1088 768 1069 800
Q 1062 806 1062 813
L 1075 858
Q 1242 1043 1344 1148
Q 1446 1254 1485 1286
Q 1869 1581 2298 1581
Q 2701 1581 3206 1280
Q 3718 986 4141 986
Q 4512 986 4864 1165
Q 5126 1286 5338 1478
Q 5421 1478 5421 1402
z
" transform="scale(0.015625)"/>
      <path id="AppleGothic-4d" d="M 288 0
L 288 5018
L 947 5018
L 2893 864
L 4902 5018
L 5523 5018
L 5523 0
L 5069 0
L 5069 4358
L 3002 0
L 2784 0
L 749 4352
L 749 0
L 288 0
z
" transform="scale(0.015625)"/>
     </defs>
     <use xlink:href="#AppleGothic-2248"/>
     <use xlink:href="#AppleGothic-37" transform="translate(99.999985 0)"/>
     <use xlink:href="#AppleGothic-4d" transform="translate(167.999969 0)"/>
    </g>
    <!-- persona descriptions -->
    <g style="fill: #17202a" transform="translate(155.709563 132.864825) scale(0.12 -0.12)">
     <use xlink:href="#AppleGothic-70"/>
     <use xlink:href="#AppleGothic-65" transform="translate(55.399994 0)"/>
     <use xlink:href="#AppleGothic-72" transform="translate(110.299988 0)"/>
     <use xlink:href="#AppleGothic-73" transform="translate(145.499985 0)"/>
     <use xlink:href="#AppleGothic-6f" transform="translate(195.099976 0)"/>
     <use xlink:href="#AppleGothic-6e" transform="translate(253.399963 0)"/>
     <use xlink:href="#AppleGothic-61" transform="translate(309.299957 0)"/>
     <use xlink:href="#AppleGothic-20" transform="translate(365.799942 0)"/>
     <use xlink:href="#AppleGothic-64" transform="translate(397.799927 0)"/>
     <use xlink:href="#AppleGothic-65" transform="translate(451.799911 0)"/>
     <use xlink:href="#AppleGothic-73" transform="translate(506.699905 0)"/>
     <use xlink:href="#AppleGothic-63" transform="translate(556.299896 0)"/>
     <use xlink:href="#AppleGothic-72" transform="translate(608.19989 0)"/>
     <use xlink:href="#AppleGothic-69" transform="translate(643.399887 0)"/>
     <use xlink:href="#AppleGothic-70" transform="translate(659.299881 0)"/>
     <use xlink:href="#AppleGothic-74" transform="translate(714.699875 0)"/>
     <use xlink:href="#AppleGothic-69" transform="translate(748.899872 0)"/>
     <use xlink:href="#AppleGothic-6f" transform="translate(764.799866 0)"/>
     <use xlink:href="#AppleGothic-6e" transform="translate(823.099854 0)"/>
     <use xlink:href="#AppleGothic-73" transform="translate(878.999847 0)"/>
    </g>
   </g>
   <g id="text_5">
    <!-- 26 -->
    <g style="fill: #17202a" transform="translate(327.144 119.50995) scale(0.12 -0.12)">
     <defs>
      <path id="AppleGothic-36" d="M 3699 4557
L 3699 4013
Q 3584 4102 3475 4163
Q 3366 4224 3258 4275
Q 3085 4358 2918 4393
Q 2752 4429 2586 4429
Q 2470 4429 2352 4409
Q 2234 4390 2118 4339
Q 1670 4154 1395 3738
Q 1011 3149 1011 2189
Q 1312 2490 1568 2656
Q 2022 2931 2534 2931
Q 3162 2931 3584 2566
Q 4038 2163 4038 1491
Q 4038 806 3558 358
Q 3078 -83 2394 -83
Q 1670 -83 1146 454
Q 518 1088 518 2253
Q 518 3411 1120 4134
Q 1715 4858 2605 4858
Q 2938 4858 3226 4762
Q 3309 4730 3427 4682
Q 3546 4634 3699 4557
z
M 1062 1702
Q 1152 1152 1498 768
Q 1882 346 2419 346
Q 2899 346 3213 659
Q 3539 973 3539 1459
Q 3539 1920 3226 2214
Q 2918 2502 2496 2502
Q 1990 2502 1542 2176
Q 1414 2080 1292 1965
Q 1171 1850 1062 1702
z
" transform="scale(0.015625)"/>
     </defs>
     <use xlink:href="#AppleGothic-32"/>
     <use xlink:href="#AppleGothic-36" transform="translate(67.999985 0)"/>
    </g>
    <!-- fields -->
    <g style="fill: #17202a" transform="translate(321.797438 132.864825) scale(0.12 -0.12)">
     <use xlink:href="#AppleGothic-66"/>
     <use xlink:href="#AppleGothic-69" transform="translate(33.999985 0)"/>
     <use xlink:href="#AppleGothic-65" transform="translate(49.899979 0)"/>
     <use xlink:href="#AppleGothic-6c" transform="translate(104.799973 0)"/>
     <use xlink:href="#AppleGothic-64" transform="translate(121.499969 0)"/>
     <use xlink:href="#AppleGothic-73" transform="translate(175.499954 0)"/>
    </g>
   </g>
   <g id="text_6">
    <!-- 17 -->
    <g style="fill: #17202a" transform="translate(451.02 119.50995) scale(0.12 -0.12)">
     <use xlink:href="#AppleGothic-31"/>
     <use xlink:href="#AppleGothic-37" transform="translate(67.999985 0)"/>
    </g>
    <!-- provinces -->
    <g style="fill: #17202a" transform="translate(433.300312 132.864825) scale(0.12 -0.12)">
     <use xlink:href="#AppleGothic-70"/>
     <use xlink:href="#AppleGothic-72" transform="translate(55.399994 0)"/>
     <use xlink:href="#AppleGothic-6f" transform="translate(90.599991 0)"/>
     <use xlink:href="#AppleGothic-76" transform="translate(148.899979 0)"/>
     <use xlink:href="#AppleGothic-69" transform="translate(203.099976 0)"/>
     <use xlink:href="#AppleGothic-6e" transform="translate(218.999969 0)"/>
     <use xlink:href="#AppleGothic-63" transform="translate(274.899963 0)"/>
     <use xlink:href="#AppleGothic-65" transform="translate(326.799957 0)"/>
     <use xlink:href="#AppleGothic-73" transform="translate(381.699951 0)"/>
    </g>
   </g>
   <g id="text_7">
    <!-- 252 -->
    <g style="fill: #17202a" transform="translate(570.816 119.50995) scale(0.12 -0.12)">
     <use xlink:href="#AppleGothic-32"/>
     <use xlink:href="#AppleGothic-35" transform="translate(67.999985 0)"/>
     <use xlink:href="#AppleGothic-32" transform="translate(135.999969 0)"/>
    </g>
    <!-- administrative districts -->
    <g style="fill: #17202a" transform="translate(523.371 132.864825) scale(0.12 -0.12)">
     <use xlink:href="#AppleGothic-61"/>
     <use xlink:href="#AppleGothic-64" transform="translate(56.499985 0)"/>
     <use xlink:href="#AppleGothic-6d" transform="translate(110.499969 0)"/>
     <use xlink:href="#AppleGothic-69" transform="translate(199.799957 0)"/>
     <use xlink:href="#AppleGothic-6e" transform="translate(215.699951 0)"/>
     <use xlink:href="#AppleGothic-69" transform="translate(271.599945 0)"/>
     <use xlink:href="#AppleGothic-73" transform="translate(287.499939 0)"/>
     <use xlink:href="#AppleGothic-74" transform="translate(337.09993 0)"/>
     <use xlink:href="#AppleGothic-72" transform="translate(371.299927 0)"/>
     <use xlink:href="#AppleGothic-61" transform="translate(406.499924 0)"/>
     <use xlink:href="#AppleGothic-74" transform="translate(462.999908 0)"/>
     <use xlink:href="#AppleGothic-69" transform="translate(497.199905 0)"/>
     <use xlink:href="#AppleGothic-76" transform="translate(513.099899 0)"/>
     <use xlink:href="#AppleGothic-65" transform="translate(567.299896 0)"/>
     <use xlink:href="#AppleGothic-20" transform="translate(622.19989 0)"/>
     <use xlink:href="#AppleGothic-64" transform="translate(654.199875 0)"/>
     <use xlink:href="#AppleGothic-69" transform="translate(708.19986 0)"/>
     <use xlink:href="#AppleGothic-73" transform="translate(724.099854 0)"/>
     <use xlink:href="#AppleGothic-74" transform="translate(773.699844 0)"/>
     <use xlink:href="#AppleGothic-72" transform="translate(807.899841 0)"/>
     <use xlink:href="#AppleGothic-69" transform="translate(843.099838 0)"/>
     <use xlink:href="#AppleGothic-63" transform="translate(858.999832 0)"/>
     <use xlink:href="#AppleGothic-74" transform="translate(910.899826 0)"/>
     <use xlink:href="#AppleGothic-73" transform="translate(945.099823 0)"/>
    </g>
   </g>
   <g id="text_8">
    <!-- Persona fields -->
    <g style="fill: #17202a" transform="translate(146.766312 228.826041) scale(0.11 -0.11)">
     <defs>
      <path id="AppleGothic-50" d="M 262 5018
L 1869 5018
Q 2560 5018 3002 4781
Q 3597 4448 3597 3718
Q 3597 3014 3104 2630
Q 2656 2272 1952 2272
L 768 2272
L 768 0
L 262 0
L 262 5018
z
M 1862 4576
L 768 4576
L 768 2714
L 1901 2714
Q 2349 2714 2675 2950
Q 3040 3219 3040 3674
Q 3040 4186 2611 4410
Q 2298 4576 1862 4576
z
" transform="scale(0.015625)"/>
     </defs>
     <use xlink:href="#AppleGothic-50"/>
     <use xlink:href="#AppleGothic-65" transform="translate(60.299988 0)"/>
     <use xlink:href="#AppleGothic-72" transform="translate(115.199982 0)"/>
     <use xlink:href="#AppleGothic-73" transform="translate(150.399979 0)"/>
     <use xlink:href="#AppleGothic-6f" transform="translate(199.999969 0)"/>
     <use xlink:href="#AppleGothic-6e" transform="translate(258.299957 0)"/>
     <use xlink:href="#AppleGothic-61" transform="translate(314.199951 0)"/>
     <use xlink:href="#AppleGothic-20" transform="translate(370.699936 0)"/>
     <use xlink:href="#AppleGothic-66" transform="translate(402.699921 0)"/>
     <use xlink:href="#AppleGothic-69" transform="translate(436.699905 0)"/>
     <use xlink:href="#AppleGothic-65" transform="translate(452.599899 0)"/>
     <use xlink:href="#AppleGothic-6c" transform="translate(507.499893 0)"/>
     <use xlink:href="#AppleGothic-64" transform="translate(524.19989 0)"/>
     <use xlink:href="#AppleGothic-73" transform="translate(578.199875 0)"/>
    </g>
    <!-- professional, family, sports, arts, -->
    <g style="fill: #17202a" transform="translate(100.148656 241.239197) scale(0.11 -0.11)">
     <use xlink:href="#AppleGothic-70"/>
     <use xlink:href="#AppleGothic-72" transform="translate(55.399994 0)"/>
     <use xlink:href="#AppleGothic-6f" transform="translate(90.599991 0)"/>
     <use xlink:href="#AppleGothic-66" transform="translate(148.899979 0)"/>
     <use xlink:href="#AppleGothic-65" transform="translate(182.899963 0)"/>
     <use xlink:href="#AppleGothic-73" transform="translate(237.799957 0)"/>
     <use xlink:href="#AppleGothic-73" transform="translate(287.399948 0)"/>
     <use xlink:href="#AppleGothic-69" transform="translate(336.999939 0)"/>
     <use xlink:href="#AppleGothic-6f" transform="translate(352.899933 0)"/>
     <use xlink:href="#AppleGothic-6e" transform="translate(411.199921 0)"/>
     <use xlink:href="#AppleGothic-61" transform="translate(467.099915 0)"/>
     <use xlink:href="#AppleGothic-6c" transform="translate(523.599899 0)"/>
     <use xlink:href="#AppleGothic-2c" transform="translate(540.299896 0)"/>
     <use xlink:href="#AppleGothic-20" transform="translate(568.599884 0)"/>
     <use xlink:href="#AppleGothic-66" transform="translate(600.599869 0)"/>
     <use xlink:href="#AppleGothic-61" transform="translate(634.599854 0)"/>
     <use xlink:href="#AppleGothic-6d" transform="translate(691.099838 0)"/>
     <use xlink:href="#AppleGothic-69" transform="translate(780.399826 0)"/>
     <use xlink:href="#AppleGothic-6c" transform="translate(796.29982 0)"/>
     <use xlink:href="#AppleGothic-79" transform="translate(812.999817 0)"/>
     <use xlink:href="#AppleGothic-2c" transform="translate(868.699814 0)"/>
     <use xlink:href="#AppleGothic-20" transform="translate(896.999802 0)"/>
     <use xlink:href="#AppleGothic-73" transform="translate(928.999786 0)"/>
     <use xlink:href="#AppleGothic-70" transform="translate(978.599777 0)"/>
     <use xlink:href="#AppleGothic-6f" transform="translate(1033.999771 0)"/>
     <use xlink:href="#AppleGothic-72" transform="translate(1092.299759 0)"/>
     <use xlink:href="#AppleGothic-74" transform="translate(1127.499756 0)"/>
     <use xlink:href="#AppleGothic-73" transform="translate(1161.699753 0)"/>
     <use xlink:href="#AppleGothic-2c" transform="translate(1211.299744 0)"/>
     <use xlink:href="#AppleGothic-20" transform="translate(1239.599731 0)"/>
     <use xlink:href="#AppleGothic-61" transform="translate(1271.599716 0)"/>
     <use xlink:href="#AppleGothic-72" transform="translate(1328.099701 0)"/>
     <use xlink:href="#AppleGothic-74" transform="translate(1363.299698 0)"/>
     <use xlink:href="#AppleGothic-73" transform="translate(1397.499695 0)"/>
     <use xlink:href="#AppleGothic-2c" transform="translate(1447.099686 0)"/>
    </g>
    <!-- travel, culinary, concise/persona -->
    <g style="fill: #17202a" transform="translate(100.452875 253.524134) scale(0.11 -0.11)">
     <defs>
      <path id="AppleGothic-2f" d="M 1965 5018
L 2368 5018
L 493 -672
L 90 -672
L 1965 5018
z
" transform="scale(0.015625)"/>
     </defs>
     <use xlink:href="#AppleGothic-74"/>
     <use xlink:href="#AppleGothic-72" transform="translate(34.199997 0)"/>
     <use xlink:href="#AppleGothic-61" transform="translate(69.399994 0)"/>
     <use xlink:href="#AppleGothic-76" transform="translate(125.899979 0)"/>
     <use xlink:href="#AppleGothic-65" transform="translate(180.099976 0)"/>
     <use xlink:href="#AppleGothic-6c" transform="translate(234.999969 0)"/>
     <use xlink:href="#AppleGothic-2c" transform="translate(251.699966 0)"/>
     <use xlink:href="#AppleGothic-20" transform="translate(279.999954 0)"/>
     <use xlink:href="#AppleGothic-63" transform="translate(311.999939 0)"/>
     <use xlink:href="#AppleGothic-75" transform="translate(363.899933 0)"/>
     <use xlink:href="#AppleGothic-6c" transform="translate(419.399918 0)"/>
     <use xlink:href="#AppleGothic-69" transform="translate(436.099915 0)"/>
     <use xlink:href="#AppleGothic-6e" transform="translate(451.999908 0)"/>
     <use xlink:href="#AppleGothic-61" transform="translate(507.899902 0)"/>
     <use xlink:href="#AppleGothic-72" transform="translate(564.399887 0)"/>
     <use xlink:href="#AppleGothic-79" transform="translate(599.599884 0)"/>
     <use xlink:href="#AppleGothic-2c" transform="translate(655.299881 0)"/>
     <use xlink:href="#AppleGothic-20" transform="translate(683.599869 0)"/>
     <use xlink:href="#AppleGothic-63" transform="translate(715.599854 0)"/>
     <use xlink:href="#AppleGothic-6f" transform="translate(767.499847 0)"/>
     <use xlink:href="#AppleGothic-6e" transform="translate(825.799835 0)"/>
     <use xlink:href="#AppleGothic-63" transform="translate(881.699829 0)"/>
     <use xlink:href="#AppleGothic-69" transform="translate(933.599823 0)"/>
     <use xlink:href="#AppleGothic-73" transform="translate(949.499817 0)"/>
     <use xlink:href="#AppleGothic-65" transform="translate(999.099808 0)"/>
     <use xlink:href="#AppleGothic-2f" transform="translate(1053.999802 0)"/>
     <use xlink:href="#AppleGothic-70" transform="translate(1103.999786 0)"/>
     <use xlink:href="#AppleGothic-65" transform="translate(1159.39978 0)"/>
     <use xlink:href="#AppleGothic-72" transform="translate(1214.299774 0)"/>
     <use xlink:href="#AppleGothic-73" transform="translate(1249.499771 0)"/>
     <use xlink:href="#AppleGothic-6f" transform="translate(1299.099762 0)"/>
     <use xlink:href="#AppleGothic-6e" transform="translate(1357.39975 0)"/>
     <use xlink:href="#AppleGothic-61" transform="translate(1413.299744 0)"/>
    </g>
   </g>
   <g id="text_9">
    <!-- Current target regions -->
    <g style="fill: #17202a" transform="translate(440.971906 228.692837) scale(0.11 -0.11)">
     <defs>
      <path id="AppleGothic-43" d="M 4109 4621
L 4109 3974
Q 3872 4205 3565 4371
Q 3085 4627 2598 4627
Q 1850 4627 1312 3994
Q 1043 3680 912 3309
Q 781 2938 781 2515
Q 781 1651 1318 1030
Q 1850 410 2611 410
Q 2970 410 3344 554
Q 3718 698 4109 998
L 4109 378
Q 3251 -83 2554 -83
Q 1651 -83 973 614
Q 243 1363 243 2490
Q 243 3584 922 4339
Q 1613 5101 2630 5101
Q 3027 5101 3392 4979
Q 3757 4858 4109 4621
z
" transform="scale(0.015625)"/>
     </defs>
     <use xlink:href="#AppleGothic-43"/>
     <use xlink:href="#AppleGothic-75" transform="translate(68.499985 0)"/>
     <use xlink:href="#AppleGothic-72" transform="translate(123.999969 0)"/>
     <use xlink:href="#AppleGothic-72" transform="translate(159.199966 0)"/>
     <use xlink:href="#AppleGothic-65" transform="translate(194.399963 0)"/>
     <use xlink:href="#AppleGothic-6e" transform="translate(249.299957 0)"/>
     <use xlink:href="#AppleGothic-74" transform="translate(305.199951 0)"/>
     <use xlink:href="#AppleGothic-20" transform="translate(339.399948 0)"/>
     <use xlink:href="#AppleGothic-74" transform="translate(371.399933 0)"/>
     <use xlink:href="#AppleGothic-61" transform="translate(405.59993 0)"/>
     <use xlink:href="#AppleGothic-72" transform="translate(462.099915 0)"/>
     <use xlink:href="#AppleGothic-67" transform="translate(497.299911 0)"/>
     <use xlink:href="#AppleGothic-65" transform="translate(553.499908 0)"/>
     <use xlink:href="#AppleGothic-74" transform="translate(608.399902 0)"/>
     <use xlink:href="#AppleGothic-20" transform="translate(642.599899 0)"/>
     <use xlink:href="#AppleGothic-72" transform="translate(674.599884 0)"/>
     <use xlink:href="#AppleGothic-65" transform="translate(709.799881 0)"/>
     <use xlink:href="#AppleGothic-67" transform="translate(764.699875 0)"/>
     <use xlink:href="#AppleGothic-69" transform="translate(820.899872 0)"/>
     <use xlink:href="#AppleGothic-6f" transform="translate(836.799866 0)"/>
     <use xlink:href="#AppleGothic-6e" transform="translate(895.099854 0)"/>
     <use xlink:href="#AppleGothic-73" transform="translate(950.999847 0)"/>
    </g>
    <!-- 5 contests; local adult-persona counts -->
    <g style="fill: #17202a" transform="translate(398.501594 241.28715) scale(0.11 -0.11)">
     <defs>
      <path id="AppleGothic-2d" d="M 256 1958
L 2349 1958
L 2349 1491
L 256 1491
L 256 1958
z
" transform="scale(0.015625)"/>
     </defs>
     <use xlink:href="#AppleGothic-35"/>
     <use xlink:href="#AppleGothic-20" transform="translate(67.999985 0)"/>
     <use xlink:href="#AppleGothic-63" transform="translate(99.999969 0)"/>
     <use xlink:href="#AppleGothic-6f" transform="translate(151.899963 0)"/>
     <use xlink:href="#AppleGothic-6e" transform="translate(210.199951 0)"/>
     <use xlink:href="#AppleGothic-74" transform="translate(266.099945 0)"/>
     <use xlink:href="#AppleGothic-65" transform="translate(300.299942 0)"/>
     <use xlink:href="#AppleGothic-73" transform="translate(355.199936 0)"/>
     <use xlink:href="#AppleGothic-74" transform="translate(404.799927 0)"/>
     <use xlink:href="#AppleGothic-73" transform="translate(438.999924 0)"/>
     <use xlink:href="#AppleGothic-3b" transform="translate(488.599915 0)"/>
     <use xlink:href="#AppleGothic-20" transform="translate(538.599899 0)"/>
     <use xlink:href="#AppleGothic-6c" transform="translate(570.599884 0)"/>
     <use xlink:href="#AppleGothic-6f" transform="translate(587.299881 0)"/>
     <use xlink:href="#AppleGothic-63" transform="translate(645.599869 0)"/>
     <use xlink:href="#AppleGothic-61" transform="translate(697.499863 0)"/>
     <use xlink:href="#AppleGothic-6c" transform="translate(753.999847 0)"/>
     <use xlink:href="#AppleGothic-20" transform="translate(770.699844 0)"/>
     <use xlink:href="#AppleGothic-61" transform="translate(802.699829 0)"/>
     <use xlink:href="#AppleGothic-64" transform="translate(859.199814 0)"/>
     <use xlink:href="#AppleGothic-75" transform="translate(913.199799 0)"/>
     <use xlink:href="#AppleGothic-6c" transform="translate(968.699783 0)"/>
     <use xlink:href="#AppleGothic-74" transform="translate(985.39978 0)"/>
     <use xlink:href="#AppleGothic-2d" transform="translate(1019.599777 0)"/>
     <use xlink:href="#AppleGothic-70" transform="translate(1069.599762 0)"/>
     <use xlink:href="#AppleGothic-65" transform="translate(1124.999756 0)"/>
     <use xlink:href="#AppleGothic-72" transform="translate(1179.89975 0)"/>
     <use xlink:href="#AppleGothic-73" transform="translate(1215.099747 0)"/>
     <use xlink:href="#AppleGothic-6f" transform="translate(1264.699738 0)"/>
     <use xlink:href="#AppleGothic-6e" transform="translate(1322.999725 0)"/>
     <use xlink:href="#AppleGothic-61" transform="translate(1378.899719 0)"/>
     <use xlink:href="#AppleGothic-20" transform="translate(1435.399704 0)"/>
     <use xlink:href="#AppleGothic-63" transform="translate(1467.399689 0)"/>
     <use xlink:href="#AppleGothic-6f" transform="translate(1519.299683 0)"/>
     <use xlink:href="#AppleGothic-75" transform="translate(1577.59967 0)"/>
     <use xlink:href="#AppleGothic-6e" transform="translate(1633.099655 0)"/>
     <use xlink:href="#AppleGothic-74" transform="translate(1688.999649 0)"/>
     <use xlink:href="#AppleGothic-73" transform="translate(1723.199646 0)"/>
    </g>
    <!-- read from data_paths.json -->
    <g style="fill: #17202a" transform="translate(429.655656 253.700306) scale(0.11 -0.11)">
     <defs>
      <path id="AppleGothic-5f" d="M 0 -659
L 3200 -659
L 3200 -832
L 0 -832
L 0 -659
z
" transform="scale(0.015625)"/>
      <path id="AppleGothic-6a" d="M 954 3424
L 1414 3424
L 1414 -256
Q 1414 -749 1133 -979
Q 896 -1184 525 -1184
Q 352 -1184 237 -1152
Q 122 -1120 6 -1062
L 6 -640
Q 122 -698 234 -733
Q 346 -768 454 -768
Q 698 -768 826 -624
Q 954 -480 954 -230
L 954 3424
z
M 1152 4870
Q 1286 4870 1376 4780
Q 1466 4691 1466 4525
Q 1466 4358 1382 4268
Q 1299 4179 1152 4179
Q 1005 4179 925 4281
Q 845 4384 845 4518
Q 845 4730 941 4800
Q 1037 4870 1152 4870
z
" transform="scale(0.015625)"/>
     </defs>
     <use xlink:href="#AppleGothic-72"/>
     <use xlink:href="#AppleGothic-65" transform="translate(35.199997 0)"/>
     <use xlink:href="#AppleGothic-61" transform="translate(90.099991 0)"/>
     <use xlink:href="#AppleGothic-64" transform="translate(146.599976 0)"/>
     <use xlink:href="#AppleGothic-20" transform="translate(200.59996 0)"/>
     <use xlink:href="#AppleGothic-66" transform="translate(232.599945 0)"/>
     <use xlink:href="#AppleGothic-72" transform="translate(266.59993 0)"/>
     <use xlink:href="#AppleGothic-6f" transform="translate(301.799927 0)"/>
     <use xlink:href="#AppleGothic-6d" transform="translate(360.099915 0)"/>
     <use xlink:href="#AppleGothic-20" transform="translate(449.399902 0)"/>
     <use xlink:href="#AppleGothic-64" transform="translate(481.399887 0)"/>
     <use xlink:href="#AppleGothic-61" transform="translate(535.399872 0)"/>
     <use xlink:href="#AppleGothic-74" transform="translate(591.899857 0)"/>
     <use xlink:href="#AppleGothic-61" transform="translate(626.099854 0)"/>
     <use xlink:href="#AppleGothic-5f" transform="translate(682.599838 0)"/>
     <use xlink:href="#AppleGothic-70" transform="translate(732.599823 0)"/>
     <use xlink:href="#AppleGothic-61" transform="translate(787.999817 0)"/>
     <use xlink:href="#AppleGothic-74" transform="translate(844.499802 0)"/>
     <use xlink:href="#AppleGothic-68" transform="translate(878.699799 0)"/>
     <use xlink:href="#AppleGothic-73" transform="translate(930.899796 0)"/>
     <use xlink:href="#AppleGothic-2e" transform="translate(980.499786 0)"/>
     <use xlink:href="#AppleGothic-6a" transform="translate(1014.999771 0)"/>
     <use xlink:href="#AppleGothic-73" transform="translate(1042.599762 0)"/>
     <use xlink:href="#AppleGothic-6f" transform="translate(1092.199753 0)"/>
     <use xlink:href="#AppleGothic-6e" transform="translate(1150.499741 0)"/>
    </g>
   </g>
   <g id="text_10">
    <!-- External source: Hugging Face dataset page. Local source: _workspace/contracts/data_paths.json. -->
    <g style="fill: #5d6d7e" transform="translate(33.984 331.524) scale(0.09 -0.09)">
     <defs>
      <path id="AppleGothic-78" d="M 352 3424
L 928 3424
L 1754 2150
L 2592 3424
L 3130 3424
L 2022 1830
L 3270 0
L 2682 0
L 1722 1504
L 755 0
L 211 0
L 1466 1830
L 352 3424
z
" transform="scale(0.015625)"/>
      <path id="AppleGothic-3a" d="M 1587 2554
Q 1434 2554 1357 2682
Q 1280 2810 1280 2995
Q 1280 3187 1360 3318
Q 1440 3450 1587 3450
Q 1722 3450 1805 3331
Q 1888 3213 1888 3008
Q 1888 2816 1811 2685
Q 1734 2554 1587 2554
z
M 1587 -19
Q 1434 -19 1357 109
Q 1280 237 1280 422
Q 1280 614 1360 745
Q 1440 877 1587 877
Q 1722 877 1805 758
Q 1888 640 1888 435
Q 1888 243 1811 112
Q 1734 -19 1587 -19
z
" transform="scale(0.015625)"/>
      <path id="AppleGothic-48" d="M 352 5018
L 851 5018
L 851 2829
L 3610 2829
L 3610 5018
L 4109 5018
L 4109 0
L 3610 0
L 3610 2406
L 851 2406
L 851 0
L 352 0
L 352 5018
z
" transform="scale(0.015625)"/>
      <path id="AppleGothic-46" d="M 339 5018
L 3462 5018
L 3462 4576
L 845 4576
L 845 2714
L 3354 2714
L 3354 2304
L 845 2304
L 845 0
L 339 0
L 339 5018
z
" transform="scale(0.015625)"/>
      <path id="AppleGothic-4c" d="M 333 5018
L 838 5018
L 838 442
L 3315 442
L 3315 0
L 333 0
L 333 5018
z
" transform="scale(0.015625)"/>
      <path id="AppleGothic-77" d="M 2438 3424
L 2874 3424
L 3405 1811
Q 3501 1498 3600 1162
Q 3699 826 3770 538
Q 3789 602 3805 646
Q 3821 691 3834 736
Q 3904 979 3977 1228
Q 4051 1478 4122 1747
L 4646 3424
L 5126 3424
L 3981 0
L 3552 0
L 2944 1894
Q 2842 2202 2781 2378
Q 2720 2554 2707 2618
Q 2682 2726 2669 2803
Q 2656 2880 2656 2944
Q 2598 2771 2556 2636
Q 2515 2502 2490 2406
Q 2406 2118 2361 1945
Q 2317 1773 2304 1715
L 1760 0
L 1325 0
L 186 3424
L 685 3424
L 1594 538
Q 1626 723 1664 886
Q 1702 1050 1747 1203
Q 1779 1312 1811 1427
Q 1843 1542 1888 1664
L 2438 3424
z
" transform="scale(0.015625)"/>
      <path id="AppleGothic-6b" d="M 288 5018
L 755 5018
L 755 1914
L 2330 3424
L 2982 3424
L 1542 2093
L 3187 0
L 2554 0
L 1197 1786
L 755 1376
L 755 0
L 288 0
L 288 5018
z
" transform="scale(0.015625)"/>
     </defs>
     <use xlink:href="#AppleGothic-45"/>
     <use xlink:href="#AppleGothic-78" transform="translate(57.899994 0)"/>
     <use xlink:href="#AppleGothic-74" transform="translate(112.299988 0)"/>
     <use xlink:href="#AppleGothic-65" transform="translate(146.499985 0)"/>
     <use xlink:href="#AppleGothic-72" transform="translate(201.399979 0)"/>
     <use xlink:href="#AppleGothic-6e" transform="translate(236.599976 0)"/>
     <use xlink:href="#AppleGothic-61" transform="translate(292.499969 0)"/>
     <use xlink:href="#AppleGothic-6c" transform="translate(348.999954 0)"/>
     <use xlink:href="#AppleGothic-20" transform="translate(365.699951 0)"/>
     <use xlink:href="#AppleGothic-73" transform="translate(397.699936 0)"/>
     <use xlink:href="#AppleGothic-6f" transform="translate(447.299927 0)"/>
     <use xlink:href="#AppleGothic-75" transform="translate(505.599915 0)"/>
     <use xlink:href="#AppleGothic-72" transform="translate(561.099899 0)"/>
     <use xlink:href="#AppleGothic-63" transform="translate(596.299896 0)"/>
     <use xlink:href="#AppleGothic-65" transform="translate(648.19989 0)"/>
     <use xlink:href="#AppleGothic-3a" transform="translate(703.099884 0)"/>
     <use xlink:href="#AppleGothic-20" transform="translate(753.099869 0)"/>
     <use xlink:href="#AppleGothic-48" transform="translate(785.099854 0)"/>
     <use xlink:href="#AppleGothic-75" transform="translate(855.399841 0)"/>
     <use xlink:href="#AppleGothic-67" transform="translate(910.899826 0)"/>
     <use xlink:href="#AppleGothic-67" transform="translate(967.099823 0)"/>
     <use xlink:href="#AppleGothic-69" transform="translate(1023.29982 0)"/>
     <use xlink:href="#AppleGothic-6e" transform="translate(1039.199814 0)"/>
     <use xlink:href="#AppleGothic-67" transform="translate(1095.099808 0)"/>
     <use xlink:href="#AppleGothic-20" transform="translate(1151.299805 0)"/>
     <use xlink:href="#AppleGothic-46" transform="translate(1183.299789 0)"/>
     <use xlink:href="#AppleGothic-61" transform="translate(1241.499786 0)"/>
     <use xlink:href="#AppleGothic-63" transform="translate(1297.999771 0)"/>
     <use xlink:href="#AppleGothic-65" transform="translate(1349.899765 0)"/>
     <use xlink:href="#AppleGothic-20" transform="translate(1404.799759 0)"/>
     <use xlink:href="#AppleGothic-64" transform="translate(1436.799744 0)"/>
     <use xlink:href="#AppleGothic-61" transform="translate(1490.799728 0)"/>
     <use xlink:href="#AppleGothic-74" transform="translate(1547.299713 0)"/>
     <use xlink:href="#AppleGothic-61" transform="translate(1581.49971 0)"/>
     <use xlink:href="#AppleGothic-73" transform="translate(1637.999695 0)"/>
     <use xlink:href="#AppleGothic-65" transform="translate(1687.599686 0)"/>
     <use xlink:href="#AppleGothic-74" transform="translate(1742.49968 0)"/>
     <use xlink:href="#AppleGothic-20" transform="translate(1776.699677 0)"/>
     <use xlink:href="#AppleGothic-70" transform="translate(1808.699661 0)"/>
     <use xlink:href="#AppleGothic-61" transform="translate(1864.099655 0)"/>
     <use xlink:href="#AppleGothic-67" transform="translate(1920.59964 0)"/>
     <use xlink:href="#AppleGothic-65" transform="translate(1976.799637 0)"/>
     <use xlink:href="#AppleGothic-2e" transform="translate(2031.699631 0)"/>
     <use xlink:href="#AppleGothic-20" transform="translate(2066.199615 0)"/>
     <use xlink:href="#AppleGothic-4c" transform="translate(2098.1996 0)"/>
     <use xlink:href="#AppleGothic-6f" transform="translate(2153.399597 0)"/>
     <use xlink:href="#AppleGothic-63" transform="translate(2211.699585 0)"/>
     <use xlink:href="#AppleGothic-61" transform="translate(2263.599579 0)"/>
     <use xlink:href="#AppleGothic-6c" transform="translate(2320.099564 0)"/>
     <use xlink:href="#AppleGothic-20" transform="translate(2336.799561 0)"/>
     <use xlink:href="#AppleGothic-73" transform="translate(2368.799545 0)"/>
     <use xlink:href="#AppleGothic-6f" transform="translate(2418.399536 0)"/>
     <use xlink:href="#AppleGothic-75" transform="translate(2476.699524 0)"/>
     <use xlink:href="#AppleGothic-72" transform="translate(2532.199509 0)"/>
     <use xlink:href="#AppleGothic-63" transform="translate(2567.399506 0)"/>
     <use xlink:href="#AppleGothic-65" transform="translate(2619.2995 0)"/>
     <use xlink:href="#AppleGothic-3a" transform="translate(2674.199493 0)"/>
     <use xlink:href="#AppleGothic-20" transform="translate(2724.199478 0)"/>
     <use xlink:href="#AppleGothic-5f" transform="translate(2756.199463 0)"/>
     <use xlink:href="#AppleGothic-77" transform="translate(2806.199448 0)"/>
     <use xlink:href="#AppleGothic-6f" transform="translate(2889.699432 0)"/>
     <use xlink:href="#AppleGothic-72" transform="translate(2947.99942 0)"/>
     <use xlink:href="#AppleGothic-6b" transform="translate(2983.199417 0)"/>
     <use xlink:href="#AppleGothic-73" transform="translate(3034.599411 0)"/>
     <use xlink:href="#AppleGothic-70" transform="translate(3084.199402 0)"/>
     <use xlink:href="#AppleGothic-61" transform="translate(3139.599396 0)"/>
     <use xlink:href="#AppleGothic-63" transform="translate(3196.09938 0)"/>
     <use xlink:href="#AppleGothic-65" transform="translate(3247.999374 0)"/>
     <use xlink:href="#AppleGothic-2f" transform="translate(3302.899368 0)"/>
     <use xlink:href="#AppleGothic-63" transform="translate(3352.899353 0)"/>
     <use xlink:href="#AppleGothic-6f" transform="translate(3404.799347 0)"/>
     <use xlink:href="#AppleGothic-6e" transform="translate(3463.099335 0)"/>
     <use xlink:href="#AppleGothic-74" transform="translate(3518.999329 0)"/>
     <use xlink:href="#AppleGothic-72" transform="translate(3553.199326 0)"/>
     <use xlink:href="#AppleGothic-61" transform="translate(3588.399323 0)"/>
     <use xlink:href="#AppleGothic-63" transform="translate(3644.899307 0)"/>
     <use xlink:href="#AppleGothic-74" transform="translate(3696.799301 0)"/>
     <use xlink:href="#AppleGothic-73" transform="translate(3730.999298 0)"/>
     <use xlink:href="#AppleGothic-2f" transform="translate(3780.599289 0)"/>
     <use xlink:href="#AppleGothic-64" transform="translate(3830.599274 0)"/>
     <use xlink:href="#AppleGothic-61" transform="translate(3884.599258 0)"/>
     <use xlink:href="#AppleGothic-74" transform="translate(3941.099243 0)"/>
     <use xlink:href="#AppleGothic-61" transform="translate(3975.29924 0)"/>
     <use xlink:href="#AppleGothic-5f" transform="translate(4031.799225 0)"/>
     <use xlink:href="#AppleGothic-70" transform="translate(4081.79921 0)"/>
     <use xlink:href="#AppleGothic-61" transform="translate(4137.199203 0)"/>
     <use xlink:href="#AppleGothic-74" transform="translate(4193.699188 0)"/>
     <use xlink:href="#AppleGothic-68" transform="translate(4227.899185 0)"/>
     <use xlink:href="#AppleGothic-73" transform="translate(4280.099182 0)"/>
     <use xlink:href="#AppleGothic-2e" transform="translate(4329.699173 0)"/>
     <use xlink:href="#AppleGothic-6a" transform="translate(4364.199158 0)"/>
     <use xlink:href="#AppleGothic-73" transform="translate(4391.799149 0)"/>
     <use xlink:href="#AppleGothic-6f" transform="translate(4441.399139 0)"/>
     <use xlink:href="#AppleGothic-6e" transform="translate(4499.699127 0)"/>
     <use xlink:href="#AppleGothic-2e" transform="translate(4555.599121 0)"/>
    </g>
   </g>
  </g>
 </g>
 <defs>
  <clipPath id="p2ab780a8f4">
   <rect x="7.2" y="7.2" width="669.6" height="360.36"/>
  </clipPath>
 </defs>
</svg>
