<?xml version="1.0" encoding="utf-8" standalone="no"?>
<!DOCTYPE svg PUBLIC "-//W3C//DTD SVG 1.1//EN"
  "http://www.w3.org/Graphics/SVG/1.1/DTD/svg11.dtd">
<svg xmlns:xlink="http://www.w3.org/1999/xlink" width="739.8pt" height="402.48pt" viewBox="0 0 739.8 402.48" xmlns="http://www.w3.org/2000/svg" version="1.1">
 <metadata>
  <rdf:RDF xmlns:dc="http://purl.org/dc/elements/1.1/" xmlns:cc="http://creativecommons.org/ns#" xmlns:rdf="http://www.w3.org/1999/02/22-rdf-syntax-ns#">
   <cc:Work>
    <dc:type rdf:resource="http://purl.org/dc/dcmitype/StillImage"/>
    <dc:date>2026-04-26T11:35:24.952328</dc:date>
    <dc:format>image/svg+xml</dc:format>
    <dc:creator>
     <cc:Agent>
      <dc:title>Matplotlib v3.10.9, https://matplotlib.org/</dc:title>
     </cc:Agent>
    </dc:creator>
   </cc:Work>
  </rdf:RDF>
 </metadata>
 <defs>
  <style type="text/css">*{stroke-linejoin: round; stroke-linecap: butt}</style>
 </defs>
 <g id="figure_1">
  <g id="patch_1">
   <path d="M 0 402.48
L 739.8 402.48
L 739.8 -0
L 0 -0
z
" style="fill: #fffdf8"/>
  </g>
  <g id="axes_1">
   <g id="patch_2">
    <path d="M 55.8018 130.60944
L 190.7262 130.60944
Q 208.8612 130.60944 208.8612 120.90744
L 208.8612 99.17496
Q 208.8612 89.47296 190.7262 89.47296
L 55.8018 89.47296
Q 37.6668 89.47296 37.6668 99.17496
L 37.6668 120.90744
Q 37.6668 130.60944 55.8018 130.60944
z
" clip-path="url(#p836a989bbc)" style="fill: #f7fbff; stroke: #2166ac; stroke-width: 1.2; stroke-linejoin: miter"/>
   </g>
   <g id="patch_3">
    <path d="M 55.8018 175.23864
L 190.7262 175.23864
Q 208.8612 175.23864 208.8612 165.53664
L 208.8612 143.80416
Q 208.8612 134.10216 190.7262 134.10216
L 55.8018 134.10216
Q 37.6668 134.10216 37.6668 143.80416
L 37.6668 165.53664
Q 37.6668 175.23864 55.8018 175.23864
z
" clip-path="url(#p836a989bbc)" style="fill: #f7fbff; stroke: #2166ac; stroke-width: 1.2; stroke-linejoin: miter"/>
   </g>
   <g id="patch_4">
    <path d="M 55.8018 219.86784
L 190.7262 219.86784
Q 208.8612 219.86784 208.8612 210.16584
L 208.8612 188.43336
Q 208.8612 178.73136 190.7262 178.73136
L 55.8018 178.73136
Q 37.6668 178.73136 37.6668 188.43336
L 37.6668 210.16584
Q 37.6668 219.86784 55.8018 219.86784
z
" clip-path="url(#p836a989bbc)" style="fill: #f7fbff; stroke: #2166ac; stroke-width: 1.2; stroke-linejoin: miter"/>
   </g>
   <g id="patch_5">
    <path d="M 55.8018 264.49704
L 190.7262 264.49704
Q 208.8612 264.49704 208.8612 254.79504
L 208.8612 233.06256
Q 208.8612 223.36056 190.7262 223.36056
L 55.8018 223.36056
Q 37.6668 223.36056 37.6668 233.06256
L 37.6668 254.79504
Q 37.6668 264.49704 55.8018 264.49704
z
" clip-path="url(#p836a989bbc)" style="fill: #f7fbff; stroke: #2166ac; stroke-width: 1.2; stroke-linejoin: miter"/>
   </g>
   <g id="patch_6">
    <path d="M 55.8018 309.12624
L 190.7262 309.12624
Q 208.8612 309.12624 208.8612 299.42424
L 208.8612 277.69176
Q 208.8612 267.98976 190.7262 267.98976
L 55.8018 267.98976
Q 37.6668 267.98976 37.6668 277.69176
L 37.6668 299.42424
Q 37.6668 309.12624 55.8018 309.12624
z
" clip-path="url(#p836a989bbc)" style="fill: #f7fbff; stroke: #2166ac; stroke-width: 1.2; stroke-linejoin: miter"/>
   </g>
   <g id="patch_7">
    <path d="M 476.5338 130.60944
L 575.1882 130.60944
Q 593.3232 130.60944 593.3232 120.90744
L 593.3232 99.17496
Q 593.3232 89.47296 575.1882 89.47296
L 476.5338 89.47296
Q 458.3988 89.47296 458.3988 99.17496
L 458.3988 120.90744
Q 458.3988 130.60944 476.5338 130.60944
z
" clip-path="url(#p836a989bbc)" style="fill: #fff8f0; stroke: #f4a261; stroke-width: 1.2; stroke-linejoin: miter"/>
   </g>
   <g id="patch_8">
    <path d="M 476.5338 175.23864
L 575.1882 175.23864
Q 593.3232 175.23864 593.3232 165.53664
L 593.3232 143.80416
Q 593.3232 134.10216 575.1882 134.10216
L 476.5338 134.10216
Q 458.3988 134.10216 458.3988 143.80416
L 458.3988 165.53664
Q 458.3988 175.23864 476.5338 175.23864
z
" clip-path="url(#p836a989bbc)" style="fill: #fff8f0; stroke: #f4a261; stroke-width: 1.2; stroke-linejoin: miter"/>
   </g>
   <g id="patch_9">
    <path d="M 476.5338 219.86784
L 575.1882 219.86784
Q 593.3232 219.86784 593.3232 210.16584
L 593.3232 188.43336
Q 593.3232 178.73136 575.1882 178.73136
L 476.5338 178.73136
Q 458.3988 178.73136 458.3988 188.43336
L 458.3988 210.16584
Q 458.3988 219.86784 476.5338 219.86784
z
" clip-path="url(#p836a989bbc)" style="fill: #fff8f0; stroke: #f4a261; stroke-width: 1.2; stroke-linejoin: miter"/>
   </g>
   <g id="patch_10">
    <path d="M 476.5338 264.49704
L 575.1882 264.49704
Q 593.3232 264.49704 593.3232 254.79504
L 593.3232 233.06256
Q 593.3232 223.36056 575.1882 223.36056
L 476.5338 223.36056
Q 458.3988 223.36056 458.3988 233.06256
L 458.3988 254.79504
Q 458.3988 264.49704 476.5338 264.49704
z
" clip-path="url(#p836a989bbc)" style="fill: #fff8f0; stroke: #f4a261; stroke-width: 1.2; stroke-linejoin: miter"/>
   </g>
   <g id="patch_11">
    <path d="M 592.5978 130.60944
L 691.2522 130.60944
Q 709.3872 130.60944 709.3872 120.90744
L 709.3872 99.17496
Q 709.3872 89.47296 691.2522 89.47296
L 592.5978 89.47296
Q 574.4628 89.47296 574.4628 99.17496
L 574.4628 120.90744
Q 574.4628 130.60944 592.5978 130.60944
z
" clip-path="url(#p836a989bbc)" style="fill: #fff8f0; stroke: #f4a261; stroke-width: 1.2; stroke-linejoin: miter"/>
   </g>
   <g id="patch_12">
    <path d="M 592.5978 175.23864
L 691.2522 175.23864
Q 709.3872 175.23864 709.3872 165.53664
L 709.3872 143.80416
Q 709.3872 134.10216 691.2522 134.10216
L 592.5978 134.10216
Q 574.4628 134.10216 574.4628 143.80416
L 574.4628 165.53664
Q 574.4628 175.23864 592.5978 175.23864
z
" clip-path="url(#p836a989bbc)" style="fill: #fff8f0; stroke: #f4a261; stroke-width: 1.2; stroke-linejoin: miter"/>
   </g>
   <g id="patch_13">
    <path d="M 592.5978 219.86784
L 691.2522 219.86784
Q 709.3872 219.86784 709.3872 210.16584
L 709.3872 188.43336
Q 709.3872 178.73136 691.2522 178.73136
L 592.5978 178.73136
Q 574.4628 178.73136 574.4628 188.43336
L 574.4628 210.16584
Q 574.4628 219.86784 592.5978 219.86784
z
" clip-path="url(#p836a989bbc)" style="fill: #fff8f0; stroke: #f4a261; stroke-width: 1.2; stroke-linejoin: miter"/>
   </g>
   <g id="patch_14">
    <path d="M 592.5978 264.49704
L 691.2522 264.49704
Q 709.3872 264.49704 709.3872 254.79504
L 709.3872 233.06256
Q 709.3872 223.36056 691.2522 223.36056
L 592.5978 223.36056
Q 574.4628 223.36056 574.4628 233.06256
L 574.4628 254.79504
Q 574.4628 264.49704 592.5978 264.49704
z
" clip-path="url(#p836a989bbc)" style="fill: #fff8f0; stroke: #f4a261; stroke-width: 1.2; stroke-linejoin: miter"/>
   </g>
   <g id="patch_15">
    <path d="M 203.799826 212.8824
Q 333.627528 212.8824 462.001786 212.8824
" clip-path="url(#p836a989bbc)" style="fill: none; stroke: #5d6d7e; stroke-width: 1.3; stroke-linecap: round"/>
    <path d="M 457.201786 210.4824
L 462.001786 212.8824
L 457.201786 215.2824
z
" clip-path="url(#p836a989bbc)" style="fill: #5d6d7e; stroke: #5d6d7e; stroke-width: 1.3; stroke-linecap: round"/>
   </g>
   <g id="patch_16">
    <path d="M 203.799826 259.452
Q 333.627528 259.452 462.001786 259.452
" clip-path="url(#p836a989bbc)" style="fill: none; stroke: #5d6d7e; stroke-width: 1.3; stroke-linecap: round"/>
    <path d="M 457.201786 257.052
L 462.001786 259.452
L 457.201786 261.852
z
" clip-path="url(#p836a989bbc)" style="fill: #5d6d7e; stroke: #5d6d7e; stroke-width: 1.3; stroke-linecap: round"/>
   </g>
   <g id="patch_17">
    <path d="M 463.653655 171.95114
Q 333.629928 201.240016 205.024116 230.209496
" clip-path="url(#p836a989bbc)" style="fill: none; stroke: #5d6d7e; stroke-width: 1.3; stroke-linecap: round"/>
    <path d="M 210.234188 231.496022
L 205.024116 230.209496
L 209.17938 226.813354
z
" clip-path="url(#p836a989bbc)" style="fill: #5d6d7e; stroke: #5d6d7e; stroke-width: 1.3; stroke-linecap: round"/>
   </g>
   <g id="patch_18">
    <path d="M 522.980475 154.6704
Q 551.25 154.6704 578.066081 154.6704
" clip-path="url(#p836a989bbc)" style="fill: none; stroke: #5d6d7e; stroke-width: 1.3; stroke-linecap: round"/>
    <path d="M 573.266081 152.2704
L 578.066081 154.6704
L 573.266081 157.0704
z
" clip-path="url(#p836a989bbc)" style="fill: #5d6d7e; stroke: #5d6d7e; stroke-width: 1.3; stroke-linecap: round"/>
   </g>
   <g id="patch_19">
    <path d="M 579.704926 253.867843
Q 391.663122 212.882645 205.041423 172.206969
" clip-path="url(#p836a989bbc)" style="fill: none; stroke: #5d6d7e; stroke-width: 1.3; stroke-linecap: round"/>
    <path d="M 209.220217 175.574116
L 205.041423 172.206969
L 210.242417 170.884222
z
" clip-path="url(#p836a989bbc)" style="fill: #5d6d7e; stroke: #5d6d7e; stroke-width: 1.3; stroke-linecap: round"/>
   </g>
   <g id="patch_20">
    <path d="M 266.1678 355.69584
L 459.1242 355.69584
Q 477.2592 355.69584 477.2592 345.99384
L 477.2592 304.85736
Q 477.2592 295.15536 459.1242 295.15536
L 266.1678 295.15536
Q 248.0328 295.15536 248.0328 304.85736
L 248.0328 345.99384
Q 248.0328 355.69584 266.1678 355.69584
z
" clip-path="url(#p836a989bbc)" style="fill: #f5fff8; stroke: #2a9d8f; stroke-width: 1.2; stroke-linejoin: miter"/>
   </g>
   <g id="text_1">
    <!-- Political KG Ontology Schematic -->
    <g style="fill: #17202a" transform="translate(36.216 38.2464) scale(0.22 -0.22)">
     <defs>
      <path id="AppleGothic-50" d="M 262 5018
L 1869 5018
Q 2560 5018 3002 4781
Q 3597 4448 3597 3718
Q 3597 3014 3104 2630
Q 2656 2272 1952 2272
L 768 2272
L 768 0
L 262 0
L 262 5018
z
M 1862 4576
L 768 4576
L 768 2714
L 1901 2714
Q 2349 2714 2675 2950
Q 3040 3219 3040 3674
Q 3040 4186 2611 4410
Q 2298 4576 1862 4576
z
" transform="scale(0.015625)"/>
      <path id="AppleGothic-6f" d="M 1888 -83
Q 1229 -83 730 397
Q 198 902 198 1709
Q 198 2470 666 2982
Q 1146 3501 1850 3501
Q 2547 3501 3027 2982
Q 3501 2470 3501 1715
Q 3501 922 2989 403
Q 2515 -83 1888 -83
z
M 1843 339
Q 2304 339 2662 723
Q 3008 1114 3008 1715
Q 3008 2336 2637 2726
Q 2298 3085 1850 3085
Q 1389 3085 1062 2714
Q 704 2304 704 1709
Q 704 1107 1056 704
Q 1382 339 1843 339
z
" transform="scale(0.015625)"/>
      <path id="AppleGothic-6c" d="M 288 5018
L 749 5018
L 749 0
L 288 0
L 288 5018
z
" transform="scale(0.015625)"/>
      <path id="AppleGothic-69" d="M 256 3424
L 717 3424
L 717 0
L 256 0
L 256 3424
z
M 480 4870
Q 614 4870 704 4780
Q 794 4691 794 4525
Q 794 4358 710 4268
Q 627 4179 480 4179
Q 333 4179 253 4281
Q 173 4384 173 4518
Q 173 4730 269 4800
Q 365 4870 480 4870
z
" transform="scale(0.015625)"/>
      <path id="AppleGothic-74" d="M 691 4435
L 1114 4435
L 1114 3430
L 2016 3430
L 2016 3014
L 1114 3014
L 1114 838
Q 1114 570 1213 454
Q 1312 339 1555 339
Q 1696 339 1795 371
Q 1894 403 2016 454
L 2016 38
Q 1914 6 1770 -22
Q 1626 -51 1478 -51
Q 1094 -51 883 122
Q 646 301 646 698
L 646 3014
L 70 3014
L 70 3430
L 646 3430
L 691 4435
z
" transform="scale(0.015625)"/>
      <path id="AppleGothic-63" d="M 3085 3123
L 3085 2522
Q 2726 2861 2349 3008
Q 2240 3053 2125 3069
Q 2010 3085 1894 3085
Q 1363 3085 1024 2688
Q 685 2278 685 1715
Q 685 1139 1037 730
Q 1389 339 1920 339
Q 2253 339 2528 483
Q 2803 627 3085 915
L 3085 307
Q 2746 96 2470 6
Q 2195 -83 1914 -83
Q 1197 -83 685 429
Q 186 960 186 1709
Q 186 2445 678 2976
Q 1178 3501 1920 3501
Q 2298 3501 2624 3373
Q 2816 3302 3085 3123
z
" transform="scale(0.015625)"/>
      <path id="AppleGothic-61" d="M 2950 2214
L 2950 602
Q 2950 493 2998 413
Q 3046 333 3174 333
Q 3213 333 3238 336
Q 3264 339 3290 346
Q 3328 358 3357 371
Q 3386 384 3405 390
L 3405 32
Q 3290 -6 3174 -22
Q 3059 -38 2995 -38
Q 2669 -38 2566 134
Q 2483 243 2483 602
Q 2400 461 2317 355
Q 2234 250 2150 179
Q 1818 -83 1376 -83
Q 909 -83 563 192
Q 205 486 205 941
Q 205 1510 781 1779
Q 992 1882 1341 1958
Q 1690 2035 2176 2099
L 2483 2131
Q 2483 2579 2256 2832
Q 2029 3085 1587 3085
Q 1421 3085 1257 3043
Q 1094 3002 928 2912
Q 838 2861 729 2790
Q 621 2720 493 2611
L 493 3136
Q 1037 3501 1664 3501
Q 2304 3501 2650 3098
Q 2950 2746 2950 2214
z
M 2483 1542
L 2483 1747
L 2266 1722
Q 1466 1638 1139 1498
Q 704 1325 704 934
Q 704 819 755 713
Q 806 608 896 525
Q 986 442 1117 390
Q 1248 339 1408 339
Q 1843 339 2170 691
Q 2483 1050 2483 1542
z
" transform="scale(0.015625)"/>
      <path id="AppleGothic-20" transform="scale(0.015625)"/>
      <path id="AppleGothic-4b" d="M 269 5018
L 774 5018
L 774 2509
L 3226 5018
L 3898 5018
L 1933 3040
L 4045 0
L 3386 0
L 1530 2656
L 774 1901
L 774 0
L 269 0
L 269 5018
z
" transform="scale(0.015625)"/>
      <path id="AppleGothic-47" d="M 4134 4634
L 4134 3968
Q 3782 4282 3456 4435
Q 3072 4627 2669 4627
Q 1856 4627 1318 3955
Q 806 3341 806 2483
Q 806 1613 1357 973
Q 1875 390 2528 390
Q 3046 390 3398 723
Q 3782 1088 3782 1683
L 3782 2067
L 2131 2067
L 2131 2509
L 4294 2509
L 4294 0
L 3853 0
L 3782 608
Q 3558 326 3302 166
Q 2906 -83 2432 -83
Q 1568 -83 928 653
Q 269 1395 269 2470
Q 269 3578 954 4339
Q 1638 5101 2662 5101
Q 3110 5101 3539 4934
Q 3763 4851 4134 4634
z
" transform="scale(0.015625)"/>
      <path id="AppleGothic-4f" d="M 2496 -83
Q 1626 -83 973 595
Q 256 1331 256 2496
Q 256 3610 928 4378
Q 1581 5101 2477 5101
Q 3386 5101 4038 4390
Q 4710 3642 4710 2502
Q 4710 1318 3981 582
Q 3334 -83 2496 -83
z
M 2458 390
Q 3168 390 3667 986
Q 4173 1594 4173 2502
Q 4173 2944 4051 3321
Q 3930 3699 3686 4006
Q 3200 4627 2483 4627
Q 1773 4627 1280 4006
Q 794 3398 794 2490
Q 794 1542 1306 947
Q 1786 390 2458 390
z
" transform="scale(0.015625)"/>
      <path id="AppleGothic-6e" d="M 3264 2291
L 3264 0
L 2803 0
L 2803 2259
Q 2803 2618 2541 2848
Q 2278 3085 1914 3085
Q 1427 3085 1075 2682
Q 723 2272 723 1760
L 723 0
L 288 0
L 288 3424
L 691 3424
L 710 2784
Q 883 3046 1114 3219
Q 1491 3501 1965 3501
Q 2515 3501 2886 3168
Q 3264 2842 3264 2291
z
" transform="scale(0.015625)"/>
      <path id="AppleGothic-67" d="M 2822 3040
L 2950 3424
L 3290 3424
L 3290 326
Q 3290 -474 2899 -890
Q 2509 -1306 1690 -1306
Q 1357 -1306 1059 -1187
Q 762 -1069 435 -819
L 435 -256
Q 640 -448 838 -579
Q 1037 -710 1229 -781
Q 1453 -864 1690 -864
Q 2195 -864 2477 -634
Q 2822 -352 2822 269
L 2822 691
Q 2579 288 2221 122
Q 1978 6 1683 6
Q 1050 6 621 512
Q 198 1030 198 1709
Q 198 2387 595 2906
Q 1056 3501 1773 3501
Q 2131 3501 2451 3328
Q 2547 3270 2640 3200
Q 2733 3130 2822 3040
z
M 2822 1658
L 2822 2598
Q 2714 2720 2602 2803
Q 2490 2886 2381 2950
Q 2253 3021 2118 3053
Q 1984 3085 1843 3085
Q 1363 3085 1050 2746
Q 698 2362 698 1734
Q 698 1165 992 794
Q 1280 429 1741 429
Q 2195 429 2509 781
Q 2822 1120 2822 1658
z
" transform="scale(0.015625)"/>
      <path id="AppleGothic-79" d="M 179 3424
L 691 3424
L 1869 531
L 2874 3424
L 3379 3424
L 1952 -397
Q 1798 -806 1555 -979
Q 1338 -1126 1037 -1126
Q 883 -1126 780 -1104
Q 678 -1082 582 -1043
L 582 -602
Q 672 -646 784 -678
Q 896 -710 986 -710
Q 1210 -710 1334 -595
Q 1459 -480 1555 -230
L 1632 32
L 179 3424
z
" transform="scale(0.015625)"/>
      <path id="AppleGothic-53" d="M 3418 4666
L 3418 4019
Q 3251 4160 3081 4269
Q 2912 4378 2746 4448
Q 2362 4627 1965 4627
Q 1466 4627 1139 4378
Q 806 4122 806 3770
Q 806 3258 1562 3002
Q 1914 2880 2262 2768
Q 2611 2656 2970 2541
Q 3731 2176 3731 1453
Q 3731 749 3187 320
Q 2669 -83 1901 -83
Q 1389 -83 915 115
Q 640 224 262 474
L 262 1126
Q 755 685 1261 506
Q 1427 442 1587 416
Q 1747 390 1907 390
Q 2419 390 2771 646
Q 3162 928 3162 1382
Q 3162 1933 2419 2221
Q 2061 2330 1715 2445
Q 1370 2560 1024 2669
Q 275 3014 275 3731
Q 275 4333 749 4710
Q 1235 5101 1965 5101
Q 2413 5101 2861 4934
Q 3091 4858 3418 4666
z
" transform="scale(0.015625)"/>
      <path id="AppleGothic-68" d="M 288 5018
L 749 5018
L 749 2810
Q 909 3066 1139 3238
Q 1491 3501 1926 3501
Q 2195 3501 2409 3424
Q 2624 3347 2803 3200
Q 3181 2867 3181 2266
L 3181 0
L 2714 0
L 2714 2202
Q 2714 2573 2477 2829
Q 2240 3085 1901 3085
Q 1408 3085 1082 2694
Q 749 2291 749 1773
L 749 0
L 288 0
L 288 5018
z
" transform="scale(0.015625)"/>
      <path id="AppleGothic-65" d="M 3296 1850
L 691 1850
Q 691 1114 1033 726
Q 1376 339 1933 339
Q 2355 339 2746 608
Q 2854 678 2976 784
Q 3098 890 3238 1030
L 3238 474
Q 3085 358 2953 272
Q 2822 186 2707 128
Q 2304 -83 1901 -83
Q 1203 -83 717 397
Q 192 902 192 1709
Q 192 2470 666 2982
Q 1146 3501 1850 3501
Q 2534 3501 2938 3002
Q 3296 2547 3296 1850
z
M 755 2240
L 2758 2240
Q 2682 2675 2429 2889
Q 2176 3104 1818 3104
Q 1421 3104 1146 2854
Q 890 2624 755 2240
z
" transform="scale(0.015625)"/>
      <path id="AppleGothic-6d" d="M 5389 2195
L 5389 0
L 4922 0
L 4922 2304
Q 4922 2669 4672 2893
Q 4461 3085 4173 3085
Q 3744 3085 3405 2688
Q 3072 2298 3072 1722
L 3072 0
L 2605 0
L 2605 2304
Q 2605 2650 2368 2861
Q 2144 3085 1856 3085
Q 1440 3085 1114 2714
Q 755 2304 755 1702
L 755 0
L 288 0
L 288 3424
L 723 3424
L 742 2880
Q 928 3181 1274 3354
Q 1581 3501 1894 3501
Q 2381 3501 2714 3219
Q 2957 3008 3021 2797
Q 3149 3034 3386 3226
Q 3757 3501 4205 3501
Q 4749 3501 5050 3174
Q 5389 2803 5389 2195
z
" transform="scale(0.015625)"/>
     </defs>
     <use xlink:href="#AppleGothic-50"/>
     <use xlink:href="#AppleGothic-6f" transform="translate(60.299988 0)"/>
     <use xlink:href="#AppleGothic-6c" transform="translate(118.599976 0)"/>
     <use xlink:href="#AppleGothic-69" transform="translate(135.299973 0)"/>
     <use xlink:href="#AppleGothic-74" transform="translate(151.199966 0)"/>
     <use xlink:href="#AppleGothic-69" transform="translate(185.399963 0)"/>
     <use xlink:href="#AppleGothic-63" transform="translate(201.299957 0)"/>
     <use xlink:href="#AppleGothic-61" transform="translate(253.199951 0)"/>
     <use xlink:href="#AppleGothic-6c" transform="translate(309.699936 0)"/>
     <use xlink:href="#AppleGothic-20" transform="translate(326.399933 0)"/>
     <use xlink:href="#AppleGothic-4b" transform="translate(358.399918 0)"/>
     <use xlink:href="#AppleGothic-47" transform="translate(422.699905 0)"/>
     <use xlink:href="#AppleGothic-20" transform="translate(497.099899 0)"/>
     <use xlink:href="#AppleGothic-4f" transform="translate(529.099884 0)"/>
     <use xlink:href="#AppleGothic-6e" transform="translate(606.699875 0)"/>
     <use xlink:href="#AppleGothic-74" transform="translate(662.599869 0)"/>
     <use xlink:href="#AppleGothic-6f" transform="translate(696.799866 0)"/>
     <use xlink:href="#AppleGothic-6c" transform="translate(755.099854 0)"/>
     <use xlink:href="#AppleGothic-6f" transform="translate(771.79985 0)"/>
     <use xlink:href="#AppleGothic-67" transform="translate(830.099838 0)"/>
     <use xlink:href="#AppleGothic-79" transform="translate(886.299835 0)"/>
     <use xlink:href="#AppleGothic-20" transform="translate(941.999832 0)"/>
     <use xlink:href="#AppleGothic-53" transform="translate(973.999817 0)"/>
     <use xlink:href="#AppleGothic-63" transform="translate(1037.199814 0)"/>
     <use xlink:href="#AppleGothic-68" transform="translate(1089.099808 0)"/>
     <use xlink:href="#AppleGothic-65" transform="translate(1141.299805 0)"/>
     <use xlink:href="#AppleGothic-6d" transform="translate(1196.199799 0)"/>
     <use xlink:href="#AppleGothic-61" transform="translate(1285.499786 0)"/>
     <use xlink:href="#AppleGothic-74" transform="translate(1341.999771 0)"/>
     <use xlink:href="#AppleGothic-69" transform="translate(1376.199768 0)"/>
     <use xlink:href="#AppleGothic-63" transform="translate(1392.099762 0)"/>
    </g>
   </g>
   <g id="text_2">
    <!-- Node classes and edge labels reflect src/kg/ontology.py. -->
    <g style="fill: #5d6d7e" transform="translate(36.216 55.71) scale(0.1 -0.1)">
     <defs>
      <path id="AppleGothic-4e" d="M 320 0
L 320 5018
L 781 5018
L 3866 768
L 3866 5018
L 4326 5018
L 4326 0
L 3866 0
L 781 4243
L 781 0
L 320 0
z
" transform="scale(0.015625)"/>
      <path id="AppleGothic-64" d="M 2682 5018
L 3174 5018
L 3174 0
L 2733 0
L 2688 557
Q 2598 429 2508 329
Q 2419 230 2330 160
Q 2010 -83 1587 -83
Q 928 -83 493 429
Q 64 941 64 1670
Q 64 2426 518 2957
Q 979 3501 1670 3501
Q 1958 3501 2208 3398
Q 2298 3360 2416 3296
Q 2534 3232 2682 3142
L 2682 5018
z
M 2682 1658
L 2682 2643
Q 2381 2906 2157 2995
Q 1933 3085 1722 3085
Q 1197 3085 870 2643
Q 563 2227 563 1677
Q 563 1088 902 698
Q 1216 339 1645 339
Q 2067 339 2374 710
Q 2682 1082 2682 1658
z
" transform="scale(0.015625)"/>
      <path id="AppleGothic-73" d="M 224 294
L 224 851
Q 621 531 1030 403
Q 1152 371 1267 355
Q 1382 339 1504 339
Q 1894 339 2150 518
Q 2413 710 2413 947
Q 2413 1075 2317 1210
Q 2182 1376 1600 1510
Q 909 1683 678 1798
Q 230 2054 230 2515
Q 230 2944 602 3219
Q 979 3501 1542 3501
Q 1798 3501 2003 3456
Q 2208 3411 2387 3337
Q 2566 3264 2720 3155
L 2720 2598
Q 2451 2822 2156 2953
Q 1862 3085 1536 3085
Q 1210 3085 973 2938
Q 730 2790 730 2554
Q 730 2240 1306 2054
Q 1574 1978 1836 1901
Q 2099 1824 2368 1747
Q 2950 1498 2950 992
Q 2950 563 2547 237
Q 2138 -83 1530 -83
Q 1261 -83 1005 -26
Q 595 64 224 294
z
" transform="scale(0.015625)"/>
      <path id="AppleGothic-62" d="M 288 5018
L 755 5018
L 755 2848
Q 845 2982 931 3078
Q 1018 3174 1107 3245
Q 1440 3501 1882 3501
Q 2547 3501 2976 2995
Q 3418 2483 3418 1754
Q 3418 1005 2976 480
Q 2502 -83 1792 -83
Q 1402 -83 1114 90
Q 928 192 755 384
L 634 0
L 288 0
L 288 5018
z
M 755 1862
L 755 870
Q 845 762 934 678
Q 1024 595 1101 538
Q 1382 339 1741 339
Q 2234 339 2554 742
Q 2874 1158 2874 1747
Q 2874 2362 2515 2752
Q 2208 3085 1805 3085
Q 1370 3085 1056 2714
Q 755 2355 755 1862
z
" transform="scale(0.015625)"/>
      <path id="AppleGothic-72" d="M 2125 3424
L 2125 2963
Q 2054 2989 2009 3005
Q 1965 3021 1933 3027
Q 1901 3034 1865 3037
Q 1830 3040 1773 3040
Q 1306 3040 1005 2586
Q 749 2170 749 1658
L 749 0
L 288 0
L 288 3424
L 710 3424
L 742 2835
Q 902 3104 1043 3219
Q 1331 3456 1734 3456
Q 1843 3456 1936 3449
Q 2029 3443 2125 3424
z
" transform="scale(0.015625)"/>
      <path id="AppleGothic-66" d="M 646 3430
L 646 4083
Q 646 4538 819 4774
Q 1037 5101 1555 5101
Q 1613 5101 1657 5097
Q 1702 5094 1750 5088
Q 1798 5082 1862 5062
Q 1926 5043 2016 5018
L 2016 4595
Q 1997 4621 1837 4653
Q 1766 4666 1712 4672
Q 1658 4678 1619 4678
Q 1350 4678 1228 4524
Q 1107 4371 1107 4083
L 1107 3430
L 2016 3430
L 2016 3014
L 1107 3014
L 1107 0
L 646 0
L 646 3014
L 64 3014
L 64 3430
L 646 3430
z
" transform="scale(0.015625)"/>
      <path id="AppleGothic-2f" d="M 1965 5018
L 2368 5018
L 493 -672
L 90 -672
L 1965 5018
z
" transform="scale(0.015625)"/>
      <path id="AppleGothic-6b" d="M 288 5018
L 755 5018
L 755 1914
L 2330 3424
L 2982 3424
L 1542 2093
L 3187 0
L 2554 0
L 1197 1786
L 755 1376
L 755 0
L 288 0
L 288 5018
z
" transform="scale(0.015625)"/>
      <path id="AppleGothic-2e" d="M 915 -19
Q 762 -19 653 109
Q 544 237 544 422
Q 544 614 656 745
Q 768 877 915 877
Q 1056 877 1168 758
Q 1280 640 1280 435
Q 1280 243 1171 112
Q 1062 -19 915 -19
z
" transform="scale(0.015625)"/>
      <path id="AppleGothic-70" d="M 736 307
L 736 -1101
L 288 -1101
L 288 3424
L 704 3424
L 730 2803
Q 941 3149 1216 3325
Q 1491 3501 1882 3501
Q 2522 3501 2944 3002
Q 3162 2752 3270 2441
Q 3379 2131 3379 1747
Q 3379 954 2899 435
Q 2419 -83 1754 -83
Q 1421 -83 1139 58
Q 1056 90 960 154
Q 864 218 736 307
z
M 736 1824
L 736 800
Q 838 704 924 637
Q 1011 570 1082 525
Q 1395 339 1715 339
Q 2227 339 2554 742
Q 2886 1165 2886 1766
Q 2886 2330 2579 2707
Q 2278 3085 1811 3085
Q 1331 3085 1018 2669
Q 736 2291 736 1824
z
" transform="scale(0.015625)"/>
     </defs>
     <use xlink:href="#AppleGothic-4e"/>
     <use xlink:href="#AppleGothic-6f" transform="translate(72.599991 0)"/>
     <use xlink:href="#AppleGothic-64" transform="translate(130.899979 0)"/>
     <use xlink:href="#AppleGothic-65" transform="translate(184.899963 0)"/>
     <use xlink:href="#AppleGothic-20" transform="translate(239.799957 0)"/>
     <use xlink:href="#AppleGothic-63" transform="translate(271.799942 0)"/>
     <use xlink:href="#AppleGothic-6c" transform="translate(323.699936 0)"/>
     <use xlink:href="#AppleGothic-61" transform="translate(340.399933 0)"/>
     <use xlink:href="#AppleGothic-73" transform="translate(396.899918 0)"/>
     <use xlink:href="#AppleGothic-73" transform="translate(446.499908 0)"/>
     <use xlink:href="#AppleGothic-65" transform="translate(496.099899 0)"/>
     <use xlink:href="#AppleGothic-73" transform="translate(550.999893 0)"/>
     <use xlink:href="#AppleGothic-20" transform="translate(600.599884 0)"/>
     <use xlink:href="#AppleGothic-61" transform="translate(632.599869 0)"/>
     <use xlink:href="#AppleGothic-6e" transform="translate(689.099854 0)"/>
     <use xlink:href="#AppleGothic-64" transform="translate(744.999847 0)"/>
     <use xlink:href="#AppleGothic-20" transform="translate(798.999832 0)"/>
     <use xlink:href="#AppleGothic-65" transform="translate(830.999817 0)"/>
     <use xlink:href="#AppleGothic-64" transform="translate(885.899811 0)"/>
     <use xlink:href="#AppleGothic-67" transform="translate(939.899796 0)"/>
     <use xlink:href="#AppleGothic-65" transform="translate(996.099792 0)"/>
     <use xlink:href="#AppleGothic-20" transform="translate(1050.999786 0)"/>
     <use xlink:href="#AppleGothic-6c" transform="translate(1082.999771 0)"/>
     <use xlink:href="#AppleGothic-61" transform="translate(1099.699768 0)"/>
     <use xlink:href="#AppleGothic-62" transform="translate(1156.199753 0)"/>
     <use xlink:href="#AppleGothic-65" transform="translate(1212.39975 0)"/>
     <use xlink:href="#AppleGothic-6c" transform="translate(1267.299744 0)"/>
     <use xlink:href="#AppleGothic-73" transform="translate(1283.999741 0)"/>
     <use xlink:href="#AppleGothic-20" transform="translate(1333.599731 0)"/>
     <use xlink:href="#AppleGothic-72" transform="translate(1365.599716 0)"/>
     <use xlink:href="#AppleGothic-65" transform="translate(1400.799713 0)"/>
     <use xlink:href="#AppleGothic-66" transform="translate(1455.699707 0)"/>
     <use xlink:href="#AppleGothic-6c" transform="translate(1489.699692 0)"/>
     <use xlink:href="#AppleGothic-65" transform="translate(1506.399689 0)"/>
     <use xlink:href="#AppleGothic-63" transform="translate(1561.299683 0)"/>
     <use xlink:href="#AppleGothic-74" transform="translate(1613.199677 0)"/>
     <use xlink:href="#AppleGothic-20" transform="translate(1647.399673 0)"/>
     <use xlink:href="#AppleGothic-73" transform="translate(1679.399658 0)"/>
     <use xlink:href="#AppleGothic-72" transform="translate(1728.999649 0)"/>
     <use xlink:href="#AppleGothic-63" transform="translate(1764.199646 0)"/>
     <use xlink:href="#AppleGothic-2f" transform="translate(1816.09964 0)"/>
     <use xlink:href="#AppleGothic-6b" transform="translate(1866.099625 0)"/>
     <use xlink:href="#AppleGothic-67" transform="translate(1917.499619 0)"/>
     <use xlink:href="#AppleGothic-2f" transform="translate(1973.699615 0)"/>
     <use xlink:href="#AppleGothic-6f" transform="translate(2023.6996 0)"/>
     <use xlink:href="#AppleGothic-6e" transform="translate(2081.999588 0)"/>
     <use xlink:href="#AppleGothic-74" transform="translate(2137.899582 0)"/>
     <use xlink:href="#AppleGothic-6f" transform="translate(2172.099579 0)"/>
     <use xlink:href="#AppleGothic-6c" transform="translate(2230.399567 0)"/>
     <use xlink:href="#AppleGothic-6f" transform="translate(2247.099564 0)"/>
     <use xlink:href="#AppleGothic-67" transform="translate(2305.399551 0)"/>
     <use xlink:href="#AppleGothic-79" transform="translate(2361.599548 0)"/>
     <use xlink:href="#AppleGothic-2e" transform="translate(2417.299545 0)"/>
     <use xlink:href="#AppleGothic-70" transform="translate(2451.79953 0)"/>
     <use xlink:href="#AppleGothic-79" transform="translate(2507.199524 0)"/>
     <use xlink:href="#AppleGothic-2e" transform="translate(2562.899521 0)"/>
    </g>
   </g>
   <g id="text_3">
    <!-- Election -->
    <g style="fill: #17202a" transform="translate(105.977281 113.101356) scale(0.1 -0.1)">
     <defs>
      <path id="AppleGothic-45" d="M 282 5024
L 3405 5024
L 3405 4582
L 787 4582
L 787 2848
L 3309 2848
L 3309 2406
L 787 2406
L 787 442
L 3424 442
L 3424 0
L 282 0
L 282 5024
z
" transform="scale(0.015625)"/>
     </defs>
     <use xlink:href="#AppleGothic-45"/>
     <use xlink:href="#AppleGothic-6c" transform="translate(57.899994 0)"/>
     <use xlink:href="#AppleGothic-65" transform="translate(74.599991 0)"/>
     <use xlink:href="#AppleGothic-63" transform="translate(129.499985 0)"/>
     <use xlink:href="#AppleGothic-74" transform="translate(181.399979 0)"/>
     <use xlink:href="#AppleGothic-69" transform="translate(215.599976 0)"/>
     <use xlink:href="#AppleGothic-6f" transform="translate(231.499969 0)"/>
     <use xlink:href="#AppleGothic-6e" transform="translate(289.799957 0)"/>
    </g>
   </g>
   <g id="text_4">
    <!-- Contest -->
    <g style="fill: #17202a" transform="translate(105.483531 157.730556) scale(0.1 -0.1)">
     <defs>
      <path id="AppleGothic-43" d="M 4109 4621
L 4109 3974
Q 3872 4205 3565 4371
Q 3085 4627 2598 4627
Q 1850 4627 1312 3994
Q 1043 3680 912 3309
Q 781 2938 781 2515
Q 781 1651 1318 1030
Q 1850 410 2611 410
Q 2970 410 3344 554
Q 3718 698 4109 998
L 4109 378
Q 3251 -83 2554 -83
Q 1651 -83 973 614
Q 243 1363 243 2490
Q 243 3584 922 4339
Q 1613 5101 2630 5101
Q 3027 5101 3392 4979
Q 3757 4858 4109 4621
z
" transform="scale(0.015625)"/>
     </defs>
     <use xlink:href="#AppleGothic-43"/>
     <use xlink:href="#AppleGothic-6f" transform="translate(68.499985 0)"/>
     <use xlink:href="#AppleGothic-6e" transform="translate(126.799973 0)"/>
     <use xlink:href="#AppleGothic-74" transform="translate(182.699966 0)"/>
     <use xlink:href="#AppleGothic-65" transform="translate(216.899963 0)"/>
     <use xlink:href="#AppleGothic-73" transform="translate(271.799957 0)"/>
     <use xlink:href="#AppleGothic-74" transform="translate(321.399948 0)"/>
    </g>
   </g>
   <g id="text_5">
    <!-- District -->
    <g style="fill: #17202a" transform="translate(107.992906 202.359756) scale(0.1 -0.1)">
     <defs>
      <path id="AppleGothic-44" d="M 358 5024
L 1562 5024
Q 2227 5024 2675 4858
Q 2861 4787 3027 4681
Q 3194 4576 3341 4429
Q 3693 4077 3878 3584
Q 4064 3091 4064 2554
Q 4064 1357 3379 672
Q 2688 0 1485 0
L 358 0
L 358 5024
z
M 1363 4582
L 864 4582
L 864 442
L 1690 442
Q 2413 442 2912 941
Q 3494 1523 3494 2560
Q 3494 2765 3472 2944
Q 3450 3123 3405 3290
Q 3264 3776 2906 4122
Q 2643 4371 2298 4480
Q 1965 4582 1363 4582
z
" transform="scale(0.015625)"/>
     </defs>
     <use xlink:href="#AppleGothic-44"/>
     <use xlink:href="#AppleGothic-69" transform="translate(68.499985 0)"/>
     <use xlink:href="#AppleGothic-73" transform="translate(84.399979 0)"/>
     <use xlink:href="#AppleGothic-74" transform="translate(133.999969 0)"/>
     <use xlink:href="#AppleGothic-72" transform="translate(168.199966 0)"/>
     <use xlink:href="#AppleGothic-69" transform="translate(203.399963 0)"/>
     <use xlink:href="#AppleGothic-63" transform="translate(219.299957 0)"/>
     <use xlink:href="#AppleGothic-74" transform="translate(271.199951 0)"/>
    </g>
   </g>
   <g id="text_6">
    <!-- Party -->
    <g style="fill: #17202a" transform="translate(111.168687 246.969425) scale(0.1 -0.1)">
     <use xlink:href="#AppleGothic-50"/>
     <use xlink:href="#AppleGothic-61" transform="translate(60.299988 0)"/>
     <use xlink:href="#AppleGothic-72" transform="translate(116.799973 0)"/>
     <use xlink:href="#AppleGothic-74" transform="translate(151.999969 0)"/>
     <use xlink:href="#AppleGothic-79" transform="translate(186.199966 0)"/>
    </g>
   </g>
   <g id="text_7">
    <!-- Candidate -->
    <g style="fill: #17202a" transform="translate(100.742906 291.618156) scale(0.1 -0.1)">
     <use xlink:href="#AppleGothic-43"/>
     <use xlink:href="#AppleGothic-61" transform="translate(68.499985 0)"/>
     <use xlink:href="#AppleGothic-6e" transform="translate(124.999969 0)"/>
     <use xlink:href="#AppleGothic-64" transform="translate(180.899963 0)"/>
     <use xlink:href="#AppleGothic-69" transform="translate(234.899948 0)"/>
     <use xlink:href="#AppleGothic-64" transform="translate(250.799942 0)"/>
     <use xlink:href="#AppleGothic-61" transform="translate(304.799927 0)"/>
     <use xlink:href="#AppleGothic-74" transform="translate(361.299911 0)"/>
     <use xlink:href="#AppleGothic-65" transform="translate(395.499908 0)"/>
    </g>
   </g>
   <g id="text_8">
    <!-- PolicyIssue -->
    <g style="fill: #17202a" transform="translate(503.815219 112.777762) scale(0.09 -0.09)">
     <defs>
      <path id="AppleGothic-49" d="M 435 5018
L 934 5018
L 934 0
L 435 0
L 435 5018
z
" transform="scale(0.015625)"/>
      <path id="AppleGothic-75" d="M 262 3424
L 730 3424
L 730 1242
Q 730 877 941 627
Q 1171 339 1594 339
Q 2080 339 2426 730
Q 2784 1139 2784 1632
L 2784 3424
L 3245 3424
L 3245 0
L 2842 0
L 2810 582
Q 2707 442 2592 330
Q 2477 218 2342 134
Q 1984 -83 1555 -83
Q 966 -83 614 282
Q 262 653 262 1184
L 262 3424
z
" transform="scale(0.015625)"/>
     </defs>
     <use xlink:href="#AppleGothic-50"/>
     <use xlink:href="#AppleGothic-6f" transform="translate(60.299988 0)"/>
     <use xlink:href="#AppleGothic-6c" transform="translate(118.599976 0)"/>
     <use xlink:href="#AppleGothic-69" transform="translate(135.299973 0)"/>
     <use xlink:href="#AppleGothic-63" transform="translate(151.199966 0)"/>
     <use xlink:href="#AppleGothic-79" transform="translate(203.09996 0)"/>
     <use xlink:href="#AppleGothic-49" transform="translate(258.799957 0)"/>
     <use xlink:href="#AppleGothic-73" transform="translate(280.299942 0)"/>
     <use xlink:href="#AppleGothic-73" transform="translate(329.899933 0)"/>
     <use xlink:href="#AppleGothic-75" transform="translate(379.499924 0)"/>
     <use xlink:href="#AppleGothic-65" transform="translate(434.999908 0)"/>
    </g>
   </g>
   <g id="text_9">
    <!-- NarrativeFrame -->
    <g style="fill: #17202a" transform="translate(493.941234 157.424541) scale(0.09 -0.09)">
     <defs>
      <path id="AppleGothic-76" d="M 109 3424
L 627 3424
L 1715 486
L 2829 3424
L 3290 3424
L 1920 0
L 1478 0
L 109 3424
z
" transform="scale(0.015625)"/>
      <path id="AppleGothic-46" d="M 339 5018
L 3462 5018
L 3462 4576
L 845 4576
L 845 2714
L 3354 2714
L 3354 2304
L 845 2304
L 845 0
L 339 0
L 339 5018
z
" transform="scale(0.015625)"/>
     </defs>
     <use xlink:href="#AppleGothic-4e"/>
     <use xlink:href="#AppleGothic-61" transform="translate(72.599991 0)"/>
     <use xlink:href="#AppleGothic-72" transform="translate(129.099976 0)"/>
     <use xlink:href="#AppleGothic-72" transform="translate(164.299973 0)"/>
     <use xlink:href="#AppleGothic-61" transform="translate(199.499969 0)"/>
     <use xlink:href="#AppleGothic-74" transform="translate(255.999954 0)"/>
     <use xlink:href="#AppleGothic-69" transform="translate(290.199951 0)"/>
     <use xlink:href="#AppleGothic-76" transform="translate(306.099945 0)"/>
     <use xlink:href="#AppleGothic-65" transform="translate(360.299942 0)"/>
     <use xlink:href="#AppleGothic-46" transform="translate(415.199936 0)"/>
     <use xlink:href="#AppleGothic-72" transform="translate(473.399933 0)"/>
     <use xlink:href="#AppleGothic-61" transform="translate(508.59993 0)"/>
     <use xlink:href="#AppleGothic-6d" transform="translate(565.099915 0)"/>
     <use xlink:href="#AppleGothic-65" transform="translate(654.399902 0)"/>
    </g>
   </g>
   <g id="text_10">
    <!-- MediaEvent -->
    <g style="fill: #17202a" transform="translate(502.032094 202.053741) scale(0.09 -0.09)">
     <defs>
      <path id="AppleGothic-4d" d="M 288 0
L 288 5018
L 947 5018
L 2893 864
L 4902 5018
L 5523 5018
L 5523 0
L 5069 0
L 5069 4358
L 3002 0
L 2784 0
L 749 4352
L 749 0
L 288 0
z
" transform="scale(0.015625)"/>
     </defs>
     <use xlink:href="#AppleGothic-4d"/>
     <use xlink:href="#AppleGothic-65" transform="translate(91.099991 0)"/>
     <use xlink:href="#AppleGothic-64" transform="translate(145.999985 0)"/>
     <use xlink:href="#AppleGothic-69" transform="translate(199.999969 0)"/>
     <use xlink:href="#AppleGothic-61" transform="translate(215.899963 0)"/>
     <use xlink:href="#AppleGothic-45" transform="translate(272.399948 0)"/>
     <use xlink:href="#AppleGothic-76" transform="translate(330.299942 0)"/>
     <use xlink:href="#AppleGothic-65" transform="translate(384.499939 0)"/>
     <use xlink:href="#AppleGothic-6e" transform="translate(439.399933 0)"/>
     <use xlink:href="#AppleGothic-74" transform="translate(495.299927 0)"/>
    </g>
   </g>
   <g id="text_11">
    <!-- ScandalEvent -->
    <g style="fill: #17202a" transform="translate(498.328031 246.682941) scale(0.09 -0.09)">
     <use xlink:href="#AppleGothic-53"/>
     <use xlink:href="#AppleGothic-63" transform="translate(63.199997 0)"/>
     <use xlink:href="#AppleGothic-61" transform="translate(115.099991 0)"/>
     <use xlink:href="#AppleGothic-6e" transform="translate(171.599976 0)"/>
     <use xlink:href="#AppleGothic-64" transform="translate(227.499969 0)"/>
     <use xlink:href="#AppleGothic-61" transform="translate(281.499954 0)"/>
     <use xlink:href="#AppleGothic-6c" transform="translate(337.999939 0)"/>
     <use xlink:href="#AppleGothic-45" transform="translate(354.699936 0)"/>
     <use xlink:href="#AppleGothic-76" transform="translate(412.59993 0)"/>
     <use xlink:href="#AppleGothic-65" transform="translate(466.799927 0)"/>
     <use xlink:href="#AppleGothic-6e" transform="translate(521.699921 0)"/>
     <use xlink:href="#AppleGothic-74" transform="translate(577.599915 0)"/>
    </g>
   </g>
   <g id="text_12">
    <!-- Investigation -->
    <g style="fill: #17202a" transform="translate(616.579453 112.6512) scale(0.09 -0.09)">
     <use xlink:href="#AppleGothic-49"/>
     <use xlink:href="#AppleGothic-6e" transform="translate(21.499985 0)"/>
     <use xlink:href="#AppleGothic-76" transform="translate(77.399979 0)"/>
     <use xlink:href="#AppleGothic-65" transform="translate(131.599976 0)"/>
     <use xlink:href="#AppleGothic-73" transform="translate(186.499969 0)"/>
     <use xlink:href="#AppleGothic-74" transform="translate(236.09996 0)"/>
     <use xlink:href="#AppleGothic-69" transform="translate(270.299957 0)"/>
     <use xlink:href="#AppleGothic-67" transform="translate(286.199951 0)"/>
     <use xlink:href="#AppleGothic-61" transform="translate(342.399948 0)"/>
     <use xlink:href="#AppleGothic-74" transform="translate(398.899933 0)"/>
     <use xlink:href="#AppleGothic-69" transform="translate(433.09993 0)"/>
     <use xlink:href="#AppleGothic-6f" transform="translate(448.999924 0)"/>
     <use xlink:href="#AppleGothic-6e" transform="translate(507.299911 0)"/>
    </g>
   </g>
   <g id="text_13">
    <!-- Verdict -->
    <g style="fill: #17202a" transform="translate(627.650156 157.424541) scale(0.09 -0.09)">
     <defs>
      <path id="AppleGothic-56" d="M 109 5018
L 678 5018
L 2310 608
L 3910 5018
L 4493 5018
L 2573 0
L 2074 0
L 109 5018
z
" transform="scale(0.015625)"/>
     </defs>
     <use xlink:href="#AppleGothic-56"/>
     <use xlink:href="#AppleGothic-65" transform="translate(71.099991 0)"/>
     <use xlink:href="#AppleGothic-72" transform="translate(125.999985 0)"/>
     <use xlink:href="#AppleGothic-64" transform="translate(161.199982 0)"/>
     <use xlink:href="#AppleGothic-69" transform="translate(215.199966 0)"/>
     <use xlink:href="#AppleGothic-63" transform="translate(231.09996 0)"/>
     <use xlink:href="#AppleGothic-74" transform="translate(282.999954 0)"/>
    </g>
   </g>
   <g id="text_14">
    <!-- PressConference -->
    <g style="fill: #17202a" transform="translate(607.093594 202.053741) scale(0.09 -0.09)">
     <use xlink:href="#AppleGothic-50"/>
     <use xlink:href="#AppleGothic-72" transform="translate(60.299988 0)"/>
     <use xlink:href="#AppleGothic-65" transform="translate(95.499985 0)"/>
     <use xlink:href="#AppleGothic-73" transform="translate(150.399979 0)"/>
     <use xlink:href="#AppleGothic-73" transform="translate(199.999969 0)"/>
     <use xlink:href="#AppleGothic-43" transform="translate(249.59996 0)"/>
     <use xlink:href="#AppleGothic-6f" transform="translate(318.099945 0)"/>
     <use xlink:href="#AppleGothic-6e" transform="translate(376.399933 0)"/>
     <use xlink:href="#AppleGothic-66" transform="translate(432.299927 0)"/>
     <use xlink:href="#AppleGothic-65" transform="translate(466.299911 0)"/>
     <use xlink:href="#AppleGothic-72" transform="translate(521.199905 0)"/>
     <use xlink:href="#AppleGothic-65" transform="translate(556.399902 0)"/>
     <use xlink:href="#AppleGothic-6e" transform="translate(611.299896 0)"/>
     <use xlink:href="#AppleGothic-63" transform="translate(667.19989 0)"/>
     <use xlink:href="#AppleGothic-65" transform="translate(719.099884 0)"/>
    </g>
   </g>
   <g id="text_15">
    <!-- PollPublication -->
    <g style="fill: #17202a" transform="translate(613.605234 246.682941) scale(0.09 -0.09)">
     <use xlink:href="#AppleGothic-50"/>
     <use xlink:href="#AppleGothic-6f" transform="translate(60.299988 0)"/>
     <use xlink:href="#AppleGothic-6c" transform="translate(118.599976 0)"/>
     <use xlink:href="#AppleGothic-6c" transform="translate(135.299973 0)"/>
     <use xlink:href="#AppleGothic-50" transform="translate(151.999969 0)"/>
     <use xlink:href="#AppleGothic-75" transform="translate(212.299957 0)"/>
     <use xlink:href="#AppleGothic-62" transform="translate(267.799942 0)"/>
     <use xlink:href="#AppleGothic-6c" transform="translate(323.999939 0)"/>
     <use xlink:href="#AppleGothic-69" transform="translate(340.699936 0)"/>
     <use xlink:href="#AppleGothic-63" transform="translate(356.59993 0)"/>
     <use xlink:href="#AppleGothic-61" transform="translate(408.499924 0)"/>
     <use xlink:href="#AppleGothic-74" transform="translate(464.999908 0)"/>
     <use xlink:href="#AppleGothic-69" transform="translate(499.199905 0)"/>
     <use xlink:href="#AppleGothic-6f" transform="translate(515.099899 0)"/>
     <use xlink:href="#AppleGothic-6e" transform="translate(573.399887 0)"/>
    </g>
   </g>
   <g id="text_16">
    <!-- candidateIn -->
    <g style="fill: #5d6d7e" transform="translate(313.180625 203.1804) scale(0.08 -0.08)">
     <use xlink:href="#AppleGothic-63"/>
     <use xlink:href="#AppleGothic-61" transform="translate(51.899994 0)"/>
     <use xlink:href="#AppleGothic-6e" transform="translate(108.399979 0)"/>
     <use xlink:href="#AppleGothic-64" transform="translate(164.299973 0)"/>
     <use xlink:href="#AppleGothic-69" transform="translate(218.299957 0)"/>
     <use xlink:href="#AppleGothic-64" transform="translate(234.199951 0)"/>
     <use xlink:href="#AppleGothic-61" transform="translate(288.199936 0)"/>
     <use xlink:href="#AppleGothic-74" transform="translate(344.699921 0)"/>
     <use xlink:href="#AppleGothic-65" transform="translate(378.899918 0)"/>
     <use xlink:href="#AppleGothic-49" transform="translate(433.799911 0)"/>
     <use xlink:href="#AppleGothic-6e" transform="translate(455.299896 0)"/>
    </g>
   </g>
   <g id="text_17">
    <!-- belongsTo -->
    <g style="fill: #5d6d7e" transform="translate(314.741875 249.75) scale(0.08 -0.08)">
     <defs>
      <path id="AppleGothic-54" d="M 166 5018
L 4038 5018
L 4038 4576
L 2355 4576
L 2355 0
L 1856 0
L 1856 4576
L 166 4576
L 166 5018
z
" transform="scale(0.015625)"/>
     </defs>
     <use xlink:href="#AppleGothic-62"/>
     <use xlink:href="#AppleGothic-65" transform="translate(56.199997 0)"/>
     <use xlink:href="#AppleGothic-6c" transform="translate(111.099991 0)"/>
     <use xlink:href="#AppleGothic-6f" transform="translate(127.799988 0)"/>
     <use xlink:href="#AppleGothic-6e" transform="translate(186.099976 0)"/>
     <use xlink:href="#AppleGothic-67" transform="translate(241.999969 0)"/>
     <use xlink:href="#AppleGothic-73" transform="translate(298.199966 0)"/>
     <use xlink:href="#AppleGothic-54" transform="translate(347.799957 0)"/>
     <use xlink:href="#AppleGothic-6f" transform="translate(413.899948 0)"/>
    </g>
   </g>
   <g id="text_18">
    <!-- about / mentions -->
    <g style="fill: #5d6d7e" transform="translate(302.08125 191.538) scale(0.08 -0.08)">
     <use xlink:href="#AppleGothic-61"/>
     <use xlink:href="#AppleGothic-62" transform="translate(56.499985 0)"/>
     <use xlink:href="#AppleGothic-6f" transform="translate(112.699982 0)"/>
     <use xlink:href="#AppleGothic-75" transform="translate(170.999969 0)"/>
     <use xlink:href="#AppleGothic-74" transform="translate(226.499954 0)"/>
     <use xlink:href="#AppleGothic-20" transform="translate(260.699951 0)"/>
     <use xlink:href="#AppleGothic-2f" transform="translate(292.699936 0)"/>
     <use xlink:href="#AppleGothic-20" transform="translate(342.699921 0)"/>
     <use xlink:href="#AppleGothic-6d" transform="translate(374.699905 0)"/>
     <use xlink:href="#AppleGothic-65" transform="translate(463.999893 0)"/>
     <use xlink:href="#AppleGothic-6e" transform="translate(518.899887 0)"/>
     <use xlink:href="#AppleGothic-74" transform="translate(574.799881 0)"/>
     <use xlink:href="#AppleGothic-69" transform="translate(608.999878 0)"/>
     <use xlink:href="#AppleGothic-6f" transform="translate(624.899872 0)"/>
     <use xlink:href="#AppleGothic-6e" transform="translate(683.19986 0)"/>
     <use xlink:href="#AppleGothic-73" transform="translate(739.099854 0)"/>
    </g>
   </g>
   <g id="text_19">
    <!-- framedBy -->
    <g style="fill: #5d6d7e" transform="translate(533.489375 144.9684) scale(0.08 -0.08)">
     <defs>
      <path id="AppleGothic-42" d="M 307 5018
L 2029 5018
Q 2675 5018 3053 4755
Q 3494 4442 3494 3859
Q 3494 3373 3181 3040
Q 3091 2938 2960 2854
Q 2829 2771 2662 2694
Q 3322 2586 3616 2176
Q 3840 1862 3840 1472
Q 3840 838 3360 416
Q 2899 0 2240 0
L 307 0
L 307 5018
z
M 1997 4576
L 813 4576
L 813 2854
L 1766 2854
Q 2342 2854 2649 3113
Q 2957 3373 2957 3782
Q 2957 4102 2739 4333
Q 2477 4576 1997 4576
z
M 1907 2413
L 813 2413
L 813 442
L 2029 442
Q 2579 442 2931 717
Q 3283 1011 3283 1466
Q 3283 1926 2928 2169
Q 2573 2413 1907 2413
z
" transform="scale(0.015625)"/>
     </defs>
     <use xlink:href="#AppleGothic-66"/>
     <use xlink:href="#AppleGothic-72" transform="translate(33.999985 0)"/>
     <use xlink:href="#AppleGothic-61" transform="translate(69.199982 0)"/>
     <use xlink:href="#AppleGothic-6d" transform="translate(125.699966 0)"/>
     <use xlink:href="#AppleGothic-65" transform="translate(214.999954 0)"/>
     <use xlink:href="#AppleGothic-64" transform="translate(269.899948 0)"/>
     <use xlink:href="#AppleGothic-42" transform="translate(323.899933 0)"/>
     <use xlink:href="#AppleGothic-79" transform="translate(388.299927 0)"/>
    </g>
   </g>
   <g id="text_20">
    <!-- publishesPoll -->
    <g style="fill: #5d6d7e" transform="translate(369.341375 203.1804) scale(0.08 -0.08)">
     <use xlink:href="#AppleGothic-70"/>
     <use xlink:href="#AppleGothic-75" transform="translate(55.399994 0)"/>
     <use xlink:href="#AppleGothic-62" transform="translate(110.899979 0)"/>
     <use xlink:href="#AppleGothic-6c" transform="translate(167.099976 0)"/>
     <use xlink:href="#AppleGothic-69" transform="translate(183.799973 0)"/>
     <use xlink:href="#AppleGothic-73" transform="translate(199.699966 0)"/>
     <use xlink:href="#AppleGothic-68" transform="translate(249.299957 0)"/>
     <use xlink:href="#AppleGothic-65" transform="translate(301.499954 0)"/>
     <use xlink:href="#AppleGothic-73" transform="translate(356.399948 0)"/>
     <use xlink:href="#AppleGothic-50" transform="translate(405.999939 0)"/>
     <use xlink:href="#AppleGothic-6f" transform="translate(466.299927 0)"/>
     <use xlink:href="#AppleGothic-6c" transform="translate(524.599915 0)"/>
     <use xlink:href="#AppleGothic-6c" transform="translate(541.299911 0)"/>
    </g>
   </g>
   <g id="text_21">
    <!-- Temporal firewall -->
    <g style="fill: #17202a" transform="translate(323.754594 322.738725) scale(0.1 -0.1)">
     <defs>
      <path id="AppleGothic-77" d="M 2438 3424
L 2874 3424
L 3405 1811
Q 3501 1498 3600 1162
Q 3699 826 3770 538
Q 3789 602 3805 646
Q 3821 691 3834 736
Q 3904 979 3977 1228
Q 4051 1478 4122 1747
L 4646 3424
L 5126 3424
L 3981 0
L 3552 0
L 2944 1894
Q 2842 2202 2781 2378
Q 2720 2554 2707 2618
Q 2682 2726 2669 2803
Q 2656 2880 2656 2944
Q 2598 2771 2556 2636
Q 2515 2502 2490 2406
Q 2406 2118 2361 1945
Q 2317 1773 2304 1715
L 1760 0
L 1325 0
L 186 3424
L 685 3424
L 1594 538
Q 1626 723 1664 886
Q 1702 1050 1747 1203
Q 1779 1312 1811 1427
Q 1843 1542 1888 1664
L 2438 3424
z
" transform="scale(0.015625)"/>
     </defs>
     <use xlink:href="#AppleGothic-54"/>
     <use xlink:href="#AppleGothic-65" transform="translate(66.099991 0)"/>
     <use xlink:href="#AppleGothic-6d" transform="translate(120.999985 0)"/>
     <use xlink:href="#AppleGothic-70" transform="translate(210.299973 0)"/>
     <use xlink:href="#AppleGothic-6f" transform="translate(265.699966 0)"/>
     <use xlink:href="#AppleGothic-72" transform="translate(323.999954 0)"/>
     <use xlink:href="#AppleGothic-61" transform="translate(359.199951 0)"/>
     <use xlink:href="#AppleGothic-6c" transform="translate(415.699936 0)"/>
     <use xlink:href="#AppleGothic-20" transform="translate(432.399933 0)"/>
     <use xlink:href="#AppleGothic-66" transform="translate(464.399918 0)"/>
     <use xlink:href="#AppleGothic-69" transform="translate(498.399902 0)"/>
     <use xlink:href="#AppleGothic-72" transform="translate(514.299896 0)"/>
     <use xlink:href="#AppleGothic-65" transform="translate(549.499893 0)"/>
     <use xlink:href="#AppleGothic-77" transform="translate(604.399887 0)"/>
     <use xlink:href="#AppleGothic-61" transform="translate(687.899872 0)"/>
     <use xlink:href="#AppleGothic-6c" transform="translate(744.399857 0)"/>
     <use xlink:href="#AppleGothic-6c" transform="translate(761.099854 0)"/>
    </g>
    <!-- filters event nodes by ts ≤ cutoff(t) -->
    <g style="fill: #17202a" transform="translate(279.788187 334.323412) scale(0.1 -0.1)">
     <defs>
      <path id="AppleGothic-2264" d="M 5331 4262
L 1491 2694
L 5325 1126
L 5197 896
L 1248 2534
Q 1216 2547 1187 2563
Q 1158 2579 1126 2592
Q 1024 2650 1024 2694
Q 1024 2720 1081 2758
Q 1139 2797 1210 2829
L 5210 4480
L 5331 4262
z
M 5376 83
L 1024 83
L 1024 326
L 5376 326
L 5376 83
z
" transform="scale(0.015625)"/>
      <path id="AppleGothic-28" d="M 2227 5261
L 2650 5261
Q 2342 4768 2169 4473
Q 1997 4179 1958 4083
Q 1606 3283 1606 2272
Q 1606 1587 1754 1018
Q 1882 570 2138 102
Q 2150 70 2275 -131
Q 2400 -333 2630 -717
L 2227 -717
Q 2099 -531 1980 -355
Q 1862 -179 1734 0
Q 1581 243 1469 483
Q 1357 723 1274 954
Q 1069 1587 1069 2272
Q 1069 2963 1261 3558
Q 1338 3789 1450 4022
Q 1562 4256 1715 4499
Q 1843 4691 1971 4880
Q 2099 5069 2227 5261
z
" transform="scale(0.015625)"/>
      <path id="AppleGothic-29" d="M 2221 2272
Q 2221 1587 2016 960
Q 1862 499 1555 6
Q 1427 -179 1305 -355
Q 1184 -531 1062 -717
L 659 -717
Q 781 -512 902 -310
Q 1024 -109 1152 96
Q 1280 333 1376 557
Q 1472 781 1530 1005
Q 1683 1562 1683 2272
Q 1683 2650 1641 2973
Q 1600 3296 1517 3584
Q 1459 3802 1356 4029
Q 1254 4256 1120 4499
Q 992 4691 873 4880
Q 755 5069 640 5261
L 1062 5261
Q 1190 5069 1315 4880
Q 1440 4691 1568 4506
Q 1722 4256 1837 4022
Q 1952 3789 2022 3565
Q 2221 2976 2221 2272
z
" transform="scale(0.015625)"/>
     </defs>
     <use xlink:href="#AppleGothic-66"/>
     <use xlink:href="#AppleGothic-69" transform="translate(33.999985 0)"/>
     <use xlink:href="#AppleGothic-6c" transform="translate(49.899979 0)"/>
     <use xlink:href="#AppleGothic-74" transform="translate(66.599976 0)"/>
     <use xlink:href="#AppleGothic-65" transform="translate(100.799973 0)"/>
     <use xlink:href="#AppleGothic-72" transform="translate(155.699966 0)"/>
     <use xlink:href="#AppleGothic-73" transform="translate(190.899963 0)"/>
     <use xlink:href="#AppleGothic-20" transform="translate(240.499954 0)"/>
     <use xlink:href="#AppleGothic-65" transform="translate(272.499939 0)"/>
     <use xlink:href="#AppleGothic-76" transform="translate(327.399933 0)"/>
     <use xlink:href="#AppleGothic-65" transform="translate(381.59993 0)"/>
     <use xlink:href="#AppleGothic-6e" transform="translate(436.499924 0)"/>
     <use xlink:href="#AppleGothic-74" transform="translate(492.399918 0)"/>
     <use xlink:href="#AppleGothic-20" transform="translate(526.599915 0)"/>
     <use xlink:href="#AppleGothic-6e" transform="translate(558.599899 0)"/>
     <use xlink:href="#AppleGothic-6f" transform="translate(614.499893 0)"/>
     <use xlink:href="#AppleGothic-64" transform="translate(672.799881 0)"/>
     <use xlink:href="#AppleGothic-65" transform="translate(726.799866 0)"/>
     <use xlink:href="#AppleGothic-73" transform="translate(781.69986 0)"/>
     <use xlink:href="#AppleGothic-20" transform="translate(831.29985 0)"/>
     <use xlink:href="#AppleGothic-62" transform="translate(863.299835 0)"/>
     <use xlink:href="#AppleGothic-79" transform="translate(919.499832 0)"/>
     <use xlink:href="#AppleGothic-20" transform="translate(975.199829 0)"/>
     <use xlink:href="#AppleGothic-74" transform="translate(1007.199814 0)"/>
     <use xlink:href="#AppleGothic-73" transform="translate(1041.399811 0)"/>
     <use xlink:href="#AppleGothic-20" transform="translate(1090.999802 0)"/>
     <use xlink:href="#AppleGothic-2264" transform="translate(1122.999786 0)"/>
     <use xlink:href="#AppleGothic-20" transform="translate(1222.999771 0)"/>
     <use xlink:href="#AppleGothic-63" transform="translate(1254.999756 0)"/>
     <use xlink:href="#AppleGothic-75" transform="translate(1306.89975 0)"/>
     <use xlink:href="#AppleGothic-74" transform="translate(1362.399734 0)"/>
     <use xlink:href="#AppleGothic-6f" transform="translate(1396.599731 0)"/>
     <use xlink:href="#AppleGothic-66" transform="translate(1454.899719 0)"/>
     <use xlink:href="#AppleGothic-66" transform="translate(1488.899704 0)"/>
     <use xlink:href="#AppleGothic-28" transform="translate(1522.899689 0)"/>
     <use xlink:href="#AppleGothic-74" transform="translate(1572.899673 0)"/>
     <use xlink:href="#AppleGothic-29" transform="translate(1607.09967 0)"/>
    </g>
   </g>
   <g id="text_22">
    <!-- Source: src/kg/ontology.py; dashboard export path: src/kg/export_d3.py. -->
    <g style="fill: #5d6d7e" transform="translate(36.216 375.876) scale(0.09 -0.09)">
     <defs>
      <path id="AppleGothic-3a" d="M 1587 2554
Q 1434 2554 1357 2682
Q 1280 2810 1280 2995
Q 1280 3187 1360 3318
Q 1440 3450 1587 3450
Q 1722 3450 1805 3331
Q 1888 3213 1888 3008
Q 1888 2816 1811 2685
Q 1734 2554 1587 2554
z
M 1587 -19
Q 1434 -19 1357 109
Q 1280 237 1280 422
Q 1280 614 1360 745
Q 1440 877 1587 877
Q 1722 877 1805 758
Q 1888 640 1888 435
Q 1888 243 1811 112
Q 1734 -19 1587 -19
z
" transform="scale(0.015625)"/>
      <path id="AppleGothic-3b" d="M 1510 -941
L 1261 -941
Q 1325 -806 1373 -691
Q 1421 -576 1453 -473
Q 1485 -371 1497 -272
Q 1510 -173 1510 -64
Q 1382 0 1318 77
Q 1242 160 1242 346
Q 1242 576 1344 720
Q 1446 864 1594 864
Q 1670 864 1731 819
Q 1792 774 1830 697
Q 1869 621 1891 525
Q 1914 429 1914 326
Q 1914 -51 1760 -442
Q 1683 -666 1510 -941
z
M 1293 3027
Q 1293 3194 1392 3322
Q 1491 3450 1626 3450
Q 1754 3450 1837 3315
Q 1920 3181 1920 2995
Q 1920 2790 1821 2668
Q 1722 2547 1587 2547
Q 1472 2547 1382 2672
Q 1293 2797 1293 3027
z
" transform="scale(0.015625)"/>
      <path id="AppleGothic-78" d="M 352 3424
L 928 3424
L 1754 2150
L 2592 3424
L 3130 3424
L 2022 1830
L 3270 0
L 2682 0
L 1722 1504
L 755 0
L 211 0
L 1466 1830
L 352 3424
z
" transform="scale(0.015625)"/>
      <path id="AppleGothic-5f" d="M 0 -659
L 3200 -659
L 3200 -832
L 0 -832
L 0 -659
z
" transform="scale(0.015625)"/>
      <path id="AppleGothic-33" d="M 550 333
L 550 870
Q 883 621 1235 483
Q 1587 346 1971 346
Q 2522 346 2861 666
Q 3219 992 3219 1421
Q 3219 1869 2842 2099
Q 2515 2304 1965 2304
L 992 2304
L 992 2701
L 1658 2701
Q 2298 2701 2662 2928
Q 3027 3155 3027 3584
Q 3027 3936 2752 4173
Q 2458 4429 1978 4429
Q 1786 4429 1597 4393
Q 1408 4358 1222 4282
Q 890 4141 531 3872
L 531 4422
Q 736 4531 912 4608
Q 1088 4685 1254 4736
Q 1626 4858 2022 4858
Q 2650 4858 3066 4531
Q 3488 4211 3488 3642
Q 3488 3168 3168 2861
Q 2976 2675 2643 2554
Q 2874 2522 3053 2448
Q 3232 2374 3366 2266
Q 3718 1971 3718 1434
Q 3718 813 3219 365
Q 2714 -83 1965 -83
Q 1549 -83 1126 70
Q 1024 102 880 166
Q 736 230 550 333
z
" transform="scale(0.015625)"/>
     </defs>
     <use xlink:href="#AppleGothic-53"/>
     <use xlink:href="#AppleGothic-6f" transform="translate(63.199997 0)"/>
     <use xlink:href="#AppleGothic-75" transform="translate(121.499985 0)"/>
     <use xlink:href="#AppleGothic-72" transform="translate(176.999969 0)"/>
     <use xlink:href="#AppleGothic-63" transform="translate(212.199966 0)"/>
     <use xlink:href="#AppleGothic-65" transform="translate(264.09996 0)"/>
     <use xlink:href="#AppleGothic-3a" transform="translate(318.999954 0)"/>
     <use xlink:href="#AppleGothic-20" transform="translate(368.999939 0)"/>
     <use xlink:href="#AppleGothic-73" transform="translate(400.999924 0)"/>
     <use xlink:href="#AppleGothic-72" transform="translate(450.599915 0)"/>
     <use xlink:href="#AppleGothic-63" transform="translate(485.799911 0)"/>
     <use xlink:href="#AppleGothic-2f" transform="translate(537.699905 0)"/>
     <use xlink:href="#AppleGothic-6b" transform="translate(587.69989 0)"/>
     <use xlink:href="#AppleGothic-67" transform="translate(639.099884 0)"/>
     <use xlink:href="#AppleGothic-2f" transform="translate(695.299881 0)"/>
     <use xlink:href="#AppleGothic-6f" transform="translate(745.299866 0)"/>
     <use xlink:href="#AppleGothic-6e" transform="translate(803.599854 0)"/>
     <use xlink:href="#AppleGothic-74" transform="translate(859.499847 0)"/>
     <use xlink:href="#AppleGothic-6f" transform="translate(893.699844 0)"/>
     <use xlink:href="#AppleGothic-6c" transform="translate(951.999832 0)"/>
     <use xlink:href="#AppleGothic-6f" transform="translate(968.699829 0)"/>
     <use xlink:href="#AppleGothic-67" transform="translate(1026.999817 0)"/>
     <use xlink:href="#AppleGothic-79" transform="translate(1083.199814 0)"/>
     <use xlink:href="#AppleGothic-2e" transform="translate(1138.899811 0)"/>
     <use xlink:href="#AppleGothic-70" transform="translate(1173.399796 0)"/>
     <use xlink:href="#AppleGothic-79" transform="translate(1228.799789 0)"/>
     <use xlink:href="#AppleGothic-3b" transform="translate(1284.499786 0)"/>
     <use xlink:href="#AppleGothic-20" transform="translate(1334.499771 0)"/>
     <use xlink:href="#AppleGothic-64" transform="translate(1366.499756 0)"/>
     <use xlink:href="#AppleGothic-61" transform="translate(1420.499741 0)"/>
     <use xlink:href="#AppleGothic-73" transform="translate(1476.999725 0)"/>
     <use xlink:href="#AppleGothic-68" transform="translate(1526.599716 0)"/>
     <use xlink:href="#AppleGothic-62" transform="translate(1578.799713 0)"/>
     <use xlink:href="#AppleGothic-6f" transform="translate(1634.99971 0)"/>
     <use xlink:href="#AppleGothic-61" transform="translate(1693.299698 0)"/>
     <use xlink:href="#AppleGothic-72" transform="translate(1749.799683 0)"/>
     <use xlink:href="#AppleGothic-64" transform="translate(1784.99968 0)"/>
     <use xlink:href="#AppleGothic-20" transform="translate(1838.999664 0)"/>
     <use xlink:href="#AppleGothic-65" transform="translate(1870.999649 0)"/>
     <use xlink:href="#AppleGothic-78" transform="translate(1925.899643 0)"/>
     <use xlink:href="#AppleGothic-70" transform="translate(1980.299637 0)"/>
     <use xlink:href="#AppleGothic-6f" transform="translate(2035.699631 0)"/>
     <use xlink:href="#AppleGothic-72" transform="translate(2093.999619 0)"/>
     <use xlink:href="#AppleGothic-74" transform="translate(2129.199615 0)"/>
     <use xlink:href="#AppleGothic-20" transform="translate(2163.399612 0)"/>
     <use xlink:href="#AppleGothic-70" transform="translate(2195.399597 0)"/>
     <use xlink:href="#AppleGothic-61" transform="translate(2250.799591 0)"/>
     <use xlink:href="#AppleGothic-74" transform="translate(2307.299576 0)"/>
     <use xlink:href="#AppleGothic-68" transform="translate(2341.499573 0)"/>
     <use xlink:href="#AppleGothic-3a" transform="translate(2393.69957 0)"/>
     <use xlink:href="#AppleGothic-20" transform="translate(2443.699554 0)"/>
     <use xlink:href="#AppleGothic-73" transform="translate(2475.699539 0)"/>
     <use xlink:href="#AppleGothic-72" transform="translate(2525.29953 0)"/>
     <use xlink:href="#AppleGothic-63" transform="translate(2560.499527 0)"/>
     <use xlink:href="#AppleGothic-2f" transform="translate(2612.399521 0)"/>
     <use xlink:href="#AppleGothic-6b" transform="translate(2662.399506 0)"/>
     <use xlink:href="#AppleGothic-67" transform="translate(2713.7995 0)"/>
     <use xlink:href="#AppleGothic-2f" transform="translate(2769.999496 0)"/>
     <use xlink:href="#AppleGothic-65" transform="translate(2819.999481 0)"/>
     <use xlink:href="#AppleGothic-78" transform="translate(2874.899475 0)"/>
     <use xlink:href="#AppleGothic-70" transform="translate(2929.299469 0)"/>
     <use xlink:href="#AppleGothic-6f" transform="translate(2984.699463 0)"/>
     <use xlink:href="#AppleGothic-72" transform="translate(3042.999451 0)"/>
     <use xlink:href="#AppleGothic-74" transform="translate(3078.199448 0)"/>
     <use xlink:href="#AppleGothic-5f" transform="translate(3112.399445 0)"/>
     <use xlink:href="#AppleGothic-64" transform="translate(3162.399429 0)"/>
     <use xlink:href="#AppleGothic-33" transform="translate(3216.399414 0)"/>
     <use xlink:href="#AppleGothic-2e" transform="translate(3284.399399 0)"/>
     <use xlink:href="#AppleGothic-70" transform="translate(3318.899384 0)"/>
     <use xlink:href="#AppleGothic-79" transform="translate(3374.299377 0)"/>
     <use xlink:href="#AppleGothic-2e" transform="translate(3429.999374 0)"/>
    </g>
   </g>
  </g>
 </g>
 <defs>
  <clipPath id="p836a989bbc">
   <rect x="7.2" y="7.2" width="725.4" height="388.08"/>
  </clipPath>
 </defs>
</svg>
