<?xml version="1.0" encoding="utf-8" standalone="no"?>
<!DOCTYPE svg PUBLIC "-//W3C//DTD SVG 1.1//EN"
  "http://www.w3.org/Graphics/SVG/1.1/DTD/svg11.dtd">
<svg xmlns:xlink="http://www.w3.org/1999/xlink" width="572.4pt" height="335.952pt" viewBox="0 0 572.4 335.952" xmlns="http://www.w3.org/2000/svg" version="1.1">
 <metadata>
  <rdf:RDF xmlns:dc="http://purl.org/dc/elements/1.1/" xmlns:cc="http://creativecommons.org/ns#" xmlns:rdf="http://www.w3.org/1999/02/22-rdf-syntax-ns#">
   <cc:Work>
    <dc:type rdf:resource="http://purl.org/dc/dcmitype/StillImage"/>
    <dc:date>2026-04-26T11:35:24.838960</dc:date>
    <dc:format>image/svg+xml</dc:format>
    <dc:creator>
     <cc:Agent>
      <dc:title>Matplotlib v3.10.9, https://matplotlib.org/</dc:title>
     </cc:Agent>
    </dc:creator>
   </cc:Work>
  </rdf:RDF>
 </metadata>
 <defs>
  <style type="text/css">*{stroke-linejoin: round; stroke-linecap: butt}</style>
 </defs>
 <g id="figure_1">
  <g id="patch_1">
   <path d="M 0 335.952
L 572.4 335.952
L 572.4 0
L 0 0
z
" style="fill: #fffdf8"/>
  </g>
  <g id="axes_1">
   <g id="patch_2">
    <path d="M 55.746 157.686336
L 170.694 157.686336
Q 184.644 157.686336 184.644 149.647536
L 184.644 96.269904
Q 184.644 88.231104 170.694 88.231104
L 55.746 88.231104
Q 41.796 88.231104 41.796 96.269904
L 41.796 149.647536
Q 41.796 157.686336 55.746 157.686336
z
" clip-path="url(#p2ce58f6fe9)" style="fill: #ffffff; stroke: #2166ac; stroke-width: 1.2; stroke-linejoin: miter"/>
   </g>
   <g id="patch_3">
    <path d="M 228.726 157.686336
L 343.674 157.686336
Q 357.624 157.686336 357.624 149.647536
L 357.624 96.269904
Q 357.624 88.231104 343.674 88.231104
L 228.726 88.231104
Q 214.776 88.231104 214.776 96.269904
L 214.776 149.647536
Q 214.776 157.686336 228.726 157.686336
z
" clip-path="url(#p2ce58f6fe9)" style="fill: #fdedec; stroke: #c0392b; stroke-width: 1.2; stroke-linejoin: miter"/>
   </g>
   <g id="patch_4">
    <path d="M 401.706 157.686336
L 505.494 157.686336
Q 519.444 157.686336 519.444 149.647536
L 519.444 96.269904
Q 519.444 88.231104 505.494 88.231104
L 401.706 88.231104
Q 387.756 88.231104 387.756 96.269904
L 387.756 149.647536
Q 387.756 157.686336 401.706 157.686336
z
" clip-path="url(#p2ce58f6fe9)" style="fill: #fdedec; stroke: #c0392b; stroke-width: 1.2; stroke-linejoin: miter"/>
   </g>
   <g id="patch_5">
    <path d="M 182.597069 122.95872
Q 199.707613 122.95872 215.029302 122.95872
" clip-path="url(#p2ce58f6fe9)" style="fill: none; stroke: #5d6d7e; stroke-width: 1.6; stroke-linecap: round"/>
    <path d="M 210.229302 120.55872
L 215.029302 122.95872
L 210.229302 125.35872
z
" clip-path="url(#p2ce58f6fe9)" style="fill: #5d6d7e; stroke: #5d6d7e; stroke-width: 1.6; stroke-linecap: round"/>
   </g>
   <g id="patch_6">
    <path d="M 355.577069 122.95872
Q 372.687613 122.95872 388.009302 122.95872
" clip-path="url(#p2ce58f6fe9)" style="fill: none; stroke: #5d6d7e; stroke-width: 1.6; stroke-linecap: round"/>
    <path d="M 383.209302 120.55872
L 388.009302 122.95872
L 383.209302 125.35872
z
" clip-path="url(#p2ce58f6fe9)" style="fill: #5d6d7e; stroke: #5d6d7e; stroke-width: 1.6; stroke-linecap: round"/>
   </g>
   <g id="patch_7">
    <path d="M 105.966 257.367456
L 466.434 257.367456
Q 480.384 257.367456 480.384 249.328656
L 480.384 195.951024
Q 480.384 187.912224 466.434 187.912224
L 105.966 187.912224
Q 92.016 187.912224 92.016 195.951024
L 92.016 249.328656
Q 92.016 257.367456 105.966 257.367456
z
" clip-path="url(#p2ce58f6fe9)" style="fill: #fff3d8; stroke: #f4a261; stroke-width: 1.2; stroke-linejoin: miter"/>
   </g>
   <g id="text_1">
    <!-- Current LLM Capacity Gate -->
    <g style="fill: #17202a" transform="translate(35.1 45.78624) scale(0.22 -0.22)">
     <defs>
      <path id="AppleGothic-43" d="M 4109 4621
L 4109 3974
Q 3872 4205 3565 4371
Q 3085 4627 2598 4627
Q 1850 4627 1312 3994
Q 1043 3680 912 3309
Q 781 2938 781 2515
Q 781 1651 1318 1030
Q 1850 410 2611 410
Q 2970 410 3344 554
Q 3718 698 4109 998
L 4109 378
Q 3251 -83 2554 -83
Q 1651 -83 973 614
Q 243 1363 243 2490
Q 243 3584 922 4339
Q 1613 5101 2630 5101
Q 3027 5101 3392 4979
Q 3757 4858 4109 4621
z
" transform="scale(0.015625)"/>
      <path id="AppleGothic-75" d="M 262 3424
L 730 3424
L 730 1242
Q 730 877 941 627
Q 1171 339 1594 339
Q 2080 339 2426 730
Q 2784 1139 2784 1632
L 2784 3424
L 3245 3424
L 3245 0
L 2842 0
L 2810 582
Q 2707 442 2592 330
Q 2477 218 2342 134
Q 1984 -83 1555 -83
Q 966 -83 614 282
Q 262 653 262 1184
L 262 3424
z
" transform="scale(0.015625)"/>
      <path id="AppleGothic-72" d="M 2125 3424
L 2125 2963
Q 2054 2989 2009 3005
Q 1965 3021 1933 3027
Q 1901 3034 1865 3037
Q 1830 3040 1773 3040
Q 1306 3040 1005 2586
Q 749 2170 749 1658
L 749 0
L 288 0
L 288 3424
L 710 3424
L 742 2835
Q 902 3104 1043 3219
Q 1331 3456 1734 3456
Q 1843 3456 1936 3449
Q 2029 3443 2125 3424
z
" transform="scale(0.015625)"/>
      <path id="AppleGothic-65" d="M 3296 1850
L 691 1850
Q 691 1114 1033 726
Q 1376 339 1933 339
Q 2355 339 2746 608
Q 2854 678 2976 784
Q 3098 890 3238 1030
L 3238 474
Q 3085 358 2953 272
Q 2822 186 2707 128
Q 2304 -83 1901 -83
Q 1203 -83 717 397
Q 192 902 192 1709
Q 192 2470 666 2982
Q 1146 3501 1850 3501
Q 2534 3501 2938 3002
Q 3296 2547 3296 1850
z
M 755 2240
L 2758 2240
Q 2682 2675 2429 2889
Q 2176 3104 1818 3104
Q 1421 3104 1146 2854
Q 890 2624 755 2240
z
" transform="scale(0.015625)"/>
      <path id="AppleGothic-6e" d="M 3264 2291
L 3264 0
L 2803 0
L 2803 2259
Q 2803 2618 2541 2848
Q 2278 3085 1914 3085
Q 1427 3085 1075 2682
Q 723 2272 723 1760
L 723 0
L 288 0
L 288 3424
L 691 3424
L 710 2784
Q 883 3046 1114 3219
Q 1491 3501 1965 3501
Q 2515 3501 2886 3168
Q 3264 2842 3264 2291
z
" transform="scale(0.015625)"/>
      <path id="AppleGothic-74" d="M 691 4435
L 1114 4435
L 1114 3430
L 2016 3430
L 2016 3014
L 1114 3014
L 1114 838
Q 1114 570 1213 454
Q 1312 339 1555 339
Q 1696 339 1795 371
Q 1894 403 2016 454
L 2016 38
Q 1914 6 1770 -22
Q 1626 -51 1478 -51
Q 1094 -51 883 122
Q 646 301 646 698
L 646 3014
L 70 3014
L 70 3430
L 646 3430
L 691 4435
z
" transform="scale(0.015625)"/>
      <path id="AppleGothic-20" transform="scale(0.015625)"/>
      <path id="AppleGothic-4c" d="M 333 5018
L 838 5018
L 838 442
L 3315 442
L 3315 0
L 333 0
L 333 5018
z
" transform="scale(0.015625)"/>
      <path id="AppleGothic-4d" d="M 288 0
L 288 5018
L 947 5018
L 2893 864
L 4902 5018
L 5523 5018
L 5523 0
L 5069 0
L 5069 4358
L 3002 0
L 2784 0
L 749 4352
L 749 0
L 288 0
z
" transform="scale(0.015625)"/>
      <path id="AppleGothic-61" d="M 2950 2214
L 2950 602
Q 2950 493 2998 413
Q 3046 333 3174 333
Q 3213 333 3238 336
Q 3264 339 3290 346
Q 3328 358 3357 371
Q 3386 384 3405 390
L 3405 32
Q 3290 -6 3174 -22
Q 3059 -38 2995 -38
Q 2669 -38 2566 134
Q 2483 243 2483 602
Q 2400 461 2317 355
Q 2234 250 2150 179
Q 1818 -83 1376 -83
Q 909 -83 563 192
Q 205 486 205 941
Q 205 1510 781 1779
Q 992 1882 1341 1958
Q 1690 2035 2176 2099
L 2483 2131
Q 2483 2579 2256 2832
Q 2029 3085 1587 3085
Q 1421 3085 1257 3043
Q 1094 3002 928 2912
Q 838 2861 729 2790
Q 621 2720 493 2611
L 493 3136
Q 1037 3501 1664 3501
Q 2304 3501 2650 3098
Q 2950 2746 2950 2214
z
M 2483 1542
L 2483 1747
L 2266 1722
Q 1466 1638 1139 1498
Q 704 1325 704 934
Q 704 819 755 713
Q 806 608 896 525
Q 986 442 1117 390
Q 1248 339 1408 339
Q 1843 339 2170 691
Q 2483 1050 2483 1542
z
" transform="scale(0.015625)"/>
      <path id="AppleGothic-70" d="M 736 307
L 736 -1101
L 288 -1101
L 288 3424
L 704 3424
L 730 2803
Q 941 3149 1216 3325
Q 1491 3501 1882 3501
Q 2522 3501 2944 3002
Q 3162 2752 3270 2441
Q 3379 2131 3379 1747
Q 3379 954 2899 435
Q 2419 -83 1754 -83
Q 1421 -83 1139 58
Q 1056 90 960 154
Q 864 218 736 307
z
M 736 1824
L 736 800
Q 838 704 924 637
Q 1011 570 1082 525
Q 1395 339 1715 339
Q 2227 339 2554 742
Q 2886 1165 2886 1766
Q 2886 2330 2579 2707
Q 2278 3085 1811 3085
Q 1331 3085 1018 2669
Q 736 2291 736 1824
z
" transform="scale(0.015625)"/>
      <path id="AppleGothic-63" d="M 3085 3123
L 3085 2522
Q 2726 2861 2349 3008
Q 2240 3053 2125 3069
Q 2010 3085 1894 3085
Q 1363 3085 1024 2688
Q 685 2278 685 1715
Q 685 1139 1037 730
Q 1389 339 1920 339
Q 2253 339 2528 483
Q 2803 627 3085 915
L 3085 307
Q 2746 96 2470 6
Q 2195 -83 1914 -83
Q 1197 -83 685 429
Q 186 960 186 1709
Q 186 2445 678 2976
Q 1178 3501 1920 3501
Q 2298 3501 2624 3373
Q 2816 3302 3085 3123
z
" transform="scale(0.015625)"/>
      <path id="AppleGothic-69" d="M 256 3424
L 717 3424
L 717 0
L 256 0
L 256 3424
z
M 480 4870
Q 614 4870 704 4780
Q 794 4691 794 4525
Q 794 4358 710 4268
Q 627 4179 480 4179
Q 333 4179 253 4281
Q 173 4384 173 4518
Q 173 4730 269 4800
Q 365 4870 480 4870
z
" transform="scale(0.015625)"/>
      <path id="AppleGothic-79" d="M 179 3424
L 691 3424
L 1869 531
L 2874 3424
L 3379 3424
L 1952 -397
Q 1798 -806 1555 -979
Q 1338 -1126 1037 -1126
Q 883 -1126 780 -1104
Q 678 -1082 582 -1043
L 582 -602
Q 672 -646 784 -678
Q 896 -710 986 -710
Q 1210 -710 1334 -595
Q 1459 -480 1555 -230
L 1632 32
L 179 3424
z
" transform="scale(0.015625)"/>
      <path id="AppleGothic-47" d="M 4134 4634
L 4134 3968
Q 3782 4282 3456 4435
Q 3072 4627 2669 4627
Q 1856 4627 1318 3955
Q 806 3341 806 2483
Q 806 1613 1357 973
Q 1875 390 2528 390
Q 3046 390 3398 723
Q 3782 1088 3782 1683
L 3782 2067
L 2131 2067
L 2131 2509
L 4294 2509
L 4294 0
L 3853 0
L 3782 608
Q 3558 326 3302 166
Q 2906 -83 2432 -83
Q 1568 -83 928 653
Q 269 1395 269 2470
Q 269 3578 954 4339
Q 1638 5101 2662 5101
Q 3110 5101 3539 4934
Q 3763 4851 4134 4634
z
" transform="scale(0.015625)"/>
     </defs>
     <use xlink:href="#AppleGothic-43"/>
     <use xlink:href="#AppleGothic-75" transform="translate(68.499985 0)"/>
     <use xlink:href="#AppleGothic-72" transform="translate(123.999969 0)"/>
     <use xlink:href="#AppleGothic-72" transform="translate(159.199966 0)"/>
     <use xlink:href="#AppleGothic-65" transform="translate(194.399963 0)"/>
     <use xlink:href="#AppleGothic-6e" transform="translate(249.299957 0)"/>
     <use xlink:href="#AppleGothic-74" transform="translate(305.199951 0)"/>
     <use xlink:href="#AppleGothic-20" transform="translate(339.399948 0)"/>
     <use xlink:href="#AppleGothic-4c" transform="translate(371.399933 0)"/>
     <use xlink:href="#AppleGothic-4c" transform="translate(426.59993 0)"/>
     <use xlink:href="#AppleGothic-4d" transform="translate(481.799927 0)"/>
     <use xlink:href="#AppleGothic-20" transform="translate(572.899918 0)"/>
     <use xlink:href="#AppleGothic-43" transform="translate(604.899902 0)"/>
     <use xlink:href="#AppleGothic-61" transform="translate(673.399887 0)"/>
     <use xlink:href="#AppleGothic-70" transform="translate(729.899872 0)"/>
     <use xlink:href="#AppleGothic-61" transform="translate(785.299866 0)"/>
     <use xlink:href="#AppleGothic-63" transform="translate(841.79985 0)"/>
     <use xlink:href="#AppleGothic-69" transform="translate(893.699844 0)"/>
     <use xlink:href="#AppleGothic-74" transform="translate(909.599838 0)"/>
     <use xlink:href="#AppleGothic-79" transform="translate(943.799835 0)"/>
     <use xlink:href="#AppleGothic-20" transform="translate(999.499832 0)"/>
     <use xlink:href="#AppleGothic-47" transform="translate(1031.499817 0)"/>
     <use xlink:href="#AppleGothic-61" transform="translate(1105.899811 0)"/>
     <use xlink:href="#AppleGothic-74" transform="translate(1162.399796 0)"/>
     <use xlink:href="#AppleGothic-65" transform="translate(1196.599792 0)"/>
    </g>
   </g>
   <g id="text_2">
    <!-- Local probe artifact. No API key prefixes or secrets are displayed. -->
    <g style="fill: #5d6d7e" transform="translate(35.1 61.86384) scale(0.1 -0.1)">
     <defs>
      <path id="AppleGothic-6f" d="M 1888 -83
Q 1229 -83 730 397
Q 198 902 198 1709
Q 198 2470 666 2982
Q 1146 3501 1850 3501
Q 2547 3501 3027 2982
Q 3501 2470 3501 1715
Q 3501 922 2989 403
Q 2515 -83 1888 -83
z
M 1843 339
Q 2304 339 2662 723
Q 3008 1114 3008 1715
Q 3008 2336 2637 2726
Q 2298 3085 1850 3085
Q 1389 3085 1062 2714
Q 704 2304 704 1709
Q 704 1107 1056 704
Q 1382 339 1843 339
z
" transform="scale(0.015625)"/>
      <path id="AppleGothic-6c" d="M 288 5018
L 749 5018
L 749 0
L 288 0
L 288 5018
z
" transform="scale(0.015625)"/>
      <path id="AppleGothic-62" d="M 288 5018
L 755 5018
L 755 2848
Q 845 2982 931 3078
Q 1018 3174 1107 3245
Q 1440 3501 1882 3501
Q 2547 3501 2976 2995
Q 3418 2483 3418 1754
Q 3418 1005 2976 480
Q 2502 -83 1792 -83
Q 1402 -83 1114 90
Q 928 192 755 384
L 634 0
L 288 0
L 288 5018
z
M 755 1862
L 755 870
Q 845 762 934 678
Q 1024 595 1101 538
Q 1382 339 1741 339
Q 2234 339 2554 742
Q 2874 1158 2874 1747
Q 2874 2362 2515 2752
Q 2208 3085 1805 3085
Q 1370 3085 1056 2714
Q 755 2355 755 1862
z
" transform="scale(0.015625)"/>
      <path id="AppleGothic-66" d="M 646 3430
L 646 4083
Q 646 4538 819 4774
Q 1037 5101 1555 5101
Q 1613 5101 1657 5097
Q 1702 5094 1750 5088
Q 1798 5082 1862 5062
Q 1926 5043 2016 5018
L 2016 4595
Q 1997 4621 1837 4653
Q 1766 4666 1712 4672
Q 1658 4678 1619 4678
Q 1350 4678 1228 4524
Q 1107 4371 1107 4083
L 1107 3430
L 2016 3430
L 2016 3014
L 1107 3014
L 1107 0
L 646 0
L 646 3014
L 64 3014
L 64 3430
L 646 3430
z
" transform="scale(0.015625)"/>
      <path id="AppleGothic-2e" d="M 915 -19
Q 762 -19 653 109
Q 544 237 544 422
Q 544 614 656 745
Q 768 877 915 877
Q 1056 877 1168 758
Q 1280 640 1280 435
Q 1280 243 1171 112
Q 1062 -19 915 -19
z
" transform="scale(0.015625)"/>
      <path id="AppleGothic-4e" d="M 320 0
L 320 5018
L 781 5018
L 3866 768
L 3866 5018
L 4326 5018
L 4326 0
L 3866 0
L 781 4243
L 781 0
L 320 0
z
" transform="scale(0.015625)"/>
      <path id="AppleGothic-41" d="M 2086 5018
L 2579 5018
L 4448 0
L 3859 0
L 3258 1715
L 1350 1715
L 723 0
L 166 0
L 2086 5018
z
M 3117 2157
L 2342 4416
L 1504 2157
L 3117 2157
z
" transform="scale(0.015625)"/>
      <path id="AppleGothic-50" d="M 262 5018
L 1869 5018
Q 2560 5018 3002 4781
Q 3597 4448 3597 3718
Q 3597 3014 3104 2630
Q 2656 2272 1952 2272
L 768 2272
L 768 0
L 262 0
L 262 5018
z
M 1862 4576
L 768 4576
L 768 2714
L 1901 2714
Q 2349 2714 2675 2950
Q 3040 3219 3040 3674
Q 3040 4186 2611 4410
Q 2298 4576 1862 4576
z
" transform="scale(0.015625)"/>
      <path id="AppleGothic-49" d="M 435 5018
L 934 5018
L 934 0
L 435 0
L 435 5018
z
" transform="scale(0.015625)"/>
      <path id="AppleGothic-6b" d="M 288 5018
L 755 5018
L 755 1914
L 2330 3424
L 2982 3424
L 1542 2093
L 3187 0
L 2554 0
L 1197 1786
L 755 1376
L 755 0
L 288 0
L 288 5018
z
" transform="scale(0.015625)"/>
      <path id="AppleGothic-78" d="M 352 3424
L 928 3424
L 1754 2150
L 2592 3424
L 3130 3424
L 2022 1830
L 3270 0
L 2682 0
L 1722 1504
L 755 0
L 211 0
L 1466 1830
L 352 3424
z
" transform="scale(0.015625)"/>
      <path id="AppleGothic-73" d="M 224 294
L 224 851
Q 621 531 1030 403
Q 1152 371 1267 355
Q 1382 339 1504 339
Q 1894 339 2150 518
Q 2413 710 2413 947
Q 2413 1075 2317 1210
Q 2182 1376 1600 1510
Q 909 1683 678 1798
Q 230 2054 230 2515
Q 230 2944 602 3219
Q 979 3501 1542 3501
Q 1798 3501 2003 3456
Q 2208 3411 2387 3337
Q 2566 3264 2720 3155
L 2720 2598
Q 2451 2822 2156 2953
Q 1862 3085 1536 3085
Q 1210 3085 973 2938
Q 730 2790 730 2554
Q 730 2240 1306 2054
Q 1574 1978 1836 1901
Q 2099 1824 2368 1747
Q 2950 1498 2950 992
Q 2950 563 2547 237
Q 2138 -83 1530 -83
Q 1261 -83 1005 -26
Q 595 64 224 294
z
" transform="scale(0.015625)"/>
      <path id="AppleGothic-64" d="M 2682 5018
L 3174 5018
L 3174 0
L 2733 0
L 2688 557
Q 2598 429 2508 329
Q 2419 230 2330 160
Q 2010 -83 1587 -83
Q 928 -83 493 429
Q 64 941 64 1670
Q 64 2426 518 2957
Q 979 3501 1670 3501
Q 1958 3501 2208 3398
Q 2298 3360 2416 3296
Q 2534 3232 2682 3142
L 2682 5018
z
M 2682 1658
L 2682 2643
Q 2381 2906 2157 2995
Q 1933 3085 1722 3085
Q 1197 3085 870 2643
Q 563 2227 563 1677
Q 563 1088 902 698
Q 1216 339 1645 339
Q 2067 339 2374 710
Q 2682 1082 2682 1658
z
" transform="scale(0.015625)"/>
     </defs>
     <use xlink:href="#AppleGothic-4c"/>
     <use xlink:href="#AppleGothic-6f" transform="translate(55.199997 0)"/>
     <use xlink:href="#AppleGothic-63" transform="translate(113.499985 0)"/>
     <use xlink:href="#AppleGothic-61" transform="translate(165.399979 0)"/>
     <use xlink:href="#AppleGothic-6c" transform="translate(221.899963 0)"/>
     <use xlink:href="#AppleGothic-20" transform="translate(238.59996 0)"/>
     <use xlink:href="#AppleGothic-70" transform="translate(270.599945 0)"/>
     <use xlink:href="#AppleGothic-72" transform="translate(325.999939 0)"/>
     <use xlink:href="#AppleGothic-6f" transform="translate(361.199936 0)"/>
     <use xlink:href="#AppleGothic-62" transform="translate(419.499924 0)"/>
     <use xlink:href="#AppleGothic-65" transform="translate(475.699921 0)"/>
     <use xlink:href="#AppleGothic-20" transform="translate(530.599915 0)"/>
     <use xlink:href="#AppleGothic-61" transform="translate(562.599899 0)"/>
     <use xlink:href="#AppleGothic-72" transform="translate(619.099884 0)"/>
     <use xlink:href="#AppleGothic-74" transform="translate(654.299881 0)"/>
     <use xlink:href="#AppleGothic-69" transform="translate(688.499878 0)"/>
     <use xlink:href="#AppleGothic-66" transform="translate(704.399872 0)"/>
     <use xlink:href="#AppleGothic-61" transform="translate(738.399857 0)"/>
     <use xlink:href="#AppleGothic-63" transform="translate(794.899841 0)"/>
     <use xlink:href="#AppleGothic-74" transform="translate(846.799835 0)"/>
     <use xlink:href="#AppleGothic-2e" transform="translate(880.999832 0)"/>
     <use xlink:href="#AppleGothic-20" transform="translate(915.499817 0)"/>
     <use xlink:href="#AppleGothic-4e" transform="translate(947.499802 0)"/>
     <use xlink:href="#AppleGothic-6f" transform="translate(1020.099792 0)"/>
     <use xlink:href="#AppleGothic-20" transform="translate(1078.39978 0)"/>
     <use xlink:href="#AppleGothic-41" transform="translate(1110.399765 0)"/>
     <use xlink:href="#AppleGothic-50" transform="translate(1182.999756 0)"/>
     <use xlink:href="#AppleGothic-49" transform="translate(1243.299744 0)"/>
     <use xlink:href="#AppleGothic-20" transform="translate(1264.799728 0)"/>
     <use xlink:href="#AppleGothic-6b" transform="translate(1296.799713 0)"/>
     <use xlink:href="#AppleGothic-65" transform="translate(1348.199707 0)"/>
     <use xlink:href="#AppleGothic-79" transform="translate(1403.099701 0)"/>
     <use xlink:href="#AppleGothic-20" transform="translate(1458.799698 0)"/>
     <use xlink:href="#AppleGothic-70" transform="translate(1490.799683 0)"/>
     <use xlink:href="#AppleGothic-72" transform="translate(1546.199677 0)"/>
     <use xlink:href="#AppleGothic-65" transform="translate(1581.399673 0)"/>
     <use xlink:href="#AppleGothic-66" transform="translate(1636.299667 0)"/>
     <use xlink:href="#AppleGothic-69" transform="translate(1670.299652 0)"/>
     <use xlink:href="#AppleGothic-78" transform="translate(1686.199646 0)"/>
     <use xlink:href="#AppleGothic-65" transform="translate(1740.59964 0)"/>
     <use xlink:href="#AppleGothic-73" transform="translate(1795.499634 0)"/>
     <use xlink:href="#AppleGothic-20" transform="translate(1845.099625 0)"/>
     <use xlink:href="#AppleGothic-6f" transform="translate(1877.099609 0)"/>
     <use xlink:href="#AppleGothic-72" transform="translate(1935.399597 0)"/>
     <use xlink:href="#AppleGothic-20" transform="translate(1970.599594 0)"/>
     <use xlink:href="#AppleGothic-73" transform="translate(2002.599579 0)"/>
     <use xlink:href="#AppleGothic-65" transform="translate(2052.19957 0)"/>
     <use xlink:href="#AppleGothic-63" transform="translate(2107.099564 0)"/>
     <use xlink:href="#AppleGothic-72" transform="translate(2158.999557 0)"/>
     <use xlink:href="#AppleGothic-65" transform="translate(2194.199554 0)"/>
     <use xlink:href="#AppleGothic-74" transform="translate(2249.099548 0)"/>
     <use xlink:href="#AppleGothic-73" transform="translate(2283.299545 0)"/>
     <use xlink:href="#AppleGothic-20" transform="translate(2332.899536 0)"/>
     <use xlink:href="#AppleGothic-61" transform="translate(2364.899521 0)"/>
     <use xlink:href="#AppleGothic-72" transform="translate(2421.399506 0)"/>
     <use xlink:href="#AppleGothic-65" transform="translate(2456.599503 0)"/>
     <use xlink:href="#AppleGothic-20" transform="translate(2511.499496 0)"/>
     <use xlink:href="#AppleGothic-64" transform="translate(2543.499481 0)"/>
     <use xlink:href="#AppleGothic-69" transform="translate(2597.499466 0)"/>
     <use xlink:href="#AppleGothic-73" transform="translate(2613.39946 0)"/>
     <use xlink:href="#AppleGothic-70" transform="translate(2662.999451 0)"/>
     <use xlink:href="#AppleGothic-6c" transform="translate(2718.399445 0)"/>
     <use xlink:href="#AppleGothic-61" transform="translate(2735.099442 0)"/>
     <use xlink:href="#AppleGothic-79" transform="translate(2791.599426 0)"/>
     <use xlink:href="#AppleGothic-65" transform="translate(2847.299423 0)"/>
     <use xlink:href="#AppleGothic-64" transform="translate(2902.199417 0)"/>
     <use xlink:href="#AppleGothic-2e" transform="translate(2956.199402 0)"/>
    </g>
   </g>
   <g id="text_3">
    <!-- 0 -->
    <g style="fill: #17202a" transform="translate(108.8 119.393673) scale(0.13 -0.13)">
     <defs>
      <path id="AppleGothic-30" d="M 2227 -83
Q 1414 -83 934 576
Q 461 1229 461 2387
Q 461 3552 973 4218
Q 1453 4858 2221 4858
Q 3027 4858 3482 4173
Q 3955 3494 3955 2394
Q 3955 1248 3462 582
Q 2976 -83 2227 -83
z
M 2176 346
Q 2861 346 3200 992
Q 3462 1536 3462 2400
Q 3462 3315 3162 3859
Q 2822 4429 2214 4429
Q 1574 4429 1248 3821
Q 960 3283 960 2374
Q 960 1478 1248 941
Q 1574 346 2176 346
z
" transform="scale(0.015625)"/>
     </defs>
     <use xlink:href="#AppleGothic-30"/>
    </g>
    <!-- configured keys -->
    <g style="fill: #17202a" transform="translate(66.716562 134.063767) scale(0.13 -0.13)">
     <defs>
      <path id="AppleGothic-67" d="M 2822 3040
L 2950 3424
L 3290 3424
L 3290 326
Q 3290 -474 2899 -890
Q 2509 -1306 1690 -1306
Q 1357 -1306 1059 -1187
Q 762 -1069 435 -819
L 435 -256
Q 640 -448 838 -579
Q 1037 -710 1229 -781
Q 1453 -864 1690 -864
Q 2195 -864 2477 -634
Q 2822 -352 2822 269
L 2822 691
Q 2579 288 2221 122
Q 1978 6 1683 6
Q 1050 6 621 512
Q 198 1030 198 1709
Q 198 2387 595 2906
Q 1056 3501 1773 3501
Q 2131 3501 2451 3328
Q 2547 3270 2640 3200
Q 2733 3130 2822 3040
z
M 2822 1658
L 2822 2598
Q 2714 2720 2602 2803
Q 2490 2886 2381 2950
Q 2253 3021 2118 3053
Q 1984 3085 1843 3085
Q 1363 3085 1050 2746
Q 698 2362 698 1734
Q 698 1165 992 794
Q 1280 429 1741 429
Q 2195 429 2509 781
Q 2822 1120 2822 1658
z
" transform="scale(0.015625)"/>
     </defs>
     <use xlink:href="#AppleGothic-63"/>
     <use xlink:href="#AppleGothic-6f" transform="translate(51.899994 0)"/>
     <use xlink:href="#AppleGothic-6e" transform="translate(110.199982 0)"/>
     <use xlink:href="#AppleGothic-66" transform="translate(166.099976 0)"/>
     <use xlink:href="#AppleGothic-69" transform="translate(200.09996 0)"/>
     <use xlink:href="#AppleGothic-67" transform="translate(215.999954 0)"/>
     <use xlink:href="#AppleGothic-75" transform="translate(272.199951 0)"/>
     <use xlink:href="#AppleGothic-72" transform="translate(327.699936 0)"/>
     <use xlink:href="#AppleGothic-65" transform="translate(362.899933 0)"/>
     <use xlink:href="#AppleGothic-64" transform="translate(417.799927 0)"/>
     <use xlink:href="#AppleGothic-20" transform="translate(471.799911 0)"/>
     <use xlink:href="#AppleGothic-6b" transform="translate(503.799896 0)"/>
     <use xlink:href="#AppleGothic-65" transform="translate(555.19989 0)"/>
     <use xlink:href="#AppleGothic-79" transform="translate(610.099884 0)"/>
     <use xlink:href="#AppleGothic-73" transform="translate(665.799881 0)"/>
    </g>
   </g>
   <g id="text_4">
    <!-- 0 -->
    <g style="fill: #17202a" transform="translate(281.78 119.677642) scale(0.13 -0.13)">
     <use xlink:href="#AppleGothic-30"/>
    </g>
    <!-- active keys -->
    <g style="fill: #17202a" transform="translate(252.969766 134.145423) scale(0.13 -0.13)">
     <defs>
      <path id="AppleGothic-76" d="M 109 3424
L 627 3424
L 1715 486
L 2829 3424
L 3290 3424
L 1920 0
L 1478 0
L 109 3424
z
" transform="scale(0.015625)"/>
     </defs>
     <use xlink:href="#AppleGothic-61"/>
     <use xlink:href="#AppleGothic-63" transform="translate(56.499985 0)"/>
     <use xlink:href="#AppleGothic-74" transform="translate(108.399979 0)"/>
     <use xlink:href="#AppleGothic-69" transform="translate(142.599976 0)"/>
     <use xlink:href="#AppleGothic-76" transform="translate(158.499969 0)"/>
     <use xlink:href="#AppleGothic-65" transform="translate(212.699966 0)"/>
     <use xlink:href="#AppleGothic-20" transform="translate(267.59996 0)"/>
     <use xlink:href="#AppleGothic-6b" transform="translate(299.599945 0)"/>
     <use xlink:href="#AppleGothic-65" transform="translate(350.999939 0)"/>
     <use xlink:href="#AppleGothic-79" transform="translate(405.899933 0)"/>
     <use xlink:href="#AppleGothic-73" transform="translate(461.59993 0)"/>
    </g>
   </g>
   <g id="text_5">
    <!-- 0 -->
    <g style="fill: #17202a" transform="translate(449.18 119.703032) scale(0.13 -0.13)">
     <use xlink:href="#AppleGothic-30"/>
    </g>
    <!-- measured RPM -->
    <g style="fill: #17202a" transform="translate(408.275703 134.170814) scale(0.13 -0.13)">
     <defs>
      <path id="AppleGothic-6d" d="M 5389 2195
L 5389 0
L 4922 0
L 4922 2304
Q 4922 2669 4672 2893
Q 4461 3085 4173 3085
Q 3744 3085 3405 2688
Q 3072 2298 3072 1722
L 3072 0
L 2605 0
L 2605 2304
Q 2605 2650 2368 2861
Q 2144 3085 1856 3085
Q 1440 3085 1114 2714
Q 755 2304 755 1702
L 755 0
L 288 0
L 288 3424
L 723 3424
L 742 2880
Q 928 3181 1274 3354
Q 1581 3501 1894 3501
Q 2381 3501 2714 3219
Q 2957 3008 3021 2797
Q 3149 3034 3386 3226
Q 3757 3501 4205 3501
Q 4749 3501 5050 3174
Q 5389 2803 5389 2195
z
" transform="scale(0.015625)"/>
      <path id="AppleGothic-52" d="M 314 5018
L 1971 5018
Q 2637 5018 3072 4800
Q 3680 4493 3680 3776
Q 3680 3283 3405 2969
Q 3130 2656 2522 2470
Q 2630 2426 2713 2384
Q 2797 2342 2848 2291
Q 3072 2099 3200 1728
L 3840 0
L 3270 0
L 2938 1050
Q 2675 1837 2387 2080
Q 2138 2310 1562 2310
L 819 2310
L 819 0
L 314 0
L 314 5018
z
M 2067 4576
L 819 4576
L 819 2707
L 1587 2707
Q 2048 2707 2365 2793
Q 2682 2880 2880 3072
Q 3014 3194 3100 3373
Q 3187 3552 3187 3738
Q 3187 4090 2899 4320
Q 2586 4576 2067 4576
z
" transform="scale(0.015625)"/>
     </defs>
     <use xlink:href="#AppleGothic-6d"/>
     <use xlink:href="#AppleGothic-65" transform="translate(89.299988 0)"/>
     <use xlink:href="#AppleGothic-61" transform="translate(144.199982 0)"/>
     <use xlink:href="#AppleGothic-73" transform="translate(200.699966 0)"/>
     <use xlink:href="#AppleGothic-75" transform="translate(250.299957 0)"/>
     <use xlink:href="#AppleGothic-72" transform="translate(305.799942 0)"/>
     <use xlink:href="#AppleGothic-65" transform="translate(340.999939 0)"/>
     <use xlink:href="#AppleGothic-64" transform="translate(395.899933 0)"/>
     <use xlink:href="#AppleGothic-20" transform="translate(449.899918 0)"/>
     <use xlink:href="#AppleGothic-52" transform="translate(481.899902 0)"/>
     <use xlink:href="#AppleGothic-50" transform="translate(545.899887 0)"/>
     <use xlink:href="#AppleGothic-4d" transform="translate(606.199875 0)"/>
    </g>
   </g>
   <g id="text_6">
    <!-- Status: unknown -->
    <g style="fill: #17202a" transform="translate(246.61875 219.897496) scale(0.1 -0.1)">
     <defs>
      <path id="AppleGothic-53" d="M 3418 4666
L 3418 4019
Q 3251 4160 3081 4269
Q 2912 4378 2746 4448
Q 2362 4627 1965 4627
Q 1466 4627 1139 4378
Q 806 4122 806 3770
Q 806 3258 1562 3002
Q 1914 2880 2262 2768
Q 2611 2656 2970 2541
Q 3731 2176 3731 1453
Q 3731 749 3187 320
Q 2669 -83 1901 -83
Q 1389 -83 915 115
Q 640 224 262 474
L 262 1126
Q 755 685 1261 506
Q 1427 442 1587 416
Q 1747 390 1907 390
Q 2419 390 2771 646
Q 3162 928 3162 1382
Q 3162 1933 2419 2221
Q 2061 2330 1715 2445
Q 1370 2560 1024 2669
Q 275 3014 275 3731
Q 275 4333 749 4710
Q 1235 5101 1965 5101
Q 2413 5101 2861 4934
Q 3091 4858 3418 4666
z
" transform="scale(0.015625)"/>
      <path id="AppleGothic-3a" d="M 1587 2554
Q 1434 2554 1357 2682
Q 1280 2810 1280 2995
Q 1280 3187 1360 3318
Q 1440 3450 1587 3450
Q 1722 3450 1805 3331
Q 1888 3213 1888 3008
Q 1888 2816 1811 2685
Q 1734 2554 1587 2554
z
M 1587 -19
Q 1434 -19 1357 109
Q 1280 237 1280 422
Q 1280 614 1360 745
Q 1440 877 1587 877
Q 1722 877 1805 758
Q 1888 640 1888 435
Q 1888 243 1811 112
Q 1734 -19 1587 -19
z
" transform="scale(0.015625)"/>
      <path id="AppleGothic-77" d="M 2438 3424
L 2874 3424
L 3405 1811
Q 3501 1498 3600 1162
Q 3699 826 3770 538
Q 3789 602 3805 646
Q 3821 691 3834 736
Q 3904 979 3977 1228
Q 4051 1478 4122 1747
L 4646 3424
L 5126 3424
L 3981 0
L 3552 0
L 2944 1894
Q 2842 2202 2781 2378
Q 2720 2554 2707 2618
Q 2682 2726 2669 2803
Q 2656 2880 2656 2944
Q 2598 2771 2556 2636
Q 2515 2502 2490 2406
Q 2406 2118 2361 1945
Q 2317 1773 2304 1715
L 1760 0
L 1325 0
L 186 3424
L 685 3424
L 1594 538
Q 1626 723 1664 886
Q 1702 1050 1747 1203
Q 1779 1312 1811 1427
Q 1843 1542 1888 1664
L 2438 3424
z
" transform="scale(0.015625)"/>
     </defs>
     <use xlink:href="#AppleGothic-53"/>
     <use xlink:href="#AppleGothic-74" transform="translate(63.199997 0)"/>
     <use xlink:href="#AppleGothic-61" transform="translate(97.399994 0)"/>
     <use xlink:href="#AppleGothic-74" transform="translate(153.899979 0)"/>
     <use xlink:href="#AppleGothic-75" transform="translate(188.099976 0)"/>
     <use xlink:href="#AppleGothic-73" transform="translate(243.59996 0)"/>
     <use xlink:href="#AppleGothic-3a" transform="translate(293.199951 0)"/>
     <use xlink:href="#AppleGothic-20" transform="translate(343.199936 0)"/>
     <use xlink:href="#AppleGothic-75" transform="translate(375.199921 0)"/>
     <use xlink:href="#AppleGothic-6e" transform="translate(430.699905 0)"/>
     <use xlink:href="#AppleGothic-6b" transform="translate(486.599899 0)"/>
     <use xlink:href="#AppleGothic-6e" transform="translate(537.999893 0)"/>
     <use xlink:href="#AppleGothic-6f" transform="translate(593.899887 0)"/>
     <use xlink:href="#AppleGothic-77" transform="translate(652.199875 0)"/>
     <use xlink:href="#AppleGothic-6e" transform="translate(735.69986 0)"/>
    </g>
    <!-- Next action: refresh GEMINI_API_KEYS, rerun probe, then policy layer can set measured sample budgets. -->
    <g style="fill: #17202a" transform="translate(45.546875 231.182184) scale(0.1 -0.1)">
     <defs>
      <path id="AppleGothic-68" d="M 288 5018
L 749 5018
L 749 2810
Q 909 3066 1139 3238
Q 1491 3501 1926 3501
Q 2195 3501 2409 3424
Q 2624 3347 2803 3200
Q 3181 2867 3181 2266
L 3181 0
L 2714 0
L 2714 2202
Q 2714 2573 2477 2829
Q 2240 3085 1901 3085
Q 1408 3085 1082 2694
Q 749 2291 749 1773
L 749 0
L 288 0
L 288 5018
z
" transform="scale(0.015625)"/>
      <path id="AppleGothic-45" d="M 282 5024
L 3405 5024
L 3405 4582
L 787 4582
L 787 2848
L 3309 2848
L 3309 2406
L 787 2406
L 787 442
L 3424 442
L 3424 0
L 282 0
L 282 5024
z
" transform="scale(0.015625)"/>
      <path id="AppleGothic-5f" d="M 0 -659
L 3200 -659
L 3200 -832
L 0 -832
L 0 -659
z
" transform="scale(0.015625)"/>
      <path id="AppleGothic-4b" d="M 269 5018
L 774 5018
L 774 2509
L 3226 5018
L 3898 5018
L 1933 3040
L 4045 0
L 3386 0
L 1530 2656
L 774 1901
L 774 0
L 269 0
L 269 5018
z
" transform="scale(0.015625)"/>
      <path id="AppleGothic-59" d="M 115 5018
L 717 5018
L 2253 2707
L 3763 5018
L 4390 5018
L 2496 2266
L 2496 0
L 1997 0
L 1997 2266
L 115 5018
z
" transform="scale(0.015625)"/>
      <path id="AppleGothic-2c" d="M 806 -941
L 550 -941
Q 666 -698 723 -502
Q 781 -307 806 -64
Q 666 0 602 77
Q 525 160 525 346
Q 525 576 630 720
Q 736 864 883 864
Q 1030 864 1113 701
Q 1197 538 1197 326
Q 1197 141 1161 -48
Q 1126 -237 1056 -429
Q 1011 -538 950 -662
Q 890 -787 806 -941
z
" transform="scale(0.015625)"/>
     </defs>
     <use xlink:href="#AppleGothic-4e"/>
     <use xlink:href="#AppleGothic-65" transform="translate(72.599991 0)"/>
     <use xlink:href="#AppleGothic-78" transform="translate(127.499985 0)"/>
     <use xlink:href="#AppleGothic-74" transform="translate(181.899979 0)"/>
     <use xlink:href="#AppleGothic-20" transform="translate(216.099976 0)"/>
     <use xlink:href="#AppleGothic-61" transform="translate(248.09996 0)"/>
     <use xlink:href="#AppleGothic-63" transform="translate(304.599945 0)"/>
     <use xlink:href="#AppleGothic-74" transform="translate(356.499939 0)"/>
     <use xlink:href="#AppleGothic-69" transform="translate(390.699936 0)"/>
     <use xlink:href="#AppleGothic-6f" transform="translate(406.59993 0)"/>
     <use xlink:href="#AppleGothic-6e" transform="translate(464.899918 0)"/>
     <use xlink:href="#AppleGothic-3a" transform="translate(520.799911 0)"/>
     <use xlink:href="#AppleGothic-20" transform="translate(570.799896 0)"/>
     <use xlink:href="#AppleGothic-72" transform="translate(602.799881 0)"/>
     <use xlink:href="#AppleGothic-65" transform="translate(637.999878 0)"/>
     <use xlink:href="#AppleGothic-66" transform="translate(692.899872 0)"/>
     <use xlink:href="#AppleGothic-72" transform="translate(726.899857 0)"/>
     <use xlink:href="#AppleGothic-65" transform="translate(762.099854 0)"/>
     <use xlink:href="#AppleGothic-73" transform="translate(816.999847 0)"/>
     <use xlink:href="#AppleGothic-68" transform="translate(866.599838 0)"/>
     <use xlink:href="#AppleGothic-20" transform="translate(918.799835 0)"/>
     <use xlink:href="#AppleGothic-47" transform="translate(950.79982 0)"/>
     <use xlink:href="#AppleGothic-45" transform="translate(1025.199814 0)"/>
     <use xlink:href="#AppleGothic-4d" transform="translate(1083.099808 0)"/>
     <use xlink:href="#AppleGothic-49" transform="translate(1174.199799 0)"/>
     <use xlink:href="#AppleGothic-4e" transform="translate(1195.699783 0)"/>
     <use xlink:href="#AppleGothic-49" transform="translate(1268.299774 0)"/>
     <use xlink:href="#AppleGothic-5f" transform="translate(1289.799759 0)"/>
     <use xlink:href="#AppleGothic-41" transform="translate(1339.799744 0)"/>
     <use xlink:href="#AppleGothic-50" transform="translate(1412.399734 0)"/>
     <use xlink:href="#AppleGothic-49" transform="translate(1472.699722 0)"/>
     <use xlink:href="#AppleGothic-5f" transform="translate(1494.199707 0)"/>
     <use xlink:href="#AppleGothic-4b" transform="translate(1544.199692 0)"/>
     <use xlink:href="#AppleGothic-45" transform="translate(1608.49968 0)"/>
     <use xlink:href="#AppleGothic-59" transform="translate(1666.399673 0)"/>
     <use xlink:href="#AppleGothic-53" transform="translate(1735.899658 0)"/>
     <use xlink:href="#AppleGothic-2c" transform="translate(1799.099655 0)"/>
     <use xlink:href="#AppleGothic-20" transform="translate(1827.399643 0)"/>
     <use xlink:href="#AppleGothic-72" transform="translate(1859.399628 0)"/>
     <use xlink:href="#AppleGothic-65" transform="translate(1894.599625 0)"/>
     <use xlink:href="#AppleGothic-72" transform="translate(1949.499619 0)"/>
     <use xlink:href="#AppleGothic-75" transform="translate(1984.699615 0)"/>
     <use xlink:href="#AppleGothic-6e" transform="translate(2040.1996 0)"/>
     <use xlink:href="#AppleGothic-20" transform="translate(2096.099594 0)"/>
     <use xlink:href="#AppleGothic-70" transform="translate(2128.099579 0)"/>
     <use xlink:href="#AppleGothic-72" transform="translate(2183.499573 0)"/>
     <use xlink:href="#AppleGothic-6f" transform="translate(2218.69957 0)"/>
     <use xlink:href="#AppleGothic-62" transform="translate(2276.999557 0)"/>
     <use xlink:href="#AppleGothic-65" transform="translate(2333.199554 0)"/>
     <use xlink:href="#AppleGothic-2c" transform="translate(2388.099548 0)"/>
     <use xlink:href="#AppleGothic-20" transform="translate(2416.399536 0)"/>
     <use xlink:href="#AppleGothic-74" transform="translate(2448.399521 0)"/>
     <use xlink:href="#AppleGothic-68" transform="translate(2482.599518 0)"/>
     <use xlink:href="#AppleGothic-65" transform="translate(2534.799515 0)"/>
     <use xlink:href="#AppleGothic-6e" transform="translate(2589.699509 0)"/>
     <use xlink:href="#AppleGothic-20" transform="translate(2645.599503 0)"/>
     <use xlink:href="#AppleGothic-70" transform="translate(2677.599487 0)"/>
     <use xlink:href="#AppleGothic-6f" transform="translate(2732.999481 0)"/>
     <use xlink:href="#AppleGothic-6c" transform="translate(2791.299469 0)"/>
     <use xlink:href="#AppleGothic-69" transform="translate(2807.999466 0)"/>
     <use xlink:href="#AppleGothic-63" transform="translate(2823.89946 0)"/>
     <use xlink:href="#AppleGothic-79" transform="translate(2875.799454 0)"/>
     <use xlink:href="#AppleGothic-20" transform="translate(2931.499451 0)"/>
     <use xlink:href="#AppleGothic-6c" transform="translate(2963.499435 0)"/>
     <use xlink:href="#AppleGothic-61" transform="translate(2980.199432 0)"/>
     <use xlink:href="#AppleGothic-79" transform="translate(3036.699417 0)"/>
     <use xlink:href="#AppleGothic-65" transform="translate(3092.399414 0)"/>
     <use xlink:href="#AppleGothic-72" transform="translate(3147.299408 0)"/>
     <use xlink:href="#AppleGothic-20" transform="translate(3182.499405 0)"/>
     <use xlink:href="#AppleGothic-63" transform="translate(3214.49939 0)"/>
     <use xlink:href="#AppleGothic-61" transform="translate(3266.399384 0)"/>
     <use xlink:href="#AppleGothic-6e" transform="translate(3322.899368 0)"/>
     <use xlink:href="#AppleGothic-20" transform="translate(3378.799362 0)"/>
     <use xlink:href="#AppleGothic-73" transform="translate(3410.799347 0)"/>
     <use xlink:href="#AppleGothic-65" transform="translate(3460.399338 0)"/>
     <use xlink:href="#AppleGothic-74" transform="translate(3515.299332 0)"/>
     <use xlink:href="#AppleGothic-20" transform="translate(3549.499329 0)"/>
     <use xlink:href="#AppleGothic-6d" transform="translate(3581.499313 0)"/>
     <use xlink:href="#AppleGothic-65" transform="translate(3670.799301 0)"/>
     <use xlink:href="#AppleGothic-61" transform="translate(3725.699295 0)"/>
     <use xlink:href="#AppleGothic-73" transform="translate(3782.19928 0)"/>
     <use xlink:href="#AppleGothic-75" transform="translate(3831.799271 0)"/>
     <use xlink:href="#AppleGothic-72" transform="translate(3887.299255 0)"/>
     <use xlink:href="#AppleGothic-65" transform="translate(3922.499252 0)"/>
     <use xlink:href="#AppleGothic-64" transform="translate(3977.399246 0)"/>
     <use xlink:href="#AppleGothic-20" transform="translate(4031.399231 0)"/>
     <use xlink:href="#AppleGothic-73" transform="translate(4063.399216 0)"/>
     <use xlink:href="#AppleGothic-61" transform="translate(4112.999207 0)"/>
     <use xlink:href="#AppleGothic-6d" transform="translate(4169.499191 0)"/>
     <use xlink:href="#AppleGothic-70" transform="translate(4258.799179 0)"/>
     <use xlink:href="#AppleGothic-6c" transform="translate(4314.199173 0)"/>
     <use xlink:href="#AppleGothic-65" transform="translate(4330.89917 0)"/>
     <use xlink:href="#AppleGothic-20" transform="translate(4385.799164 0)"/>
     <use xlink:href="#AppleGothic-62" transform="translate(4417.799149 0)"/>
     <use xlink:href="#AppleGothic-75" transform="translate(4473.999146 0)"/>
     <use xlink:href="#AppleGothic-64" transform="translate(4529.49913 0)"/>
     <use xlink:href="#AppleGothic-67" transform="translate(4583.499115 0)"/>
     <use xlink:href="#AppleGothic-65" transform="translate(4639.699112 0)"/>
     <use xlink:href="#AppleGothic-74" transform="translate(4694.599106 0)"/>
     <use xlink:href="#AppleGothic-73" transform="translate(4728.799103 0)"/>
     <use xlink:href="#AppleGothic-2e" transform="translate(4778.399094 0)"/>
    </g>
   </g>
   <g id="text_7">
    <!-- Source: _workspace/checkpoints/capacity_probe.json and _workspace/checkpoints/policy.json -->
    <g style="fill: #5d6d7e" transform="translate(35.1 303.02784) scale(0.09 -0.09)">
     <defs>
      <path id="AppleGothic-2f" d="M 1965 5018
L 2368 5018
L 493 -672
L 90 -672
L 1965 5018
z
" transform="scale(0.015625)"/>
      <path id="AppleGothic-6a" d="M 954 3424
L 1414 3424
L 1414 -256
Q 1414 -749 1133 -979
Q 896 -1184 525 -1184
Q 352 -1184 237 -1152
Q 122 -1120 6 -1062
L 6 -640
Q 122 -698 234 -733
Q 346 -768 454 -768
Q 698 -768 826 -624
Q 954 -480 954 -230
L 954 3424
z
M 1152 4870
Q 1286 4870 1376 4780
Q 1466 4691 1466 4525
Q 1466 4358 1382 4268
Q 1299 4179 1152 4179
Q 1005 4179 925 4281
Q 845 4384 845 4518
Q 845 4730 941 4800
Q 1037 4870 1152 4870
z
" transform="scale(0.015625)"/>
     </defs>
     <use xlink:href="#AppleGothic-53"/>
     <use xlink:href="#AppleGothic-6f" transform="translate(63.199997 0)"/>
     <use xlink:href="#AppleGothic-75" transform="translate(121.499985 0)"/>
     <use xlink:href="#AppleGothic-72" transform="translate(176.999969 0)"/>
     <use xlink:href="#AppleGothic-63" transform="translate(212.199966 0)"/>
     <use xlink:href="#AppleGothic-65" transform="translate(264.09996 0)"/>
     <use xlink:href="#AppleGothic-3a" transform="translate(318.999954 0)"/>
     <use xlink:href="#AppleGothic-20" transform="translate(368.999939 0)"/>
     <use xlink:href="#AppleGothic-5f" transform="translate(400.999924 0)"/>
     <use xlink:href="#AppleGothic-77" transform="translate(450.999908 0)"/>
     <use xlink:href="#AppleGothic-6f" transform="translate(534.499893 0)"/>
     <use xlink:href="#AppleGothic-72" transform="translate(592.799881 0)"/>
     <use xlink:href="#AppleGothic-6b" transform="translate(627.999878 0)"/>
     <use xlink:href="#AppleGothic-73" transform="translate(679.399872 0)"/>
     <use xlink:href="#AppleGothic-70" transform="translate(728.999863 0)"/>
     <use xlink:href="#AppleGothic-61" transform="translate(784.399857 0)"/>
     <use xlink:href="#AppleGothic-63" transform="translate(840.899841 0)"/>
     <use xlink:href="#AppleGothic-65" transform="translate(892.799835 0)"/>
     <use xlink:href="#AppleGothic-2f" transform="translate(947.699829 0)"/>
     <use xlink:href="#AppleGothic-63" transform="translate(997.699814 0)"/>
     <use xlink:href="#AppleGothic-68" transform="translate(1049.599808 0)"/>
     <use xlink:href="#AppleGothic-65" transform="translate(1101.799805 0)"/>
     <use xlink:href="#AppleGothic-63" transform="translate(1156.699799 0)"/>
     <use xlink:href="#AppleGothic-6b" transform="translate(1208.599792 0)"/>
     <use xlink:href="#AppleGothic-70" transform="translate(1259.999786 0)"/>
     <use xlink:href="#AppleGothic-6f" transform="translate(1315.39978 0)"/>
     <use xlink:href="#AppleGothic-69" transform="translate(1373.699768 0)"/>
     <use xlink:href="#AppleGothic-6e" transform="translate(1389.599762 0)"/>
     <use xlink:href="#AppleGothic-74" transform="translate(1445.499756 0)"/>
     <use xlink:href="#AppleGothic-73" transform="translate(1479.699753 0)"/>
     <use xlink:href="#AppleGothic-2f" transform="translate(1529.299744 0)"/>
     <use xlink:href="#AppleGothic-63" transform="translate(1579.299728 0)"/>
     <use xlink:href="#AppleGothic-61" transform="translate(1631.199722 0)"/>
     <use xlink:href="#AppleGothic-70" transform="translate(1687.699707 0)"/>
     <use xlink:href="#AppleGothic-61" transform="translate(1743.099701 0)"/>
     <use xlink:href="#AppleGothic-63" transform="translate(1799.599686 0)"/>
     <use xlink:href="#AppleGothic-69" transform="translate(1851.49968 0)"/>
     <use xlink:href="#AppleGothic-74" transform="translate(1867.399673 0)"/>
     <use xlink:href="#AppleGothic-79" transform="translate(1901.59967 0)"/>
     <use xlink:href="#AppleGothic-5f" transform="translate(1957.299667 0)"/>
     <use xlink:href="#AppleGothic-70" transform="translate(2007.299652 0)"/>
     <use xlink:href="#AppleGothic-72" transform="translate(2062.699646 0)"/>
     <use xlink:href="#AppleGothic-6f" transform="translate(2097.899643 0)"/>
     <use xlink:href="#AppleGothic-62" transform="translate(2156.199631 0)"/>
     <use xlink:href="#AppleGothic-65" transform="translate(2212.399628 0)"/>
     <use xlink:href="#AppleGothic-2e" transform="translate(2267.299622 0)"/>
     <use xlink:href="#AppleGothic-6a" transform="translate(2301.799606 0)"/>
     <use xlink:href="#AppleGothic-73" transform="translate(2329.399597 0)"/>
     <use xlink:href="#AppleGothic-6f" transform="translate(2378.999588 0)"/>
     <use xlink:href="#AppleGothic-6e" transform="translate(2437.299576 0)"/>
     <use xlink:href="#AppleGothic-20" transform="translate(2493.19957 0)"/>
     <use xlink:href="#AppleGothic-61" transform="translate(2525.199554 0)"/>
     <use xlink:href="#AppleGothic-6e" transform="translate(2581.699539 0)"/>
     <use xlink:href="#AppleGothic-64" transform="translate(2637.599533 0)"/>
     <use xlink:href="#AppleGothic-20" transform="translate(2691.599518 0)"/>
     <use xlink:href="#AppleGothic-5f" transform="translate(2723.599503 0)"/>
     <use xlink:href="#AppleGothic-77" transform="translate(2773.599487 0)"/>
     <use xlink:href="#AppleGothic-6f" transform="translate(2857.099472 0)"/>
     <use xlink:href="#AppleGothic-72" transform="translate(2915.39946 0)"/>
     <use xlink:href="#AppleGothic-6b" transform="translate(2950.599457 0)"/>
     <use xlink:href="#AppleGothic-73" transform="translate(3001.999451 0)"/>
     <use xlink:href="#AppleGothic-70" transform="translate(3051.599442 0)"/>
     <use xlink:href="#AppleGothic-61" transform="translate(3106.999435 0)"/>
     <use xlink:href="#AppleGothic-63" transform="translate(3163.49942 0)"/>
     <use xlink:href="#AppleGothic-65" transform="translate(3215.399414 0)"/>
     <use xlink:href="#AppleGothic-2f" transform="translate(3270.299408 0)"/>
     <use xlink:href="#AppleGothic-63" transform="translate(3320.299393 0)"/>
     <use xlink:href="#AppleGothic-68" transform="translate(3372.199387 0)"/>
     <use xlink:href="#AppleGothic-65" transform="translate(3424.399384 0)"/>
     <use xlink:href="#AppleGothic-63" transform="translate(3479.299377 0)"/>
     <use xlink:href="#AppleGothic-6b" transform="translate(3531.199371 0)"/>
     <use xlink:href="#AppleGothic-70" transform="translate(3582.599365 0)"/>
     <use xlink:href="#AppleGothic-6f" transform="translate(3637.999359 0)"/>
     <use xlink:href="#AppleGothic-69" transform="translate(3696.299347 0)"/>
     <use xlink:href="#AppleGothic-6e" transform="translate(3712.199341 0)"/>
     <use xlink:href="#AppleGothic-74" transform="translate(3768.099335 0)"/>
     <use xlink:href="#AppleGothic-73" transform="translate(3802.299332 0)"/>
     <use xlink:href="#AppleGothic-2f" transform="translate(3851.899323 0)"/>
     <use xlink:href="#AppleGothic-70" transform="translate(3901.899307 0)"/>
     <use xlink:href="#AppleGothic-6f" transform="translate(3957.299301 0)"/>
     <use xlink:href="#AppleGothic-6c" transform="translate(4015.599289 0)"/>
     <use xlink:href="#AppleGothic-69" transform="translate(4032.299286 0)"/>
     <use xlink:href="#AppleGothic-63" transform="translate(4048.19928 0)"/>
     <use xlink:href="#AppleGothic-79" transform="translate(4100.099274 0)"/>
     <use xlink:href="#AppleGothic-2e" transform="translate(4155.799271 0)"/>
     <use xlink:href="#AppleGothic-6a" transform="translate(4190.299255 0)"/>
     <use xlink:href="#AppleGothic-73" transform="translate(4217.899246 0)"/>
     <use xlink:href="#AppleGothic-6f" transform="translate(4267.499237 0)"/>
     <use xlink:href="#AppleGothic-6e" transform="translate(4325.799225 0)"/>
    </g>
   </g>
  </g>
 </g>
 <defs>
  <clipPath id="p2ce58f6fe9">
   <rect x="7.2" y="7.2" width="558" height="321.552"/>
  </clipPath>
 </defs>
</svg>
